<?xml version="1.0" encoding="utf-8" standalone="no"?>
<!DOCTYPE svg PUBLIC "-//W3C//DTD SVG 1.1//EN"
  "http://www.w3.org/Graphics/SVG/1.1/DTD/svg11.dtd">
<!-- Created with matplotlib (https://matplotlib.org/) -->
<svg height="1168.674375pt" version="1.1" viewBox="0 0 600.65625 1168.674375" width="600.65625pt" xmlns="http://www.w3.org/2000/svg" xmlns:xlink="http://www.w3.org/1999/xlink">
 <metadata>
  <rdf:RDF xmlns:cc="http://creativecommons.org/ns#" xmlns:dc="http://purl.org/dc/elements/1.1/" xmlns:rdf="http://www.w3.org/1999/02/22-rdf-syntax-ns#">
   <cc:Work>
    <dc:type rdf:resource="http://purl.org/dc/dcmitype/StillImage"/>
    <dc:date>2021-04-07T20:38:41.737558</dc:date>
    <dc:format>image/svg+xml</dc:format>
    <dc:creator>
     <cc:Agent>
      <dc:title>Matplotlib v3.3.4, https://matplotlib.org/</dc:title>
     </cc:Agent>
    </dc:creator>
   </cc:Work>
  </rdf:RDF>
 </metadata>
 <defs>
  <style type="text/css">*{stroke-linecap:butt;stroke-linejoin:round;}</style>
 </defs>
 <g id="figure_1">
  <g id="patch_1">
   <path d="M -0 1168.674375 
L 600.65625 1168.674375 
L 600.65625 0 
L -0 0 
z
" style="fill:#ffffff;"/>
  </g>
  <g id="axes_1">
   <g id="patch_2">
    <path d="M 91.25625 1131.118125 
L 593.45625 1131.118125 
L 593.45625 22.318125 
L 91.25625 22.318125 
z
" style="fill:#ffffff;"/>
   </g>
   <g id="patch_3">
    <path clip-path="url(#p8f844e3746)" d="M 91.25625 1080.718125 
L 468.736923 1080.718125 
L 468.736923 1074.394411 
L 91.25625 1074.394411 
z
" style="fill:#1f77b4;"/>
   </g>
   <g id="patch_4">
    <path clip-path="url(#p8f844e3746)" d="M 91.25625 1044.040584 
L 490.792511 1044.040584 
L 490.792511 1037.71687 
L 91.25625 1037.71687 
z
" style="fill:#1f77b4;"/>
   </g>
   <g id="patch_5">
    <path clip-path="url(#p8f844e3746)" d="M 91.25625 1007.363043 
L 438.882938 1007.363043 
L 438.882938 1001.03933 
L 91.25625 1001.03933 
z
" style="fill:#1f77b4;"/>
   </g>
   <g id="patch_6">
    <path clip-path="url(#p8f844e3746)" d="M 91.25625 970.685503 
L 489.452909 970.685503 
L 489.452909 964.361789 
L 91.25625 964.361789 
z
" style="fill:#1f77b4;"/>
   </g>
   <g id="patch_7">
    <path clip-path="url(#p8f844e3746)" d="M 91.25625 934.007962 
L 522.751584 934.007962 
L 522.751584 927.684248 
L 91.25625 927.684248 
z
" style="fill:#1f77b4;"/>
   </g>
   <g id="patch_8">
    <path clip-path="url(#p8f844e3746)" d="M 91.25625 897.330421 
L 477.922764 897.330421 
L 477.922764 891.006707 
L 91.25625 891.006707 
z
" style="fill:#1f77b4;"/>
   </g>
   <g id="patch_9">
    <path clip-path="url(#p8f844e3746)" d="M 91.25625 860.65288 
L 485.912533 860.65288 
L 485.912533 854.329166 
L 91.25625 854.329166 
z
" style="fill:#1f77b4;"/>
   </g>
   <g id="patch_10">
    <path clip-path="url(#p8f844e3746)" d="M 91.25625 823.97534 
L 413.621874 823.97534 
L 413.621874 817.651626 
L 91.25625 817.651626 
z
" style="fill:#1f77b4;"/>
   </g>
   <g id="patch_11">
    <path clip-path="url(#p8f844e3746)" d="M 91.25625 787.297799 
L 488.16115 787.297799 
L 488.16115 780.974085 
L 91.25625 780.974085 
z
" style="fill:#1f77b4;"/>
   </g>
   <g id="patch_12">
    <path clip-path="url(#p8f844e3746)" d="M 91.25625 750.620258 
L 537.487205 750.620258 
L 537.487205 744.296544 
L 91.25625 744.296544 
z
" style="fill:#1f77b4;"/>
   </g>
   <g id="patch_13">
    <path clip-path="url(#p8f844e3746)" d="M 91.25625 713.942717 
L 565.331787 713.942717 
L 565.331787 707.619003 
L 91.25625 707.619003 
z
" style="fill:#1f77b4;"/>
   </g>
   <g id="patch_14">
    <path clip-path="url(#p8f844e3746)" d="M 91.25625 677.265176 
L 439.983325 677.265176 
L 439.983325 670.941463 
L 91.25625 670.941463 
z
" style="fill:#1f77b4;"/>
   </g>
   <g id="patch_15">
    <path clip-path="url(#p8f844e3746)" d="M 91.25625 640.587636 
L 518.876307 640.587636 
L 518.876307 634.263922 
L 91.25625 634.263922 
z
" style="fill:#1f77b4;"/>
   </g>
   <g id="patch_16">
    <path clip-path="url(#p8f844e3746)" d="M 91.25625 603.910095 
L 558.777306 603.910095 
L 558.777306 597.586381 
L 91.25625 597.586381 
z
" style="fill:#1f77b4;"/>
   </g>
   <g id="patch_17">
    <path clip-path="url(#p8f844e3746)" d="M 91.25625 567.232554 
L 569.398436 567.232554 
L 569.398436 560.90884 
L 91.25625 560.90884 
z
" style="fill:#1f77b4;"/>
   </g>
   <g id="patch_18">
    <path clip-path="url(#p8f844e3746)" d="M 91.25625 530.555013 
L 531.602525 530.555013 
L 531.602525 524.231299 
L 91.25625 524.231299 
z
" style="fill:#1f77b4;"/>
   </g>
   <g id="patch_19">
    <path clip-path="url(#p8f844e3746)" d="M 91.25625 493.877473 
L 556.863589 493.877473 
L 556.863589 487.553759 
L 91.25625 487.553759 
z
" style="fill:#1f77b4;"/>
   </g>
   <g id="patch_20">
    <path clip-path="url(#p8f844e3746)" d="M 91.25625 457.199932 
L 565.044729 457.199932 
L 565.044729 450.876218 
L 91.25625 450.876218 
z
" style="fill:#1f77b4;"/>
   </g>
   <g id="patch_21">
    <path clip-path="url(#p8f844e3746)" d="M 91.25625 420.522391 
L 426.491621 420.522391 
L 426.491621 414.198677 
L 91.25625 414.198677 
z
" style="fill:#1f77b4;"/>
   </g>
   <g id="patch_22">
    <path clip-path="url(#p8f844e3746)" d="M 91.25625 383.84485 
L 496.725033 383.84485 
L 496.725033 377.521136 
L 91.25625 377.521136 
z
" style="fill:#1f77b4;"/>
   </g>
   <g id="patch_23">
    <path clip-path="url(#p8f844e3746)" d="M 91.25625 347.167309 
L 550.022051 347.167309 
L 550.022051 340.843596 
L 91.25625 340.843596 
z
" style="fill:#1f77b4;"/>
   </g>
   <g id="patch_24">
    <path clip-path="url(#p8f844e3746)" d="M 91.25625 310.489769 
L 426.491621 310.489769 
L 426.491621 304.166055 
L 91.25625 304.166055 
z
" style="fill:#1f77b4;"/>
   </g>
   <g id="patch_25">
    <path clip-path="url(#p8f844e3746)" d="M 91.25625 273.812228 
L 564.135714 273.812228 
L 564.135714 267.488514 
L 91.25625 267.488514 
z
" style="fill:#1f77b4;"/>
   </g>
   <g id="patch_26">
    <path clip-path="url(#p8f844e3746)" d="M 91.25625 237.134687 
L 525.430788 237.134687 
L 525.430788 230.810973 
L 91.25625 230.810973 
z
" style="fill:#1f77b4;"/>
   </g>
   <g id="patch_27">
    <path clip-path="url(#p8f844e3746)" d="M 91.25625 200.457146 
L 327.313239 200.457146 
L 327.313239 194.133432 
L 91.25625 194.133432 
z
" style="fill:#1f77b4;"/>
   </g>
   <g id="patch_28">
    <path clip-path="url(#p8f844e3746)" d="M 91.25625 163.779606 
L 473.712587 163.779606 
L 473.712587 157.455892 
L 91.25625 157.455892 
z
" style="fill:#1f77b4;"/>
   </g>
   <g id="patch_29">
    <path clip-path="url(#p8f844e3746)" d="M 91.25625 127.102065 
L 542.941298 127.102065 
L 542.941298 120.778351 
L 91.25625 120.778351 
z
" style="fill:#1f77b4;"/>
   </g>
   <g id="patch_30">
    <path clip-path="url(#p8f844e3746)" d="M 91.25625 90.424524 
L 556.911432 90.424524 
L 556.911432 84.10081 
L 91.25625 84.10081 
z
" style="fill:#1f77b4;"/>
   </g>
   <g id="patch_31">
    <path clip-path="url(#p8f844e3746)" d="M 91.25625 1069.33544 
L 475.291403 1069.33544 
L 475.291403 1063.011726 
L 91.25625 1063.011726 
z
" style="fill:#ff7f0e;"/>
   </g>
   <g id="patch_32">
    <path clip-path="url(#p8f844e3746)" d="M 91.25625 1032.657899 
L 496.677191 1032.657899 
L 496.677191 1026.334185 
L 91.25625 1026.334185 
z
" style="fill:#ff7f0e;"/>
   </g>
   <g id="patch_33">
    <path clip-path="url(#p8f844e3746)" d="M 91.25625 995.980358 
L 451.51347 995.980358 
L 451.51347 989.656644 
L 91.25625 989.656644 
z
" style="fill:#ff7f0e;"/>
   </g>
   <g id="patch_34">
    <path clip-path="url(#p8f844e3746)" d="M 91.25625 959.302818 
L 501.174425 959.302818 
L 501.174425 952.979104 
L 91.25625 952.979104 
z
" style="fill:#ff7f0e;"/>
   </g>
   <g id="patch_35">
    <path clip-path="url(#p8f844e3746)" d="M 91.25625 922.625277 
L 526.148432 922.625277 
L 526.148432 916.301563 
L 91.25625 916.301563 
z
" style="fill:#ff7f0e;"/>
   </g>
   <g id="patch_36">
    <path clip-path="url(#p8f844e3746)" d="M 91.25625 885.947736 
L 477.109435 885.947736 
L 477.109435 879.624022 
L 91.25625 879.624022 
z
" style="fill:#ff7f0e;"/>
   </g>
   <g id="patch_37">
    <path clip-path="url(#p8f844e3746)" d="M 91.25625 849.270195 
L 494.237201 849.270195 
L 494.237201 842.946481 
L 91.25625 842.946481 
z
" style="fill:#ff7f0e;"/>
   </g>
   <g id="patch_38">
    <path clip-path="url(#p8f844e3746)" d="M 91.25625 812.592654 
L 429.888468 812.592654 
L 429.888468 806.268941 
L 91.25625 806.268941 
z
" style="fill:#ff7f0e;"/>
   </g>
   <g id="patch_39">
    <path clip-path="url(#p8f844e3746)" d="M 91.25625 775.915114 
L 489.357223 775.915114 
L 489.357223 769.5914 
L 91.25625 769.5914 
z
" style="fill:#ff7f0e;"/>
   </g>
   <g id="patch_40">
    <path clip-path="url(#p8f844e3746)" d="M 91.25625 739.237573 
L 540.596995 739.237573 
L 540.596995 732.913859 
L 91.25625 732.913859 
z
" style="fill:#ff7f0e;"/>
   </g>
   <g id="patch_41">
    <path clip-path="url(#p8f844e3746)" d="M 91.25625 702.560032 
L 568.058834 702.560032 
L 568.058834 696.236318 
L 91.25625 696.236318 
z
" style="fill:#ff7f0e;"/>
   </g>
   <g id="patch_42">
    <path clip-path="url(#p8f844e3746)" d="M 91.25625 665.882491 
L 442.901744 665.882491 
L 442.901744 659.558777 
L 91.25625 659.558777 
z
" style="fill:#ff7f0e;"/>
   </g>
   <g id="patch_43">
    <path clip-path="url(#p8f844e3746)" d="M 91.25625 629.204951 
L 528.205678 629.204951 
L 528.205678 622.881237 
L 91.25625 622.881237 
z
" style="fill:#ff7f0e;"/>
   </g>
   <g id="patch_44">
    <path clip-path="url(#p8f844e3746)" d="M 91.25625 592.52741 
L 559.16005 592.52741 
L 559.16005 586.203696 
L 91.25625 586.203696 
z
" style="fill:#ff7f0e;"/>
   </g>
   <g id="patch_45">
    <path clip-path="url(#p8f844e3746)" d="M 91.25625 555.849869 
L 569.541964 555.849869 
L 569.541964 549.526155 
L 91.25625 549.526155 
z
" style="fill:#ff7f0e;"/>
   </g>
   <g id="patch_46">
    <path clip-path="url(#p8f844e3746)" d="M 91.25625 519.172328 
L 533.946829 519.172328 
L 533.946829 512.848614 
L 91.25625 512.848614 
z
" style="fill:#ff7f0e;"/>
   </g>
   <g id="patch_47">
    <path clip-path="url(#p8f844e3746)" d="M 91.25625 482.494787 
L 556.959275 482.494787 
L 556.959275 476.171074 
L 91.25625 476.171074 
z
" style="fill:#ff7f0e;"/>
   </g>
   <g id="patch_48">
    <path clip-path="url(#p8f844e3746)" d="M 91.25625 445.817247 
L 568.202362 445.817247 
L 568.202362 439.493533 
L 91.25625 439.493533 
z
" style="fill:#ff7f0e;"/>
   </g>
   <g id="patch_49">
    <path clip-path="url(#p8f844e3746)" d="M 91.25625 409.139706 
L 428.883767 409.139706 
L 428.883767 402.815992 
L 91.25625 402.815992 
z
" style="fill:#ff7f0e;"/>
   </g>
   <g id="patch_50">
    <path clip-path="url(#p8f844e3746)" d="M 91.25625 372.462165 
L 510.121052 372.462165 
L 510.121052 366.138451 
L 91.25625 366.138451 
z
" style="fill:#ff7f0e;"/>
   </g>
   <g id="patch_51">
    <path clip-path="url(#p8f844e3746)" d="M 91.25625 335.784624 
L 550.787538 335.784624 
L 550.787538 329.46091 
L 91.25625 329.46091 
z
" style="fill:#ff7f0e;"/>
   </g>
   <g id="patch_52">
    <path clip-path="url(#p8f844e3746)" d="M 91.25625 299.107084 
L 427.974751 299.107084 
L 427.974751 292.78337 
L 91.25625 292.78337 
z
" style="fill:#ff7f0e;"/>
   </g>
   <g id="patch_53">
    <path clip-path="url(#p8f844e3746)" d="M 91.25625 262.429543 
L 564.614143 262.429543 
L 564.614143 256.105829 
L 91.25625 256.105829 
z
" style="fill:#ff7f0e;"/>
   </g>
   <g id="patch_54">
    <path clip-path="url(#p8f844e3746)" d="M 91.25625 225.752002 
L 527.535877 225.752002 
L 527.535877 219.428288 
L 91.25625 219.428288 
z
" style="fill:#ff7f0e;"/>
   </g>
   <g id="patch_55">
    <path clip-path="url(#p8f844e3746)" d="M 91.25625 189.074461 
L 334.250463 189.074461 
L 334.250463 182.750747 
L 91.25625 182.750747 
z
" style="fill:#ff7f0e;"/>
   </g>
   <g id="patch_56">
    <path clip-path="url(#p8f844e3746)" d="M 91.25625 152.39692 
L 474.57376 152.39692 
L 474.57376 146.073207 
L 91.25625 146.073207 
z
" style="fill:#ff7f0e;"/>
   </g>
   <g id="patch_57">
    <path clip-path="url(#p8f844e3746)" d="M 91.25625 115.71938 
L 544.424429 115.71938 
L 544.424429 109.395666 
L 91.25625 109.395666 
z
" style="fill:#ff7f0e;"/>
   </g>
   <g id="patch_58">
    <path clip-path="url(#p8f844e3746)" d="M 91.25625 79.041839 
L 562.030625 79.041839 
L 562.030625 72.718125 
L 91.25625 72.718125 
z
" style="fill:#ff7f0e;"/>
   </g>
   <g id="matplotlib.axis_1">
    <g id="xtick_1">
     <g id="line2d_1">
      <defs>
       <path d="M 0 0 
L 0 3.5 
" id="m3dd653a71d" style="stroke:#000000;stroke-width:0.8;"/>
      </defs>
      <g>
       <use style="stroke:#000000;stroke-width:0.8;" x="91.25625" xlink:href="#m3dd653a71d" y="1131.118125"/>
      </g>
     </g>
     <g id="text_1">
      <!-- 0.0 -->
      <g transform="translate(83.304688 1145.716563)scale(0.1 -0.1)">
       <defs>
        <path d="M 31.78125 66.40625 
Q 24.171875 66.40625 20.328125 58.90625 
Q 16.5 51.421875 16.5 36.375 
Q 16.5 21.390625 20.328125 13.890625 
Q 24.171875 6.390625 31.78125 6.390625 
Q 39.453125 6.390625 43.28125 13.890625 
Q 47.125 21.390625 47.125 36.375 
Q 47.125 51.421875 43.28125 58.90625 
Q 39.453125 66.40625 31.78125 66.40625 
z
M 31.78125 74.21875 
Q 44.046875 74.21875 50.515625 64.515625 
Q 56.984375 54.828125 56.984375 36.375 
Q 56.984375 17.96875 50.515625 8.265625 
Q 44.046875 -1.421875 31.78125 -1.421875 
Q 19.53125 -1.421875 13.0625 8.265625 
Q 6.59375 17.96875 6.59375 36.375 
Q 6.59375 54.828125 13.0625 64.515625 
Q 19.53125 74.21875 31.78125 74.21875 
z
" id="DejaVuSans-48"/>
        <path d="M 10.6875 12.40625 
L 21 12.40625 
L 21 0 
L 10.6875 0 
z
" id="DejaVuSans-46"/>
       </defs>
       <use xlink:href="#DejaVuSans-48"/>
       <use x="63.623047" xlink:href="#DejaVuSans-46"/>
       <use x="95.410156" xlink:href="#DejaVuSans-48"/>
      </g>
     </g>
    </g>
    <g id="xtick_2">
     <g id="line2d_2">
      <g>
       <use style="stroke:#000000;stroke-width:0.8;" x="186.942099" xlink:href="#m3dd653a71d" y="1131.118125"/>
      </g>
     </g>
     <g id="text_2">
      <!-- 0.2 -->
      <g transform="translate(178.990536 1145.716563)scale(0.1 -0.1)">
       <defs>
        <path d="M 19.1875 8.296875 
L 53.609375 8.296875 
L 53.609375 0 
L 7.328125 0 
L 7.328125 8.296875 
Q 12.9375 14.109375 22.625 23.890625 
Q 32.328125 33.6875 34.8125 36.53125 
Q 39.546875 41.84375 41.421875 45.53125 
Q 43.3125 49.21875 43.3125 52.78125 
Q 43.3125 58.59375 39.234375 62.25 
Q 35.15625 65.921875 28.609375 65.921875 
Q 23.96875 65.921875 18.8125 64.3125 
Q 13.671875 62.703125 7.8125 59.421875 
L 7.8125 69.390625 
Q 13.765625 71.78125 18.9375 73 
Q 24.125 74.21875 28.421875 74.21875 
Q 39.75 74.21875 46.484375 68.546875 
Q 53.21875 62.890625 53.21875 53.421875 
Q 53.21875 48.921875 51.53125 44.890625 
Q 49.859375 40.875 45.40625 35.40625 
Q 44.1875 33.984375 37.640625 27.21875 
Q 31.109375 20.453125 19.1875 8.296875 
z
" id="DejaVuSans-50"/>
       </defs>
       <use xlink:href="#DejaVuSans-48"/>
       <use x="63.623047" xlink:href="#DejaVuSans-46"/>
       <use x="95.410156" xlink:href="#DejaVuSans-50"/>
      </g>
     </g>
    </g>
    <g id="xtick_3">
     <g id="line2d_3">
      <g>
       <use style="stroke:#000000;stroke-width:0.8;" x="282.627947" xlink:href="#m3dd653a71d" y="1131.118125"/>
      </g>
     </g>
     <g id="text_3">
      <!-- 0.4 -->
      <g transform="translate(274.676385 1145.716563)scale(0.1 -0.1)">
       <defs>
        <path d="M 37.796875 64.3125 
L 12.890625 25.390625 
L 37.796875 25.390625 
z
M 35.203125 72.90625 
L 47.609375 72.90625 
L 47.609375 25.390625 
L 58.015625 25.390625 
L 58.015625 17.1875 
L 47.609375 17.1875 
L 47.609375 0 
L 37.796875 0 
L 37.796875 17.1875 
L 4.890625 17.1875 
L 4.890625 26.703125 
z
" id="DejaVuSans-52"/>
       </defs>
       <use xlink:href="#DejaVuSans-48"/>
       <use x="63.623047" xlink:href="#DejaVuSans-46"/>
       <use x="95.410156" xlink:href="#DejaVuSans-52"/>
      </g>
     </g>
    </g>
    <g id="xtick_4">
     <g id="line2d_4">
      <g>
       <use style="stroke:#000000;stroke-width:0.8;" x="378.313796" xlink:href="#m3dd653a71d" y="1131.118125"/>
      </g>
     </g>
     <g id="text_4">
      <!-- 0.6 -->
      <g transform="translate(370.362233 1145.716563)scale(0.1 -0.1)">
       <defs>
        <path d="M 33.015625 40.375 
Q 26.375 40.375 22.484375 35.828125 
Q 18.609375 31.296875 18.609375 23.390625 
Q 18.609375 15.53125 22.484375 10.953125 
Q 26.375 6.390625 33.015625 6.390625 
Q 39.65625 6.390625 43.53125 10.953125 
Q 47.40625 15.53125 47.40625 23.390625 
Q 47.40625 31.296875 43.53125 35.828125 
Q 39.65625 40.375 33.015625 40.375 
z
M 52.59375 71.296875 
L 52.59375 62.3125 
Q 48.875 64.0625 45.09375 64.984375 
Q 41.3125 65.921875 37.59375 65.921875 
Q 27.828125 65.921875 22.671875 59.328125 
Q 17.53125 52.734375 16.796875 39.40625 
Q 19.671875 43.65625 24.015625 45.921875 
Q 28.375 48.1875 33.59375 48.1875 
Q 44.578125 48.1875 50.953125 41.515625 
Q 57.328125 34.859375 57.328125 23.390625 
Q 57.328125 12.15625 50.6875 5.359375 
Q 44.046875 -1.421875 33.015625 -1.421875 
Q 20.359375 -1.421875 13.671875 8.265625 
Q 6.984375 17.96875 6.984375 36.375 
Q 6.984375 53.65625 15.1875 63.9375 
Q 23.390625 74.21875 37.203125 74.21875 
Q 40.921875 74.21875 44.703125 73.484375 
Q 48.484375 72.75 52.59375 71.296875 
z
" id="DejaVuSans-54"/>
       </defs>
       <use xlink:href="#DejaVuSans-48"/>
       <use x="63.623047" xlink:href="#DejaVuSans-46"/>
       <use x="95.410156" xlink:href="#DejaVuSans-54"/>
      </g>
     </g>
    </g>
    <g id="xtick_5">
     <g id="line2d_5">
      <g>
       <use style="stroke:#000000;stroke-width:0.8;" x="473.999644" xlink:href="#m3dd653a71d" y="1131.118125"/>
      </g>
     </g>
     <g id="text_5">
      <!-- 0.8 -->
      <g transform="translate(466.048082 1145.716563)scale(0.1 -0.1)">
       <defs>
        <path d="M 31.78125 34.625 
Q 24.75 34.625 20.71875 30.859375 
Q 16.703125 27.09375 16.703125 20.515625 
Q 16.703125 13.921875 20.71875 10.15625 
Q 24.75 6.390625 31.78125 6.390625 
Q 38.8125 6.390625 42.859375 10.171875 
Q 46.921875 13.96875 46.921875 20.515625 
Q 46.921875 27.09375 42.890625 30.859375 
Q 38.875 34.625 31.78125 34.625 
z
M 21.921875 38.8125 
Q 15.578125 40.375 12.03125 44.71875 
Q 8.5 49.078125 8.5 55.328125 
Q 8.5 64.0625 14.71875 69.140625 
Q 20.953125 74.21875 31.78125 74.21875 
Q 42.671875 74.21875 48.875 69.140625 
Q 55.078125 64.0625 55.078125 55.328125 
Q 55.078125 49.078125 51.53125 44.71875 
Q 48 40.375 41.703125 38.8125 
Q 48.828125 37.15625 52.796875 32.3125 
Q 56.78125 27.484375 56.78125 20.515625 
Q 56.78125 9.90625 50.3125 4.234375 
Q 43.84375 -1.421875 31.78125 -1.421875 
Q 19.734375 -1.421875 13.25 4.234375 
Q 6.78125 9.90625 6.78125 20.515625 
Q 6.78125 27.484375 10.78125 32.3125 
Q 14.796875 37.15625 21.921875 38.8125 
z
M 18.3125 54.390625 
Q 18.3125 48.734375 21.84375 45.5625 
Q 25.390625 42.390625 31.78125 42.390625 
Q 38.140625 42.390625 41.71875 45.5625 
Q 45.3125 48.734375 45.3125 54.390625 
Q 45.3125 60.0625 41.71875 63.234375 
Q 38.140625 66.40625 31.78125 66.40625 
Q 25.390625 66.40625 21.84375 63.234375 
Q 18.3125 60.0625 18.3125 54.390625 
z
" id="DejaVuSans-56"/>
       </defs>
       <use xlink:href="#DejaVuSans-48"/>
       <use x="63.623047" xlink:href="#DejaVuSans-46"/>
       <use x="95.410156" xlink:href="#DejaVuSans-56"/>
      </g>
     </g>
    </g>
    <g id="xtick_6">
     <g id="line2d_6">
      <g>
       <use style="stroke:#000000;stroke-width:0.8;" x="569.685493" xlink:href="#m3dd653a71d" y="1131.118125"/>
      </g>
     </g>
     <g id="text_6">
      <!-- 1.0 -->
      <g transform="translate(561.733931 1145.716563)scale(0.1 -0.1)">
       <defs>
        <path d="M 12.40625 8.296875 
L 28.515625 8.296875 
L 28.515625 63.921875 
L 10.984375 60.40625 
L 10.984375 69.390625 
L 28.421875 72.90625 
L 38.28125 72.90625 
L 38.28125 8.296875 
L 54.390625 8.296875 
L 54.390625 0 
L 12.40625 0 
z
" id="DejaVuSans-49"/>
       </defs>
       <use xlink:href="#DejaVuSans-49"/>
       <use x="63.623047" xlink:href="#DejaVuSans-46"/>
       <use x="95.410156" xlink:href="#DejaVuSans-48"/>
      </g>
     </g>
    </g>
    <g id="text_7">
     <!-- AUC -->
     <g transform="translate(331.785156 1159.394688)scale(0.1 -0.1)">
      <defs>
       <path d="M 34.1875 63.1875 
L 20.796875 26.90625 
L 47.609375 26.90625 
z
M 28.609375 72.90625 
L 39.796875 72.90625 
L 67.578125 0 
L 57.328125 0 
L 50.6875 18.703125 
L 17.828125 18.703125 
L 11.1875 0 
L 0.78125 0 
z
" id="DejaVuSans-65"/>
       <path d="M 8.6875 72.90625 
L 18.609375 72.90625 
L 18.609375 28.609375 
Q 18.609375 16.890625 22.84375 11.734375 
Q 27.09375 6.59375 36.625 6.59375 
Q 46.09375 6.59375 50.34375 11.734375 
Q 54.59375 16.890625 54.59375 28.609375 
L 54.59375 72.90625 
L 64.5 72.90625 
L 64.5 27.390625 
Q 64.5 13.140625 57.4375 5.859375 
Q 50.390625 -1.421875 36.625 -1.421875 
Q 22.796875 -1.421875 15.734375 5.859375 
Q 8.6875 13.140625 8.6875 27.390625 
z
" id="DejaVuSans-85"/>
       <path d="M 64.40625 67.28125 
L 64.40625 56.890625 
Q 59.421875 61.53125 53.78125 63.8125 
Q 48.140625 66.109375 41.796875 66.109375 
Q 29.296875 66.109375 22.65625 58.46875 
Q 16.015625 50.828125 16.015625 36.375 
Q 16.015625 21.96875 22.65625 14.328125 
Q 29.296875 6.6875 41.796875 6.6875 
Q 48.140625 6.6875 53.78125 8.984375 
Q 59.421875 11.28125 64.40625 15.921875 
L 64.40625 5.609375 
Q 59.234375 2.09375 53.4375 0.328125 
Q 47.65625 -1.421875 41.21875 -1.421875 
Q 24.65625 -1.421875 15.125 8.703125 
Q 5.609375 18.84375 5.609375 36.375 
Q 5.609375 53.953125 15.125 64.078125 
Q 24.65625 74.21875 41.21875 74.21875 
Q 47.75 74.21875 53.53125 72.484375 
Q 59.328125 70.75 64.40625 67.28125 
z
" id="DejaVuSans-67"/>
      </defs>
      <use xlink:href="#DejaVuSans-65"/>
      <use x="68.408203" xlink:href="#DejaVuSans-85"/>
      <use x="141.601562" xlink:href="#DejaVuSans-67"/>
     </g>
    </g>
   </g>
   <g id="matplotlib.axis_2">
    <g id="ytick_1">
     <g id="line2d_7">
      <defs>
       <path d="M 0 0 
L -3.5 0 
" id="mb926b40946" style="stroke:#000000;stroke-width:0.8;"/>
      </defs>
      <g>
       <use style="stroke:#000000;stroke-width:0.8;" x="91.25625" xlink:href="#mb926b40946" y="1071.864926"/>
      </g>
     </g>
     <g id="text_8">
      <!-- bands-0 -->
      <g transform="translate(43.914063 1075.664144)scale(0.1 -0.1)">
       <defs>
        <path d="M 48.6875 27.296875 
Q 48.6875 37.203125 44.609375 42.84375 
Q 40.53125 48.484375 33.40625 48.484375 
Q 26.265625 48.484375 22.1875 42.84375 
Q 18.109375 37.203125 18.109375 27.296875 
Q 18.109375 17.390625 22.1875 11.75 
Q 26.265625 6.109375 33.40625 6.109375 
Q 40.53125 6.109375 44.609375 11.75 
Q 48.6875 17.390625 48.6875 27.296875 
z
M 18.109375 46.390625 
Q 20.953125 51.265625 25.265625 53.625 
Q 29.59375 56 35.59375 56 
Q 45.5625 56 51.78125 48.09375 
Q 58.015625 40.1875 58.015625 27.296875 
Q 58.015625 14.40625 51.78125 6.484375 
Q 45.5625 -1.421875 35.59375 -1.421875 
Q 29.59375 -1.421875 25.265625 0.953125 
Q 20.953125 3.328125 18.109375 8.203125 
L 18.109375 0 
L 9.078125 0 
L 9.078125 75.984375 
L 18.109375 75.984375 
z
" id="DejaVuSans-98"/>
        <path d="M 34.28125 27.484375 
Q 23.390625 27.484375 19.1875 25 
Q 14.984375 22.515625 14.984375 16.5 
Q 14.984375 11.71875 18.140625 8.90625 
Q 21.296875 6.109375 26.703125 6.109375 
Q 34.1875 6.109375 38.703125 11.40625 
Q 43.21875 16.703125 43.21875 25.484375 
L 43.21875 27.484375 
z
M 52.203125 31.203125 
L 52.203125 0 
L 43.21875 0 
L 43.21875 8.296875 
Q 40.140625 3.328125 35.546875 0.953125 
Q 30.953125 -1.421875 24.3125 -1.421875 
Q 15.921875 -1.421875 10.953125 3.296875 
Q 6 8.015625 6 15.921875 
Q 6 25.140625 12.171875 29.828125 
Q 18.359375 34.515625 30.609375 34.515625 
L 43.21875 34.515625 
L 43.21875 35.40625 
Q 43.21875 41.609375 39.140625 45 
Q 35.0625 48.390625 27.6875 48.390625 
Q 23 48.390625 18.546875 47.265625 
Q 14.109375 46.140625 10.015625 43.890625 
L 10.015625 52.203125 
Q 14.9375 54.109375 19.578125 55.046875 
Q 24.21875 56 28.609375 56 
Q 40.484375 56 46.34375 49.84375 
Q 52.203125 43.703125 52.203125 31.203125 
z
" id="DejaVuSans-97"/>
        <path d="M 54.890625 33.015625 
L 54.890625 0 
L 45.90625 0 
L 45.90625 32.71875 
Q 45.90625 40.484375 42.875 44.328125 
Q 39.84375 48.1875 33.796875 48.1875 
Q 26.515625 48.1875 22.3125 43.546875 
Q 18.109375 38.921875 18.109375 30.90625 
L 18.109375 0 
L 9.078125 0 
L 9.078125 54.6875 
L 18.109375 54.6875 
L 18.109375 46.1875 
Q 21.34375 51.125 25.703125 53.5625 
Q 30.078125 56 35.796875 56 
Q 45.21875 56 50.046875 50.171875 
Q 54.890625 44.34375 54.890625 33.015625 
z
" id="DejaVuSans-110"/>
        <path d="M 45.40625 46.390625 
L 45.40625 75.984375 
L 54.390625 75.984375 
L 54.390625 0 
L 45.40625 0 
L 45.40625 8.203125 
Q 42.578125 3.328125 38.25 0.953125 
Q 33.9375 -1.421875 27.875 -1.421875 
Q 17.96875 -1.421875 11.734375 6.484375 
Q 5.515625 14.40625 5.515625 27.296875 
Q 5.515625 40.1875 11.734375 48.09375 
Q 17.96875 56 27.875 56 
Q 33.9375 56 38.25 53.625 
Q 42.578125 51.265625 45.40625 46.390625 
z
M 14.796875 27.296875 
Q 14.796875 17.390625 18.875 11.75 
Q 22.953125 6.109375 30.078125 6.109375 
Q 37.203125 6.109375 41.296875 11.75 
Q 45.40625 17.390625 45.40625 27.296875 
Q 45.40625 37.203125 41.296875 42.84375 
Q 37.203125 48.484375 30.078125 48.484375 
Q 22.953125 48.484375 18.875 42.84375 
Q 14.796875 37.203125 14.796875 27.296875 
z
" id="DejaVuSans-100"/>
        <path d="M 44.28125 53.078125 
L 44.28125 44.578125 
Q 40.484375 46.53125 36.375 47.5 
Q 32.28125 48.484375 27.875 48.484375 
Q 21.1875 48.484375 17.84375 46.4375 
Q 14.5 44.390625 14.5 40.28125 
Q 14.5 37.15625 16.890625 35.375 
Q 19.28125 33.59375 26.515625 31.984375 
L 29.59375 31.296875 
Q 39.15625 29.25 43.1875 25.515625 
Q 47.21875 21.78125 47.21875 15.09375 
Q 47.21875 7.46875 41.1875 3.015625 
Q 35.15625 -1.421875 24.609375 -1.421875 
Q 20.21875 -1.421875 15.453125 -0.5625 
Q 10.6875 0.296875 5.421875 2 
L 5.421875 11.28125 
Q 10.40625 8.6875 15.234375 7.390625 
Q 20.0625 6.109375 24.8125 6.109375 
Q 31.15625 6.109375 34.5625 8.28125 
Q 37.984375 10.453125 37.984375 14.40625 
Q 37.984375 18.0625 35.515625 20.015625 
Q 33.0625 21.96875 24.703125 23.78125 
L 21.578125 24.515625 
Q 13.234375 26.265625 9.515625 29.90625 
Q 5.8125 33.546875 5.8125 39.890625 
Q 5.8125 47.609375 11.28125 51.796875 
Q 16.75 56 26.8125 56 
Q 31.78125 56 36.171875 55.265625 
Q 40.578125 54.546875 44.28125 53.078125 
z
" id="DejaVuSans-115"/>
        <path d="M 4.890625 31.390625 
L 31.203125 31.390625 
L 31.203125 23.390625 
L 4.890625 23.390625 
z
" id="DejaVuSans-45"/>
       </defs>
       <use xlink:href="#DejaVuSans-98"/>
       <use x="63.476562" xlink:href="#DejaVuSans-97"/>
       <use x="124.755859" xlink:href="#DejaVuSans-110"/>
       <use x="188.134766" xlink:href="#DejaVuSans-100"/>
       <use x="251.611328" xlink:href="#DejaVuSans-115"/>
       <use x="303.710938" xlink:href="#DejaVuSans-45"/>
       <use x="339.794922" xlink:href="#DejaVuSans-48"/>
      </g>
     </g>
    </g>
    <g id="ytick_2">
     <g id="line2d_8">
      <g>
       <use style="stroke:#000000;stroke-width:0.8;" x="91.25625" xlink:href="#mb926b40946" y="1035.187385"/>
      </g>
     </g>
     <g id="text_9">
      <!-- glass-0 -->
      <g transform="translate(48.6125 1038.986603)scale(0.1 -0.1)">
       <defs>
        <path d="M 45.40625 27.984375 
Q 45.40625 37.75 41.375 43.109375 
Q 37.359375 48.484375 30.078125 48.484375 
Q 22.859375 48.484375 18.828125 43.109375 
Q 14.796875 37.75 14.796875 27.984375 
Q 14.796875 18.265625 18.828125 12.890625 
Q 22.859375 7.515625 30.078125 7.515625 
Q 37.359375 7.515625 41.375 12.890625 
Q 45.40625 18.265625 45.40625 27.984375 
z
M 54.390625 6.78125 
Q 54.390625 -7.171875 48.1875 -13.984375 
Q 42 -20.796875 29.203125 -20.796875 
Q 24.46875 -20.796875 20.265625 -20.09375 
Q 16.0625 -19.390625 12.109375 -17.921875 
L 12.109375 -9.1875 
Q 16.0625 -11.328125 19.921875 -12.34375 
Q 23.78125 -13.375 27.78125 -13.375 
Q 36.625 -13.375 41.015625 -8.765625 
Q 45.40625 -4.15625 45.40625 5.171875 
L 45.40625 9.625 
Q 42.625 4.78125 38.28125 2.390625 
Q 33.9375 0 27.875 0 
Q 17.828125 0 11.671875 7.65625 
Q 5.515625 15.328125 5.515625 27.984375 
Q 5.515625 40.671875 11.671875 48.328125 
Q 17.828125 56 27.875 56 
Q 33.9375 56 38.28125 53.609375 
Q 42.625 51.21875 45.40625 46.390625 
L 45.40625 54.6875 
L 54.390625 54.6875 
z
" id="DejaVuSans-103"/>
        <path d="M 9.421875 75.984375 
L 18.40625 75.984375 
L 18.40625 0 
L 9.421875 0 
z
" id="DejaVuSans-108"/>
       </defs>
       <use xlink:href="#DejaVuSans-103"/>
       <use x="63.476562" xlink:href="#DejaVuSans-108"/>
       <use x="91.259766" xlink:href="#DejaVuSans-97"/>
       <use x="152.539062" xlink:href="#DejaVuSans-115"/>
       <use x="204.638672" xlink:href="#DejaVuSans-115"/>
       <use x="256.738281" xlink:href="#DejaVuSans-45"/>
       <use x="292.822266" xlink:href="#DejaVuSans-48"/>
      </g>
     </g>
    </g>
    <g id="ytick_3">
     <g id="line2d_9">
      <g>
       <use style="stroke:#000000;stroke-width:0.8;" x="91.25625" xlink:href="#mb926b40946" y="998.509844"/>
      </g>
     </g>
     <g id="text_10">
      <!-- tae-0 -->
      <g transform="translate(58.084375 1002.309063)scale(0.1 -0.1)">
       <defs>
        <path d="M 18.3125 70.21875 
L 18.3125 54.6875 
L 36.8125 54.6875 
L 36.8125 47.703125 
L 18.3125 47.703125 
L 18.3125 18.015625 
Q 18.3125 11.328125 20.140625 9.421875 
Q 21.96875 7.515625 27.59375 7.515625 
L 36.8125 7.515625 
L 36.8125 0 
L 27.59375 0 
Q 17.1875 0 13.234375 3.875 
Q 9.28125 7.765625 9.28125 18.015625 
L 9.28125 47.703125 
L 2.6875 47.703125 
L 2.6875 54.6875 
L 9.28125 54.6875 
L 9.28125 70.21875 
z
" id="DejaVuSans-116"/>
        <path d="M 56.203125 29.59375 
L 56.203125 25.203125 
L 14.890625 25.203125 
Q 15.484375 15.921875 20.484375 11.0625 
Q 25.484375 6.203125 34.421875 6.203125 
Q 39.59375 6.203125 44.453125 7.46875 
Q 49.3125 8.734375 54.109375 11.28125 
L 54.109375 2.78125 
Q 49.265625 0.734375 44.1875 -0.34375 
Q 39.109375 -1.421875 33.890625 -1.421875 
Q 20.796875 -1.421875 13.15625 6.1875 
Q 5.515625 13.8125 5.515625 26.8125 
Q 5.515625 40.234375 12.765625 48.109375 
Q 20.015625 56 32.328125 56 
Q 43.359375 56 49.78125 48.890625 
Q 56.203125 41.796875 56.203125 29.59375 
z
M 47.21875 32.234375 
Q 47.125 39.59375 43.09375 43.984375 
Q 39.0625 48.390625 32.421875 48.390625 
Q 24.90625 48.390625 20.390625 44.140625 
Q 15.875 39.890625 15.1875 32.171875 
z
" id="DejaVuSans-101"/>
       </defs>
       <use xlink:href="#DejaVuSans-116"/>
       <use x="39.208984" xlink:href="#DejaVuSans-97"/>
       <use x="100.488281" xlink:href="#DejaVuSans-101"/>
       <use x="162.011719" xlink:href="#DejaVuSans-45"/>
       <use x="198.095703" xlink:href="#DejaVuSans-48"/>
      </g>
     </g>
    </g>
    <g id="ytick_4">
     <g id="line2d_10">
      <g>
       <use style="stroke:#000000;stroke-width:0.8;" x="91.25625" xlink:href="#mb926b40946" y="961.832303"/>
      </g>
     </g>
     <g id="text_11">
      <!-- yeast-1 -->
      <g transform="translate(46.95625 965.631522)scale(0.1 -0.1)">
       <defs>
        <path d="M 32.171875 -5.078125 
Q 28.375 -14.84375 24.75 -17.8125 
Q 21.140625 -20.796875 15.09375 -20.796875 
L 7.90625 -20.796875 
L 7.90625 -13.28125 
L 13.1875 -13.28125 
Q 16.890625 -13.28125 18.9375 -11.515625 
Q 21 -9.765625 23.484375 -3.21875 
L 25.09375 0.875 
L 2.984375 54.6875 
L 12.5 54.6875 
L 29.59375 11.921875 
L 46.6875 54.6875 
L 56.203125 54.6875 
z
" id="DejaVuSans-121"/>
       </defs>
       <use xlink:href="#DejaVuSans-121"/>
       <use x="59.179688" xlink:href="#DejaVuSans-101"/>
       <use x="120.703125" xlink:href="#DejaVuSans-97"/>
       <use x="181.982422" xlink:href="#DejaVuSans-115"/>
       <use x="234.082031" xlink:href="#DejaVuSans-116"/>
       <use x="273.291016" xlink:href="#DejaVuSans-45"/>
       <use x="309.375" xlink:href="#DejaVuSans-49"/>
      </g>
     </g>
    </g>
    <g id="ytick_5">
     <g id="line2d_11">
      <g>
       <use style="stroke:#000000;stroke-width:0.8;" x="91.25625" xlink:href="#mb926b40946" y="925.154762"/>
      </g>
     </g>
     <g id="text_12">
      <!-- ecoli-1 -->
      <g transform="translate(50.959375 928.953981)scale(0.1 -0.1)">
       <defs>
        <path d="M 48.78125 52.59375 
L 48.78125 44.1875 
Q 44.96875 46.296875 41.140625 47.34375 
Q 37.3125 48.390625 33.40625 48.390625 
Q 24.65625 48.390625 19.8125 42.84375 
Q 14.984375 37.3125 14.984375 27.296875 
Q 14.984375 17.28125 19.8125 11.734375 
Q 24.65625 6.203125 33.40625 6.203125 
Q 37.3125 6.203125 41.140625 7.25 
Q 44.96875 8.296875 48.78125 10.40625 
L 48.78125 2.09375 
Q 45.015625 0.34375 40.984375 -0.53125 
Q 36.96875 -1.421875 32.421875 -1.421875 
Q 20.0625 -1.421875 12.78125 6.34375 
Q 5.515625 14.109375 5.515625 27.296875 
Q 5.515625 40.671875 12.859375 48.328125 
Q 20.21875 56 33.015625 56 
Q 37.15625 56 41.109375 55.140625 
Q 45.0625 54.296875 48.78125 52.59375 
z
" id="DejaVuSans-99"/>
        <path d="M 30.609375 48.390625 
Q 23.390625 48.390625 19.1875 42.75 
Q 14.984375 37.109375 14.984375 27.296875 
Q 14.984375 17.484375 19.15625 11.84375 
Q 23.34375 6.203125 30.609375 6.203125 
Q 37.796875 6.203125 41.984375 11.859375 
Q 46.1875 17.53125 46.1875 27.296875 
Q 46.1875 37.015625 41.984375 42.703125 
Q 37.796875 48.390625 30.609375 48.390625 
z
M 30.609375 56 
Q 42.328125 56 49.015625 48.375 
Q 55.71875 40.765625 55.71875 27.296875 
Q 55.71875 13.875 49.015625 6.21875 
Q 42.328125 -1.421875 30.609375 -1.421875 
Q 18.84375 -1.421875 12.171875 6.21875 
Q 5.515625 13.875 5.515625 27.296875 
Q 5.515625 40.765625 12.171875 48.375 
Q 18.84375 56 30.609375 56 
z
" id="DejaVuSans-111"/>
        <path d="M 9.421875 54.6875 
L 18.40625 54.6875 
L 18.40625 0 
L 9.421875 0 
z
M 9.421875 75.984375 
L 18.40625 75.984375 
L 18.40625 64.59375 
L 9.421875 64.59375 
z
" id="DejaVuSans-105"/>
       </defs>
       <use xlink:href="#DejaVuSans-101"/>
       <use x="61.523438" xlink:href="#DejaVuSans-99"/>
       <use x="116.503906" xlink:href="#DejaVuSans-111"/>
       <use x="177.685547" xlink:href="#DejaVuSans-108"/>
       <use x="205.46875" xlink:href="#DejaVuSans-105"/>
       <use x="233.251953" xlink:href="#DejaVuSans-45"/>
       <use x="269.335938" xlink:href="#DejaVuSans-49"/>
      </g>
     </g>
    </g>
    <g id="ytick_6">
     <g id="line2d_12">
      <g>
       <use style="stroke:#000000;stroke-width:0.8;" x="91.25625" xlink:href="#mb926b40946" y="888.477222"/>
      </g>
     </g>
     <g id="text_13">
      <!-- appen-1 -->
      <g transform="translate(42.970313 892.27644)scale(0.1 -0.1)">
       <defs>
        <path d="M 18.109375 8.203125 
L 18.109375 -20.796875 
L 9.078125 -20.796875 
L 9.078125 54.6875 
L 18.109375 54.6875 
L 18.109375 46.390625 
Q 20.953125 51.265625 25.265625 53.625 
Q 29.59375 56 35.59375 56 
Q 45.5625 56 51.78125 48.09375 
Q 58.015625 40.1875 58.015625 27.296875 
Q 58.015625 14.40625 51.78125 6.484375 
Q 45.5625 -1.421875 35.59375 -1.421875 
Q 29.59375 -1.421875 25.265625 0.953125 
Q 20.953125 3.328125 18.109375 8.203125 
z
M 48.6875 27.296875 
Q 48.6875 37.203125 44.609375 42.84375 
Q 40.53125 48.484375 33.40625 48.484375 
Q 26.265625 48.484375 22.1875 42.84375 
Q 18.109375 37.203125 18.109375 27.296875 
Q 18.109375 17.390625 22.1875 11.75 
Q 26.265625 6.109375 33.40625 6.109375 
Q 40.53125 6.109375 44.609375 11.75 
Q 48.6875 17.390625 48.6875 27.296875 
z
" id="DejaVuSans-112"/>
       </defs>
       <use xlink:href="#DejaVuSans-97"/>
       <use x="61.279297" xlink:href="#DejaVuSans-112"/>
       <use x="124.755859" xlink:href="#DejaVuSans-112"/>
       <use x="188.232422" xlink:href="#DejaVuSans-101"/>
       <use x="249.755859" xlink:href="#DejaVuSans-110"/>
       <use x="313.134766" xlink:href="#DejaVuSans-45"/>
       <use x="349.21875" xlink:href="#DejaVuSans-49"/>
      </g>
     </g>
    </g>
    <g id="ytick_7">
     <g id="line2d_13">
      <g>
       <use style="stroke:#000000;stroke-width:0.8;" x="91.25625" xlink:href="#mb926b40946" y="851.799681"/>
      </g>
     </g>
     <g id="text_14">
      <!-- yeast-06 -->
      <g transform="translate(40.59375 855.5989)scale(0.1 -0.1)">
       <use xlink:href="#DejaVuSans-121"/>
       <use x="59.179688" xlink:href="#DejaVuSans-101"/>
       <use x="120.703125" xlink:href="#DejaVuSans-97"/>
       <use x="181.982422" xlink:href="#DejaVuSans-115"/>
       <use x="234.082031" xlink:href="#DejaVuSans-116"/>
       <use x="273.291016" xlink:href="#DejaVuSans-45"/>
       <use x="309.375" xlink:href="#DejaVuSans-48"/>
       <use x="372.998047" xlink:href="#DejaVuSans-54"/>
      </g>
     </g>
    </g>
    <g id="ytick_8">
     <g id="line2d_14">
      <g>
       <use style="stroke:#000000;stroke-width:0.8;" x="91.25625" xlink:href="#mb926b40946" y="815.12214"/>
      </g>
     </g>
     <g id="text_15">
      <!-- cleve-1 -->
      <g transform="translate(47.784375 818.921359)scale(0.1 -0.1)">
       <defs>
        <path d="M 2.984375 54.6875 
L 12.5 54.6875 
L 29.59375 8.796875 
L 46.6875 54.6875 
L 56.203125 54.6875 
L 35.6875 0 
L 23.484375 0 
z
" id="DejaVuSans-118"/>
       </defs>
       <use xlink:href="#DejaVuSans-99"/>
       <use x="54.980469" xlink:href="#DejaVuSans-108"/>
       <use x="82.763672" xlink:href="#DejaVuSans-101"/>
       <use x="144.287109" xlink:href="#DejaVuSans-118"/>
       <use x="203.466797" xlink:href="#DejaVuSans-101"/>
       <use x="264.990234" xlink:href="#DejaVuSans-45"/>
       <use x="301.074219" xlink:href="#DejaVuSans-49"/>
      </g>
     </g>
    </g>
    <g id="ytick_9">
     <g id="line2d_15">
      <g>
       <use style="stroke:#000000;stroke-width:0.8;" x="91.25625" xlink:href="#mb926b40946" y="778.444599"/>
      </g>
     </g>
     <g id="text_16">
      <!-- yeast-0 -->
      <g transform="translate(46.95625 782.243818)scale(0.1 -0.1)">
       <use xlink:href="#DejaVuSans-121"/>
       <use x="59.179688" xlink:href="#DejaVuSans-101"/>
       <use x="120.703125" xlink:href="#DejaVuSans-97"/>
       <use x="181.982422" xlink:href="#DejaVuSans-115"/>
       <use x="234.082031" xlink:href="#DejaVuSans-116"/>
       <use x="273.291016" xlink:href="#DejaVuSans-45"/>
       <use x="309.375" xlink:href="#DejaVuSans-48"/>
      </g>
     </g>
    </g>
    <g id="ytick_10">
     <g id="line2d_16">
      <g>
       <use style="stroke:#000000;stroke-width:0.8;" x="91.25625" xlink:href="#mb926b40946" y="741.767059"/>
      </g>
     </g>
     <g id="text_17">
      <!-- ecoli-7 -->
      <g transform="translate(50.959375 745.566277)scale(0.1 -0.1)">
       <defs>
        <path d="M 8.203125 72.90625 
L 55.078125 72.90625 
L 55.078125 68.703125 
L 28.609375 0 
L 18.3125 0 
L 43.21875 64.59375 
L 8.203125 64.59375 
z
" id="DejaVuSans-55"/>
       </defs>
       <use xlink:href="#DejaVuSans-101"/>
       <use x="61.523438" xlink:href="#DejaVuSans-99"/>
       <use x="116.503906" xlink:href="#DejaVuSans-111"/>
       <use x="177.685547" xlink:href="#DejaVuSans-108"/>
       <use x="205.46875" xlink:href="#DejaVuSans-105"/>
       <use x="233.251953" xlink:href="#DejaVuSans-45"/>
       <use x="269.335938" xlink:href="#DejaVuSans-55"/>
      </g>
     </g>
    </g>
    <g id="ytick_11">
     <g id="line2d_17">
      <g>
       <use style="stroke:#000000;stroke-width:0.8;" x="91.25625" xlink:href="#mb926b40946" y="705.089518"/>
      </g>
     </g>
     <g id="text_18">
      <!-- newth-0 -->
      <g transform="translate(43.359375 708.888736)scale(0.1 -0.1)">
       <defs>
        <path d="M 4.203125 54.6875 
L 13.1875 54.6875 
L 24.421875 12.015625 
L 35.59375 54.6875 
L 46.1875 54.6875 
L 57.421875 12.015625 
L 68.609375 54.6875 
L 77.59375 54.6875 
L 63.28125 0 
L 52.6875 0 
L 40.921875 44.828125 
L 29.109375 0 
L 18.5 0 
z
" id="DejaVuSans-119"/>
        <path d="M 54.890625 33.015625 
L 54.890625 0 
L 45.90625 0 
L 45.90625 32.71875 
Q 45.90625 40.484375 42.875 44.328125 
Q 39.84375 48.1875 33.796875 48.1875 
Q 26.515625 48.1875 22.3125 43.546875 
Q 18.109375 38.921875 18.109375 30.90625 
L 18.109375 0 
L 9.078125 0 
L 9.078125 75.984375 
L 18.109375 75.984375 
L 18.109375 46.1875 
Q 21.34375 51.125 25.703125 53.5625 
Q 30.078125 56 35.796875 56 
Q 45.21875 56 50.046875 50.171875 
Q 54.890625 44.34375 54.890625 33.015625 
z
" id="DejaVuSans-104"/>
       </defs>
       <use xlink:href="#DejaVuSans-110"/>
       <use x="63.378906" xlink:href="#DejaVuSans-101"/>
       <use x="124.902344" xlink:href="#DejaVuSans-119"/>
       <use x="206.689453" xlink:href="#DejaVuSans-116"/>
       <use x="245.898438" xlink:href="#DejaVuSans-104"/>
       <use x="309.277344" xlink:href="#DejaVuSans-45"/>
       <use x="345.361328" xlink:href="#DejaVuSans-48"/>
      </g>
     </g>
    </g>
    <g id="ytick_12">
     <g id="line2d_18">
      <g>
       <use style="stroke:#000000;stroke-width:0.8;" x="91.25625" xlink:href="#mb926b40946" y="668.411977"/>
      </g>
     </g>
     <g id="text_19">
      <!-- cleve-2 -->
      <g transform="translate(47.784375 672.211196)scale(0.1 -0.1)">
       <use xlink:href="#DejaVuSans-99"/>
       <use x="54.980469" xlink:href="#DejaVuSans-108"/>
       <use x="82.763672" xlink:href="#DejaVuSans-101"/>
       <use x="144.287109" xlink:href="#DejaVuSans-118"/>
       <use x="203.466797" xlink:href="#DejaVuSans-101"/>
       <use x="264.990234" xlink:href="#DejaVuSans-45"/>
       <use x="301.074219" xlink:href="#DejaVuSans-50"/>
      </g>
     </g>
    </g>
    <g id="ytick_13">
     <g id="line2d_19">
      <g>
       <use style="stroke:#000000;stroke-width:0.8;" x="91.25625" xlink:href="#mb926b40946" y="631.734436"/>
      </g>
     </g>
     <g id="text_20">
      <!-- ecoli-4 -->
      <g transform="translate(50.959375 635.533655)scale(0.1 -0.1)">
       <use xlink:href="#DejaVuSans-101"/>
       <use x="61.523438" xlink:href="#DejaVuSans-99"/>
       <use x="116.503906" xlink:href="#DejaVuSans-111"/>
       <use x="177.685547" xlink:href="#DejaVuSans-108"/>
       <use x="205.46875" xlink:href="#DejaVuSans-105"/>
       <use x="233.251953" xlink:href="#DejaVuSans-45"/>
       <use x="269.335938" xlink:href="#DejaVuSans-52"/>
      </g>
     </g>
    </g>
    <g id="ytick_14">
     <g id="line2d_20">
      <g>
       <use style="stroke:#000000;stroke-width:0.8;" x="91.25625" xlink:href="#mb926b40946" y="595.056895"/>
      </g>
     </g>
     <g id="text_21">
      <!-- page-1234 -->
      <g transform="translate(30.220313 598.856114)scale(0.1 -0.1)">
       <defs>
        <path d="M 40.578125 39.3125 
Q 47.65625 37.796875 51.625 33 
Q 55.609375 28.21875 55.609375 21.1875 
Q 55.609375 10.40625 48.1875 4.484375 
Q 40.765625 -1.421875 27.09375 -1.421875 
Q 22.515625 -1.421875 17.65625 -0.515625 
Q 12.796875 0.390625 7.625 2.203125 
L 7.625 11.71875 
Q 11.71875 9.328125 16.59375 8.109375 
Q 21.484375 6.890625 26.8125 6.890625 
Q 36.078125 6.890625 40.9375 10.546875 
Q 45.796875 14.203125 45.796875 21.1875 
Q 45.796875 27.640625 41.28125 31.265625 
Q 36.765625 34.90625 28.71875 34.90625 
L 20.21875 34.90625 
L 20.21875 43.015625 
L 29.109375 43.015625 
Q 36.375 43.015625 40.234375 45.921875 
Q 44.09375 48.828125 44.09375 54.296875 
Q 44.09375 59.90625 40.109375 62.90625 
Q 36.140625 65.921875 28.71875 65.921875 
Q 24.65625 65.921875 20.015625 65.03125 
Q 15.375 64.15625 9.8125 62.3125 
L 9.8125 71.09375 
Q 15.4375 72.65625 20.34375 73.4375 
Q 25.25 74.21875 29.59375 74.21875 
Q 40.828125 74.21875 47.359375 69.109375 
Q 53.90625 64.015625 53.90625 55.328125 
Q 53.90625 49.265625 50.4375 45.09375 
Q 46.96875 40.921875 40.578125 39.3125 
z
" id="DejaVuSans-51"/>
       </defs>
       <use xlink:href="#DejaVuSans-112"/>
       <use x="63.476562" xlink:href="#DejaVuSans-97"/>
       <use x="124.755859" xlink:href="#DejaVuSans-103"/>
       <use x="188.232422" xlink:href="#DejaVuSans-101"/>
       <use x="249.755859" xlink:href="#DejaVuSans-45"/>
       <use x="285.839844" xlink:href="#DejaVuSans-49"/>
       <use x="349.462891" xlink:href="#DejaVuSans-50"/>
       <use x="413.085938" xlink:href="#DejaVuSans-51"/>
       <use x="476.708984" xlink:href="#DejaVuSans-52"/>
      </g>
     </g>
    </g>
    <g id="ytick_15">
     <g id="line2d_21">
      <g>
       <use style="stroke:#000000;stroke-width:0.8;" x="91.25625" xlink:href="#mb926b40946" y="558.379355"/>
      </g>
     </g>
     <g id="text_22">
      <!-- vowel-0 -->
      <g transform="translate(45.139063 562.178573)scale(0.1 -0.1)">
       <use xlink:href="#DejaVuSans-118"/>
       <use x="59.179688" xlink:href="#DejaVuSans-111"/>
       <use x="120.361328" xlink:href="#DejaVuSans-119"/>
       <use x="202.148438" xlink:href="#DejaVuSans-101"/>
       <use x="263.671875" xlink:href="#DejaVuSans-108"/>
       <use x="291.455078" xlink:href="#DejaVuSans-45"/>
       <use x="327.539062" xlink:href="#DejaVuSans-48"/>
      </g>
     </g>
    </g>
    <g id="ytick_16">
     <g id="line2d_22">
      <g>
       <use style="stroke:#000000;stroke-width:0.8;" x="91.25625" xlink:href="#mb926b40946" y="521.701814"/>
      </g>
     </g>
     <g id="text_23">
      <!-- ecoli-2356 -->
      <g transform="translate(31.871875 525.501033)scale(0.1 -0.1)">
       <defs>
        <path d="M 10.796875 72.90625 
L 49.515625 72.90625 
L 49.515625 64.59375 
L 19.828125 64.59375 
L 19.828125 46.734375 
Q 21.96875 47.46875 24.109375 47.828125 
Q 26.265625 48.1875 28.421875 48.1875 
Q 40.625 48.1875 47.75 41.5 
Q 54.890625 34.8125 54.890625 23.390625 
Q 54.890625 11.625 47.5625 5.09375 
Q 40.234375 -1.421875 26.90625 -1.421875 
Q 22.3125 -1.421875 17.546875 -0.640625 
Q 12.796875 0.140625 7.71875 1.703125 
L 7.71875 11.625 
Q 12.109375 9.234375 16.796875 8.0625 
Q 21.484375 6.890625 26.703125 6.890625 
Q 35.15625 6.890625 40.078125 11.328125 
Q 45.015625 15.765625 45.015625 23.390625 
Q 45.015625 31 40.078125 35.4375 
Q 35.15625 39.890625 26.703125 39.890625 
Q 22.75 39.890625 18.8125 39.015625 
Q 14.890625 38.140625 10.796875 36.28125 
z
" id="DejaVuSans-53"/>
       </defs>
       <use xlink:href="#DejaVuSans-101"/>
       <use x="61.523438" xlink:href="#DejaVuSans-99"/>
       <use x="116.503906" xlink:href="#DejaVuSans-111"/>
       <use x="177.685547" xlink:href="#DejaVuSans-108"/>
       <use x="205.46875" xlink:href="#DejaVuSans-105"/>
       <use x="233.251953" xlink:href="#DejaVuSans-45"/>
       <use x="269.335938" xlink:href="#DejaVuSans-50"/>
       <use x="332.958984" xlink:href="#DejaVuSans-51"/>
       <use x="396.582031" xlink:href="#DejaVuSans-53"/>
       <use x="460.205078" xlink:href="#DejaVuSans-54"/>
      </g>
     </g>
    </g>
    <g id="ytick_17">
     <g id="line2d_23">
      <g>
       <use style="stroke:#000000;stroke-width:0.8;" x="91.25625" xlink:href="#mb926b40946" y="485.024273"/>
      </g>
     </g>
     <g id="text_24">
      <!-- page-123 -->
      <g transform="translate(36.582813 488.823492)scale(0.1 -0.1)">
       <use xlink:href="#DejaVuSans-112"/>
       <use x="63.476562" xlink:href="#DejaVuSans-97"/>
       <use x="124.755859" xlink:href="#DejaVuSans-103"/>
       <use x="188.232422" xlink:href="#DejaVuSans-101"/>
       <use x="249.755859" xlink:href="#DejaVuSans-45"/>
       <use x="285.839844" xlink:href="#DejaVuSans-49"/>
       <use x="349.462891" xlink:href="#DejaVuSans-50"/>
       <use x="413.085938" xlink:href="#DejaVuSans-51"/>
      </g>
     </g>
    </g>
    <g id="ytick_18">
     <g id="line2d_24">
      <g>
       <use style="stroke:#000000;stroke-width:0.8;" x="91.25625" xlink:href="#mb926b40946" y="448.346732"/>
      </g>
     </g>
     <g id="text_25">
      <!-- glass-2 -->
      <g transform="translate(48.6125 452.145951)scale(0.1 -0.1)">
       <use xlink:href="#DejaVuSans-103"/>
       <use x="63.476562" xlink:href="#DejaVuSans-108"/>
       <use x="91.259766" xlink:href="#DejaVuSans-97"/>
       <use x="152.539062" xlink:href="#DejaVuSans-115"/>
       <use x="204.638672" xlink:href="#DejaVuSans-115"/>
       <use x="256.738281" xlink:href="#DejaVuSans-45"/>
       <use x="292.822266" xlink:href="#DejaVuSans-50"/>
      </g>
     </g>
    </g>
    <g id="ytick_19">
     <g id="line2d_25">
      <g>
       <use style="stroke:#000000;stroke-width:0.8;" x="91.25625" xlink:href="#mb926b40946" y="411.669191"/>
      </g>
     </g>
     <g id="text_26">
      <!-- balance-1 -->
      <g transform="translate(34.914063 415.46841)scale(0.1 -0.1)">
       <use xlink:href="#DejaVuSans-98"/>
       <use x="63.476562" xlink:href="#DejaVuSans-97"/>
       <use x="124.755859" xlink:href="#DejaVuSans-108"/>
       <use x="152.539062" xlink:href="#DejaVuSans-97"/>
       <use x="213.818359" xlink:href="#DejaVuSans-110"/>
       <use x="277.197266" xlink:href="#DejaVuSans-99"/>
       <use x="332.177734" xlink:href="#DejaVuSans-101"/>
       <use x="393.701172" xlink:href="#DejaVuSans-45"/>
       <use x="429.785156" xlink:href="#DejaVuSans-49"/>
      </g>
     </g>
    </g>
    <g id="ytick_20">
     <g id="line2d_26">
      <g>
       <use style="stroke:#000000;stroke-width:0.8;" x="91.25625" xlink:href="#mb926b40946" y="374.991651"/>
      </g>
     </g>
     <g id="text_27">
      <!-- yeast-7vs.1 -->
      <g transform="translate(26.2875 378.790869)scale(0.1 -0.1)">
       <use xlink:href="#DejaVuSans-121"/>
       <use x="59.179688" xlink:href="#DejaVuSans-101"/>
       <use x="120.703125" xlink:href="#DejaVuSans-97"/>
       <use x="181.982422" xlink:href="#DejaVuSans-115"/>
       <use x="234.082031" xlink:href="#DejaVuSans-116"/>
       <use x="273.291016" xlink:href="#DejaVuSans-45"/>
       <use x="309.375" xlink:href="#DejaVuSans-55"/>
       <use x="372.998047" xlink:href="#DejaVuSans-118"/>
       <use x="432.177734" xlink:href="#DejaVuSans-115"/>
       <use x="484.277344" xlink:href="#DejaVuSans-46"/>
       <use x="516.064453" xlink:href="#DejaVuSans-49"/>
      </g>
     </g>
    </g>
    <g id="ytick_21">
     <g id="line2d_27">
      <g>
       <use style="stroke:#000000;stroke-width:0.8;" x="91.25625" xlink:href="#mb926b40946" y="338.31411"/>
      </g>
     </g>
     <g id="text_28">
      <!-- ecoli-5 -->
      <g transform="translate(50.959375 342.113329)scale(0.1 -0.1)">
       <use xlink:href="#DejaVuSans-101"/>
       <use x="61.523438" xlink:href="#DejaVuSans-99"/>
       <use x="116.503906" xlink:href="#DejaVuSans-111"/>
       <use x="177.685547" xlink:href="#DejaVuSans-108"/>
       <use x="205.46875" xlink:href="#DejaVuSans-105"/>
       <use x="233.251953" xlink:href="#DejaVuSans-45"/>
       <use x="269.335938" xlink:href="#DejaVuSans-53"/>
      </g>
     </g>
    </g>
    <g id="ytick_22">
     <g id="line2d_28">
      <g>
       <use style="stroke:#000000;stroke-width:0.8;" x="91.25625" xlink:href="#mb926b40946" y="301.636569"/>
      </g>
     </g>
     <g id="text_29">
      <!-- yeast-7vs.1458 -->
      <g transform="translate(7.2 305.435788)scale(0.1 -0.1)">
       <use xlink:href="#DejaVuSans-121"/>
       <use x="59.179688" xlink:href="#DejaVuSans-101"/>
       <use x="120.703125" xlink:href="#DejaVuSans-97"/>
       <use x="181.982422" xlink:href="#DejaVuSans-115"/>
       <use x="234.082031" xlink:href="#DejaVuSans-116"/>
       <use x="273.291016" xlink:href="#DejaVuSans-45"/>
       <use x="309.375" xlink:href="#DejaVuSans-55"/>
       <use x="372.998047" xlink:href="#DejaVuSans-118"/>
       <use x="432.177734" xlink:href="#DejaVuSans-115"/>
       <use x="484.277344" xlink:href="#DejaVuSans-46"/>
       <use x="516.064453" xlink:href="#DejaVuSans-49"/>
       <use x="579.6875" xlink:href="#DejaVuSans-52"/>
       <use x="643.310547" xlink:href="#DejaVuSans-53"/>
       <use x="706.933594" xlink:href="#DejaVuSans-56"/>
      </g>
     </g>
    </g>
    <g id="ytick_23">
     <g id="line2d_29">
      <g>
       <use style="stroke:#000000;stroke-width:0.8;" x="91.25625" xlink:href="#mb926b40946" y="264.959028"/>
      </g>
     </g>
     <g id="text_30">
      <!-- letter-1 -->
      <g transform="translate(47.8875 268.758247)scale(0.1 -0.1)">
       <defs>
        <path d="M 41.109375 46.296875 
Q 39.59375 47.171875 37.8125 47.578125 
Q 36.03125 48 33.890625 48 
Q 26.265625 48 22.1875 43.046875 
Q 18.109375 38.09375 18.109375 28.8125 
L 18.109375 0 
L 9.078125 0 
L 9.078125 54.6875 
L 18.109375 54.6875 
L 18.109375 46.1875 
Q 20.953125 51.171875 25.484375 53.578125 
Q 30.03125 56 36.53125 56 
Q 37.453125 56 38.578125 55.875 
Q 39.703125 55.765625 41.0625 55.515625 
z
" id="DejaVuSans-114"/>
       </defs>
       <use xlink:href="#DejaVuSans-108"/>
       <use x="27.783203" xlink:href="#DejaVuSans-101"/>
       <use x="89.306641" xlink:href="#DejaVuSans-116"/>
       <use x="128.515625" xlink:href="#DejaVuSans-116"/>
       <use x="167.724609" xlink:href="#DejaVuSans-101"/>
       <use x="229.248047" xlink:href="#DejaVuSans-114"/>
       <use x="263.986328" xlink:href="#DejaVuSans-45"/>
       <use x="300.070312" xlink:href="#DejaVuSans-49"/>
      </g>
     </g>
    </g>
    <g id="ytick_24">
     <g id="line2d_30">
      <g>
       <use style="stroke:#000000;stroke-width:0.8;" x="91.25625" xlink:href="#mb926b40946" y="228.281488"/>
      </g>
     </g>
     <g id="text_31">
      <!-- yeast-4 -->
      <g transform="translate(46.95625 232.080706)scale(0.1 -0.1)">
       <use xlink:href="#DejaVuSans-121"/>
       <use x="59.179688" xlink:href="#DejaVuSans-101"/>
       <use x="120.703125" xlink:href="#DejaVuSans-97"/>
       <use x="181.982422" xlink:href="#DejaVuSans-115"/>
       <use x="234.082031" xlink:href="#DejaVuSans-116"/>
       <use x="273.291016" xlink:href="#DejaVuSans-45"/>
       <use x="309.375" xlink:href="#DejaVuSans-52"/>
      </g>
     </g>
    </g>
    <g id="ytick_25">
     <g id="line2d_31">
      <g>
       <use style="stroke:#000000;stroke-width:0.8;" x="91.25625" xlink:href="#mb926b40946" y="191.603947"/>
      </g>
     </g>
     <g id="text_32">
      <!-- wine-4 -->
      <g transform="translate(50.839063 195.403166)scale(0.1 -0.1)">
       <use xlink:href="#DejaVuSans-119"/>
       <use x="81.787109" xlink:href="#DejaVuSans-105"/>
       <use x="109.570312" xlink:href="#DejaVuSans-110"/>
       <use x="172.949219" xlink:href="#DejaVuSans-101"/>
       <use x="234.472656" xlink:href="#DejaVuSans-45"/>
       <use x="270.556641" xlink:href="#DejaVuSans-52"/>
      </g>
     </g>
    </g>
    <g id="ytick_26">
     <g id="line2d_32">
      <g>
       <use style="stroke:#000000;stroke-width:0.8;" x="91.25625" xlink:href="#mb926b40946" y="154.926406"/>
      </g>
     </g>
     <g id="text_33">
      <!-- wine-8vs.6 -->
      <g transform="translate(30.170313 158.725625)scale(0.1 -0.1)">
       <use xlink:href="#DejaVuSans-119"/>
       <use x="81.787109" xlink:href="#DejaVuSans-105"/>
       <use x="109.570312" xlink:href="#DejaVuSans-110"/>
       <use x="172.949219" xlink:href="#DejaVuSans-101"/>
       <use x="234.472656" xlink:href="#DejaVuSans-45"/>
       <use x="270.556641" xlink:href="#DejaVuSans-56"/>
       <use x="334.179688" xlink:href="#DejaVuSans-118"/>
       <use x="393.359375" xlink:href="#DejaVuSans-115"/>
       <use x="445.458984" xlink:href="#DejaVuSans-46"/>
       <use x="477.246094" xlink:href="#DejaVuSans-54"/>
      </g>
     </g>
    </g>
    <g id="ytick_27">
     <g id="line2d_33">
      <g>
       <use style="stroke:#000000;stroke-width:0.8;" x="91.25625" xlink:href="#mb926b40946" y="118.248865"/>
      </g>
     </g>
     <g id="text_34">
      <!-- yeast-6 -->
      <g transform="translate(46.95625 122.048084)scale(0.1 -0.1)">
       <use xlink:href="#DejaVuSans-121"/>
       <use x="59.179688" xlink:href="#DejaVuSans-101"/>
       <use x="120.703125" xlink:href="#DejaVuSans-97"/>
       <use x="181.982422" xlink:href="#DejaVuSans-115"/>
       <use x="234.082031" xlink:href="#DejaVuSans-116"/>
       <use x="273.291016" xlink:href="#DejaVuSans-45"/>
       <use x="309.375" xlink:href="#DejaVuSans-54"/>
      </g>
     </g>
    </g>
    <g id="ytick_28">
     <g id="line2d_34">
      <g>
       <use style="stroke:#000000;stroke-width:0.8;" x="91.25625" xlink:href="#mb926b40946" y="81.571324"/>
      </g>
     </g>
     <g id="text_35">
      <!-- page-3 -->
      <g transform="translate(49.307813 85.370543)scale(0.1 -0.1)">
       <use xlink:href="#DejaVuSans-112"/>
       <use x="63.476562" xlink:href="#DejaVuSans-97"/>
       <use x="124.755859" xlink:href="#DejaVuSans-103"/>
       <use x="188.232422" xlink:href="#DejaVuSans-101"/>
       <use x="249.755859" xlink:href="#DejaVuSans-45"/>
       <use x="285.839844" xlink:href="#DejaVuSans-51"/>
      </g>
     </g>
    </g>
   </g>
   <g id="patch_59">
    <path d="M 91.25625 1131.118125 
L 91.25625 22.318125 
" style="fill:none;stroke:#000000;stroke-linecap:square;stroke-linejoin:miter;stroke-width:0.8;"/>
   </g>
   <g id="patch_60">
    <path d="M 593.45625 1131.118125 
L 593.45625 22.318125 
" style="fill:none;stroke:#000000;stroke-linecap:square;stroke-linejoin:miter;stroke-width:0.8;"/>
   </g>
   <g id="patch_61">
    <path d="M 91.25625 1131.118125 
L 593.45625 1131.118125 
" style="fill:none;stroke:#000000;stroke-linecap:square;stroke-linejoin:miter;stroke-width:0.8;"/>
   </g>
   <g id="patch_62">
    <path d="M 91.25625 22.318125 
L 593.45625 22.318125 
" style="fill:none;stroke:#000000;stroke-linecap:square;stroke-linejoin:miter;stroke-width:0.8;"/>
   </g>
   <g id="text_36">
    <!-- Comparison of AUC before and after evolution -->
    <g transform="translate(203.854688 16.318125)scale(0.12 -0.12)">
     <defs>
      <path d="M 52 44.1875 
Q 55.375 50.25 60.0625 53.125 
Q 64.75 56 71.09375 56 
Q 79.640625 56 84.28125 50.015625 
Q 88.921875 44.046875 88.921875 33.015625 
L 88.921875 0 
L 79.890625 0 
L 79.890625 32.71875 
Q 79.890625 40.578125 77.09375 44.375 
Q 74.3125 48.1875 68.609375 48.1875 
Q 61.625 48.1875 57.5625 43.546875 
Q 53.515625 38.921875 53.515625 30.90625 
L 53.515625 0 
L 44.484375 0 
L 44.484375 32.71875 
Q 44.484375 40.625 41.703125 44.40625 
Q 38.921875 48.1875 33.109375 48.1875 
Q 26.21875 48.1875 22.15625 43.53125 
Q 18.109375 38.875 18.109375 30.90625 
L 18.109375 0 
L 9.078125 0 
L 9.078125 54.6875 
L 18.109375 54.6875 
L 18.109375 46.1875 
Q 21.1875 51.21875 25.484375 53.609375 
Q 29.78125 56 35.6875 56 
Q 41.65625 56 45.828125 52.96875 
Q 50 49.953125 52 44.1875 
z
" id="DejaVuSans-109"/>
      <path id="DejaVuSans-32"/>
      <path d="M 37.109375 75.984375 
L 37.109375 68.5 
L 28.515625 68.5 
Q 23.6875 68.5 21.796875 66.546875 
Q 19.921875 64.59375 19.921875 59.515625 
L 19.921875 54.6875 
L 34.71875 54.6875 
L 34.71875 47.703125 
L 19.921875 47.703125 
L 19.921875 0 
L 10.890625 0 
L 10.890625 47.703125 
L 2.296875 47.703125 
L 2.296875 54.6875 
L 10.890625 54.6875 
L 10.890625 58.5 
Q 10.890625 67.625 15.140625 71.796875 
Q 19.390625 75.984375 28.609375 75.984375 
z
" id="DejaVuSans-102"/>
      <path d="M 8.5 21.578125 
L 8.5 54.6875 
L 17.484375 54.6875 
L 17.484375 21.921875 
Q 17.484375 14.15625 20.5 10.265625 
Q 23.53125 6.390625 29.59375 6.390625 
Q 36.859375 6.390625 41.078125 11.03125 
Q 45.3125 15.671875 45.3125 23.6875 
L 45.3125 54.6875 
L 54.296875 54.6875 
L 54.296875 0 
L 45.3125 0 
L 45.3125 8.40625 
Q 42.046875 3.421875 37.71875 1 
Q 33.40625 -1.421875 27.6875 -1.421875 
Q 18.265625 -1.421875 13.375 4.4375 
Q 8.5 10.296875 8.5 21.578125 
z
M 31.109375 56 
z
" id="DejaVuSans-117"/>
     </defs>
     <use xlink:href="#DejaVuSans-67"/>
     <use x="69.824219" xlink:href="#DejaVuSans-111"/>
     <use x="131.005859" xlink:href="#DejaVuSans-109"/>
     <use x="228.417969" xlink:href="#DejaVuSans-112"/>
     <use x="291.894531" xlink:href="#DejaVuSans-97"/>
     <use x="353.173828" xlink:href="#DejaVuSans-114"/>
     <use x="394.287109" xlink:href="#DejaVuSans-105"/>
     <use x="422.070312" xlink:href="#DejaVuSans-115"/>
     <use x="474.169922" xlink:href="#DejaVuSans-111"/>
     <use x="535.351562" xlink:href="#DejaVuSans-110"/>
     <use x="598.730469" xlink:href="#DejaVuSans-32"/>
     <use x="630.517578" xlink:href="#DejaVuSans-111"/>
     <use x="691.699219" xlink:href="#DejaVuSans-102"/>
     <use x="726.904297" xlink:href="#DejaVuSans-32"/>
     <use x="758.691406" xlink:href="#DejaVuSans-65"/>
     <use x="827.099609" xlink:href="#DejaVuSans-85"/>
     <use x="900.292969" xlink:href="#DejaVuSans-67"/>
     <use x="970.117188" xlink:href="#DejaVuSans-32"/>
     <use x="1001.904297" xlink:href="#DejaVuSans-98"/>
     <use x="1065.380859" xlink:href="#DejaVuSans-101"/>
     <use x="1126.904297" xlink:href="#DejaVuSans-102"/>
     <use x="1162.109375" xlink:href="#DejaVuSans-111"/>
     <use x="1223.291016" xlink:href="#DejaVuSans-114"/>
     <use x="1262.154297" xlink:href="#DejaVuSans-101"/>
     <use x="1323.677734" xlink:href="#DejaVuSans-32"/>
     <use x="1355.464844" xlink:href="#DejaVuSans-97"/>
     <use x="1416.744141" xlink:href="#DejaVuSans-110"/>
     <use x="1480.123047" xlink:href="#DejaVuSans-100"/>
     <use x="1543.599609" xlink:href="#DejaVuSans-32"/>
     <use x="1575.386719" xlink:href="#DejaVuSans-97"/>
     <use x="1636.666016" xlink:href="#DejaVuSans-102"/>
     <use x="1670.121094" xlink:href="#DejaVuSans-116"/>
     <use x="1709.330078" xlink:href="#DejaVuSans-101"/>
     <use x="1770.853516" xlink:href="#DejaVuSans-114"/>
     <use x="1811.966797" xlink:href="#DejaVuSans-32"/>
     <use x="1843.753906" xlink:href="#DejaVuSans-101"/>
     <use x="1905.277344" xlink:href="#DejaVuSans-118"/>
     <use x="1964.457031" xlink:href="#DejaVuSans-111"/>
     <use x="2025.638672" xlink:href="#DejaVuSans-108"/>
     <use x="2053.421875" xlink:href="#DejaVuSans-117"/>
     <use x="2116.800781" xlink:href="#DejaVuSans-116"/>
     <use x="2156.009766" xlink:href="#DejaVuSans-105"/>
     <use x="2183.792969" xlink:href="#DejaVuSans-111"/>
     <use x="2244.974609" xlink:href="#DejaVuSans-110"/>
    </g>
   </g>
   <g id="legend_1">
    <g id="patch_63">
     <path d="M 456.370313 59.674375 
L 586.45625 59.674375 
Q 588.45625 59.674375 588.45625 57.674375 
L 588.45625 29.318125 
Q 588.45625 27.318125 586.45625 27.318125 
L 456.370313 27.318125 
Q 454.370313 27.318125 454.370313 29.318125 
L 454.370313 57.674375 
Q 454.370313 59.674375 456.370313 59.674375 
z
" style="fill:#ffffff;opacity:0.8;stroke:#cccccc;stroke-linejoin:miter;"/>
    </g>
    <g id="patch_64">
     <path d="M 458.370313 38.916563 
L 478.370313 38.916563 
L 478.370313 31.916563 
L 458.370313 31.916563 
z
" style="fill:#1f77b4;"/>
    </g>
    <g id="text_37">
     <!-- Before optimization -->
     <g transform="translate(486.370313 38.916563)scale(0.1 -0.1)">
      <defs>
       <path d="M 19.671875 34.8125 
L 19.671875 8.109375 
L 35.5 8.109375 
Q 43.453125 8.109375 47.28125 11.40625 
Q 51.125 14.703125 51.125 21.484375 
Q 51.125 28.328125 47.28125 31.5625 
Q 43.453125 34.8125 35.5 34.8125 
z
M 19.671875 64.796875 
L 19.671875 42.828125 
L 34.28125 42.828125 
Q 41.5 42.828125 45.03125 45.53125 
Q 48.578125 48.25 48.578125 53.8125 
Q 48.578125 59.328125 45.03125 62.0625 
Q 41.5 64.796875 34.28125 64.796875 
z
M 9.8125 72.90625 
L 35.015625 72.90625 
Q 46.296875 72.90625 52.390625 68.21875 
Q 58.5 63.53125 58.5 54.890625 
Q 58.5 48.1875 55.375 44.234375 
Q 52.25 40.28125 46.1875 39.3125 
Q 53.46875 37.75 57.5 32.78125 
Q 61.53125 27.828125 61.53125 20.40625 
Q 61.53125 10.640625 54.890625 5.3125 
Q 48.25 0 35.984375 0 
L 9.8125 0 
z
" id="DejaVuSans-66"/>
       <path d="M 5.515625 54.6875 
L 48.1875 54.6875 
L 48.1875 46.484375 
L 14.40625 7.171875 
L 48.1875 7.171875 
L 48.1875 0 
L 4.296875 0 
L 4.296875 8.203125 
L 38.09375 47.515625 
L 5.515625 47.515625 
z
" id="DejaVuSans-122"/>
      </defs>
      <use xlink:href="#DejaVuSans-66"/>
      <use x="68.603516" xlink:href="#DejaVuSans-101"/>
      <use x="130.126953" xlink:href="#DejaVuSans-102"/>
      <use x="165.332031" xlink:href="#DejaVuSans-111"/>
      <use x="226.513672" xlink:href="#DejaVuSans-114"/>
      <use x="265.376953" xlink:href="#DejaVuSans-101"/>
      <use x="326.900391" xlink:href="#DejaVuSans-32"/>
      <use x="358.6875" xlink:href="#DejaVuSans-111"/>
      <use x="419.869141" xlink:href="#DejaVuSans-112"/>
      <use x="483.345703" xlink:href="#DejaVuSans-116"/>
      <use x="522.554688" xlink:href="#DejaVuSans-105"/>
      <use x="550.337891" xlink:href="#DejaVuSans-109"/>
      <use x="647.75" xlink:href="#DejaVuSans-105"/>
      <use x="675.533203" xlink:href="#DejaVuSans-122"/>
      <use x="728.023438" xlink:href="#DejaVuSans-97"/>
      <use x="789.302734" xlink:href="#DejaVuSans-116"/>
      <use x="828.511719" xlink:href="#DejaVuSans-105"/>
      <use x="856.294922" xlink:href="#DejaVuSans-111"/>
      <use x="917.476562" xlink:href="#DejaVuSans-110"/>
     </g>
    </g>
    <g id="patch_65">
     <path d="M 458.370313 53.594687 
L 478.370313 53.594687 
L 478.370313 46.594687 
L 458.370313 46.594687 
z
" style="fill:#ff7f0e;"/>
    </g>
    <g id="text_38">
     <!-- After optimization -->
     <g transform="translate(486.370313 53.594687)scale(0.1 -0.1)">
      <use xlink:href="#DejaVuSans-65"/>
      <use x="64.783203" xlink:href="#DejaVuSans-102"/>
      <use x="98.238281" xlink:href="#DejaVuSans-116"/>
      <use x="137.447266" xlink:href="#DejaVuSans-101"/>
      <use x="198.970703" xlink:href="#DejaVuSans-114"/>
      <use x="240.083984" xlink:href="#DejaVuSans-32"/>
      <use x="271.871094" xlink:href="#DejaVuSans-111"/>
      <use x="333.052734" xlink:href="#DejaVuSans-112"/>
      <use x="396.529297" xlink:href="#DejaVuSans-116"/>
      <use x="435.738281" xlink:href="#DejaVuSans-105"/>
      <use x="463.521484" xlink:href="#DejaVuSans-109"/>
      <use x="560.933594" xlink:href="#DejaVuSans-105"/>
      <use x="588.716797" xlink:href="#DejaVuSans-122"/>
      <use x="641.207031" xlink:href="#DejaVuSans-97"/>
      <use x="702.486328" xlink:href="#DejaVuSans-116"/>
      <use x="741.695312" xlink:href="#DejaVuSans-105"/>
      <use x="769.478516" xlink:href="#DejaVuSans-111"/>
      <use x="830.660156" xlink:href="#DejaVuSans-110"/>
     </g>
    </g>
   </g>
  </g>
 </g>
 <defs>
  <clipPath id="p8f844e3746">
   <rect height="1108.8" width="502.2" x="91.25625" y="22.318125"/>
  </clipPath>
 </defs>
</svg>
