<?xml version="1.0" encoding="utf-8" standalone="no"?>
<!DOCTYPE svg PUBLIC "-//W3C//DTD SVG 1.1//EN"
  "http://www.w3.org/Graphics/SVG/1.1/DTD/svg11.dtd">
<!-- Created with matplotlib (https://matplotlib.org/) -->
<svg height="325.986375pt" version="1.1" viewBox="0 0 474.35125 325.986375" width="474.35125pt" xmlns="http://www.w3.org/2000/svg" xmlns:xlink="http://www.w3.org/1999/xlink">
 <metadata>
  <rdf:RDF xmlns:cc="http://creativecommons.org/ns#" xmlns:dc="http://purl.org/dc/elements/1.1/" xmlns:rdf="http://www.w3.org/1999/02/22-rdf-syntax-ns#">
   <cc:Work>
    <dc:type rdf:resource="http://purl.org/dc/dcmitype/StillImage"/>
    <dc:date>2021-03-24T22:55:47.479934</dc:date>
    <dc:format>image/svg+xml</dc:format>
    <dc:creator>
     <cc:Agent>
      <dc:title>Matplotlib v3.3.4, https://matplotlib.org/</dc:title>
     </cc:Agent>
    </dc:creator>
   </cc:Work>
  </rdf:RDF>
 </metadata>
 <defs>
  <style type="text/css">*{stroke-linecap:butt;stroke-linejoin:round;}</style>
 </defs>
 <g id="figure_1">
  <g id="patch_1">
   <path d="M 0 325.986375 
L 474.35125 325.986375 
L 474.35125 0 
L 0 0 
z
" style="fill:#ffffff;"/>
  </g>
  <g id="axes_1">
   <g id="patch_2">
    <path d="M 102.079688 288.430125 
L 459.199687 288.430125 
L 459.199687 22.318125 
L 102.079688 22.318125 
z
" style="fill:#ffffff;"/>
   </g>
   <g id="patch_3">
    <path clip-path="url(#p0d1f333070)" d="M -112.192312 36.916746 
L 263.497928 36.916746 
L 263.497928 34.414125 
L -112.192312 34.414125 
z
" style="fill:#1f77b4;"/>
   </g>
   <g id="patch_4">
    <path clip-path="url(#p0d1f333070)" d="M -112.192312 45.675918 
L 285.448903 45.675918 
L 285.448903 43.173297 
L -112.192312 43.173297 
z
" style="fill:#1f77b4;"/>
   </g>
   <g id="patch_5">
    <path clip-path="url(#p0d1f333070)" d="M -112.192312 54.435091 
L 233.785543 54.435091 
L 233.785543 51.93247 
L -112.192312 51.93247 
z
" style="fill:#1f77b4;"/>
   </g>
   <g id="patch_6">
    <path clip-path="url(#p0d1f333070)" d="M -112.192312 63.194263 
L 284.115656 63.194263 
L 284.115656 60.691642 
L -112.192312 60.691642 
z
" style="fill:#1f77b4;"/>
   </g>
   <g id="patch_7">
    <path clip-path="url(#p0d1f333070)" d="M -112.192312 71.953435 
L 317.256391 71.953435 
L 317.256391 69.450815 
L -112.192312 69.450815 
z
" style="fill:#1f77b4;"/>
   </g>
   <g id="patch_8">
    <path clip-path="url(#p0d1f333070)" d="M -112.192312 80.712608 
L 272.640199 80.712608 
L 272.640199 78.209987 
L -112.192312 78.209987 
z
" style="fill:#1f77b4;"/>
   </g>
   <g id="patch_9">
    <path clip-path="url(#p0d1f333070)" d="M -112.192312 89.47178 
L 280.592071 89.47178 
L 280.592071 86.969159 
L -112.192312 86.969159 
z
" style="fill:#1f77b4;"/>
   </g>
   <g id="patch_10">
    <path clip-path="url(#p0d1f333070)" d="M -112.192312 98.230953 
L 208.644295 98.230953 
L 208.644295 95.728332 
L -112.192312 95.728332 
z
" style="fill:#1f77b4;"/>
   </g>
   <g id="patch_11">
    <path clip-path="url(#p0d1f333070)" d="M -112.192312 106.990125 
L 282.830024 106.990125 
L 282.830024 104.487504 
L -112.192312 104.487504 
z
" style="fill:#1f77b4;"/>
   </g>
   <g id="patch_12">
    <path clip-path="url(#p0d1f333070)" d="M -112.192312 115.749297 
L 331.92212 115.749297 
L 331.92212 113.246677 
L -112.192312 113.246677 
z
" style="fill:#1f77b4;"/>
   </g>
   <g id="patch_13">
    <path clip-path="url(#p0d1f333070)" d="M -112.192312 124.50847 
L 359.634631 124.50847 
L 359.634631 122.005849 
L -112.192312 122.005849 
z
" style="fill:#1f77b4;"/>
   </g>
   <g id="patch_14">
    <path clip-path="url(#p0d1f333070)" d="M -112.192312 133.267642 
L 234.880711 133.267642 
L 234.880711 130.765022 
L -112.192312 130.765022 
z
" style="fill:#1f77b4;"/>
   </g>
   <g id="patch_15">
    <path clip-path="url(#p0d1f333070)" d="M -112.192312 142.026815 
L 313.399496 142.026815 
L 313.399496 139.524194 
L -112.192312 139.524194 
z
" style="fill:#1f77b4;"/>
   </g>
   <g id="patch_16">
    <path clip-path="url(#p0d1f333070)" d="M -112.192312 150.785987 
L 353.11124 150.785987 
L 353.11124 148.283366 
L -112.192312 148.283366 
z
" style="fill:#1f77b4;"/>
   </g>
   <g id="patch_17">
    <path clip-path="url(#p0d1f333070)" d="M -112.192312 159.545159 
L 363.681991 159.545159 
L 363.681991 157.042539 
L -112.192312 157.042539 
z
" style="fill:#1f77b4;"/>
   </g>
   <g id="patch_18">
    <path clip-path="url(#p0d1f333070)" d="M -112.192312 168.304332 
L 326.065352 168.304332 
L 326.065352 165.801711 
L -112.192312 165.801711 
z
" style="fill:#1f77b4;"/>
   </g>
   <g id="patch_19">
    <path clip-path="url(#p0d1f333070)" d="M -112.192312 177.063504 
L 351.206599 177.063504 
L 351.206599 174.560884 
L -112.192312 174.560884 
z
" style="fill:#1f77b4;"/>
   </g>
   <g id="patch_20">
    <path clip-path="url(#p0d1f333070)" d="M -112.192312 185.822677 
L 359.348935 185.822677 
L 359.348935 183.320056 
L -112.192312 183.320056 
z
" style="fill:#1f77b4;"/>
   </g>
   <g id="patch_21">
    <path clip-path="url(#p0d1f333070)" d="M -112.192312 194.581849 
L 221.453 194.581849 
L 221.453 192.079228 
L -112.192312 192.079228 
z
" style="fill:#1f77b4;"/>
   </g>
   <g id="patch_22">
    <path clip-path="url(#p0d1f333070)" d="M -112.192312 203.341022 
L 291.353287 203.341022 
L 291.353287 200.838401 
L -112.192312 200.838401 
z
" style="fill:#1f77b4;"/>
   </g>
   <g id="patch_23">
    <path clip-path="url(#p0d1f333070)" d="M -112.192312 212.100194 
L 344.397511 212.100194 
L 344.397511 209.597573 
L -112.192312 209.597573 
z
" style="fill:#1f77b4;"/>
   </g>
   <g id="patch_24">
    <path clip-path="url(#p0d1f333070)" d="M -112.192312 220.859366 
L 221.453 220.859366 
L 221.453 218.356746 
L -112.192312 218.356746 
z
" style="fill:#1f77b4;"/>
   </g>
   <g id="patch_25">
    <path clip-path="url(#p0d1f333070)" d="M -112.192312 229.618539 
L 358.444232 229.618539 
L 358.444232 227.115918 
L -112.192312 227.115918 
z
" style="fill:#1f77b4;"/>
   </g>
   <g id="patch_26">
    <path clip-path="url(#p0d1f333070)" d="M -112.192312 238.377711 
L 319.922888 238.377711 
L 319.922888 235.875091 
L -112.192312 235.875091 
z
" style="fill:#1f77b4;"/>
   </g>
   <g id="patch_27">
    <path clip-path="url(#p0d1f333070)" d="M -112.192312 247.136884 
L 122.745032 247.136884 
L 122.745032 244.634263 
L -112.192312 244.634263 
z
" style="fill:#1f77b4;"/>
   </g>
   <g id="patch_28">
    <path clip-path="url(#p0d1f333070)" d="M -112.192312 255.896056 
L 268.449992 255.896056 
L 268.449992 253.393435 
L -112.192312 253.393435 
z
" style="fill:#1f77b4;"/>
   </g>
   <g id="patch_29">
    <path clip-path="url(#p0d1f333070)" d="M -112.192312 264.655228 
L 337.350344 264.655228 
L 337.350344 262.152608 
L -112.192312 262.152608 
z
" style="fill:#1f77b4;"/>
   </g>
   <g id="patch_30">
    <path clip-path="url(#p0d1f333070)" d="M -112.192312 273.414401 
L 351.254215 273.414401 
L 351.254215 270.91178 
L -112.192312 270.91178 
z
" style="fill:#1f77b4;"/>
   </g>
   <g id="patch_31">
    <path clip-path="url(#p0d1f333070)" d="M -112.192312 39.83647 
L 270.02132 39.83647 
L 270.02132 37.333849 
L -112.192312 37.333849 
z
" style="fill:#ff7f0e;"/>
   </g>
   <g id="patch_32">
    <path clip-path="url(#p0d1f333070)" d="M -112.192312 48.595642 
L 291.305672 48.595642 
L 291.305672 46.093022 
L -112.192312 46.093022 
z
" style="fill:#ff7f0e;"/>
   </g>
   <g id="patch_33">
    <path clip-path="url(#p0d1f333070)" d="M -112.192312 57.354815 
L 246.356167 57.354815 
L 246.356167 54.852194 
L -112.192312 54.852194 
z
" style="fill:#ff7f0e;"/>
   </g>
   <g id="patch_34">
    <path clip-path="url(#p0d1f333070)" d="M -112.192312 66.113987 
L 295.781576 66.113987 
L 295.781576 63.611366 
L -112.192312 63.611366 
z
" style="fill:#ff7f0e;"/>
   </g>
   <g id="patch_35">
    <path clip-path="url(#p0d1f333070)" d="M -112.192312 74.873159 
L 320.637128 74.873159 
L 320.637128 72.370539 
L -112.192312 72.370539 
z
" style="fill:#ff7f0e;"/>
   </g>
   <g id="patch_36">
    <path clip-path="url(#p0d1f333070)" d="M -112.192312 83.632332 
L 271.830727 83.632332 
L 271.830727 81.129711 
L -112.192312 81.129711 
z
" style="fill:#ff7f0e;"/>
   </g>
   <g id="patch_37">
    <path clip-path="url(#p0d1f333070)" d="M -112.192312 92.391504 
L 288.877256 92.391504 
L 288.877256 89.888884 
L -112.192312 89.888884 
z
" style="fill:#ff7f0e;"/>
   </g>
   <g id="patch_38">
    <path clip-path="url(#p0d1f333070)" d="M -112.192312 101.150677 
L 224.833735 101.150677 
L 224.833735 98.648056 
L -112.192312 98.648056 
z
" style="fill:#ff7f0e;"/>
   </g>
   <g id="patch_39">
    <path clip-path="url(#p0d1f333070)" d="M -112.192312 109.909849 
L 284.020423 109.909849 
L 284.020423 107.407228 
L -112.192312 107.407228 
z
" style="fill:#ff7f0e;"/>
   </g>
   <g id="patch_40">
    <path clip-path="url(#p0d1f333070)" d="M -112.192312 118.669022 
L 335.01716 118.669022 
L 335.01716 116.166401 
L -112.192312 116.166401 
z
" style="fill:#ff7f0e;"/>
   </g>
   <g id="patch_41">
    <path clip-path="url(#p0d1f333070)" d="M -112.192312 127.428194 
L 362.348743 127.428194 
L 362.348743 124.925573 
L -112.192312 124.925573 
z
" style="fill:#ff7f0e;"/>
   </g>
   <g id="patch_42">
    <path clip-path="url(#p0d1f333070)" d="M -112.192312 136.187366 
L 237.785288 136.187366 
L 237.785288 133.684746 
L -112.192312 133.684746 
z
" style="fill:#ff7f0e;"/>
   </g>
   <g id="patch_43">
    <path clip-path="url(#p0d1f333070)" d="M -112.192312 144.946539 
L 322.684615 144.946539 
L 322.684615 142.443918 
L -112.192312 142.443918 
z
" style="fill:#ff7f0e;"/>
   </g>
   <g id="patch_44">
    <path clip-path="url(#p0d1f333070)" d="M -112.192312 153.705711 
L 353.492167 153.705711 
L 353.492167 151.203091 
L -112.192312 151.203091 
z
" style="fill:#ff7f0e;"/>
   </g>
   <g id="patch_45">
    <path clip-path="url(#p0d1f333070)" d="M -112.192312 162.464884 
L 363.82484 162.464884 
L 363.82484 159.962263 
L -112.192312 159.962263 
z
" style="fill:#ff7f0e;"/>
   </g>
   <g id="patch_46">
    <path clip-path="url(#p0d1f333070)" d="M -112.192312 171.224056 
L 328.398535 171.224056 
L 328.398535 168.721435 
L -112.192312 168.721435 
z
" style="fill:#ff7f0e;"/>
   </g>
   <g id="patch_47">
    <path clip-path="url(#p0d1f333070)" d="M -112.192312 179.983228 
L 351.301832 179.983228 
L 351.301832 177.480608 
L -112.192312 177.480608 
z
" style="fill:#ff7f0e;"/>
   </g>
   <g id="patch_48">
    <path clip-path="url(#p0d1f333070)" d="M -112.192312 188.742401 
L 362.491592 188.742401 
L 362.491592 186.23978 
L -112.192312 186.23978 
z
" style="fill:#ff7f0e;"/>
   </g>
   <g id="patch_49">
    <path clip-path="url(#p0d1f333070)" d="M -112.192312 197.501573 
L 223.833799 197.501573 
L 223.833799 194.998953 
L -112.192312 194.998953 
z
" style="fill:#ff7f0e;"/>
   </g>
   <g id="patch_50">
    <path clip-path="url(#p0d1f333070)" d="M -112.192312 206.260746 
L 304.685767 206.260746 
L 304.685767 203.758125 
L -112.192312 203.758125 
z
" style="fill:#ff7f0e;"/>
   </g>
   <g id="patch_51">
    <path clip-path="url(#p0d1f333070)" d="M -112.192312 215.019918 
L 345.159368 215.019918 
L 345.159368 212.517297 
L -112.192312 212.517297 
z
" style="fill:#ff7f0e;"/>
   </g>
   <g id="patch_52">
    <path clip-path="url(#p0d1f333070)" d="M -112.192312 223.779091 
L 222.929095 223.779091 
L 222.929095 221.27647 
L -112.192312 221.27647 
z
" style="fill:#ff7f0e;"/>
   </g>
   <g id="patch_53">
    <path clip-path="url(#p0d1f333070)" d="M -112.192312 232.538263 
L 358.920391 232.538263 
L 358.920391 230.035642 
L -112.192312 230.035642 
z
" style="fill:#ff7f0e;"/>
   </g>
   <g id="patch_54">
    <path clip-path="url(#p0d1f333070)" d="M -112.192312 241.297435 
L 322.017991 241.297435 
L 322.017991 238.794815 
L -112.192312 238.794815 
z
" style="fill:#ff7f0e;"/>
   </g>
   <g id="patch_55">
    <path clip-path="url(#p0d1f333070)" d="M -112.192312 250.056608 
L 129.649351 250.056608 
L 129.649351 247.553987 
L -112.192312 247.553987 
z
" style="fill:#ff7f0e;"/>
   </g>
   <g id="patch_56">
    <path clip-path="url(#p0d1f333070)" d="M -112.192312 258.81578 
L 269.307079 258.81578 
L 269.307079 256.313159 
L -112.192312 256.313159 
z
" style="fill:#ff7f0e;"/>
   </g>
   <g id="patch_57">
    <path clip-path="url(#p0d1f333070)" d="M -112.192312 267.574953 
L 338.826439 267.574953 
L 338.826439 265.072332 
L -112.192312 265.072332 
z
" style="fill:#ff7f0e;"/>
   </g>
   <g id="patch_58">
    <path clip-path="url(#p0d1f333070)" d="M -112.192312 276.334125 
L 356.349128 276.334125 
L 356.349128 273.831504 
L -112.192312 273.831504 
z
" style="fill:#ff7f0e;"/>
   </g>
   <g id="matplotlib.axis_1">
    <g id="xtick_1">
     <g id="line2d_1">
      <defs>
       <path d="M 0 0 
L 0 3.5 
" id="m54d4c15b5e" style="stroke:#000000;stroke-width:0.8;"/>
      </defs>
      <g>
       <use style="stroke:#000000;stroke-width:0.8;" x="125.887687" xlink:href="#m54d4c15b5e" y="288.430125"/>
      </g>
     </g>
     <g id="text_1">
      <!-- 0.5 -->
      <g transform="translate(117.936125 303.028562)scale(0.1 -0.1)">
       <defs>
        <path d="M 31.78125 66.40625 
Q 24.171875 66.40625 20.328125 58.90625 
Q 16.5 51.421875 16.5 36.375 
Q 16.5 21.390625 20.328125 13.890625 
Q 24.171875 6.390625 31.78125 6.390625 
Q 39.453125 6.390625 43.28125 13.890625 
Q 47.125 21.390625 47.125 36.375 
Q 47.125 51.421875 43.28125 58.90625 
Q 39.453125 66.40625 31.78125 66.40625 
z
M 31.78125 74.21875 
Q 44.046875 74.21875 50.515625 64.515625 
Q 56.984375 54.828125 56.984375 36.375 
Q 56.984375 17.96875 50.515625 8.265625 
Q 44.046875 -1.421875 31.78125 -1.421875 
Q 19.53125 -1.421875 13.0625 8.265625 
Q 6.59375 17.96875 6.59375 36.375 
Q 6.59375 54.828125 13.0625 64.515625 
Q 19.53125 74.21875 31.78125 74.21875 
z
" id="DejaVuSans-48"/>
        <path d="M 10.6875 12.40625 
L 21 12.40625 
L 21 0 
L 10.6875 0 
z
" id="DejaVuSans-46"/>
        <path d="M 10.796875 72.90625 
L 49.515625 72.90625 
L 49.515625 64.59375 
L 19.828125 64.59375 
L 19.828125 46.734375 
Q 21.96875 47.46875 24.109375 47.828125 
Q 26.265625 48.1875 28.421875 48.1875 
Q 40.625 48.1875 47.75 41.5 
Q 54.890625 34.8125 54.890625 23.390625 
Q 54.890625 11.625 47.5625 5.09375 
Q 40.234375 -1.421875 26.90625 -1.421875 
Q 22.3125 -1.421875 17.546875 -0.640625 
Q 12.796875 0.140625 7.71875 1.703125 
L 7.71875 11.625 
Q 12.109375 9.234375 16.796875 8.0625 
Q 21.484375 6.890625 26.703125 6.890625 
Q 35.15625 6.890625 40.078125 11.328125 
Q 45.015625 15.765625 45.015625 23.390625 
Q 45.015625 31 40.078125 35.4375 
Q 35.15625 39.890625 26.703125 39.890625 
Q 22.75 39.890625 18.8125 39.015625 
Q 14.890625 38.140625 10.796875 36.28125 
z
" id="DejaVuSans-53"/>
       </defs>
       <use xlink:href="#DejaVuSans-48"/>
       <use x="63.623047" xlink:href="#DejaVuSans-46"/>
       <use x="95.410156" xlink:href="#DejaVuSans-53"/>
      </g>
     </g>
    </g>
    <g id="xtick_2">
     <g id="line2d_2">
      <g>
       <use style="stroke:#000000;stroke-width:0.8;" x="173.503688" xlink:href="#m54d4c15b5e" y="288.430125"/>
      </g>
     </g>
     <g id="text_2">
      <!-- 0.6 -->
      <g transform="translate(165.552125 303.028562)scale(0.1 -0.1)">
       <defs>
        <path d="M 33.015625 40.375 
Q 26.375 40.375 22.484375 35.828125 
Q 18.609375 31.296875 18.609375 23.390625 
Q 18.609375 15.53125 22.484375 10.953125 
Q 26.375 6.390625 33.015625 6.390625 
Q 39.65625 6.390625 43.53125 10.953125 
Q 47.40625 15.53125 47.40625 23.390625 
Q 47.40625 31.296875 43.53125 35.828125 
Q 39.65625 40.375 33.015625 40.375 
z
M 52.59375 71.296875 
L 52.59375 62.3125 
Q 48.875 64.0625 45.09375 64.984375 
Q 41.3125 65.921875 37.59375 65.921875 
Q 27.828125 65.921875 22.671875 59.328125 
Q 17.53125 52.734375 16.796875 39.40625 
Q 19.671875 43.65625 24.015625 45.921875 
Q 28.375 48.1875 33.59375 48.1875 
Q 44.578125 48.1875 50.953125 41.515625 
Q 57.328125 34.859375 57.328125 23.390625 
Q 57.328125 12.15625 50.6875 5.359375 
Q 44.046875 -1.421875 33.015625 -1.421875 
Q 20.359375 -1.421875 13.671875 8.265625 
Q 6.984375 17.96875 6.984375 36.375 
Q 6.984375 53.65625 15.1875 63.9375 
Q 23.390625 74.21875 37.203125 74.21875 
Q 40.921875 74.21875 44.703125 73.484375 
Q 48.484375 72.75 52.59375 71.296875 
z
" id="DejaVuSans-54"/>
       </defs>
       <use xlink:href="#DejaVuSans-48"/>
       <use x="63.623047" xlink:href="#DejaVuSans-46"/>
       <use x="95.410156" xlink:href="#DejaVuSans-54"/>
      </g>
     </g>
    </g>
    <g id="xtick_3">
     <g id="line2d_3">
      <g>
       <use style="stroke:#000000;stroke-width:0.8;" x="221.119688" xlink:href="#m54d4c15b5e" y="288.430125"/>
      </g>
     </g>
     <g id="text_3">
      <!-- 0.7 -->
      <g transform="translate(213.168125 303.028562)scale(0.1 -0.1)">
       <defs>
        <path d="M 8.203125 72.90625 
L 55.078125 72.90625 
L 55.078125 68.703125 
L 28.609375 0 
L 18.3125 0 
L 43.21875 64.59375 
L 8.203125 64.59375 
z
" id="DejaVuSans-55"/>
       </defs>
       <use xlink:href="#DejaVuSans-48"/>
       <use x="63.623047" xlink:href="#DejaVuSans-46"/>
       <use x="95.410156" xlink:href="#DejaVuSans-55"/>
      </g>
     </g>
    </g>
    <g id="xtick_4">
     <g id="line2d_4">
      <g>
       <use style="stroke:#000000;stroke-width:0.8;" x="268.735688" xlink:href="#m54d4c15b5e" y="288.430125"/>
      </g>
     </g>
     <g id="text_4">
      <!-- 0.8 -->
      <g transform="translate(260.784125 303.028562)scale(0.1 -0.1)">
       <defs>
        <path d="M 31.78125 34.625 
Q 24.75 34.625 20.71875 30.859375 
Q 16.703125 27.09375 16.703125 20.515625 
Q 16.703125 13.921875 20.71875 10.15625 
Q 24.75 6.390625 31.78125 6.390625 
Q 38.8125 6.390625 42.859375 10.171875 
Q 46.921875 13.96875 46.921875 20.515625 
Q 46.921875 27.09375 42.890625 30.859375 
Q 38.875 34.625 31.78125 34.625 
z
M 21.921875 38.8125 
Q 15.578125 40.375 12.03125 44.71875 
Q 8.5 49.078125 8.5 55.328125 
Q 8.5 64.0625 14.71875 69.140625 
Q 20.953125 74.21875 31.78125 74.21875 
Q 42.671875 74.21875 48.875 69.140625 
Q 55.078125 64.0625 55.078125 55.328125 
Q 55.078125 49.078125 51.53125 44.71875 
Q 48 40.375 41.703125 38.8125 
Q 48.828125 37.15625 52.796875 32.3125 
Q 56.78125 27.484375 56.78125 20.515625 
Q 56.78125 9.90625 50.3125 4.234375 
Q 43.84375 -1.421875 31.78125 -1.421875 
Q 19.734375 -1.421875 13.25 4.234375 
Q 6.78125 9.90625 6.78125 20.515625 
Q 6.78125 27.484375 10.78125 32.3125 
Q 14.796875 37.15625 21.921875 38.8125 
z
M 18.3125 54.390625 
Q 18.3125 48.734375 21.84375 45.5625 
Q 25.390625 42.390625 31.78125 42.390625 
Q 38.140625 42.390625 41.71875 45.5625 
Q 45.3125 48.734375 45.3125 54.390625 
Q 45.3125 60.0625 41.71875 63.234375 
Q 38.140625 66.40625 31.78125 66.40625 
Q 25.390625 66.40625 21.84375 63.234375 
Q 18.3125 60.0625 18.3125 54.390625 
z
" id="DejaVuSans-56"/>
       </defs>
       <use xlink:href="#DejaVuSans-48"/>
       <use x="63.623047" xlink:href="#DejaVuSans-46"/>
       <use x="95.410156" xlink:href="#DejaVuSans-56"/>
      </g>
     </g>
    </g>
    <g id="xtick_5">
     <g id="line2d_5">
      <g>
       <use style="stroke:#000000;stroke-width:0.8;" x="316.351688" xlink:href="#m54d4c15b5e" y="288.430125"/>
      </g>
     </g>
     <g id="text_5">
      <!-- 0.9 -->
      <g transform="translate(308.400125 303.028562)scale(0.1 -0.1)">
       <defs>
        <path d="M 10.984375 1.515625 
L 10.984375 10.5 
Q 14.703125 8.734375 18.5 7.8125 
Q 22.3125 6.890625 25.984375 6.890625 
Q 35.75 6.890625 40.890625 13.453125 
Q 46.046875 20.015625 46.78125 33.40625 
Q 43.953125 29.203125 39.59375 26.953125 
Q 35.25 24.703125 29.984375 24.703125 
Q 19.046875 24.703125 12.671875 31.3125 
Q 6.296875 37.9375 6.296875 49.421875 
Q 6.296875 60.640625 12.9375 67.421875 
Q 19.578125 74.21875 30.609375 74.21875 
Q 43.265625 74.21875 49.921875 64.515625 
Q 56.59375 54.828125 56.59375 36.375 
Q 56.59375 19.140625 48.40625 8.859375 
Q 40.234375 -1.421875 26.421875 -1.421875 
Q 22.703125 -1.421875 18.890625 -0.6875 
Q 15.09375 0.046875 10.984375 1.515625 
z
M 30.609375 32.421875 
Q 37.25 32.421875 41.125 36.953125 
Q 45.015625 41.5 45.015625 49.421875 
Q 45.015625 57.28125 41.125 61.84375 
Q 37.25 66.40625 30.609375 66.40625 
Q 23.96875 66.40625 20.09375 61.84375 
Q 16.21875 57.28125 16.21875 49.421875 
Q 16.21875 41.5 20.09375 36.953125 
Q 23.96875 32.421875 30.609375 32.421875 
z
" id="DejaVuSans-57"/>
       </defs>
       <use xlink:href="#DejaVuSans-48"/>
       <use x="63.623047" xlink:href="#DejaVuSans-46"/>
       <use x="95.410156" xlink:href="#DejaVuSans-57"/>
      </g>
     </g>
    </g>
    <g id="xtick_6">
     <g id="line2d_6">
      <g>
       <use style="stroke:#000000;stroke-width:0.8;" x="363.967688" xlink:href="#m54d4c15b5e" y="288.430125"/>
      </g>
     </g>
     <g id="text_6">
      <!-- 1.0 -->
      <g transform="translate(356.016125 303.028562)scale(0.1 -0.1)">
       <defs>
        <path d="M 12.40625 8.296875 
L 28.515625 8.296875 
L 28.515625 63.921875 
L 10.984375 60.40625 
L 10.984375 69.390625 
L 28.421875 72.90625 
L 38.28125 72.90625 
L 38.28125 8.296875 
L 54.390625 8.296875 
L 54.390625 0 
L 12.40625 0 
z
" id="DejaVuSans-49"/>
       </defs>
       <use xlink:href="#DejaVuSans-49"/>
       <use x="63.623047" xlink:href="#DejaVuSans-46"/>
       <use x="95.410156" xlink:href="#DejaVuSans-48"/>
      </g>
     </g>
    </g>
    <g id="xtick_7">
     <g id="line2d_7">
      <g>
       <use style="stroke:#000000;stroke-width:0.8;" x="411.583687" xlink:href="#m54d4c15b5e" y="288.430125"/>
      </g>
     </g>
     <g id="text_7">
      <!-- 1.1 -->
      <g transform="translate(403.632125 303.028562)scale(0.1 -0.1)">
       <use xlink:href="#DejaVuSans-49"/>
       <use x="63.623047" xlink:href="#DejaVuSans-46"/>
       <use x="95.410156" xlink:href="#DejaVuSans-49"/>
      </g>
     </g>
    </g>
    <g id="xtick_8">
     <g id="line2d_8">
      <g>
       <use style="stroke:#000000;stroke-width:0.8;" x="459.199688" xlink:href="#m54d4c15b5e" y="288.430125"/>
      </g>
     </g>
     <g id="text_8">
      <!-- 1.2 -->
      <g transform="translate(451.248125 303.028562)scale(0.1 -0.1)">
       <defs>
        <path d="M 19.1875 8.296875 
L 53.609375 8.296875 
L 53.609375 0 
L 7.328125 0 
L 7.328125 8.296875 
Q 12.9375 14.109375 22.625 23.890625 
Q 32.328125 33.6875 34.8125 36.53125 
Q 39.546875 41.84375 41.421875 45.53125 
Q 43.3125 49.21875 43.3125 52.78125 
Q 43.3125 58.59375 39.234375 62.25 
Q 35.15625 65.921875 28.609375 65.921875 
Q 23.96875 65.921875 18.8125 64.3125 
Q 13.671875 62.703125 7.8125 59.421875 
L 7.8125 69.390625 
Q 13.765625 71.78125 18.9375 73 
Q 24.125 74.21875 28.421875 74.21875 
Q 39.75 74.21875 46.484375 68.546875 
Q 53.21875 62.890625 53.21875 53.421875 
Q 53.21875 48.921875 51.53125 44.890625 
Q 49.859375 40.875 45.40625 35.40625 
Q 44.1875 33.984375 37.640625 27.21875 
Q 31.109375 20.453125 19.1875 8.296875 
z
" id="DejaVuSans-50"/>
       </defs>
       <use xlink:href="#DejaVuSans-49"/>
       <use x="63.623047" xlink:href="#DejaVuSans-46"/>
       <use x="95.410156" xlink:href="#DejaVuSans-50"/>
      </g>
     </g>
    </g>
    <g id="text_9">
     <!-- AUC -->
     <g transform="translate(270.068594 316.706687)scale(0.1 -0.1)">
      <defs>
       <path d="M 34.1875 63.1875 
L 20.796875 26.90625 
L 47.609375 26.90625 
z
M 28.609375 72.90625 
L 39.796875 72.90625 
L 67.578125 0 
L 57.328125 0 
L 50.6875 18.703125 
L 17.828125 18.703125 
L 11.1875 0 
L 0.78125 0 
z
" id="DejaVuSans-65"/>
       <path d="M 8.6875 72.90625 
L 18.609375 72.90625 
L 18.609375 28.609375 
Q 18.609375 16.890625 22.84375 11.734375 
Q 27.09375 6.59375 36.625 6.59375 
Q 46.09375 6.59375 50.34375 11.734375 
Q 54.59375 16.890625 54.59375 28.609375 
L 54.59375 72.90625 
L 64.5 72.90625 
L 64.5 27.390625 
Q 64.5 13.140625 57.4375 5.859375 
Q 50.390625 -1.421875 36.625 -1.421875 
Q 22.796875 -1.421875 15.734375 5.859375 
Q 8.6875 13.140625 8.6875 27.390625 
z
" id="DejaVuSans-85"/>
       <path d="M 64.40625 67.28125 
L 64.40625 56.890625 
Q 59.421875 61.53125 53.78125 63.8125 
Q 48.140625 66.109375 41.796875 66.109375 
Q 29.296875 66.109375 22.65625 58.46875 
Q 16.015625 50.828125 16.015625 36.375 
Q 16.015625 21.96875 22.65625 14.328125 
Q 29.296875 6.6875 41.796875 6.6875 
Q 48.140625 6.6875 53.78125 8.984375 
Q 59.421875 11.28125 64.40625 15.921875 
L 64.40625 5.609375 
Q 59.234375 2.09375 53.4375 0.328125 
Q 47.65625 -1.421875 41.21875 -1.421875 
Q 24.65625 -1.421875 15.125 8.703125 
Q 5.609375 18.84375 5.609375 36.375 
Q 5.609375 53.953125 15.125 64.078125 
Q 24.65625 74.21875 41.21875 74.21875 
Q 47.75 74.21875 53.53125 72.484375 
Q 59.328125 70.75 64.40625 67.28125 
z
" id="DejaVuSans-67"/>
      </defs>
      <use xlink:href="#DejaVuSans-65"/>
      <use x="68.408203" xlink:href="#DejaVuSans-85"/>
      <use x="141.601562" xlink:href="#DejaVuSans-67"/>
     </g>
    </g>
   </g>
   <g id="matplotlib.axis_2">
    <g id="ytick_1">
     <g id="line2d_9">
      <defs>
       <path d="M 0 0 
L -3.5 0 
" id="m0aa0fb27ec" style="stroke:#000000;stroke-width:0.8;"/>
      </defs>
      <g>
       <use style="stroke:#000000;stroke-width:0.8;" x="102.079688" xlink:href="#m0aa0fb27ec" y="37.125297"/>
      </g>
     </g>
     <g id="text_10">
      <!-- bands-0 -->
      <g transform="translate(54.7375 40.924516)scale(0.1 -0.1)">
       <defs>
        <path d="M 48.6875 27.296875 
Q 48.6875 37.203125 44.609375 42.84375 
Q 40.53125 48.484375 33.40625 48.484375 
Q 26.265625 48.484375 22.1875 42.84375 
Q 18.109375 37.203125 18.109375 27.296875 
Q 18.109375 17.390625 22.1875 11.75 
Q 26.265625 6.109375 33.40625 6.109375 
Q 40.53125 6.109375 44.609375 11.75 
Q 48.6875 17.390625 48.6875 27.296875 
z
M 18.109375 46.390625 
Q 20.953125 51.265625 25.265625 53.625 
Q 29.59375 56 35.59375 56 
Q 45.5625 56 51.78125 48.09375 
Q 58.015625 40.1875 58.015625 27.296875 
Q 58.015625 14.40625 51.78125 6.484375 
Q 45.5625 -1.421875 35.59375 -1.421875 
Q 29.59375 -1.421875 25.265625 0.953125 
Q 20.953125 3.328125 18.109375 8.203125 
L 18.109375 0 
L 9.078125 0 
L 9.078125 75.984375 
L 18.109375 75.984375 
z
" id="DejaVuSans-98"/>
        <path d="M 34.28125 27.484375 
Q 23.390625 27.484375 19.1875 25 
Q 14.984375 22.515625 14.984375 16.5 
Q 14.984375 11.71875 18.140625 8.90625 
Q 21.296875 6.109375 26.703125 6.109375 
Q 34.1875 6.109375 38.703125 11.40625 
Q 43.21875 16.703125 43.21875 25.484375 
L 43.21875 27.484375 
z
M 52.203125 31.203125 
L 52.203125 0 
L 43.21875 0 
L 43.21875 8.296875 
Q 40.140625 3.328125 35.546875 0.953125 
Q 30.953125 -1.421875 24.3125 -1.421875 
Q 15.921875 -1.421875 10.953125 3.296875 
Q 6 8.015625 6 15.921875 
Q 6 25.140625 12.171875 29.828125 
Q 18.359375 34.515625 30.609375 34.515625 
L 43.21875 34.515625 
L 43.21875 35.40625 
Q 43.21875 41.609375 39.140625 45 
Q 35.0625 48.390625 27.6875 48.390625 
Q 23 48.390625 18.546875 47.265625 
Q 14.109375 46.140625 10.015625 43.890625 
L 10.015625 52.203125 
Q 14.9375 54.109375 19.578125 55.046875 
Q 24.21875 56 28.609375 56 
Q 40.484375 56 46.34375 49.84375 
Q 52.203125 43.703125 52.203125 31.203125 
z
" id="DejaVuSans-97"/>
        <path d="M 54.890625 33.015625 
L 54.890625 0 
L 45.90625 0 
L 45.90625 32.71875 
Q 45.90625 40.484375 42.875 44.328125 
Q 39.84375 48.1875 33.796875 48.1875 
Q 26.515625 48.1875 22.3125 43.546875 
Q 18.109375 38.921875 18.109375 30.90625 
L 18.109375 0 
L 9.078125 0 
L 9.078125 54.6875 
L 18.109375 54.6875 
L 18.109375 46.1875 
Q 21.34375 51.125 25.703125 53.5625 
Q 30.078125 56 35.796875 56 
Q 45.21875 56 50.046875 50.171875 
Q 54.890625 44.34375 54.890625 33.015625 
z
" id="DejaVuSans-110"/>
        <path d="M 45.40625 46.390625 
L 45.40625 75.984375 
L 54.390625 75.984375 
L 54.390625 0 
L 45.40625 0 
L 45.40625 8.203125 
Q 42.578125 3.328125 38.25 0.953125 
Q 33.9375 -1.421875 27.875 -1.421875 
Q 17.96875 -1.421875 11.734375 6.484375 
Q 5.515625 14.40625 5.515625 27.296875 
Q 5.515625 40.1875 11.734375 48.09375 
Q 17.96875 56 27.875 56 
Q 33.9375 56 38.25 53.625 
Q 42.578125 51.265625 45.40625 46.390625 
z
M 14.796875 27.296875 
Q 14.796875 17.390625 18.875 11.75 
Q 22.953125 6.109375 30.078125 6.109375 
Q 37.203125 6.109375 41.296875 11.75 
Q 45.40625 17.390625 45.40625 27.296875 
Q 45.40625 37.203125 41.296875 42.84375 
Q 37.203125 48.484375 30.078125 48.484375 
Q 22.953125 48.484375 18.875 42.84375 
Q 14.796875 37.203125 14.796875 27.296875 
z
" id="DejaVuSans-100"/>
        <path d="M 44.28125 53.078125 
L 44.28125 44.578125 
Q 40.484375 46.53125 36.375 47.5 
Q 32.28125 48.484375 27.875 48.484375 
Q 21.1875 48.484375 17.84375 46.4375 
Q 14.5 44.390625 14.5 40.28125 
Q 14.5 37.15625 16.890625 35.375 
Q 19.28125 33.59375 26.515625 31.984375 
L 29.59375 31.296875 
Q 39.15625 29.25 43.1875 25.515625 
Q 47.21875 21.78125 47.21875 15.09375 
Q 47.21875 7.46875 41.1875 3.015625 
Q 35.15625 -1.421875 24.609375 -1.421875 
Q 20.21875 -1.421875 15.453125 -0.5625 
Q 10.6875 0.296875 5.421875 2 
L 5.421875 11.28125 
Q 10.40625 8.6875 15.234375 7.390625 
Q 20.0625 6.109375 24.8125 6.109375 
Q 31.15625 6.109375 34.5625 8.28125 
Q 37.984375 10.453125 37.984375 14.40625 
Q 37.984375 18.0625 35.515625 20.015625 
Q 33.0625 21.96875 24.703125 23.78125 
L 21.578125 24.515625 
Q 13.234375 26.265625 9.515625 29.90625 
Q 5.8125 33.546875 5.8125 39.890625 
Q 5.8125 47.609375 11.28125 51.796875 
Q 16.75 56 26.8125 56 
Q 31.78125 56 36.171875 55.265625 
Q 40.578125 54.546875 44.28125 53.078125 
z
" id="DejaVuSans-115"/>
        <path d="M 4.890625 31.390625 
L 31.203125 31.390625 
L 31.203125 23.390625 
L 4.890625 23.390625 
z
" id="DejaVuSans-45"/>
       </defs>
       <use xlink:href="#DejaVuSans-98"/>
       <use x="63.476562" xlink:href="#DejaVuSans-97"/>
       <use x="124.755859" xlink:href="#DejaVuSans-110"/>
       <use x="188.134766" xlink:href="#DejaVuSans-100"/>
       <use x="251.611328" xlink:href="#DejaVuSans-115"/>
       <use x="303.710938" xlink:href="#DejaVuSans-45"/>
       <use x="339.794922" xlink:href="#DejaVuSans-48"/>
      </g>
     </g>
    </g>
    <g id="ytick_2">
     <g id="line2d_10">
      <g>
       <use style="stroke:#000000;stroke-width:0.8;" x="102.079688" xlink:href="#m0aa0fb27ec" y="45.88447"/>
      </g>
     </g>
     <g id="text_11">
      <!-- glass-0 -->
      <g transform="translate(59.435938 49.683689)scale(0.1 -0.1)">
       <defs>
        <path d="M 45.40625 27.984375 
Q 45.40625 37.75 41.375 43.109375 
Q 37.359375 48.484375 30.078125 48.484375 
Q 22.859375 48.484375 18.828125 43.109375 
Q 14.796875 37.75 14.796875 27.984375 
Q 14.796875 18.265625 18.828125 12.890625 
Q 22.859375 7.515625 30.078125 7.515625 
Q 37.359375 7.515625 41.375 12.890625 
Q 45.40625 18.265625 45.40625 27.984375 
z
M 54.390625 6.78125 
Q 54.390625 -7.171875 48.1875 -13.984375 
Q 42 -20.796875 29.203125 -20.796875 
Q 24.46875 -20.796875 20.265625 -20.09375 
Q 16.0625 -19.390625 12.109375 -17.921875 
L 12.109375 -9.1875 
Q 16.0625 -11.328125 19.921875 -12.34375 
Q 23.78125 -13.375 27.78125 -13.375 
Q 36.625 -13.375 41.015625 -8.765625 
Q 45.40625 -4.15625 45.40625 5.171875 
L 45.40625 9.625 
Q 42.625 4.78125 38.28125 2.390625 
Q 33.9375 0 27.875 0 
Q 17.828125 0 11.671875 7.65625 
Q 5.515625 15.328125 5.515625 27.984375 
Q 5.515625 40.671875 11.671875 48.328125 
Q 17.828125 56 27.875 56 
Q 33.9375 56 38.28125 53.609375 
Q 42.625 51.21875 45.40625 46.390625 
L 45.40625 54.6875 
L 54.390625 54.6875 
z
" id="DejaVuSans-103"/>
        <path d="M 9.421875 75.984375 
L 18.40625 75.984375 
L 18.40625 0 
L 9.421875 0 
z
" id="DejaVuSans-108"/>
       </defs>
       <use xlink:href="#DejaVuSans-103"/>
       <use x="63.476562" xlink:href="#DejaVuSans-108"/>
       <use x="91.259766" xlink:href="#DejaVuSans-97"/>
       <use x="152.539062" xlink:href="#DejaVuSans-115"/>
       <use x="204.638672" xlink:href="#DejaVuSans-115"/>
       <use x="256.738281" xlink:href="#DejaVuSans-45"/>
       <use x="292.822266" xlink:href="#DejaVuSans-48"/>
      </g>
     </g>
    </g>
    <g id="ytick_3">
     <g id="line2d_11">
      <g>
       <use style="stroke:#000000;stroke-width:0.8;" x="102.079688" xlink:href="#m0aa0fb27ec" y="54.643642"/>
      </g>
     </g>
     <g id="text_12">
      <!-- tae-0 -->
      <g transform="translate(68.907813 58.442861)scale(0.1 -0.1)">
       <defs>
        <path d="M 18.3125 70.21875 
L 18.3125 54.6875 
L 36.8125 54.6875 
L 36.8125 47.703125 
L 18.3125 47.703125 
L 18.3125 18.015625 
Q 18.3125 11.328125 20.140625 9.421875 
Q 21.96875 7.515625 27.59375 7.515625 
L 36.8125 7.515625 
L 36.8125 0 
L 27.59375 0 
Q 17.1875 0 13.234375 3.875 
Q 9.28125 7.765625 9.28125 18.015625 
L 9.28125 47.703125 
L 2.6875 47.703125 
L 2.6875 54.6875 
L 9.28125 54.6875 
L 9.28125 70.21875 
z
" id="DejaVuSans-116"/>
        <path d="M 56.203125 29.59375 
L 56.203125 25.203125 
L 14.890625 25.203125 
Q 15.484375 15.921875 20.484375 11.0625 
Q 25.484375 6.203125 34.421875 6.203125 
Q 39.59375 6.203125 44.453125 7.46875 
Q 49.3125 8.734375 54.109375 11.28125 
L 54.109375 2.78125 
Q 49.265625 0.734375 44.1875 -0.34375 
Q 39.109375 -1.421875 33.890625 -1.421875 
Q 20.796875 -1.421875 13.15625 6.1875 
Q 5.515625 13.8125 5.515625 26.8125 
Q 5.515625 40.234375 12.765625 48.109375 
Q 20.015625 56 32.328125 56 
Q 43.359375 56 49.78125 48.890625 
Q 56.203125 41.796875 56.203125 29.59375 
z
M 47.21875 32.234375 
Q 47.125 39.59375 43.09375 43.984375 
Q 39.0625 48.390625 32.421875 48.390625 
Q 24.90625 48.390625 20.390625 44.140625 
Q 15.875 39.890625 15.1875 32.171875 
z
" id="DejaVuSans-101"/>
       </defs>
       <use xlink:href="#DejaVuSans-116"/>
       <use x="39.208984" xlink:href="#DejaVuSans-97"/>
       <use x="100.488281" xlink:href="#DejaVuSans-101"/>
       <use x="162.011719" xlink:href="#DejaVuSans-45"/>
       <use x="198.095703" xlink:href="#DejaVuSans-48"/>
      </g>
     </g>
    </g>
    <g id="ytick_4">
     <g id="line2d_12">
      <g>
       <use style="stroke:#000000;stroke-width:0.8;" x="102.079688" xlink:href="#m0aa0fb27ec" y="63.402815"/>
      </g>
     </g>
     <g id="text_13">
      <!-- yeast-1 -->
      <g transform="translate(57.779688 67.202033)scale(0.1 -0.1)">
       <defs>
        <path d="M 32.171875 -5.078125 
Q 28.375 -14.84375 24.75 -17.8125 
Q 21.140625 -20.796875 15.09375 -20.796875 
L 7.90625 -20.796875 
L 7.90625 -13.28125 
L 13.1875 -13.28125 
Q 16.890625 -13.28125 18.9375 -11.515625 
Q 21 -9.765625 23.484375 -3.21875 
L 25.09375 0.875 
L 2.984375 54.6875 
L 12.5 54.6875 
L 29.59375 11.921875 
L 46.6875 54.6875 
L 56.203125 54.6875 
z
" id="DejaVuSans-121"/>
       </defs>
       <use xlink:href="#DejaVuSans-121"/>
       <use x="59.179688" xlink:href="#DejaVuSans-101"/>
       <use x="120.703125" xlink:href="#DejaVuSans-97"/>
       <use x="181.982422" xlink:href="#DejaVuSans-115"/>
       <use x="234.082031" xlink:href="#DejaVuSans-116"/>
       <use x="273.291016" xlink:href="#DejaVuSans-45"/>
       <use x="309.375" xlink:href="#DejaVuSans-49"/>
      </g>
     </g>
    </g>
    <g id="ytick_5">
     <g id="line2d_13">
      <g>
       <use style="stroke:#000000;stroke-width:0.8;" x="102.079688" xlink:href="#m0aa0fb27ec" y="72.161987"/>
      </g>
     </g>
     <g id="text_14">
      <!-- ecoli-1 -->
      <g transform="translate(61.782813 75.961206)scale(0.1 -0.1)">
       <defs>
        <path d="M 48.78125 52.59375 
L 48.78125 44.1875 
Q 44.96875 46.296875 41.140625 47.34375 
Q 37.3125 48.390625 33.40625 48.390625 
Q 24.65625 48.390625 19.8125 42.84375 
Q 14.984375 37.3125 14.984375 27.296875 
Q 14.984375 17.28125 19.8125 11.734375 
Q 24.65625 6.203125 33.40625 6.203125 
Q 37.3125 6.203125 41.140625 7.25 
Q 44.96875 8.296875 48.78125 10.40625 
L 48.78125 2.09375 
Q 45.015625 0.34375 40.984375 -0.53125 
Q 36.96875 -1.421875 32.421875 -1.421875 
Q 20.0625 -1.421875 12.78125 6.34375 
Q 5.515625 14.109375 5.515625 27.296875 
Q 5.515625 40.671875 12.859375 48.328125 
Q 20.21875 56 33.015625 56 
Q 37.15625 56 41.109375 55.140625 
Q 45.0625 54.296875 48.78125 52.59375 
z
" id="DejaVuSans-99"/>
        <path d="M 30.609375 48.390625 
Q 23.390625 48.390625 19.1875 42.75 
Q 14.984375 37.109375 14.984375 27.296875 
Q 14.984375 17.484375 19.15625 11.84375 
Q 23.34375 6.203125 30.609375 6.203125 
Q 37.796875 6.203125 41.984375 11.859375 
Q 46.1875 17.53125 46.1875 27.296875 
Q 46.1875 37.015625 41.984375 42.703125 
Q 37.796875 48.390625 30.609375 48.390625 
z
M 30.609375 56 
Q 42.328125 56 49.015625 48.375 
Q 55.71875 40.765625 55.71875 27.296875 
Q 55.71875 13.875 49.015625 6.21875 
Q 42.328125 -1.421875 30.609375 -1.421875 
Q 18.84375 -1.421875 12.171875 6.21875 
Q 5.515625 13.875 5.515625 27.296875 
Q 5.515625 40.765625 12.171875 48.375 
Q 18.84375 56 30.609375 56 
z
" id="DejaVuSans-111"/>
        <path d="M 9.421875 54.6875 
L 18.40625 54.6875 
L 18.40625 0 
L 9.421875 0 
z
M 9.421875 75.984375 
L 18.40625 75.984375 
L 18.40625 64.59375 
L 9.421875 64.59375 
z
" id="DejaVuSans-105"/>
       </defs>
       <use xlink:href="#DejaVuSans-101"/>
       <use x="61.523438" xlink:href="#DejaVuSans-99"/>
       <use x="116.503906" xlink:href="#DejaVuSans-111"/>
       <use x="177.685547" xlink:href="#DejaVuSans-108"/>
       <use x="205.46875" xlink:href="#DejaVuSans-105"/>
       <use x="233.251953" xlink:href="#DejaVuSans-45"/>
       <use x="269.335938" xlink:href="#DejaVuSans-49"/>
      </g>
     </g>
    </g>
    <g id="ytick_6">
     <g id="line2d_14">
      <g>
       <use style="stroke:#000000;stroke-width:0.8;" x="102.079688" xlink:href="#m0aa0fb27ec" y="80.921159"/>
      </g>
     </g>
     <g id="text_15">
      <!-- appendicitis-1 -->
      <g transform="translate(24.482813 84.720378)scale(0.1 -0.1)">
       <defs>
        <path d="M 18.109375 8.203125 
L 18.109375 -20.796875 
L 9.078125 -20.796875 
L 9.078125 54.6875 
L 18.109375 54.6875 
L 18.109375 46.390625 
Q 20.953125 51.265625 25.265625 53.625 
Q 29.59375 56 35.59375 56 
Q 45.5625 56 51.78125 48.09375 
Q 58.015625 40.1875 58.015625 27.296875 
Q 58.015625 14.40625 51.78125 6.484375 
Q 45.5625 -1.421875 35.59375 -1.421875 
Q 29.59375 -1.421875 25.265625 0.953125 
Q 20.953125 3.328125 18.109375 8.203125 
z
M 48.6875 27.296875 
Q 48.6875 37.203125 44.609375 42.84375 
Q 40.53125 48.484375 33.40625 48.484375 
Q 26.265625 48.484375 22.1875 42.84375 
Q 18.109375 37.203125 18.109375 27.296875 
Q 18.109375 17.390625 22.1875 11.75 
Q 26.265625 6.109375 33.40625 6.109375 
Q 40.53125 6.109375 44.609375 11.75 
Q 48.6875 17.390625 48.6875 27.296875 
z
" id="DejaVuSans-112"/>
       </defs>
       <use xlink:href="#DejaVuSans-97"/>
       <use x="61.279297" xlink:href="#DejaVuSans-112"/>
       <use x="124.755859" xlink:href="#DejaVuSans-112"/>
       <use x="188.232422" xlink:href="#DejaVuSans-101"/>
       <use x="249.755859" xlink:href="#DejaVuSans-110"/>
       <use x="313.134766" xlink:href="#DejaVuSans-100"/>
       <use x="376.611328" xlink:href="#DejaVuSans-105"/>
       <use x="404.394531" xlink:href="#DejaVuSans-99"/>
       <use x="459.375" xlink:href="#DejaVuSans-105"/>
       <use x="487.158203" xlink:href="#DejaVuSans-116"/>
       <use x="526.367188" xlink:href="#DejaVuSans-105"/>
       <use x="554.150391" xlink:href="#DejaVuSans-115"/>
       <use x="606.25" xlink:href="#DejaVuSans-45"/>
       <use x="642.333984" xlink:href="#DejaVuSans-49"/>
      </g>
     </g>
    </g>
    <g id="ytick_7">
     <g id="line2d_15">
      <g>
       <use style="stroke:#000000;stroke-width:0.8;" x="102.079688" xlink:href="#m0aa0fb27ec" y="89.680332"/>
      </g>
     </g>
     <g id="text_16">
      <!-- yeast-0-6 -->
      <g transform="translate(47.809375 93.479551)scale(0.1 -0.1)">
       <use xlink:href="#DejaVuSans-121"/>
       <use x="59.179688" xlink:href="#DejaVuSans-101"/>
       <use x="120.703125" xlink:href="#DejaVuSans-97"/>
       <use x="181.982422" xlink:href="#DejaVuSans-115"/>
       <use x="234.082031" xlink:href="#DejaVuSans-116"/>
       <use x="273.291016" xlink:href="#DejaVuSans-45"/>
       <use x="309.375" xlink:href="#DejaVuSans-48"/>
       <use x="372.998047" xlink:href="#DejaVuSans-45"/>
       <use x="409.082031" xlink:href="#DejaVuSans-54"/>
      </g>
     </g>
    </g>
    <g id="ytick_8">
     <g id="line2d_16">
      <g>
       <use style="stroke:#000000;stroke-width:0.8;" x="102.079688" xlink:href="#m0aa0fb27ec" y="98.439504"/>
      </g>
     </g>
     <g id="text_17">
      <!-- cleveland-1 -->
      <g transform="translate(37.015625 102.238723)scale(0.1 -0.1)">
       <defs>
        <path d="M 2.984375 54.6875 
L 12.5 54.6875 
L 29.59375 8.796875 
L 46.6875 54.6875 
L 56.203125 54.6875 
L 35.6875 0 
L 23.484375 0 
z
" id="DejaVuSans-118"/>
       </defs>
       <use xlink:href="#DejaVuSans-99"/>
       <use x="54.980469" xlink:href="#DejaVuSans-108"/>
       <use x="82.763672" xlink:href="#DejaVuSans-101"/>
       <use x="144.287109" xlink:href="#DejaVuSans-118"/>
       <use x="203.466797" xlink:href="#DejaVuSans-101"/>
       <use x="264.990234" xlink:href="#DejaVuSans-108"/>
       <use x="292.773438" xlink:href="#DejaVuSans-97"/>
       <use x="354.052734" xlink:href="#DejaVuSans-110"/>
       <use x="417.431641" xlink:href="#DejaVuSans-100"/>
       <use x="480.908203" xlink:href="#DejaVuSans-45"/>
       <use x="516.992188" xlink:href="#DejaVuSans-49"/>
      </g>
     </g>
    </g>
    <g id="ytick_9">
     <g id="line2d_17">
      <g>
       <use style="stroke:#000000;stroke-width:0.8;" x="102.079688" xlink:href="#m0aa0fb27ec" y="107.198677"/>
      </g>
     </g>
     <g id="text_18">
      <!-- yeast-0 -->
      <g transform="translate(57.779688 110.997895)scale(0.1 -0.1)">
       <use xlink:href="#DejaVuSans-121"/>
       <use x="59.179688" xlink:href="#DejaVuSans-101"/>
       <use x="120.703125" xlink:href="#DejaVuSans-97"/>
       <use x="181.982422" xlink:href="#DejaVuSans-115"/>
       <use x="234.082031" xlink:href="#DejaVuSans-116"/>
       <use x="273.291016" xlink:href="#DejaVuSans-45"/>
       <use x="309.375" xlink:href="#DejaVuSans-48"/>
      </g>
     </g>
    </g>
    <g id="ytick_10">
     <g id="line2d_18">
      <g>
       <use style="stroke:#000000;stroke-width:0.8;" x="102.079688" xlink:href="#m0aa0fb27ec" y="115.957849"/>
      </g>
     </g>
     <g id="text_19">
      <!-- ecoli-7 -->
      <g transform="translate(61.782813 119.757068)scale(0.1 -0.1)">
       <use xlink:href="#DejaVuSans-101"/>
       <use x="61.523438" xlink:href="#DejaVuSans-99"/>
       <use x="116.503906" xlink:href="#DejaVuSans-111"/>
       <use x="177.685547" xlink:href="#DejaVuSans-108"/>
       <use x="205.46875" xlink:href="#DejaVuSans-105"/>
       <use x="233.251953" xlink:href="#DejaVuSans-45"/>
       <use x="269.335938" xlink:href="#DejaVuSans-55"/>
      </g>
     </g>
    </g>
    <g id="ytick_11">
     <g id="line2d_19">
      <g>
       <use style="stroke:#000000;stroke-width:0.8;" x="102.079688" xlink:href="#m0aa0fb27ec" y="124.717022"/>
      </g>
     </g>
     <g id="text_20">
      <!-- newthyroid-0 -->
      <g transform="translate(29.132812 128.51624)scale(0.1 -0.1)">
       <defs>
        <path d="M 4.203125 54.6875 
L 13.1875 54.6875 
L 24.421875 12.015625 
L 35.59375 54.6875 
L 46.1875 54.6875 
L 57.421875 12.015625 
L 68.609375 54.6875 
L 77.59375 54.6875 
L 63.28125 0 
L 52.6875 0 
L 40.921875 44.828125 
L 29.109375 0 
L 18.5 0 
z
" id="DejaVuSans-119"/>
        <path d="M 54.890625 33.015625 
L 54.890625 0 
L 45.90625 0 
L 45.90625 32.71875 
Q 45.90625 40.484375 42.875 44.328125 
Q 39.84375 48.1875 33.796875 48.1875 
Q 26.515625 48.1875 22.3125 43.546875 
Q 18.109375 38.921875 18.109375 30.90625 
L 18.109375 0 
L 9.078125 0 
L 9.078125 75.984375 
L 18.109375 75.984375 
L 18.109375 46.1875 
Q 21.34375 51.125 25.703125 53.5625 
Q 30.078125 56 35.796875 56 
Q 45.21875 56 50.046875 50.171875 
Q 54.890625 44.34375 54.890625 33.015625 
z
" id="DejaVuSans-104"/>
        <path d="M 41.109375 46.296875 
Q 39.59375 47.171875 37.8125 47.578125 
Q 36.03125 48 33.890625 48 
Q 26.265625 48 22.1875 43.046875 
Q 18.109375 38.09375 18.109375 28.8125 
L 18.109375 0 
L 9.078125 0 
L 9.078125 54.6875 
L 18.109375 54.6875 
L 18.109375 46.1875 
Q 20.953125 51.171875 25.484375 53.578125 
Q 30.03125 56 36.53125 56 
Q 37.453125 56 38.578125 55.875 
Q 39.703125 55.765625 41.0625 55.515625 
z
" id="DejaVuSans-114"/>
       </defs>
       <use xlink:href="#DejaVuSans-110"/>
       <use x="63.378906" xlink:href="#DejaVuSans-101"/>
       <use x="124.902344" xlink:href="#DejaVuSans-119"/>
       <use x="206.689453" xlink:href="#DejaVuSans-116"/>
       <use x="245.898438" xlink:href="#DejaVuSans-104"/>
       <use x="309.277344" xlink:href="#DejaVuSans-121"/>
       <use x="368.457031" xlink:href="#DejaVuSans-114"/>
       <use x="407.320312" xlink:href="#DejaVuSans-111"/>
       <use x="468.501953" xlink:href="#DejaVuSans-105"/>
       <use x="496.285156" xlink:href="#DejaVuSans-100"/>
       <use x="559.761719" xlink:href="#DejaVuSans-45"/>
       <use x="595.845703" xlink:href="#DejaVuSans-48"/>
      </g>
     </g>
    </g>
    <g id="ytick_12">
     <g id="line2d_20">
      <g>
       <use style="stroke:#000000;stroke-width:0.8;" x="102.079688" xlink:href="#m0aa0fb27ec" y="133.476194"/>
      </g>
     </g>
     <g id="text_21">
      <!-- cleveland-2 -->
      <g transform="translate(37.015625 137.275413)scale(0.1 -0.1)">
       <use xlink:href="#DejaVuSans-99"/>
       <use x="54.980469" xlink:href="#DejaVuSans-108"/>
       <use x="82.763672" xlink:href="#DejaVuSans-101"/>
       <use x="144.287109" xlink:href="#DejaVuSans-118"/>
       <use x="203.466797" xlink:href="#DejaVuSans-101"/>
       <use x="264.990234" xlink:href="#DejaVuSans-108"/>
       <use x="292.773438" xlink:href="#DejaVuSans-97"/>
       <use x="354.052734" xlink:href="#DejaVuSans-110"/>
       <use x="417.431641" xlink:href="#DejaVuSans-100"/>
       <use x="480.908203" xlink:href="#DejaVuSans-45"/>
       <use x="516.992188" xlink:href="#DejaVuSans-50"/>
      </g>
     </g>
    </g>
    <g id="ytick_13">
     <g id="line2d_21">
      <g>
       <use style="stroke:#000000;stroke-width:0.8;" x="102.079688" xlink:href="#m0aa0fb27ec" y="142.235366"/>
      </g>
     </g>
     <g id="text_22">
      <!-- ecoli-4 -->
      <g transform="translate(61.782813 146.034585)scale(0.1 -0.1)">
       <defs>
        <path d="M 37.796875 64.3125 
L 12.890625 25.390625 
L 37.796875 25.390625 
z
M 35.203125 72.90625 
L 47.609375 72.90625 
L 47.609375 25.390625 
L 58.015625 25.390625 
L 58.015625 17.1875 
L 47.609375 17.1875 
L 47.609375 0 
L 37.796875 0 
L 37.796875 17.1875 
L 4.890625 17.1875 
L 4.890625 26.703125 
z
" id="DejaVuSans-52"/>
       </defs>
       <use xlink:href="#DejaVuSans-101"/>
       <use x="61.523438" xlink:href="#DejaVuSans-99"/>
       <use x="116.503906" xlink:href="#DejaVuSans-111"/>
       <use x="177.685547" xlink:href="#DejaVuSans-108"/>
       <use x="205.46875" xlink:href="#DejaVuSans-105"/>
       <use x="233.251953" xlink:href="#DejaVuSans-45"/>
       <use x="269.335938" xlink:href="#DejaVuSans-52"/>
      </g>
     </g>
    </g>
    <g id="ytick_14">
     <g id="line2d_22">
      <g>
       <use style="stroke:#000000;stroke-width:0.8;" x="102.079688" xlink:href="#m0aa0fb27ec" y="150.994539"/>
      </g>
     </g>
     <g id="text_23">
      <!-- page-blo-1-2-3-4 -->
      <g transform="translate(11.179688 154.793758)scale(0.1 -0.1)">
       <defs>
        <path d="M 40.578125 39.3125 
Q 47.65625 37.796875 51.625 33 
Q 55.609375 28.21875 55.609375 21.1875 
Q 55.609375 10.40625 48.1875 4.484375 
Q 40.765625 -1.421875 27.09375 -1.421875 
Q 22.515625 -1.421875 17.65625 -0.515625 
Q 12.796875 0.390625 7.625 2.203125 
L 7.625 11.71875 
Q 11.71875 9.328125 16.59375 8.109375 
Q 21.484375 6.890625 26.8125 6.890625 
Q 36.078125 6.890625 40.9375 10.546875 
Q 45.796875 14.203125 45.796875 21.1875 
Q 45.796875 27.640625 41.28125 31.265625 
Q 36.765625 34.90625 28.71875 34.90625 
L 20.21875 34.90625 
L 20.21875 43.015625 
L 29.109375 43.015625 
Q 36.375 43.015625 40.234375 45.921875 
Q 44.09375 48.828125 44.09375 54.296875 
Q 44.09375 59.90625 40.109375 62.90625 
Q 36.140625 65.921875 28.71875 65.921875 
Q 24.65625 65.921875 20.015625 65.03125 
Q 15.375 64.15625 9.8125 62.3125 
L 9.8125 71.09375 
Q 15.4375 72.65625 20.34375 73.4375 
Q 25.25 74.21875 29.59375 74.21875 
Q 40.828125 74.21875 47.359375 69.109375 
Q 53.90625 64.015625 53.90625 55.328125 
Q 53.90625 49.265625 50.4375 45.09375 
Q 46.96875 40.921875 40.578125 39.3125 
z
" id="DejaVuSans-51"/>
       </defs>
       <use xlink:href="#DejaVuSans-112"/>
       <use x="63.476562" xlink:href="#DejaVuSans-97"/>
       <use x="124.755859" xlink:href="#DejaVuSans-103"/>
       <use x="188.232422" xlink:href="#DejaVuSans-101"/>
       <use x="249.755859" xlink:href="#DejaVuSans-45"/>
       <use x="285.839844" xlink:href="#DejaVuSans-98"/>
       <use x="349.316406" xlink:href="#DejaVuSans-108"/>
       <use x="377.099609" xlink:href="#DejaVuSans-111"/>
       <use x="440.15625" xlink:href="#DejaVuSans-45"/>
       <use x="476.240234" xlink:href="#DejaVuSans-49"/>
       <use x="539.863281" xlink:href="#DejaVuSans-45"/>
       <use x="575.947266" xlink:href="#DejaVuSans-50"/>
       <use x="639.570312" xlink:href="#DejaVuSans-45"/>
       <use x="675.654297" xlink:href="#DejaVuSans-51"/>
       <use x="739.277344" xlink:href="#DejaVuSans-45"/>
       <use x="775.361328" xlink:href="#DejaVuSans-52"/>
      </g>
     </g>
    </g>
    <g id="ytick_15">
     <g id="line2d_23">
      <g>
       <use style="stroke:#000000;stroke-width:0.8;" x="102.079688" xlink:href="#m0aa0fb27ec" y="159.753711"/>
      </g>
     </g>
     <g id="text_24">
      <!-- vowel-0 -->
      <g transform="translate(55.9625 163.55293)scale(0.1 -0.1)">
       <use xlink:href="#DejaVuSans-118"/>
       <use x="59.179688" xlink:href="#DejaVuSans-111"/>
       <use x="120.361328" xlink:href="#DejaVuSans-119"/>
       <use x="202.148438" xlink:href="#DejaVuSans-101"/>
       <use x="263.671875" xlink:href="#DejaVuSans-108"/>
       <use x="291.455078" xlink:href="#DejaVuSans-45"/>
       <use x="327.539062" xlink:href="#DejaVuSans-48"/>
      </g>
     </g>
    </g>
    <g id="ytick_16">
     <g id="line2d_24">
      <g>
       <use style="stroke:#000000;stroke-width:0.8;" x="102.079688" xlink:href="#m0aa0fb27ec" y="168.512884"/>
      </g>
     </g>
     <g id="text_25">
      <!-- ecoli-2-3-5-6 -->
      <g transform="translate(31.871875 172.312102)scale(0.1 -0.1)">
       <use xlink:href="#DejaVuSans-101"/>
       <use x="61.523438" xlink:href="#DejaVuSans-99"/>
       <use x="116.503906" xlink:href="#DejaVuSans-111"/>
       <use x="177.685547" xlink:href="#DejaVuSans-108"/>
       <use x="205.46875" xlink:href="#DejaVuSans-105"/>
       <use x="233.251953" xlink:href="#DejaVuSans-45"/>
       <use x="269.335938" xlink:href="#DejaVuSans-50"/>
       <use x="332.958984" xlink:href="#DejaVuSans-45"/>
       <use x="369.042969" xlink:href="#DejaVuSans-51"/>
       <use x="432.666016" xlink:href="#DejaVuSans-45"/>
       <use x="468.75" xlink:href="#DejaVuSans-53"/>
       <use x="532.373047" xlink:href="#DejaVuSans-45"/>
       <use x="568.457031" xlink:href="#DejaVuSans-54"/>
      </g>
     </g>
    </g>
    <g id="ytick_17">
     <g id="line2d_25">
      <g>
       <use style="stroke:#000000;stroke-width:0.8;" x="102.079688" xlink:href="#m0aa0fb27ec" y="177.272056"/>
      </g>
     </g>
     <g id="text_26">
      <!-- page-blo-1-2-3 -->
      <g transform="translate(21.15 181.071275)scale(0.1 -0.1)">
       <use xlink:href="#DejaVuSans-112"/>
       <use x="63.476562" xlink:href="#DejaVuSans-97"/>
       <use x="124.755859" xlink:href="#DejaVuSans-103"/>
       <use x="188.232422" xlink:href="#DejaVuSans-101"/>
       <use x="249.755859" xlink:href="#DejaVuSans-45"/>
       <use x="285.839844" xlink:href="#DejaVuSans-98"/>
       <use x="349.316406" xlink:href="#DejaVuSans-108"/>
       <use x="377.099609" xlink:href="#DejaVuSans-111"/>
       <use x="440.15625" xlink:href="#DejaVuSans-45"/>
       <use x="476.240234" xlink:href="#DejaVuSans-49"/>
       <use x="539.863281" xlink:href="#DejaVuSans-45"/>
       <use x="575.947266" xlink:href="#DejaVuSans-50"/>
       <use x="639.570312" xlink:href="#DejaVuSans-45"/>
       <use x="675.654297" xlink:href="#DejaVuSans-51"/>
      </g>
     </g>
    </g>
    <g id="ytick_18">
     <g id="line2d_26">
      <g>
       <use style="stroke:#000000;stroke-width:0.8;" x="102.079688" xlink:href="#m0aa0fb27ec" y="186.031228"/>
      </g>
     </g>
     <g id="text_27">
      <!-- glass-2 -->
      <g transform="translate(59.435938 189.830447)scale(0.1 -0.1)">
       <use xlink:href="#DejaVuSans-103"/>
       <use x="63.476562" xlink:href="#DejaVuSans-108"/>
       <use x="91.259766" xlink:href="#DejaVuSans-97"/>
       <use x="152.539062" xlink:href="#DejaVuSans-115"/>
       <use x="204.638672" xlink:href="#DejaVuSans-115"/>
       <use x="256.738281" xlink:href="#DejaVuSans-45"/>
       <use x="292.822266" xlink:href="#DejaVuSans-50"/>
      </g>
     </g>
    </g>
    <g id="ytick_19">
     <g id="line2d_27">
      <g>
       <use style="stroke:#000000;stroke-width:0.8;" x="102.079688" xlink:href="#m0aa0fb27ec" y="194.790401"/>
      </g>
     </g>
     <g id="text_28">
      <!-- balance-1 -->
      <g transform="translate(45.7375 198.58962)scale(0.1 -0.1)">
       <use xlink:href="#DejaVuSans-98"/>
       <use x="63.476562" xlink:href="#DejaVuSans-97"/>
       <use x="124.755859" xlink:href="#DejaVuSans-108"/>
       <use x="152.539062" xlink:href="#DejaVuSans-97"/>
       <use x="213.818359" xlink:href="#DejaVuSans-110"/>
       <use x="277.197266" xlink:href="#DejaVuSans-99"/>
       <use x="332.177734" xlink:href="#DejaVuSans-101"/>
       <use x="393.701172" xlink:href="#DejaVuSans-45"/>
       <use x="429.785156" xlink:href="#DejaVuSans-49"/>
      </g>
     </g>
    </g>
    <g id="ytick_20">
     <g id="line2d_28">
      <g>
       <use style="stroke:#000000;stroke-width:0.8;" x="102.079688" xlink:href="#m0aa0fb27ec" y="203.549573"/>
      </g>
     </g>
     <g id="text_29">
      <!-- yeast-7vs.1 -->
      <g transform="translate(37.110938 207.348792)scale(0.1 -0.1)">
       <use xlink:href="#DejaVuSans-121"/>
       <use x="59.179688" xlink:href="#DejaVuSans-101"/>
       <use x="120.703125" xlink:href="#DejaVuSans-97"/>
       <use x="181.982422" xlink:href="#DejaVuSans-115"/>
       <use x="234.082031" xlink:href="#DejaVuSans-116"/>
       <use x="273.291016" xlink:href="#DejaVuSans-45"/>
       <use x="309.375" xlink:href="#DejaVuSans-55"/>
       <use x="372.998047" xlink:href="#DejaVuSans-118"/>
       <use x="432.177734" xlink:href="#DejaVuSans-115"/>
       <use x="484.277344" xlink:href="#DejaVuSans-46"/>
       <use x="516.064453" xlink:href="#DejaVuSans-49"/>
      </g>
     </g>
    </g>
    <g id="ytick_21">
     <g id="line2d_29">
      <g>
       <use style="stroke:#000000;stroke-width:0.8;" x="102.079688" xlink:href="#m0aa0fb27ec" y="212.308746"/>
      </g>
     </g>
     <g id="text_30">
      <!-- ecoli-5 -->
      <g transform="translate(61.782813 216.107964)scale(0.1 -0.1)">
       <use xlink:href="#DejaVuSans-101"/>
       <use x="61.523438" xlink:href="#DejaVuSans-99"/>
       <use x="116.503906" xlink:href="#DejaVuSans-111"/>
       <use x="177.685547" xlink:href="#DejaVuSans-108"/>
       <use x="205.46875" xlink:href="#DejaVuSans-105"/>
       <use x="233.251953" xlink:href="#DejaVuSans-45"/>
       <use x="269.335938" xlink:href="#DejaVuSans-53"/>
      </g>
     </g>
    </g>
    <g id="ytick_22">
     <g id="line2d_30">
      <g>
       <use style="stroke:#000000;stroke-width:0.8;" x="102.079688" xlink:href="#m0aa0fb27ec" y="221.067918"/>
      </g>
     </g>
     <g id="text_31">
      <!-- yeast-7vs.1-4-5-8 -->
      <g transform="translate(7.2 224.867137)scale(0.1 -0.1)">
       <use xlink:href="#DejaVuSans-121"/>
       <use x="59.179688" xlink:href="#DejaVuSans-101"/>
       <use x="120.703125" xlink:href="#DejaVuSans-97"/>
       <use x="181.982422" xlink:href="#DejaVuSans-115"/>
       <use x="234.082031" xlink:href="#DejaVuSans-116"/>
       <use x="273.291016" xlink:href="#DejaVuSans-45"/>
       <use x="309.375" xlink:href="#DejaVuSans-55"/>
       <use x="372.998047" xlink:href="#DejaVuSans-118"/>
       <use x="432.177734" xlink:href="#DejaVuSans-115"/>
       <use x="484.277344" xlink:href="#DejaVuSans-46"/>
       <use x="516.064453" xlink:href="#DejaVuSans-49"/>
       <use x="579.6875" xlink:href="#DejaVuSans-45"/>
       <use x="615.771484" xlink:href="#DejaVuSans-52"/>
       <use x="679.394531" xlink:href="#DejaVuSans-45"/>
       <use x="715.478516" xlink:href="#DejaVuSans-53"/>
       <use x="779.101562" xlink:href="#DejaVuSans-45"/>
       <use x="815.185547" xlink:href="#DejaVuSans-56"/>
      </g>
     </g>
    </g>
    <g id="ytick_23">
     <g id="line2d_31">
      <g>
       <use style="stroke:#000000;stroke-width:0.8;" x="102.079688" xlink:href="#m0aa0fb27ec" y="229.827091"/>
      </g>
     </g>
     <g id="text_32">
      <!-- letter-img-1 -->
      <g transform="translate(36.235938 233.626309)scale(0.1 -0.1)">
       <defs>
        <path d="M 52 44.1875 
Q 55.375 50.25 60.0625 53.125 
Q 64.75 56 71.09375 56 
Q 79.640625 56 84.28125 50.015625 
Q 88.921875 44.046875 88.921875 33.015625 
L 88.921875 0 
L 79.890625 0 
L 79.890625 32.71875 
Q 79.890625 40.578125 77.09375 44.375 
Q 74.3125 48.1875 68.609375 48.1875 
Q 61.625 48.1875 57.5625 43.546875 
Q 53.515625 38.921875 53.515625 30.90625 
L 53.515625 0 
L 44.484375 0 
L 44.484375 32.71875 
Q 44.484375 40.625 41.703125 44.40625 
Q 38.921875 48.1875 33.109375 48.1875 
Q 26.21875 48.1875 22.15625 43.53125 
Q 18.109375 38.875 18.109375 30.90625 
L 18.109375 0 
L 9.078125 0 
L 9.078125 54.6875 
L 18.109375 54.6875 
L 18.109375 46.1875 
Q 21.1875 51.21875 25.484375 53.609375 
Q 29.78125 56 35.6875 56 
Q 41.65625 56 45.828125 52.96875 
Q 50 49.953125 52 44.1875 
z
" id="DejaVuSans-109"/>
       </defs>
       <use xlink:href="#DejaVuSans-108"/>
       <use x="27.783203" xlink:href="#DejaVuSans-101"/>
       <use x="89.306641" xlink:href="#DejaVuSans-116"/>
       <use x="128.515625" xlink:href="#DejaVuSans-116"/>
       <use x="167.724609" xlink:href="#DejaVuSans-101"/>
       <use x="229.248047" xlink:href="#DejaVuSans-114"/>
       <use x="263.986328" xlink:href="#DejaVuSans-45"/>
       <use x="300.070312" xlink:href="#DejaVuSans-105"/>
       <use x="327.853516" xlink:href="#DejaVuSans-109"/>
       <use x="425.265625" xlink:href="#DejaVuSans-103"/>
       <use x="488.742188" xlink:href="#DejaVuSans-45"/>
       <use x="524.826172" xlink:href="#DejaVuSans-49"/>
      </g>
     </g>
    </g>
    <g id="ytick_24">
     <g id="line2d_32">
      <g>
       <use style="stroke:#000000;stroke-width:0.8;" x="102.079688" xlink:href="#m0aa0fb27ec" y="238.586263"/>
      </g>
     </g>
     <g id="text_33">
      <!-- yeast-4 -->
      <g transform="translate(57.779688 242.385482)scale(0.1 -0.1)">
       <use xlink:href="#DejaVuSans-121"/>
       <use x="59.179688" xlink:href="#DejaVuSans-101"/>
       <use x="120.703125" xlink:href="#DejaVuSans-97"/>
       <use x="181.982422" xlink:href="#DejaVuSans-115"/>
       <use x="234.082031" xlink:href="#DejaVuSans-116"/>
       <use x="273.291016" xlink:href="#DejaVuSans-45"/>
       <use x="309.375" xlink:href="#DejaVuSans-52"/>
      </g>
     </g>
    </g>
    <g id="ytick_25">
     <g id="line2d_33">
      <g>
       <use style="stroke:#000000;stroke-width:0.8;" x="102.079688" xlink:href="#m0aa0fb27ec" y="247.345435"/>
      </g>
     </g>
     <g id="text_34">
      <!-- wine-red-4 -->
      <g transform="translate(41.667188 251.144654)scale(0.1 -0.1)">
       <use xlink:href="#DejaVuSans-119"/>
       <use x="81.787109" xlink:href="#DejaVuSans-105"/>
       <use x="109.570312" xlink:href="#DejaVuSans-110"/>
       <use x="172.949219" xlink:href="#DejaVuSans-101"/>
       <use x="234.472656" xlink:href="#DejaVuSans-45"/>
       <use x="270.556641" xlink:href="#DejaVuSans-114"/>
       <use x="309.419922" xlink:href="#DejaVuSans-101"/>
       <use x="370.943359" xlink:href="#DejaVuSans-100"/>
       <use x="434.419922" xlink:href="#DejaVuSans-45"/>
       <use x="470.503906" xlink:href="#DejaVuSans-52"/>
      </g>
     </g>
    </g>
    <g id="ytick_26">
     <g id="line2d_34">
      <g>
       <use style="stroke:#000000;stroke-width:0.8;" x="102.079688" xlink:href="#m0aa0fb27ec" y="256.104608"/>
      </g>
     </g>
     <g id="text_35">
      <!-- wine-red-8vs.6 -->
      <g transform="translate(20.998438 259.903827)scale(0.1 -0.1)">
       <use xlink:href="#DejaVuSans-119"/>
       <use x="81.787109" xlink:href="#DejaVuSans-105"/>
       <use x="109.570312" xlink:href="#DejaVuSans-110"/>
       <use x="172.949219" xlink:href="#DejaVuSans-101"/>
       <use x="234.472656" xlink:href="#DejaVuSans-45"/>
       <use x="270.556641" xlink:href="#DejaVuSans-114"/>
       <use x="309.419922" xlink:href="#DejaVuSans-101"/>
       <use x="370.943359" xlink:href="#DejaVuSans-100"/>
       <use x="434.419922" xlink:href="#DejaVuSans-45"/>
       <use x="470.503906" xlink:href="#DejaVuSans-56"/>
       <use x="534.126953" xlink:href="#DejaVuSans-118"/>
       <use x="593.306641" xlink:href="#DejaVuSans-115"/>
       <use x="645.40625" xlink:href="#DejaVuSans-46"/>
       <use x="677.193359" xlink:href="#DejaVuSans-54"/>
      </g>
     </g>
    </g>
    <g id="ytick_27">
     <g id="line2d_35">
      <g>
       <use style="stroke:#000000;stroke-width:0.8;" x="102.079688" xlink:href="#m0aa0fb27ec" y="264.86378"/>
      </g>
     </g>
     <g id="text_36">
      <!-- yeast-6 -->
      <g transform="translate(57.779688 268.662999)scale(0.1 -0.1)">
       <use xlink:href="#DejaVuSans-121"/>
       <use x="59.179688" xlink:href="#DejaVuSans-101"/>
       <use x="120.703125" xlink:href="#DejaVuSans-97"/>
       <use x="181.982422" xlink:href="#DejaVuSans-115"/>
       <use x="234.082031" xlink:href="#DejaVuSans-116"/>
       <use x="273.291016" xlink:href="#DejaVuSans-45"/>
       <use x="309.375" xlink:href="#DejaVuSans-54"/>
      </g>
     </g>
    </g>
    <g id="ytick_28">
     <g id="line2d_36">
      <g>
       <use style="stroke:#000000;stroke-width:0.8;" x="102.079688" xlink:href="#m0aa0fb27ec" y="273.622953"/>
      </g>
     </g>
     <g id="text_37">
      <!-- page-blo-3 -->
      <g transform="translate(41.090625 277.422171)scale(0.1 -0.1)">
       <use xlink:href="#DejaVuSans-112"/>
       <use x="63.476562" xlink:href="#DejaVuSans-97"/>
       <use x="124.755859" xlink:href="#DejaVuSans-103"/>
       <use x="188.232422" xlink:href="#DejaVuSans-101"/>
       <use x="249.755859" xlink:href="#DejaVuSans-45"/>
       <use x="285.839844" xlink:href="#DejaVuSans-98"/>
       <use x="349.316406" xlink:href="#DejaVuSans-108"/>
       <use x="377.099609" xlink:href="#DejaVuSans-111"/>
       <use x="440.15625" xlink:href="#DejaVuSans-45"/>
       <use x="476.240234" xlink:href="#DejaVuSans-51"/>
      </g>
     </g>
    </g>
   </g>
   <g id="patch_59">
    <path d="M 102.079688 288.430125 
L 102.079688 22.318125 
" style="fill:none;stroke:#000000;stroke-linecap:square;stroke-linejoin:miter;stroke-width:0.8;"/>
   </g>
   <g id="patch_60">
    <path d="M 459.199687 288.430125 
L 459.199687 22.318125 
" style="fill:none;stroke:#000000;stroke-linecap:square;stroke-linejoin:miter;stroke-width:0.8;"/>
   </g>
   <g id="patch_61">
    <path d="M 102.079688 288.430125 
L 459.199687 288.430125 
" style="fill:none;stroke:#000000;stroke-linecap:square;stroke-linejoin:miter;stroke-width:0.8;"/>
   </g>
   <g id="patch_62">
    <path d="M 102.079688 22.318125 
L 459.199687 22.318125 
" style="fill:none;stroke:#000000;stroke-linecap:square;stroke-linejoin:miter;stroke-width:0.8;"/>
   </g>
   <g id="text_38">
    <!-- Comparison of AUC before and after evolution -->
    <g transform="translate(142.138125 16.318125)scale(0.12 -0.12)">
     <defs>
      <path id="DejaVuSans-32"/>
      <path d="M 37.109375 75.984375 
L 37.109375 68.5 
L 28.515625 68.5 
Q 23.6875 68.5 21.796875 66.546875 
Q 19.921875 64.59375 19.921875 59.515625 
L 19.921875 54.6875 
L 34.71875 54.6875 
L 34.71875 47.703125 
L 19.921875 47.703125 
L 19.921875 0 
L 10.890625 0 
L 10.890625 47.703125 
L 2.296875 47.703125 
L 2.296875 54.6875 
L 10.890625 54.6875 
L 10.890625 58.5 
Q 10.890625 67.625 15.140625 71.796875 
Q 19.390625 75.984375 28.609375 75.984375 
z
" id="DejaVuSans-102"/>
      <path d="M 8.5 21.578125 
L 8.5 54.6875 
L 17.484375 54.6875 
L 17.484375 21.921875 
Q 17.484375 14.15625 20.5 10.265625 
Q 23.53125 6.390625 29.59375 6.390625 
Q 36.859375 6.390625 41.078125 11.03125 
Q 45.3125 15.671875 45.3125 23.6875 
L 45.3125 54.6875 
L 54.296875 54.6875 
L 54.296875 0 
L 45.3125 0 
L 45.3125 8.40625 
Q 42.046875 3.421875 37.71875 1 
Q 33.40625 -1.421875 27.6875 -1.421875 
Q 18.265625 -1.421875 13.375 4.4375 
Q 8.5 10.296875 8.5 21.578125 
z
M 31.109375 56 
z
" id="DejaVuSans-117"/>
     </defs>
     <use xlink:href="#DejaVuSans-67"/>
     <use x="69.824219" xlink:href="#DejaVuSans-111"/>
     <use x="131.005859" xlink:href="#DejaVuSans-109"/>
     <use x="228.417969" xlink:href="#DejaVuSans-112"/>
     <use x="291.894531" xlink:href="#DejaVuSans-97"/>
     <use x="353.173828" xlink:href="#DejaVuSans-114"/>
     <use x="394.287109" xlink:href="#DejaVuSans-105"/>
     <use x="422.070312" xlink:href="#DejaVuSans-115"/>
     <use x="474.169922" xlink:href="#DejaVuSans-111"/>
     <use x="535.351562" xlink:href="#DejaVuSans-110"/>
     <use x="598.730469" xlink:href="#DejaVuSans-32"/>
     <use x="630.517578" xlink:href="#DejaVuSans-111"/>
     <use x="691.699219" xlink:href="#DejaVuSans-102"/>
     <use x="726.904297" xlink:href="#DejaVuSans-32"/>
     <use x="758.691406" xlink:href="#DejaVuSans-65"/>
     <use x="827.099609" xlink:href="#DejaVuSans-85"/>
     <use x="900.292969" xlink:href="#DejaVuSans-67"/>
     <use x="970.117188" xlink:href="#DejaVuSans-32"/>
     <use x="1001.904297" xlink:href="#DejaVuSans-98"/>
     <use x="1065.380859" xlink:href="#DejaVuSans-101"/>
     <use x="1126.904297" xlink:href="#DejaVuSans-102"/>
     <use x="1162.109375" xlink:href="#DejaVuSans-111"/>
     <use x="1223.291016" xlink:href="#DejaVuSans-114"/>
     <use x="1262.154297" xlink:href="#DejaVuSans-101"/>
     <use x="1323.677734" xlink:href="#DejaVuSans-32"/>
     <use x="1355.464844" xlink:href="#DejaVuSans-97"/>
     <use x="1416.744141" xlink:href="#DejaVuSans-110"/>
     <use x="1480.123047" xlink:href="#DejaVuSans-100"/>
     <use x="1543.599609" xlink:href="#DejaVuSans-32"/>
     <use x="1575.386719" xlink:href="#DejaVuSans-97"/>
     <use x="1636.666016" xlink:href="#DejaVuSans-102"/>
     <use x="1670.121094" xlink:href="#DejaVuSans-116"/>
     <use x="1709.330078" xlink:href="#DejaVuSans-101"/>
     <use x="1770.853516" xlink:href="#DejaVuSans-114"/>
     <use x="1811.966797" xlink:href="#DejaVuSans-32"/>
     <use x="1843.753906" xlink:href="#DejaVuSans-101"/>
     <use x="1905.277344" xlink:href="#DejaVuSans-118"/>
     <use x="1964.457031" xlink:href="#DejaVuSans-111"/>
     <use x="2025.638672" xlink:href="#DejaVuSans-108"/>
     <use x="2053.421875" xlink:href="#DejaVuSans-117"/>
     <use x="2116.800781" xlink:href="#DejaVuSans-116"/>
     <use x="2156.009766" xlink:href="#DejaVuSans-105"/>
     <use x="2183.792969" xlink:href="#DejaVuSans-111"/>
     <use x="2244.974609" xlink:href="#DejaVuSans-110"/>
    </g>
   </g>
   <g id="legend_1">
    <g id="patch_63">
     <path d="M 322.11375 59.674375 
L 452.199687 59.674375 
Q 454.199687 59.674375 454.199687 57.674375 
L 454.199687 29.318125 
Q 454.199687 27.318125 452.199687 27.318125 
L 322.11375 27.318125 
Q 320.11375 27.318125 320.11375 29.318125 
L 320.11375 57.674375 
Q 320.11375 59.674375 322.11375 59.674375 
z
" style="fill:#ffffff;opacity:0.8;stroke:#cccccc;stroke-linejoin:miter;"/>
    </g>
    <g id="patch_64">
     <path d="M 324.11375 38.916562 
L 344.11375 38.916562 
L 344.11375 31.916562 
L 324.11375 31.916562 
z
" style="fill:#1f77b4;"/>
    </g>
    <g id="text_39">
     <!-- Before optimization -->
     <g transform="translate(352.11375 38.916562)scale(0.1 -0.1)">
      <defs>
       <path d="M 19.671875 34.8125 
L 19.671875 8.109375 
L 35.5 8.109375 
Q 43.453125 8.109375 47.28125 11.40625 
Q 51.125 14.703125 51.125 21.484375 
Q 51.125 28.328125 47.28125 31.5625 
Q 43.453125 34.8125 35.5 34.8125 
z
M 19.671875 64.796875 
L 19.671875 42.828125 
L 34.28125 42.828125 
Q 41.5 42.828125 45.03125 45.53125 
Q 48.578125 48.25 48.578125 53.8125 
Q 48.578125 59.328125 45.03125 62.0625 
Q 41.5 64.796875 34.28125 64.796875 
z
M 9.8125 72.90625 
L 35.015625 72.90625 
Q 46.296875 72.90625 52.390625 68.21875 
Q 58.5 63.53125 58.5 54.890625 
Q 58.5 48.1875 55.375 44.234375 
Q 52.25 40.28125 46.1875 39.3125 
Q 53.46875 37.75 57.5 32.78125 
Q 61.53125 27.828125 61.53125 20.40625 
Q 61.53125 10.640625 54.890625 5.3125 
Q 48.25 0 35.984375 0 
L 9.8125 0 
z
" id="DejaVuSans-66"/>
       <path d="M 5.515625 54.6875 
L 48.1875 54.6875 
L 48.1875 46.484375 
L 14.40625 7.171875 
L 48.1875 7.171875 
L 48.1875 0 
L 4.296875 0 
L 4.296875 8.203125 
L 38.09375 47.515625 
L 5.515625 47.515625 
z
" id="DejaVuSans-122"/>
      </defs>
      <use xlink:href="#DejaVuSans-66"/>
      <use x="68.603516" xlink:href="#DejaVuSans-101"/>
      <use x="130.126953" xlink:href="#DejaVuSans-102"/>
      <use x="165.332031" xlink:href="#DejaVuSans-111"/>
      <use x="226.513672" xlink:href="#DejaVuSans-114"/>
      <use x="265.376953" xlink:href="#DejaVuSans-101"/>
      <use x="326.900391" xlink:href="#DejaVuSans-32"/>
      <use x="358.6875" xlink:href="#DejaVuSans-111"/>
      <use x="419.869141" xlink:href="#DejaVuSans-112"/>
      <use x="483.345703" xlink:href="#DejaVuSans-116"/>
      <use x="522.554688" xlink:href="#DejaVuSans-105"/>
      <use x="550.337891" xlink:href="#DejaVuSans-109"/>
      <use x="647.75" xlink:href="#DejaVuSans-105"/>
      <use x="675.533203" xlink:href="#DejaVuSans-122"/>
      <use x="728.023438" xlink:href="#DejaVuSans-97"/>
      <use x="789.302734" xlink:href="#DejaVuSans-116"/>
      <use x="828.511719" xlink:href="#DejaVuSans-105"/>
      <use x="856.294922" xlink:href="#DejaVuSans-111"/>
      <use x="917.476562" xlink:href="#DejaVuSans-110"/>
     </g>
    </g>
    <g id="patch_65">
     <path d="M 324.11375 53.594687 
L 344.11375 53.594687 
L 344.11375 46.594687 
L 324.11375 46.594687 
z
" style="fill:#ff7f0e;"/>
    </g>
    <g id="text_40">
     <!-- After optimization -->
     <g transform="translate(352.11375 53.594687)scale(0.1 -0.1)">
      <use xlink:href="#DejaVuSans-65"/>
      <use x="64.783203" xlink:href="#DejaVuSans-102"/>
      <use x="98.238281" xlink:href="#DejaVuSans-116"/>
      <use x="137.447266" xlink:href="#DejaVuSans-101"/>
      <use x="198.970703" xlink:href="#DejaVuSans-114"/>
      <use x="240.083984" xlink:href="#DejaVuSans-32"/>
      <use x="271.871094" xlink:href="#DejaVuSans-111"/>
      <use x="333.052734" xlink:href="#DejaVuSans-112"/>
      <use x="396.529297" xlink:href="#DejaVuSans-116"/>
      <use x="435.738281" xlink:href="#DejaVuSans-105"/>
      <use x="463.521484" xlink:href="#DejaVuSans-109"/>
      <use x="560.933594" xlink:href="#DejaVuSans-105"/>
      <use x="588.716797" xlink:href="#DejaVuSans-122"/>
      <use x="641.207031" xlink:href="#DejaVuSans-97"/>
      <use x="702.486328" xlink:href="#DejaVuSans-116"/>
      <use x="741.695312" xlink:href="#DejaVuSans-105"/>
      <use x="769.478516" xlink:href="#DejaVuSans-111"/>
      <use x="830.660156" xlink:href="#DejaVuSans-110"/>
     </g>
    </g>
   </g>
  </g>
 </g>
 <defs>
  <clipPath id="p0d1f333070">
   <rect height="266.112" width="357.12" x="102.079688" y="22.318125"/>
  </clipPath>
 </defs>
</svg>
