<?xml version="1.0" encoding="utf-8" standalone="no"?>
<!DOCTYPE svg PUBLIC "-//W3C//DTD SVG 1.1//EN"
  "http://www.w3.org/Graphics/SVG/1.1/DTD/svg11.dtd">
<!-- Created with matplotlib (https://matplotlib.org/) -->
<svg height="641.4175pt" version="1.1" viewBox="0 0 857.200625 641.4175" width="857.200625pt" xmlns="http://www.w3.org/2000/svg" xmlns:xlink="http://www.w3.org/1999/xlink">
 <metadata>
  <rdf:RDF xmlns:cc="http://creativecommons.org/ns#" xmlns:dc="http://purl.org/dc/elements/1.1/" xmlns:rdf="http://www.w3.org/1999/02/22-rdf-syntax-ns#">
   <cc:Work>
    <dc:type rdf:resource="http://purl.org/dc/dcmitype/StillImage"/>
    <dc:date>2021-05-19T15:37:52.507321</dc:date>
    <dc:format>image/svg+xml</dc:format>
    <dc:creator>
     <cc:Agent>
      <dc:title>Matplotlib v3.3.4, https://matplotlib.org/</dc:title>
     </cc:Agent>
    </dc:creator>
   </cc:Work>
  </rdf:RDF>
 </metadata>
 <defs>
  <style type="text/css">*{stroke-linecap:butt;stroke-linejoin:round;}</style>
 </defs>
 <g id="figure_1">
  <g id="patch_1">
   <path d="M 0 641.4175 
L 857.200625 641.4175 
L 857.200625 0 
L 0 0 
z
" style="fill:#ffffff;"/>
  </g>
  <g id="axes_1">
   <g id="patch_2">
    <path d="M 48.120625 612.92 
L 850.000625 612.92 
L 850.000625 7.2 
L 48.120625 7.2 
z
" style="fill:#ffffff;"/>
   </g>
   <g id="matplotlib.axis_1">
    <g id="xtick_1">
     <g id="line2d_1">
      <defs>
       <path d="M 0 0 
L 0 3.5 
" id="mdc3f142dd6" style="stroke:#000000;stroke-width:0.8;"/>
      </defs>
      <g>
       <use style="stroke:#000000;stroke-width:0.8;" x="139.795611" xlink:href="#mdc3f142dd6" y="612.92"/>
      </g>
     </g>
     <g id="text_1">
      <!-- RandomForest -->
      <g transform="translate(88.830611 630.515)scale(0.16 -0.16)">
       <defs>
        <path d="M 26.5625 30.171875 
L 26.5625 11.625 
Q 26.5625 6.25 27.21875 4.859375 
Q 27.875 3.46875 29.53125 2.640625 
Q 31.203125 1.8125 35.75 1.8125 
L 35.75 0 
L 1.859375 0 
L 1.859375 1.8125 
Q 6.453125 1.8125 8.078125 2.65625 
Q 9.71875 3.515625 10.375 4.875 
Q 11.03125 6.25 11.03125 11.625 
L 11.03125 54.59375 
Q 11.03125 59.96875 10.375 61.359375 
Q 9.71875 62.75 8.046875 63.578125 
Q 6.390625 64.40625 1.859375 64.40625 
L 1.859375 66.21875 
L 32.625 66.21875 
Q 44.625 66.21875 50.1875 64.546875 
Q 55.765625 62.890625 59.28125 58.421875 
Q 62.796875 53.953125 62.796875 47.953125 
Q 62.796875 40.625 57.515625 35.84375 
Q 54.15625 32.8125 48.09375 31.296875 
L 64.015625 8.890625 
Q 67.140625 4.546875 68.453125 3.46875 
Q 70.453125 1.953125 73.09375 1.8125 
L 73.09375 0 
L 52.25 0 
L 30.90625 30.171875 
z
M 26.5625 62.640625 
L 26.5625 33.640625 
L 29.34375 33.640625 
Q 36.140625 33.640625 39.5 34.890625 
Q 42.875 36.140625 44.796875 39.375 
Q 46.734375 42.625 46.734375 47.859375 
Q 46.734375 55.421875 43.1875 59.03125 
Q 39.65625 62.640625 31.78125 62.640625 
z
" id="TimesNewRomanPS-BoldMT-82"/>
        <path d="M 28.5625 6.734375 
Q 20.21875 -0.640625 13.578125 -0.640625 
Q 9.671875 -0.640625 7.078125 1.921875 
Q 4.5 4.5 4.5 8.34375 
Q 4.5 13.578125 8.984375 17.75 
Q 13.484375 21.921875 28.5625 28.859375 
L 28.5625 33.453125 
Q 28.5625 38.625 28 39.96875 
Q 27.4375 41.3125 25.875 42.3125 
Q 24.3125 43.3125 22.359375 43.3125 
Q 19.1875 43.3125 17.140625 41.890625 
Q 15.875 41.015625 15.875 39.84375 
Q 15.875 38.8125 17.234375 37.3125 
Q 19.09375 35.203125 19.09375 33.25 
Q 19.09375 30.859375 17.3125 29.171875 
Q 15.53125 27.484375 12.640625 27.484375 
Q 9.578125 27.484375 7.5 29.34375 
Q 5.421875 31.203125 5.421875 33.6875 
Q 5.421875 37.203125 8.203125 40.40625 
Q 10.984375 43.609375 15.96875 45.3125 
Q 20.953125 47.015625 26.3125 47.015625 
Q 32.8125 47.015625 36.59375 44.25 
Q 40.375 41.5 41.5 38.28125 
Q 42.1875 36.234375 42.1875 28.859375 
L 42.1875 11.140625 
Q 42.1875 8.015625 42.421875 7.203125 
Q 42.671875 6.390625 43.15625 6 
Q 43.65625 5.609375 44.28125 5.609375 
Q 45.5625 5.609375 46.875 7.421875 
L 48.34375 6.25 
Q 45.90625 2.640625 43.28125 1 
Q 40.671875 -0.640625 37.359375 -0.640625 
Q 33.453125 -0.640625 31.25 1.1875 
Q 29.046875 3.03125 28.5625 6.734375 
z
M 28.5625 10.296875 
L 28.5625 25.59375 
Q 22.65625 22.125 19.78125 18.171875 
Q 17.875 15.53125 17.875 12.84375 
Q 17.875 10.59375 19.484375 8.890625 
Q 20.703125 7.5625 22.90625 7.5625 
Q 25.34375 7.5625 28.5625 10.296875 
z
" id="TimesNewRomanPS-BoldMT-97"/>
        <path d="M 22.015625 45.65625 
L 22.015625 39.75 
Q 25.53125 43.5625 28.75 45.28125 
Q 31.984375 47.015625 35.6875 47.015625 
Q 40.140625 47.015625 43.0625 44.546875 
Q 46 42.09375 46.96875 38.421875 
Q 47.75 35.640625 47.75 27.734375 
L 47.75 9.96875 
Q 47.75 4.6875 48.703125 3.390625 
Q 49.65625 2.09375 52.6875 1.765625 
L 52.6875 0 
L 29.59375 0 
L 29.59375 1.765625 
Q 32.171875 2.09375 33.296875 3.90625 
Q 34.078125 5.125 34.078125 9.96875 
L 34.078125 30.28125 
Q 34.078125 35.890625 33.640625 37.34375 
Q 33.203125 38.8125 32.15625 39.625 
Q 31.109375 40.4375 29.828125 40.4375 
Q 25.640625 40.4375 22.015625 34.421875 
L 22.015625 9.96875 
Q 22.015625 4.828125 22.96875 3.453125 
Q 23.921875 2.09375 26.515625 1.765625 
L 26.515625 0 
L 3.421875 0 
L 3.421875 1.765625 
Q 6.296875 2.046875 7.515625 3.609375 
Q 8.34375 4.6875 8.34375 9.96875 
L 8.34375 35.75 
Q 8.34375 40.921875 7.390625 42.1875 
Q 6.453125 43.453125 3.421875 43.84375 
L 3.421875 45.65625 
z
" id="TimesNewRomanPS-BoldMT-110"/>
        <path d="M 47.75 66.21875 
L 47.75 13.671875 
Q 47.75 8.34375 48.046875 7.375 
Q 48.4375 5.765625 49.53125 4.984375 
Q 50.640625 4.203125 53.375 4 
L 53.375 2.390625 
L 34.078125 -1.375 
L 34.078125 5.859375 
Q 30.609375 1.65625 27.90625 0.140625 
Q 25.203125 -1.375 21.78125 -1.375 
Q 13.03125 -1.375 7.953125 6.453125 
Q 3.859375 12.796875 3.859375 22.015625 
Q 3.859375 29.390625 6.390625 35.21875 
Q 8.9375 41.0625 13.359375 44.03125 
Q 17.78125 47.015625 22.859375 47.015625 
Q 26.125 47.015625 28.65625 45.75 
Q 31.203125 44.484375 34.078125 41.3125 
L 34.078125 55.078125 
Q 34.078125 60.296875 33.640625 61.375 
Q 33.0625 62.796875 31.890625 63.46875 
Q 30.71875 64.15625 27.484375 64.15625 
L 27.484375 66.21875 
z
M 34.078125 35.25 
Q 30.46875 42.1875 25.25 42.1875 
Q 23.4375 42.1875 22.265625 41.21875 
Q 20.453125 39.703125 19.3125 35.890625 
Q 18.171875 32.078125 18.171875 24.21875 
Q 18.171875 15.578125 19.4375 11.421875 
Q 20.703125 7.28125 22.90625 5.421875 
Q 24.03125 4.5 25.984375 4.5 
Q 30.28125 4.5 34.078125 11.234375 
z
" id="TimesNewRomanPS-BoldMT-100"/>
        <path d="M 24.90625 47.015625 
Q 30.859375 47.015625 35.984375 43.9375 
Q 41.109375 40.875 43.765625 35.203125 
Q 46.4375 29.546875 46.4375 22.796875 
Q 46.4375 13.09375 41.5 6.546875 
Q 35.546875 -1.375 25.046875 -1.375 
Q 14.75 -1.375 9.171875 5.859375 
Q 3.609375 13.09375 3.609375 22.609375 
Q 3.609375 32.421875 9.296875 39.71875 
Q 14.984375 47.015625 24.90625 47.015625 
z
M 25.09375 43.5625 
Q 22.609375 43.5625 20.828125 41.671875 
Q 19.046875 39.796875 18.484375 34.25 
Q 17.921875 28.71875 17.921875 18.84375 
Q 17.921875 13.625 18.609375 9.078125 
Q 19.140625 5.609375 20.890625 3.796875 
Q 22.65625 2 24.90625 2 
Q 27.09375 2 28.5625 3.21875 
Q 30.46875 4.890625 31.109375 7.859375 
Q 32.078125 12.5 32.078125 26.609375 
Q 32.078125 34.90625 31.140625 38 
Q 30.21875 41.109375 28.421875 42.53125 
Q 27.15625 43.5625 25.09375 43.5625 
z
" id="TimesNewRomanPS-BoldMT-111"/>
        <path d="M 22.3125 45.65625 
L 22.3125 39.65625 
Q 26.078125 43.75 29.265625 45.375 
Q 32.46875 47.015625 36.28125 47.015625 
Q 40.671875 47.015625 43.640625 44.96875 
Q 46.625 42.921875 48.25 38.71875 
Q 52.15625 43.109375 55.734375 45.0625 
Q 59.328125 47.015625 63.234375 47.015625 
Q 67.96875 47.015625 70.765625 44.84375 
Q 73.578125 42.671875 74.671875 39.328125 
Q 75.78125 35.984375 75.78125 28.65625 
L 75.78125 9.96875 
Q 75.78125 4.6875 76.734375 3.421875 
Q 77.6875 2.15625 80.71875 1.765625 
L 80.71875 0 
L 57.125 0 
L 57.125 1.765625 
Q 59.90625 2 61.234375 3.90625 
Q 62.109375 5.21875 62.109375 9.96875 
L 62.109375 29.59375 
Q 62.109375 35.6875 61.625 37.34375 
Q 61.140625 39.015625 60.078125 39.8125 
Q 59.03125 40.625 57.625 40.625 
Q 55.515625 40.625 53.359375 39.078125 
Q 51.21875 37.546875 49.03125 34.46875 
L 49.03125 9.96875 
Q 49.03125 5.03125 49.859375 3.765625 
Q 50.984375 1.953125 54.15625 1.765625 
L 54.15625 0 
L 30.515625 0 
L 30.515625 1.765625 
Q 32.421875 1.859375 33.515625 2.703125 
Q 34.625 3.5625 34.984375 4.75 
Q 35.359375 5.953125 35.359375 9.96875 
L 35.359375 29.59375 
Q 35.359375 35.796875 34.859375 37.359375 
Q 34.375 38.921875 33.21875 39.796875 
Q 32.078125 40.671875 30.765625 40.671875 
Q 28.8125 40.671875 27.203125 39.65625 
Q 24.90625 38.140625 22.3125 34.46875 
L 22.3125 9.96875 
Q 22.3125 5.125 23.265625 3.578125 
Q 24.21875 2.046875 27.25 1.765625 
L 27.25 0 
L 3.71875 0 
L 3.71875 1.765625 
Q 6.59375 2.046875 7.8125 3.609375 
Q 8.640625 4.6875 8.640625 9.96875 
L 8.640625 35.75 
Q 8.640625 40.921875 7.6875 42.1875 
Q 6.734375 43.453125 3.71875 43.84375 
L 3.71875 45.65625 
z
" id="TimesNewRomanPS-BoldMT-109"/>
        <path d="M 27.484375 62.40625 
L 27.484375 35.203125 
L 29.390625 35.203125 
Q 33.796875 35.203125 36.578125 36.515625 
Q 39.359375 37.84375 41.28125 40.96875 
Q 43.21875 44.09375 43.796875 49.421875 
L 45.515625 49.421875 
L 45.515625 16.15625 
L 43.796875 16.15625 
Q 42.875 25.59375 38.75 28.59375 
Q 34.625 31.59375 29.390625 31.59375 
L 27.484375 31.59375 
L 27.484375 11.328125 
Q 27.484375 6.25 28.046875 4.984375 
Q 28.609375 3.71875 30.25 2.765625 
Q 31.890625 1.8125 34.671875 1.8125 
L 36.859375 1.8125 
L 36.859375 0 
L 2.25 0 
L 2.25 1.8125 
L 4.4375 1.8125 
Q 7.328125 1.8125 9.078125 2.828125 
Q 10.359375 3.515625 11.03125 5.171875 
Q 11.578125 6.34375 11.578125 11.328125 
L 11.578125 54.890625 
Q 11.578125 59.96875 11.03125 61.234375 
Q 10.5 62.5 8.859375 63.453125 
Q 7.234375 64.40625 4.4375 64.40625 
L 2.25 64.40625 
L 2.25 66.21875 
L 58.109375 66.21875 
L 58.109375 47.21875 
L 56.109375 47.21875 
Q 55.421875 53.90625 52.609375 57.125 
Q 49.8125 60.359375 44.484375 61.671875 
Q 41.546875 62.40625 33.640625 62.40625 
z
" id="TimesNewRomanPS-BoldMT-70"/>
        <path d="M 22.3125 45.65625 
L 22.3125 35.296875 
Q 26.859375 42.390625 30.265625 44.703125 
Q 33.6875 47.015625 36.859375 47.015625 
Q 39.59375 47.015625 41.234375 45.328125 
Q 42.875 43.65625 42.875 40.578125 
Q 42.875 37.3125 41.28125 35.5 
Q 39.703125 33.6875 37.453125 33.6875 
Q 34.859375 33.6875 32.953125 35.34375 
Q 31.0625 37.015625 30.71875 37.203125 
Q 30.21875 37.5 29.59375 37.5 
Q 28.171875 37.5 26.90625 36.421875 
Q 24.90625 34.765625 23.875 31.6875 
Q 22.3125 26.953125 22.3125 21.234375 
L 22.3125 10.75 
L 22.359375 8.015625 
Q 22.359375 5.21875 22.703125 4.4375 
Q 23.296875 3.125 24.4375 2.515625 
Q 25.59375 1.90625 28.328125 1.765625 
L 28.328125 0 
L 3.65625 0 
L 3.65625 1.765625 
Q 6.640625 2 7.6875 3.390625 
Q 8.734375 4.78125 8.734375 10.75 
L 8.734375 35.984375 
Q 8.734375 39.890625 8.34375 40.96875 
Q 7.859375 42.328125 6.921875 42.96875 
Q 6 43.609375 3.65625 43.84375 
L 3.65625 45.65625 
z
" id="TimesNewRomanPS-BoldMT-114"/>
        <path d="M 42.046875 24.46875 
L 17 24.46875 
Q 17.4375 15.375 21.828125 10.109375 
Q 25.203125 6.0625 29.9375 6.0625 
Q 32.859375 6.0625 35.25 7.6875 
Q 37.640625 9.328125 40.375 13.578125 
L 42.046875 12.5 
Q 38.328125 4.9375 33.828125 1.78125 
Q 29.34375 -1.375 23.4375 -1.375 
Q 13.28125 -1.375 8.0625 6.453125 
Q 3.859375 12.75 3.859375 22.078125 
Q 3.859375 33.5 10.03125 40.25 
Q 16.21875 47.015625 24.515625 47.015625 
Q 31.453125 47.015625 36.546875 41.328125 
Q 41.65625 35.640625 42.046875 24.46875 
z
M 30.03125 27.734375 
Q 30.03125 35.59375 29.171875 38.515625 
Q 28.328125 41.453125 26.515625 42.96875 
Q 25.484375 43.84375 23.78125 43.84375 
Q 21.234375 43.84375 19.625 41.359375 
Q 16.75 37.015625 16.75 29.4375 
L 16.75 27.734375 
z
" id="TimesNewRomanPS-BoldMT-101"/>
        <path d="M 32.234375 46.921875 
L 32.953125 31.34375 
L 31.296875 31.34375 
Q 28.328125 38.28125 25.125 40.8125 
Q 21.921875 43.359375 18.75 43.359375 
Q 16.75 43.359375 15.328125 42.015625 
Q 13.921875 40.671875 13.921875 38.921875 
Q 13.921875 37.59375 14.890625 36.375 
Q 16.453125 34.375 23.625 29.515625 
Q 30.8125 24.65625 33.078125 21.265625 
Q 35.359375 17.875 35.359375 13.671875 
Q 35.359375 9.859375 33.453125 6.203125 
Q 31.546875 2.546875 28.078125 0.578125 
Q 24.609375 -1.375 20.40625 -1.375 
Q 17.140625 -1.375 11.671875 0.6875 
Q 10.203125 1.21875 9.671875 1.21875 
Q 8.0625 1.21875 6.984375 -1.21875 
L 5.375 -1.21875 
L 4.59375 15.1875 
L 6.25 15.1875 
Q 8.453125 8.734375 12.28125 5.515625 
Q 16.109375 2.296875 19.53125 2.296875 
Q 21.875 2.296875 23.359375 3.734375 
Q 24.859375 5.171875 24.859375 7.234375 
Q 24.859375 9.578125 23.390625 11.28125 
Q 21.921875 12.984375 16.84375 16.453125 
Q 9.375 21.625 7.171875 24.359375 
Q 3.953125 28.375 3.953125 33.203125 
Q 3.953125 38.484375 7.59375 42.75 
Q 11.234375 47.015625 18.109375 47.015625 
Q 21.828125 47.015625 25.296875 45.21875 
Q 26.609375 44.484375 27.4375 44.484375 
Q 28.328125 44.484375 28.859375 44.84375 
Q 29.390625 45.21875 30.5625 46.921875 
z
" id="TimesNewRomanPS-BoldMT-115"/>
        <path d="M 21.484375 62.359375 
L 21.484375 45.65625 
L 32.328125 45.65625 
L 32.328125 40.828125 
L 21.484375 40.828125 
L 21.484375 12.640625 
Q 21.484375 8.6875 21.84375 7.53125 
Q 22.21875 6.390625 23.140625 5.6875 
Q 24.078125 4.984375 24.859375 4.984375 
Q 28.03125 4.984375 30.859375 9.8125 
L 32.328125 8.734375 
Q 28.375 -0.640625 19.484375 -0.640625 
Q 15.140625 -0.640625 12.125 1.78125 
Q 9.125 4.203125 8.296875 7.171875 
Q 7.8125 8.84375 7.8125 16.15625 
L 7.8125 40.828125 
L 1.859375 40.828125 
L 1.859375 42.53125 
Q 8.015625 46.875 12.328125 51.65625 
Q 16.65625 56.453125 19.875 62.359375 
z
" id="TimesNewRomanPS-BoldMT-116"/>
       </defs>
       <use xlink:href="#TimesNewRomanPS-BoldMT-82"/>
       <use x="72.216797" xlink:href="#TimesNewRomanPS-BoldMT-97"/>
       <use x="122.216797" xlink:href="#TimesNewRomanPS-BoldMT-110"/>
       <use x="177.832031" xlink:href="#TimesNewRomanPS-BoldMT-100"/>
       <use x="233.447266" xlink:href="#TimesNewRomanPS-BoldMT-111"/>
       <use x="283.447266" xlink:href="#TimesNewRomanPS-BoldMT-109"/>
       <use x="366.748047" xlink:href="#TimesNewRomanPS-BoldMT-70"/>
       <use x="427.832031" xlink:href="#TimesNewRomanPS-BoldMT-111"/>
       <use x="477.832031" xlink:href="#TimesNewRomanPS-BoldMT-114"/>
       <use x="520.466797" xlink:href="#TimesNewRomanPS-BoldMT-101"/>
       <use x="564.851562" xlink:href="#TimesNewRomanPS-BoldMT-115"/>
       <use x="603.767578" xlink:href="#TimesNewRomanPS-BoldMT-116"/>
      </g>
     </g>
    </g>
    <g id="xtick_2">
     <g id="line2d_2">
      <g>
       <use style="stroke:#000000;stroke-width:0.8;" x="294.428118" xlink:href="#mdc3f142dd6" y="612.92"/>
      </g>
     </g>
     <g id="text_2">
      <!-- AdaBoost -->
      <g transform="translate(261.088118 630.515)scale(0.16 -0.16)">
       <defs>
        <path d="M 41.609375 18.84375 
L 18.21875 18.84375 
L 15.4375 12.40625 
Q 14.0625 9.1875 14.0625 7.078125 
Q 14.0625 4.296875 16.3125 2.984375 
Q 17.625 2.203125 22.796875 1.8125 
L 22.796875 0 
L 0.78125 0 
L 0.78125 1.8125 
Q 4.34375 2.34375 6.640625 4.75 
Q 8.9375 7.171875 12.3125 14.75 
L 35.984375 67.578125 
L 36.921875 67.578125 
L 60.796875 13.28125 
Q 64.203125 5.5625 66.40625 3.5625 
Q 68.0625 2.046875 71.09375 1.8125 
L 71.09375 0 
L 39.0625 0 
L 39.0625 1.8125 
L 40.375 1.8125 
Q 44.234375 1.8125 45.796875 2.875 
Q 46.875 3.65625 46.875 5.125 
Q 46.875 6 46.578125 6.9375 
Q 46.484375 7.375 45.125 10.59375 
z
M 39.9375 22.46875 
L 30.078125 45.265625 
L 19.921875 22.46875 
z
" id="TimesNewRomanPS-BoldMT-65"/>
        <path d="M 44.484375 35.109375 
Q 53.90625 32.90625 57.71875 29.78125 
Q 63.1875 25.34375 63.1875 18.265625 
Q 63.1875 10.796875 57.171875 5.90625 
Q 49.8125 0 35.75 0 
L 2.09375 0 
L 2.09375 1.8125 
Q 6.6875 1.8125 8.328125 2.65625 
Q 9.96875 3.515625 10.625 4.875 
Q 11.28125 6.25 11.28125 11.625 
L 11.28125 54.59375 
Q 11.28125 59.96875 10.625 61.359375 
Q 9.96875 62.75 8.296875 63.578125 
Q 6.640625 64.40625 2.09375 64.40625 
L 2.09375 66.21875 
L 33.84375 66.21875 
Q 45.21875 66.21875 49.953125 64.1875 
Q 54.6875 62.15625 57.421875 58.125 
Q 60.15625 54.109375 60.15625 49.5625 
Q 60.15625 44.78125 56.6875 41.046875 
Q 53.21875 37.3125 44.484375 35.109375 
z
M 26.703125 36.421875 
Q 33.640625 36.421875 36.9375 37.984375 
Q 40.234375 39.546875 41.984375 42.375 
Q 43.75 45.21875 43.75 49.609375 
Q 43.75 54 42.015625 56.8125 
Q 40.28125 59.625 37.0625 61.078125 
Q 33.84375 62.546875 26.703125 62.5 
z
M 26.703125 32.625 
L 26.703125 11.375 
L 26.65625 8.9375 
Q 26.65625 6.296875 28 4.953125 
Q 29.34375 3.609375 31.984375 3.609375 
Q 35.890625 3.609375 39.1875 5.34375 
Q 42.484375 7.078125 44.234375 10.375 
Q 46 13.671875 46 17.71875 
Q 46 22.359375 43.84375 26.046875 
Q 41.703125 29.734375 37.9375 31.203125 
Q 34.1875 32.671875 26.703125 32.625 
z
" id="TimesNewRomanPS-BoldMT-66"/>
       </defs>
       <use xlink:href="#TimesNewRomanPS-BoldMT-65"/>
       <use x="72.216797" xlink:href="#TimesNewRomanPS-BoldMT-100"/>
       <use x="127.832031" xlink:href="#TimesNewRomanPS-BoldMT-97"/>
       <use x="177.832031" xlink:href="#TimesNewRomanPS-BoldMT-66"/>
       <use x="244.53125" xlink:href="#TimesNewRomanPS-BoldMT-111"/>
       <use x="294.53125" xlink:href="#TimesNewRomanPS-BoldMT-111"/>
       <use x="344.53125" xlink:href="#TimesNewRomanPS-BoldMT-115"/>
       <use x="383.447266" xlink:href="#TimesNewRomanPS-BoldMT-116"/>
      </g>
     </g>
    </g>
    <g id="xtick_3">
     <g id="line2d_3">
      <g>
       <use style="stroke:#000000;stroke-width:0.8;" x="449.060625" xlink:href="#mdc3f142dd6" y="612.92"/>
      </g>
     </g>
     <g id="text_3">
      <!-- EasyEnsemble -->
      <g transform="translate(399.274375 630.515)scale(0.16 -0.16)">
       <defs>
        <path d="M 27.25 62.40625 
L 27.25 35.453125 
L 28.5625 35.453125 
Q 34.859375 35.453125 37.6875 39.40625 
Q 40.53125 43.359375 41.3125 51.078125 
L 43.171875 51.078125 
L 43.171875 16.40625 
L 41.3125 16.40625 
Q 40.71875 22.078125 38.84375 25.6875 
Q 36.96875 29.296875 34.46875 30.53125 
Q 31.984375 31.78125 27.25 31.78125 
L 27.25 13.140625 
Q 27.25 7.671875 27.703125 6.4375 
Q 28.171875 5.21875 29.4375 4.4375 
Q 30.71875 3.65625 33.546875 3.65625 
L 37.5 3.65625 
Q 46.78125 3.65625 52.359375 7.953125 
Q 57.953125 12.25 60.40625 21.046875 
L 62.203125 21.046875 
L 59.234375 0 
L 2 0 
L 2 1.8125 
L 4.203125 1.8125 
Q 7.078125 1.8125 8.84375 2.828125 
Q 10.109375 3.515625 10.796875 5.171875 
Q 11.328125 6.34375 11.328125 11.328125 
L 11.328125 54.890625 
Q 11.328125 59.375 11.078125 60.40625 
Q 10.59375 62.109375 9.28125 63.03125 
Q 7.421875 64.40625 4.203125 64.40625 
L 2 64.40625 
L 2 66.21875 
L 57.421875 66.21875 
L 57.421875 46.625 
L 55.5625 46.625 
Q 54.15625 53.8125 51.59375 56.9375 
Q 49.03125 60.0625 44.34375 61.53125 
Q 41.609375 62.40625 34.078125 62.40625 
z
" id="TimesNewRomanPS-BoldMT-69"/>
        <path d="M 24.3125 -1.859375 
L 9.578125 31.984375 
Q 6.25 39.65625 4.65625 41.40625 
Q 3.078125 43.171875 0.828125 43.84375 
L 0.828125 45.65625 
L 25.09375 45.65625 
L 25.09375 43.84375 
Q 22.703125 43.75 21.71875 42.921875 
Q 20.75 42.09375 20.75 40.921875 
Q 20.75 39.0625 23.1875 33.59375 
L 31 15.71875 
L 36.328125 29.546875 
Q 39.203125 36.921875 39.203125 39.796875 
Q 39.203125 41.609375 38 42.671875 
Q 36.8125 43.75 33.796875 43.84375 
L 33.796875 45.65625 
L 49.078125 45.65625 
L 49.078125 43.84375 
Q 46.828125 43.609375 45.40625 42.109375 
Q 44 40.625 40.671875 31.984375 
L 27.640625 -1.859375 
Q 22.703125 -14.546875 20.3125 -17.484375 
Q 16.9375 -21.578125 11.859375 -21.578125 
Q 7.8125 -21.578125 5.296875 -19.25 
Q 2.78125 -16.9375 2.78125 -13.671875 
Q 2.78125 -10.84375 4.515625 -8.984375 
Q 6.25 -7.125 8.796875 -7.125 
Q 11.234375 -7.125 12.71875 -8.6875 
Q 14.203125 -10.25 14.265625 -13.53125 
Q 14.3125 -15.375 14.703125 -15.921875 
Q 15.09375 -16.453125 15.828125 -16.453125 
Q 17 -16.453125 18.3125 -15.046875 
Q 20.265625 -12.984375 22.90625 -5.671875 
z
" id="TimesNewRomanPS-BoldMT-121"/>
        <path d="M 21.046875 66.21875 
L 21.046875 41.0625 
Q 26.8125 47.015625 33.640625 47.015625 
Q 38.328125 47.015625 42.46875 44.25 
Q 46.625 41.5 48.96875 36.421875 
Q 51.3125 31.34375 51.3125 24.703125 
Q 51.3125 17.234375 48.328125 11.125 
Q 45.359375 5.03125 40.375 1.828125 
Q 35.40625 -1.375 29 -1.375 
Q 25.296875 -1.375 22.40625 -0.1875 
Q 19.53125 0.984375 16.75 3.609375 
L 9.1875 -1.3125 
L 7.515625 -1.3125 
L 7.515625 56.734375 
Q 7.515625 60.6875 7.171875 61.625 
Q 6.6875 62.984375 5.640625 63.640625 
Q 4.59375 64.3125 2.09375 64.40625 
L 2.09375 66.21875 
z
M 21.046875 36.71875 
L 21.046875 16.40625 
Q 21.046875 10.203125 21.34375 8.5 
Q 21.828125 5.609375 23.671875 3.828125 
Q 25.53125 2.046875 28.421875 2.046875 
Q 30.90625 2.046875 32.6875 3.46875 
Q 34.46875 4.890625 35.65625 9.078125 
Q 36.859375 13.28125 36.859375 24.21875 
Q 36.859375 34.71875 34.234375 38.625 
Q 32.328125 41.453125 29.109375 41.453125 
Q 24.90625 41.453125 21.046875 36.71875 
z
" id="TimesNewRomanPS-BoldMT-98"/>
        <path d="M 21.234375 66.21875 
L 21.234375 9.46875 
Q 21.234375 4.640625 22.359375 3.296875 
Q 23.484375 1.953125 26.765625 1.765625 
L 26.765625 0 
L 2.09375 0 
L 2.09375 1.765625 
Q 5.125 1.859375 6.59375 3.515625 
Q 7.5625 4.640625 7.5625 9.46875 
L 7.5625 56.734375 
Q 7.5625 61.53125 6.4375 62.859375 
Q 5.328125 64.203125 2.09375 64.40625 
L 2.09375 66.21875 
z
" id="TimesNewRomanPS-BoldMT-108"/>
       </defs>
       <use xlink:href="#TimesNewRomanPS-BoldMT-69"/>
       <use x="66.699219" xlink:href="#TimesNewRomanPS-BoldMT-97"/>
       <use x="116.699219" xlink:href="#TimesNewRomanPS-BoldMT-115"/>
       <use x="155.615234" xlink:href="#TimesNewRomanPS-BoldMT-121"/>
       <use x="205.615234" xlink:href="#TimesNewRomanPS-BoldMT-69"/>
       <use x="272.314453" xlink:href="#TimesNewRomanPS-BoldMT-110"/>
       <use x="327.929688" xlink:href="#TimesNewRomanPS-BoldMT-115"/>
       <use x="366.845703" xlink:href="#TimesNewRomanPS-BoldMT-101"/>
       <use x="411.230469" xlink:href="#TimesNewRomanPS-BoldMT-109"/>
       <use x="494.53125" xlink:href="#TimesNewRomanPS-BoldMT-98"/>
       <use x="550.146484" xlink:href="#TimesNewRomanPS-BoldMT-108"/>
       <use x="577.929688" xlink:href="#TimesNewRomanPS-BoldMT-101"/>
      </g>
     </g>
    </g>
    <g id="xtick_4">
     <g id="line2d_4">
      <g>
       <use style="stroke:#000000;stroke-width:0.8;" x="603.693132" xlink:href="#mdc3f142dd6" y="612.92"/>
      </g>
     </g>
     <g id="text_4">
      <!-- BalancedBagging -->
      <g transform="translate(544.126882 630.765)scale(0.16 -0.16)">
       <defs>
        <path d="M 40.625 11.765625 
L 42.140625 10.59375 
Q 38.921875 4.546875 34.109375 1.578125 
Q 29.296875 -1.375 23.875 -1.375 
Q 14.75 -1.375 9.28125 5.515625 
Q 3.8125 12.40625 3.8125 22.078125 
Q 3.8125 31.390625 8.796875 38.484375 
Q 14.796875 47.015625 25.34375 47.015625 
Q 32.421875 47.015625 36.59375 43.453125 
Q 40.765625 39.890625 40.765625 35.5 
Q 40.765625 32.71875 39.078125 31.046875 
Q 37.40625 29.390625 34.671875 29.390625 
Q 31.78125 29.390625 29.90625 31.296875 
Q 28.03125 33.203125 27.59375 38.09375 
Q 27.296875 41.15625 26.171875 42.390625 
Q 25.046875 43.609375 23.53125 43.609375 
Q 21.1875 43.609375 19.53125 41.109375 
Q 17 37.359375 17 29.59375 
Q 17 23.140625 19.046875 17.25 
Q 21.09375 11.375 24.65625 8.5 
Q 27.34375 6.390625 31 6.390625 
Q 33.40625 6.390625 35.546875 7.515625 
Q 37.703125 8.640625 40.625 11.765625 
z
" id="TimesNewRomanPS-BoldMT-99"/>
        <path d="M 32.671875 45.125 
L 48.046875 45.125 
L 48.046875 39.75 
L 39.3125 39.75 
Q 41.703125 37.359375 42.625 35.40625 
Q 43.796875 32.765625 43.796875 29.890625 
Q 43.796875 25 41.078125 21.40625 
Q 38.375 17.828125 33.703125 15.796875 
Q 29.046875 13.765625 25.4375 13.765625 
Q 25.140625 13.765625 19.578125 14.015625 
Q 17.390625 14.015625 15.890625 12.578125 
Q 14.40625 11.140625 14.40625 9.125 
Q 14.40625 7.375 15.75 6.25 
Q 17.09375 5.125 20.125 5.125 
L 28.5625 5.21875 
Q 38.8125 5.21875 42.671875 2.984375 
Q 48.1875 -0.140625 48.1875 -6.640625 
Q 48.1875 -10.796875 45.640625 -14.1875 
Q 43.109375 -17.578125 38.96875 -19.1875 
Q 32.671875 -21.578125 24.46875 -21.578125 
Q 18.3125 -21.578125 13.234375 -20.375 
Q 8.15625 -19.1875 5.953125 -17.0625 
Q 3.765625 -14.9375 3.765625 -12.59375 
Q 3.765625 -10.359375 5.4375 -8.5625 
Q 7.125 -6.78125 11.71875 -5.5625 
Q 5.375 -2.4375 5.375 3.125 
Q 5.375 6.5 7.953125 9.671875 
Q 10.546875 12.84375 16.15625 15.1875 
Q 9.625 17.578125 6.6875 21.484375 
Q 3.765625 25.390625 3.765625 30.515625 
Q 3.765625 37.203125 9.234375 42.109375 
Q 14.703125 47.015625 23.296875 47.015625 
Q 27.828125 47.015625 32.671875 45.125 
z
M 24.21875 44 
Q 21.390625 44 19.4375 41.140625 
Q 17.484375 38.28125 17.484375 29.296875 
Q 17.484375 22.015625 19.40625 19.3125 
Q 21.34375 16.609375 23.96875 16.609375 
Q 26.90625 16.609375 28.859375 19.28125 
Q 30.8125 21.96875 30.8125 29.734375 
Q 30.8125 38.484375 28.609375 41.65625 
Q 27.046875 44 24.21875 44 
z
M 21.34375 -6.734375 
Q 16.359375 -6.734375 14.75 -7.5625 
Q 11.96875 -9.078125 11.96875 -11.671875 
Q 11.96875 -14.15625 14.84375 -16.1875 
Q 17.71875 -18.21875 25.6875 -18.21875 
Q 32.46875 -18.21875 36.34375 -16.40625 
Q 40.234375 -14.59375 40.234375 -11.328125 
Q 40.234375 -10.109375 39.5 -9.28125 
Q 38.1875 -7.8125 35.515625 -7.265625 
Q 32.859375 -6.734375 21.34375 -6.734375 
z
" id="TimesNewRomanPS-BoldMT-103"/>
        <path d="M 14.359375 67.78125 
Q 17.53125 67.78125 19.71875 65.546875 
Q 21.921875 63.328125 21.921875 60.203125 
Q 21.921875 57.078125 19.703125 54.875 
Q 17.484375 52.6875 14.359375 52.6875 
Q 11.234375 52.6875 9.03125 54.875 
Q 6.84375 57.078125 6.84375 60.203125 
Q 6.84375 63.328125 9.03125 65.546875 
Q 11.234375 67.78125 14.359375 67.78125 
z
M 21.1875 45.65625 
L 21.1875 9.46875 
Q 21.1875 4.640625 22.3125 3.296875 
Q 23.4375 1.953125 26.703125 1.765625 
L 26.703125 0 
L 2.046875 0 
L 2.046875 1.765625 
Q 5.078125 1.859375 6.546875 3.515625 
Q 7.515625 4.640625 7.515625 9.46875 
L 7.515625 36.140625 
Q 7.515625 40.96875 6.390625 42.3125 
Q 5.28125 43.65625 2.046875 43.84375 
L 2.046875 45.65625 
z
" id="TimesNewRomanPS-BoldMT-105"/>
       </defs>
       <use xlink:href="#TimesNewRomanPS-BoldMT-66"/>
       <use x="66.699219" xlink:href="#TimesNewRomanPS-BoldMT-97"/>
       <use x="116.699219" xlink:href="#TimesNewRomanPS-BoldMT-108"/>
       <use x="144.482422" xlink:href="#TimesNewRomanPS-BoldMT-97"/>
       <use x="194.482422" xlink:href="#TimesNewRomanPS-BoldMT-110"/>
       <use x="250.097656" xlink:href="#TimesNewRomanPS-BoldMT-99"/>
       <use x="294.482422" xlink:href="#TimesNewRomanPS-BoldMT-101"/>
       <use x="338.867188" xlink:href="#TimesNewRomanPS-BoldMT-100"/>
       <use x="394.482422" xlink:href="#TimesNewRomanPS-BoldMT-66"/>
       <use x="461.181641" xlink:href="#TimesNewRomanPS-BoldMT-97"/>
       <use x="511.181641" xlink:href="#TimesNewRomanPS-BoldMT-103"/>
       <use x="561.181641" xlink:href="#TimesNewRomanPS-BoldMT-103"/>
       <use x="611.181641" xlink:href="#TimesNewRomanPS-BoldMT-105"/>
       <use x="638.964844" xlink:href="#TimesNewRomanPS-BoldMT-110"/>
       <use x="694.580078" xlink:href="#TimesNewRomanPS-BoldMT-103"/>
      </g>
     </g>
    </g>
    <g id="xtick_5">
     <g id="line2d_5">
      <g>
       <use style="stroke:#000000;stroke-width:0.8;" x="758.325639" xlink:href="#mdc3f142dd6" y="612.92"/>
      </g>
     </g>
     <g id="text_5">
      <!-- HABC -->
      <g transform="translate(735.211889 630.515)scale(0.16 -0.16)">
       <defs>
        <path d="M 27.34375 31.84375 
L 27.34375 11.328125 
Q 27.34375 6.25 27.90625 4.984375 
Q 28.46875 3.71875 30.09375 2.765625 
Q 31.734375 1.8125 34.515625 1.8125 
L 36.71875 1.8125 
L 36.71875 0 
L 2.09375 0 
L 2.09375 1.8125 
L 4.296875 1.8125 
Q 7.171875 1.8125 8.9375 2.828125 
Q 10.203125 3.515625 10.890625 5.171875 
Q 11.421875 6.34375 11.421875 11.328125 
L 11.421875 54.890625 
Q 11.421875 59.96875 10.890625 61.234375 
Q 10.359375 62.5 8.71875 63.453125 
Q 7.078125 64.40625 4.296875 64.40625 
L 2.09375 64.40625 
L 2.09375 66.21875 
L 36.71875 66.21875 
L 36.71875 64.40625 
L 34.515625 64.40625 
Q 31.640625 64.40625 29.890625 63.375 
Q 28.609375 62.703125 27.875 61.03125 
Q 27.34375 59.859375 27.34375 54.890625 
L 27.34375 36.140625 
L 50.734375 36.140625 
L 50.734375 54.890625 
Q 50.734375 59.96875 50.1875 61.234375 
Q 49.65625 62.5 48 63.453125 
Q 46.34375 64.40625 43.5625 64.40625 
L 41.40625 64.40625 
L 41.40625 66.21875 
L 75.984375 66.21875 
L 75.984375 64.40625 
L 73.828125 64.40625 
Q 70.90625 64.40625 69.1875 63.375 
Q 67.921875 62.703125 67.1875 61.03125 
Q 66.65625 59.859375 66.65625 54.890625 
L 66.65625 11.328125 
Q 66.65625 6.25 67.1875 4.984375 
Q 67.71875 3.71875 69.375 2.765625 
Q 71.046875 1.8125 73.828125 1.8125 
L 75.984375 1.8125 
L 75.984375 0 
L 41.40625 0 
L 41.40625 1.8125 
L 43.5625 1.8125 
Q 46.484375 1.8125 48.1875 2.828125 
Q 49.46875 3.515625 50.203125 5.171875 
Q 50.734375 6.34375 50.734375 11.328125 
L 50.734375 31.84375 
z
" id="TimesNewRomanPS-BoldMT-72"/>
        <path d="M 66.75 67.71875 
L 66.75 44.78125 
L 64.84375 44.78125 
Q 62.703125 53.765625 56.84375 58.546875 
Q 50.984375 63.328125 43.5625 63.328125 
Q 37.359375 63.328125 32.171875 59.765625 
Q 27 56.203125 24.609375 50.4375 
Q 21.53125 43.0625 21.53125 34.03125 
Q 21.53125 25.140625 23.78125 17.84375 
Q 26.03125 10.546875 30.8125 6.8125 
Q 35.59375 3.078125 43.21875 3.078125 
Q 49.46875 3.078125 54.65625 5.8125 
Q 59.859375 8.546875 65.625 15.234375 
L 65.625 9.515625 
Q 60.0625 3.71875 54.03125 1.09375 
Q 48 -1.515625 39.9375 -1.515625 
Q 29.34375 -1.515625 21.109375 2.734375 
Q 12.890625 6.984375 8.421875 14.9375 
Q 3.953125 22.90625 3.953125 31.890625 
Q 3.953125 41.359375 8.90625 49.84375 
Q 13.875 58.34375 22.296875 63.03125 
Q 30.71875 67.71875 40.1875 67.71875 
Q 47.171875 67.71875 54.9375 64.703125 
Q 59.421875 62.9375 60.640625 62.9375 
Q 62.203125 62.9375 63.34375 64.078125 
Q 64.5 65.234375 64.84375 67.71875 
z
" id="TimesNewRomanPS-BoldMT-67"/>
       </defs>
       <use xlink:href="#TimesNewRomanPS-BoldMT-72"/>
       <use x="77.783203" xlink:href="#TimesNewRomanPS-BoldMT-65"/>
       <use x="150" xlink:href="#TimesNewRomanPS-BoldMT-66"/>
       <use x="216.699219" xlink:href="#TimesNewRomanPS-BoldMT-67"/>
      </g>
     </g>
    </g>
   </g>
   <g id="matplotlib.axis_2">
    <g id="ytick_1">
     <g id="line2d_6">
      <path clip-path="url(#p56e63ce5ff)" d="M 48.120625 612.92 
L 850.000625 612.92 
" style="fill:none;stroke:#b0b0b0;stroke-dasharray:2.96,1.28;stroke-dashoffset:0;stroke-width:0.8;"/>
     </g>
     <g id="line2d_7">
      <defs>
       <path d="M 0 0 
L -3.5 0 
" id="m60858432a9" style="stroke:#000000;stroke-width:0.8;"/>
      </defs>
      <g>
       <use style="stroke:#000000;stroke-width:0.8;" x="48.120625" xlink:href="#m60858432a9" y="612.92"/>
      </g>
     </g>
     <g id="text_6">
      <!-- 0.0 -->
      <g transform="translate(25.2175 616.719219)scale(0.1 -0.1)">
       <defs>
        <path d="M 31.78125 66.40625 
Q 24.171875 66.40625 20.328125 58.90625 
Q 16.5 51.421875 16.5 36.375 
Q 16.5 21.390625 20.328125 13.890625 
Q 24.171875 6.390625 31.78125 6.390625 
Q 39.453125 6.390625 43.28125 13.890625 
Q 47.125 21.390625 47.125 36.375 
Q 47.125 51.421875 43.28125 58.90625 
Q 39.453125 66.40625 31.78125 66.40625 
z
M 31.78125 74.21875 
Q 44.046875 74.21875 50.515625 64.515625 
Q 56.984375 54.828125 56.984375 36.375 
Q 56.984375 17.96875 50.515625 8.265625 
Q 44.046875 -1.421875 31.78125 -1.421875 
Q 19.53125 -1.421875 13.0625 8.265625 
Q 6.59375 17.96875 6.59375 36.375 
Q 6.59375 54.828125 13.0625 64.515625 
Q 19.53125 74.21875 31.78125 74.21875 
z
" id="DejaVuSans-48"/>
        <path d="M 10.6875 12.40625 
L 21 12.40625 
L 21 0 
L 10.6875 0 
z
" id="DejaVuSans-46"/>
       </defs>
       <use xlink:href="#DejaVuSans-48"/>
       <use x="63.623047" xlink:href="#DejaVuSans-46"/>
       <use x="95.410156" xlink:href="#DejaVuSans-48"/>
      </g>
     </g>
    </g>
    <g id="ytick_2">
     <g id="line2d_8">
      <path clip-path="url(#p56e63ce5ff)" d="M 48.120625 479.999219 
L 850.000625 479.999219 
" style="fill:none;stroke:#b0b0b0;stroke-dasharray:2.96,1.28;stroke-dashoffset:0;stroke-width:0.8;"/>
     </g>
     <g id="line2d_9">
      <g>
       <use style="stroke:#000000;stroke-width:0.8;" x="48.120625" xlink:href="#m60858432a9" y="479.999219"/>
      </g>
     </g>
     <g id="text_7">
      <!-- 0.2 -->
      <g transform="translate(25.2175 483.798438)scale(0.1 -0.1)">
       <defs>
        <path d="M 19.1875 8.296875 
L 53.609375 8.296875 
L 53.609375 0 
L 7.328125 0 
L 7.328125 8.296875 
Q 12.9375 14.109375 22.625 23.890625 
Q 32.328125 33.6875 34.8125 36.53125 
Q 39.546875 41.84375 41.421875 45.53125 
Q 43.3125 49.21875 43.3125 52.78125 
Q 43.3125 58.59375 39.234375 62.25 
Q 35.15625 65.921875 28.609375 65.921875 
Q 23.96875 65.921875 18.8125 64.3125 
Q 13.671875 62.703125 7.8125 59.421875 
L 7.8125 69.390625 
Q 13.765625 71.78125 18.9375 73 
Q 24.125 74.21875 28.421875 74.21875 
Q 39.75 74.21875 46.484375 68.546875 
Q 53.21875 62.890625 53.21875 53.421875 
Q 53.21875 48.921875 51.53125 44.890625 
Q 49.859375 40.875 45.40625 35.40625 
Q 44.1875 33.984375 37.640625 27.21875 
Q 31.109375 20.453125 19.1875 8.296875 
z
" id="DejaVuSans-50"/>
       </defs>
       <use xlink:href="#DejaVuSans-48"/>
       <use x="63.623047" xlink:href="#DejaVuSans-46"/>
       <use x="95.410156" xlink:href="#DejaVuSans-50"/>
      </g>
     </g>
    </g>
    <g id="ytick_3">
     <g id="line2d_10">
      <path clip-path="url(#p56e63ce5ff)" d="M 48.120625 347.078438 
L 850.000625 347.078438 
" style="fill:none;stroke:#b0b0b0;stroke-dasharray:2.96,1.28;stroke-dashoffset:0;stroke-width:0.8;"/>
     </g>
     <g id="line2d_11">
      <g>
       <use style="stroke:#000000;stroke-width:0.8;" x="48.120625" xlink:href="#m60858432a9" y="347.078438"/>
      </g>
     </g>
     <g id="text_8">
      <!-- 0.4 -->
      <g transform="translate(25.2175 350.877656)scale(0.1 -0.1)">
       <defs>
        <path d="M 37.796875 64.3125 
L 12.890625 25.390625 
L 37.796875 25.390625 
z
M 35.203125 72.90625 
L 47.609375 72.90625 
L 47.609375 25.390625 
L 58.015625 25.390625 
L 58.015625 17.1875 
L 47.609375 17.1875 
L 47.609375 0 
L 37.796875 0 
L 37.796875 17.1875 
L 4.890625 17.1875 
L 4.890625 26.703125 
z
" id="DejaVuSans-52"/>
       </defs>
       <use xlink:href="#DejaVuSans-48"/>
       <use x="63.623047" xlink:href="#DejaVuSans-46"/>
       <use x="95.410156" xlink:href="#DejaVuSans-52"/>
      </g>
     </g>
    </g>
    <g id="ytick_4">
     <g id="line2d_12">
      <path clip-path="url(#p56e63ce5ff)" d="M 48.120625 214.157656 
L 850.000625 214.157656 
" style="fill:none;stroke:#b0b0b0;stroke-dasharray:2.96,1.28;stroke-dashoffset:0;stroke-width:0.8;"/>
     </g>
     <g id="line2d_13">
      <g>
       <use style="stroke:#000000;stroke-width:0.8;" x="48.120625" xlink:href="#m60858432a9" y="214.157656"/>
      </g>
     </g>
     <g id="text_9">
      <!-- 0.6 -->
      <g transform="translate(25.2175 217.956875)scale(0.1 -0.1)">
       <defs>
        <path d="M 33.015625 40.375 
Q 26.375 40.375 22.484375 35.828125 
Q 18.609375 31.296875 18.609375 23.390625 
Q 18.609375 15.53125 22.484375 10.953125 
Q 26.375 6.390625 33.015625 6.390625 
Q 39.65625 6.390625 43.53125 10.953125 
Q 47.40625 15.53125 47.40625 23.390625 
Q 47.40625 31.296875 43.53125 35.828125 
Q 39.65625 40.375 33.015625 40.375 
z
M 52.59375 71.296875 
L 52.59375 62.3125 
Q 48.875 64.0625 45.09375 64.984375 
Q 41.3125 65.921875 37.59375 65.921875 
Q 27.828125 65.921875 22.671875 59.328125 
Q 17.53125 52.734375 16.796875 39.40625 
Q 19.671875 43.65625 24.015625 45.921875 
Q 28.375 48.1875 33.59375 48.1875 
Q 44.578125 48.1875 50.953125 41.515625 
Q 57.328125 34.859375 57.328125 23.390625 
Q 57.328125 12.15625 50.6875 5.359375 
Q 44.046875 -1.421875 33.015625 -1.421875 
Q 20.359375 -1.421875 13.671875 8.265625 
Q 6.984375 17.96875 6.984375 36.375 
Q 6.984375 53.65625 15.1875 63.9375 
Q 23.390625 74.21875 37.203125 74.21875 
Q 40.921875 74.21875 44.703125 73.484375 
Q 48.484375 72.75 52.59375 71.296875 
z
" id="DejaVuSans-54"/>
       </defs>
       <use xlink:href="#DejaVuSans-48"/>
       <use x="63.623047" xlink:href="#DejaVuSans-46"/>
       <use x="95.410156" xlink:href="#DejaVuSans-54"/>
      </g>
     </g>
    </g>
    <g id="ytick_5">
     <g id="line2d_14">
      <path clip-path="url(#p56e63ce5ff)" d="M 48.120625 81.236875 
L 850.000625 81.236875 
" style="fill:none;stroke:#b0b0b0;stroke-dasharray:2.96,1.28;stroke-dashoffset:0;stroke-width:0.8;"/>
     </g>
     <g id="line2d_15">
      <g>
       <use style="stroke:#000000;stroke-width:0.8;" x="48.120625" xlink:href="#m60858432a9" y="81.236875"/>
      </g>
     </g>
     <g id="text_10">
      <!-- 0.8 -->
      <g transform="translate(25.2175 85.036094)scale(0.1 -0.1)">
       <defs>
        <path d="M 31.78125 34.625 
Q 24.75 34.625 20.71875 30.859375 
Q 16.703125 27.09375 16.703125 20.515625 
Q 16.703125 13.921875 20.71875 10.15625 
Q 24.75 6.390625 31.78125 6.390625 
Q 38.8125 6.390625 42.859375 10.171875 
Q 46.921875 13.96875 46.921875 20.515625 
Q 46.921875 27.09375 42.890625 30.859375 
Q 38.875 34.625 31.78125 34.625 
z
M 21.921875 38.8125 
Q 15.578125 40.375 12.03125 44.71875 
Q 8.5 49.078125 8.5 55.328125 
Q 8.5 64.0625 14.71875 69.140625 
Q 20.953125 74.21875 31.78125 74.21875 
Q 42.671875 74.21875 48.875 69.140625 
Q 55.078125 64.0625 55.078125 55.328125 
Q 55.078125 49.078125 51.53125 44.71875 
Q 48 40.375 41.703125 38.8125 
Q 48.828125 37.15625 52.796875 32.3125 
Q 56.78125 27.484375 56.78125 20.515625 
Q 56.78125 9.90625 50.3125 4.234375 
Q 43.84375 -1.421875 31.78125 -1.421875 
Q 19.734375 -1.421875 13.25 4.234375 
Q 6.78125 9.90625 6.78125 20.515625 
Q 6.78125 27.484375 10.78125 32.3125 
Q 14.796875 37.15625 21.921875 38.8125 
z
M 18.3125 54.390625 
Q 18.3125 48.734375 21.84375 45.5625 
Q 25.390625 42.390625 31.78125 42.390625 
Q 38.140625 42.390625 41.71875 45.5625 
Q 45.3125 48.734375 45.3125 54.390625 
Q 45.3125 60.0625 41.71875 63.234375 
Q 38.140625 66.40625 31.78125 66.40625 
Q 25.390625 66.40625 21.84375 63.234375 
Q 18.3125 60.0625 18.3125 54.390625 
z
" id="DejaVuSans-56"/>
       </defs>
       <use xlink:href="#DejaVuSans-48"/>
       <use x="63.623047" xlink:href="#DejaVuSans-46"/>
       <use x="95.410156" xlink:href="#DejaVuSans-56"/>
      </g>
     </g>
    </g>
    <g id="text_11">
     <!-- AUC -->
     <g transform="translate(17.795 327.3925)rotate(-90)scale(0.16 -0.16)">
      <defs>
       <path d="M 2.34375 66.21875 
L 36.53125 66.21875 
L 36.53125 64.40625 
L 34.8125 64.40625 
Q 30.953125 64.40625 29.515625 63.59375 
Q 28.078125 62.796875 27.46875 61.375 
Q 26.859375 59.96875 26.859375 54.296875 
L 26.859375 21.875 
Q 26.859375 12.984375 28.203125 10.109375 
Q 29.546875 7.234375 32.609375 5.328125 
Q 35.6875 3.421875 40.375 3.421875 
Q 45.75 3.421875 49.53125 5.828125 
Q 53.328125 8.25 55.203125 12.5 
Q 57.078125 16.75 57.078125 27.296875 
L 57.078125 54.296875 
Q 57.078125 58.734375 56.140625 60.640625 
Q 55.21875 62.546875 53.8125 63.28125 
Q 51.609375 64.40625 47.609375 64.40625 
L 47.609375 66.21875 
L 70.515625 66.21875 
L 70.515625 64.40625 
L 69.140625 64.40625 
Q 66.359375 64.40625 64.5 63.28125 
Q 62.640625 62.15625 61.8125 59.90625 
Q 61.1875 58.34375 61.1875 54.296875 
L 61.1875 29.15625 
Q 61.1875 17.484375 59.640625 12.296875 
Q 58.109375 7.125 52.140625 2.78125 
Q 46.1875 -1.5625 35.890625 -1.5625 
Q 27.296875 -1.5625 22.609375 0.734375 
Q 16.21875 3.859375 13.578125 8.734375 
Q 10.9375 13.625 10.9375 21.875 
L 10.9375 54.296875 
Q 10.9375 60.015625 10.296875 61.40625 
Q 9.671875 62.796875 8.109375 63.625 
Q 6.546875 64.453125 2.34375 64.40625 
z
" id="TimesNewRomanPS-BoldMT-85"/>
      </defs>
      <use xlink:href="#TimesNewRomanPS-BoldMT-65"/>
      <use x="72.216797" xlink:href="#TimesNewRomanPS-BoldMT-85"/>
      <use x="144.433594" xlink:href="#TimesNewRomanPS-BoldMT-67"/>
     </g>
    </g>
   </g>
   <g id="patch_3">
    <path d="M 48.120625 612.92 
L 48.120625 7.2 
" style="fill:none;stroke:#000000;stroke-linecap:square;stroke-linejoin:miter;stroke-width:0.8;"/>
   </g>
   <g id="patch_4">
    <path d="M 850.000625 612.92 
L 850.000625 7.2 
" style="fill:none;stroke:#000000;stroke-linecap:square;stroke-linejoin:miter;stroke-width:0.8;"/>
   </g>
   <g id="patch_5">
    <path d="M 48.120625 612.92 
L 850.000625 612.92 
" style="fill:none;stroke:#000000;stroke-linecap:square;stroke-linejoin:miter;stroke-width:0.8;"/>
   </g>
   <g id="patch_6">
    <path d="M 48.120625 7.2 
L 850.000625 7.2 
" style="fill:none;stroke:#000000;stroke-linecap:square;stroke-linejoin:miter;stroke-width:0.8;"/>
   </g>
   <g id="text_12">
    <!-- 0.79 -->
    <g transform="translate(119.795611 85.882914)scale(0.24 -0.24)">
     <defs>
      <path d="M 46.34375 33.109375 
Q 46.34375 23.1875 43.5625 14.59375 
Q 41.890625 9.328125 39.078125 5.953125 
Q 36.28125 2.59375 32.71875 0.609375 
Q 29.15625 -1.375 24.953125 -1.375 
Q 20.171875 -1.375 16.3125 1.0625 
Q 12.453125 3.515625 9.46875 8.0625 
Q 7.328125 11.375 5.71875 16.890625 
Q 3.609375 24.359375 3.609375 32.328125 
Q 3.609375 43.109375 6.640625 52.15625 
Q 9.125 59.625 14.203125 63.59375 
Q 19.28125 67.578125 24.953125 67.578125 
Q 30.71875 67.578125 35.71875 63.640625 
Q 40.71875 59.71875 43.0625 53.078125 
Q 46.34375 43.953125 46.34375 33.109375 
z
M 31.296875 33.203125 
Q 31.296875 50.59375 31.109375 53.46875 
Q 30.609375 60.25 28.765625 62.640625 
Q 27.546875 64.203125 24.8125 64.203125 
Q 22.703125 64.203125 21.484375 63.03125 
Q 19.671875 61.328125 19.03125 57 
Q 18.40625 52.6875 18.40625 26.859375 
Q 18.40625 12.796875 19.390625 8.015625 
Q 20.125 4.546875 21.484375 3.375 
Q 22.859375 2.203125 25.09375 2.203125 
Q 27.546875 2.203125 28.765625 3.765625 
Q 30.8125 6.5 31.109375 12.203125 
z
" id="TimesNewRomanPS-BoldMT-48"/>
      <path d="M 12.5 15.046875 
Q 15.921875 15.046875 18.28125 12.640625 
Q 20.65625 10.25 20.65625 6.890625 
Q 20.65625 3.515625 18.265625 1.140625 
Q 15.875 -1.21875 12.5 -1.21875 
Q 9.125 -1.21875 6.75 1.140625 
Q 4.390625 3.515625 4.390625 6.890625 
Q 4.390625 10.25 6.75 12.640625 
Q 9.125 15.046875 12.5 15.046875 
z
" id="TimesNewRomanPS-BoldMT-46"/>
      <path d="M 17.71875 -1.375 
L 35.75 53.265625 
L 22.015625 53.265625 
Q 13.96875 53.265625 9.90625 51.171875 
Q 7.078125 49.703125 5.21875 45.65625 
L 3.375 45.65625 
L 8.15625 66.21875 
L 47.609375 66.21875 
L 25.390625 -1.375 
z
" id="TimesNewRomanPS-BoldMT-55"/>
      <path d="M 3.078125 -1.375 
L 3.078125 0 
Q 11.1875 1.859375 16.828125 5.46875 
Q 22.46875 9.078125 25.75 14.40625 
Q 29.046875 19.734375 30.375 26.65625 
Q 27.34375 25.09375 25.21875 24.484375 
Q 23.09375 23.875 20.75 23.875 
Q 13.234375 23.875 8.21875 29.296875 
Q 3.21875 34.71875 3.21875 44.140625 
Q 3.21875 50.6875 5.921875 56.125 
Q 8.640625 61.578125 13.671875 64.578125 
Q 18.703125 67.578125 24.125 67.578125 
Q 29.9375 67.578125 35.109375 64.25 
Q 40.28125 60.9375 43.359375 54.640625 
Q 46.4375 48.34375 46.4375 40.28125 
Q 46.4375 29.828125 41.421875 20.25 
Q 36.421875 10.6875 26.515625 4.90625 
Q 16.609375 -0.875 3.078125 -1.375 
z
M 31.109375 30.765625 
Q 31.59375 36.234375 31.59375 40.375 
Q 31.59375 49.265625 29.546875 56.9375 
Q 28.375 61.1875 26.078125 63.1875 
Q 24.859375 64.265625 22.90625 64.265625 
Q 20.453125 64.265625 19.09375 62.15625 
Q 17.1875 59.28125 17.1875 51.171875 
Q 17.1875 37.640625 20.40625 32.515625 
Q 22.515625 29.203125 26.078125 29.203125 
Q 27.984375 29.203125 31.109375 30.765625 
z
" id="TimesNewRomanPS-BoldMT-57"/>
     </defs>
     <use xlink:href="#TimesNewRomanPS-BoldMT-48"/>
     <use x="50" xlink:href="#TimesNewRomanPS-BoldMT-46"/>
     <use x="75" xlink:href="#TimesNewRomanPS-BoldMT-55"/>
     <use x="125" xlink:href="#TimesNewRomanPS-BoldMT-57"/>
    </g>
   </g>
   <g id="text_13">
    <!-- 0.81 -->
    <g transform="translate(274.428118 72.590836)scale(0.24 -0.24)">
     <defs>
      <path d="M 34.078125 37.40625 
Q 41.0625 32.28125 43.765625 27.859375 
Q 46.484375 23.4375 46.484375 17.71875 
Q 46.484375 9.71875 40.453125 4.171875 
Q 34.421875 -1.375 24.078125 -1.375 
Q 14.265625 -1.375 8.890625 3.453125 
Q 3.515625 8.296875 3.515625 15.28125 
Q 3.515625 20.609375 6.609375 24.609375 
Q 9.71875 28.609375 16.9375 31.9375 
Q 9.078125 37.9375 6.859375 41.75 
Q 4.640625 45.5625 4.640625 50.59375 
Q 4.640625 57.234375 10.28125 62.28125 
Q 15.921875 67.328125 25.734375 67.328125 
Q 35.203125 67.328125 40.296875 62.859375 
Q 45.40625 58.40625 45.40625 52.15625 
Q 45.40625 47.46875 42.640625 43.875 
Q 39.890625 40.28125 34.078125 37.40625 
z
M 30.375 39.890625 
Q 32.171875 42.328125 33.046875 45.359375 
Q 33.9375 48.390625 33.9375 52 
Q 33.9375 58.34375 31.203125 61.71875 
Q 29.15625 64.3125 25.53125 64.3125 
Q 22.265625 64.3125 19.96875 61.9375 
Q 17.671875 59.578125 17.671875 56.0625 
Q 17.671875 52.484375 20.234375 48.65625 
Q 22.796875 44.828125 30.375 39.890625 
z
M 20.609375 29.59375 
Q 19.09375 28.21875 18.453125 27.09375 
Q 17.484375 25.390625 16.703125 22.109375 
Q 15.921875 18.84375 15.921875 15.28125 
Q 15.921875 10.6875 17.09375 7.59375 
Q 18.265625 4.5 20.4375 3.125 
Q 22.609375 1.765625 24.90625 1.765625 
Q 28.46875 1.765625 30.90625 4.375 
Q 33.34375 6.984375 33.34375 11.53125 
Q 33.34375 21 20.609375 29.59375 
z
" id="TimesNewRomanPS-BoldMT-56"/>
      <path d="M 32.5625 67.578125 
L 32.5625 13.421875 
Q 32.5625 7.328125 33.09375 5.640625 
Q 33.640625 3.953125 35.34375 2.875 
Q 37.0625 1.8125 40.828125 1.8125 
L 42.328125 1.8125 
L 42.328125 0 
L 7.46875 0 
L 7.46875 1.8125 
L 9.234375 1.8125 
Q 13.484375 1.8125 15.28125 2.78125 
Q 17.09375 3.765625 17.71875 5.46875 
Q 18.359375 7.171875 18.359375 13.421875 
L 18.359375 47.75 
Q 18.359375 52.34375 17.921875 53.484375 
Q 17.484375 54.640625 16.28125 55.4375 
Q 15.09375 56.25 13.53125 56.25 
Q 11.03125 56.25 7.46875 54.6875 
L 6.59375 56.453125 
L 30.953125 67.578125 
z
" id="TimesNewRomanPS-BoldMT-49"/>
     </defs>
     <use xlink:href="#TimesNewRomanPS-BoldMT-48"/>
     <use x="50" xlink:href="#TimesNewRomanPS-BoldMT-46"/>
     <use x="75" xlink:href="#TimesNewRomanPS-BoldMT-56"/>
     <use x="125" xlink:href="#TimesNewRomanPS-BoldMT-49"/>
    </g>
   </g>
   <g id="text_14">
    <!-- 0.833 -->
    <g transform="translate(429.060625 57.304946)scale(0.24 -0.24)">
     <defs>
      <path d="M 14.796875 33.203125 
L 14.796875 34.90625 
Q 20.359375 36.53125 22.5 37.921875 
Q 24.65625 39.3125 26.21875 42.15625 
Q 27.78125 45.015625 27.78125 47.953125 
Q 27.78125 52 24.828125 54.90625 
Q 21.875 57.8125 17.484375 57.8125 
Q 10.640625 57.8125 5.859375 50.59375 
L 4.046875 51.21875 
Q 7.5625 59.375 13.0625 63.46875 
Q 18.5625 67.578125 25.296875 67.578125 
Q 32.171875 67.578125 36.640625 63.375 
Q 41.109375 59.1875 41.109375 53.5625 
Q 41.109375 49.90625 39.03125 46.5 
Q 36.96875 43.109375 32.515625 40.53125 
Q 38.234375 37.75 41.234375 33.671875 
Q 44.234375 29.59375 44.234375 23.4375 
Q 44.234375 13.09375 36.734375 5.828125 
Q 29.25 -1.421875 16.65625 -1.421875 
Q 8.25 -1.421875 4.390625 1.375 
Q 1.609375 3.328125 1.609375 6.390625 
Q 1.609375 8.640625 3.21875 10.21875 
Q 4.828125 11.8125 6.9375 11.8125 
Q 8.546875 11.8125 9.96875 11.140625 
Q 10.75 10.75 15.5 6.859375 
Q 20.265625 2.984375 24.421875 2.984375 
Q 28.03125 2.984375 30.609375 5.828125 
Q 33.203125 8.6875 33.203125 13.09375 
Q 33.203125 19.78125 28.515625 25.421875 
Q 23.828125 31.0625 14.796875 33.203125 
z
" id="TimesNewRomanPS-BoldMT-51"/>
     </defs>
     <use xlink:href="#TimesNewRomanPS-BoldMT-48"/>
     <use x="50" xlink:href="#TimesNewRomanPS-BoldMT-46"/>
     <use x="75" xlink:href="#TimesNewRomanPS-BoldMT-56"/>
     <use x="125" xlink:href="#TimesNewRomanPS-BoldMT-51"/>
     <use x="175" xlink:href="#TimesNewRomanPS-BoldMT-51"/>
    </g>
   </g>
   <g id="text_15">
    <!-- 0.838 -->
    <g transform="translate(583.693132 53.981927)scale(0.24 -0.24)">
     <use xlink:href="#TimesNewRomanPS-BoldMT-48"/>
     <use x="50" xlink:href="#TimesNewRomanPS-BoldMT-46"/>
     <use x="75" xlink:href="#TimesNewRomanPS-BoldMT-56"/>
     <use x="125" xlink:href="#TimesNewRomanPS-BoldMT-51"/>
     <use x="175" xlink:href="#TimesNewRomanPS-BoldMT-56"/>
    </g>
   </g>
   <g id="text_16">
    <!-- 0.868 -->
    <g transform="translate(738.325639 34.04381)scale(0.24 -0.24)">
     <defs>
      <path d="M 46.96875 67.578125 
L 46.96875 66.21875 
Q 38.140625 63.96875 32.78125 60.421875 
Q 27.4375 56.890625 24.328125 51.828125 
Q 21.234375 46.78125 19.53125 39.3125 
Q 21.6875 40.765625 23.09375 41.21875 
Q 26.265625 42.1875 29.5 42.1875 
Q 36.921875 42.1875 41.875 36.78125 
Q 46.828125 31.390625 46.828125 22.078125 
Q 46.828125 15.53125 44.140625 10.0625 
Q 41.453125 4.59375 36.515625 1.609375 
Q 31.59375 -1.375 25.984375 -1.375 
Q 19.875 -1.375 14.6875 1.96875 
Q 9.515625 5.328125 6.609375 11.765625 
Q 3.71875 18.21875 3.71875 25.78125 
Q 3.71875 36.921875 9.0625 46.515625 
Q 14.40625 56.109375 24.234375 61.796875 
Q 34.078125 67.484375 46.96875 67.578125 
z
M 18.890625 35.359375 
Q 18.5 28.609375 18.5 25.484375 
Q 18.5 18.75 19.796875 12.453125 
Q 21.09375 6.15625 23.34375 3.609375 
Q 24.953125 1.8125 27.15625 1.8125 
Q 29.390625 1.8125 31.140625 4.421875 
Q 32.90625 7.03125 32.90625 15.046875 
Q 32.90625 28.515625 29.640625 33.640625 
Q 27.546875 36.96875 23.96875 36.96875 
Q 22.015625 36.96875 18.890625 35.359375 
z
" id="TimesNewRomanPS-BoldMT-54"/>
     </defs>
     <use xlink:href="#TimesNewRomanPS-BoldMT-48"/>
     <use x="50" xlink:href="#TimesNewRomanPS-BoldMT-46"/>
     <use x="75" xlink:href="#TimesNewRomanPS-BoldMT-56"/>
     <use x="125" xlink:href="#TimesNewRomanPS-BoldMT-54"/>
     <use x="175" xlink:href="#TimesNewRomanPS-BoldMT-56"/>
    </g>
   </g>
   <g id="patch_7">
    <path clip-path="url(#p56e63ce5ff)" d="M 84.569716 612.92 
L 195.021507 612.92 
L 195.021507 87.882914 
L 84.569716 87.882914 
z
" style="fill:url(#hfb937f5df6);stroke:#000000;stroke-linejoin:miter;"/>
   </g>
   <g id="patch_8">
    <path clip-path="url(#p56e63ce5ff)" d="M 239.202223 612.92 
L 349.654013 612.92 
L 349.654013 74.590836 
L 239.202223 74.590836 
z
" style="fill:url(#h0a586b882c);stroke:#000000;stroke-linejoin:miter;"/>
   </g>
   <g id="patch_9">
    <path clip-path="url(#p56e63ce5ff)" d="M 393.83473 612.92 
L 504.28652 612.92 
L 504.28652 59.304946 
L 393.83473 59.304946 
z
" style="fill:url(#hfb937f5df6);stroke:#000000;stroke-linejoin:miter;"/>
   </g>
   <g id="patch_10">
    <path clip-path="url(#p56e63ce5ff)" d="M 548.467237 612.92 
L 658.919027 612.92 
L 658.919027 55.981927 
L 548.467237 55.981927 
z
" style="fill:url(#h0a586b882c);stroke:#000000;stroke-linejoin:miter;"/>
   </g>
   <g id="patch_11">
    <path clip-path="url(#p56e63ce5ff)" d="M 703.099743 612.92 
L 813.551534 612.92 
L 813.551534 36.04381 
L 703.099743 36.04381 
z
" style="fill:url(#hfb937f5df6);stroke:#000000;stroke-linejoin:miter;"/>
   </g>
  </g>
 </g>
 <defs>
  <clipPath id="p56e63ce5ff">
   <rect height="605.72" width="801.88" x="48.120625" y="7.2"/>
  </clipPath>
 </defs>
 <defs>
  <pattern height="72" id="hfb937f5df6" patternUnits="userSpaceOnUse" width="72" x="0" y="0">
   <rect fill="#ffffff" height="73" width="73" x="0" y="0"/>
   <path style="fill:#000000;stroke:#000000;stroke-linecap:butt;stroke-linejoin:miter;stroke-width:1.0;"/>
  </pattern>
  <pattern height="72" id="h0a586b882c" patternUnits="userSpaceOnUse" width="72" x="0" y="0">
   <rect fill="#ffffff" height="73" width="73" x="0" y="0"/>
   <path d="M -36 36 
L 36 -36 
M -30 42 
L 42 -30 
M -24 48 
L 48 -24 
M -18 54 
L 54 -18 
M -12 60 
L 60 -12 
M -6 66 
L 66 -6 
M 0 72 
L 72 0 
M 6 78 
L 78 6 
M 12 84 
L 84 12 
M 18 90 
L 90 18 
M 24 96 
L 96 24 
M 30 102 
L 102 30 
M 36 108 
L 108 36 
" style="fill:#000000;stroke:#000000;stroke-linecap:butt;stroke-linejoin:miter;stroke-width:1.0;"/>
  </pattern>
 </defs>
</svg>
