<?xml version="1.0" encoding="utf-8" standalone="no"?>
<!DOCTYPE svg PUBLIC "-//W3C//DTD SVG 1.1//EN"
  "http://www.w3.org/Graphics/SVG/1.1/DTD/svg11.dtd">
<!-- Created with matplotlib (https://matplotlib.org/) -->
<svg height="497.342875pt" version="1.1" viewBox="0 0 1433.0825 497.342875" width="1433.0825pt" xmlns="http://www.w3.org/2000/svg" xmlns:xlink="http://www.w3.org/1999/xlink">
 <metadata>
  <rdf:RDF xmlns:cc="http://creativecommons.org/ns#" xmlns:dc="http://purl.org/dc/elements/1.1/" xmlns:rdf="http://www.w3.org/1999/02/22-rdf-syntax-ns#">
   <cc:Work>
    <dc:type rdf:resource="http://purl.org/dc/dcmitype/StillImage"/>
    <dc:date>2021-05-14T11:32:21.046221</dc:date>
    <dc:format>image/svg+xml</dc:format>
    <dc:creator>
     <cc:Agent>
      <dc:title>Matplotlib v3.3.4, https://matplotlib.org/</dc:title>
     </cc:Agent>
    </dc:creator>
   </cc:Work>
  </rdf:RDF>
 </metadata>
 <defs>
  <style type="text/css">*{stroke-linecap:butt;stroke-linejoin:round;}</style>
 </defs>
 <g id="figure_1">
  <g id="patch_1">
   <path d="M 0 497.342875 
L 1433.0825 497.342875 
L 1433.0825 0 
L 0 0 
z
" style="fill:#ffffff;"/>
  </g>
  <g id="axes_1">
   <g id="patch_2">
    <path d="M 44.9425 434.347772 
L 1425.8825 434.347772 
L 1425.8825 7.2 
L 44.9425 7.2 
z
" style="fill:#ffffff;"/>
   </g>
   <g id="matplotlib.axis_1">
    <g id="xtick_1">
     <g id="line2d_1">
      <defs>
       <path d="M 0 0 
L 0 3.5 
" id="m65f56dd7db" style="stroke:#000000;stroke-width:0.8;"/>
      </defs>
      <g>
       <use style="stroke:#000000;stroke-width:0.8;" x="123.890335" xlink:href="#m65f56dd7db" y="434.347772"/>
      </g>
     </g>
     <g id="text_1">
      <!-- bands-0 -->
      <g transform="translate(102.193604 477.647062)rotate(-30)scale(0.16 -0.16)">
       <defs>
        <path d="M 21.046875 66.21875 
L 21.046875 41.0625 
Q 26.8125 47.015625 33.640625 47.015625 
Q 38.328125 47.015625 42.46875 44.25 
Q 46.625 41.5 48.96875 36.421875 
Q 51.3125 31.34375 51.3125 24.703125 
Q 51.3125 17.234375 48.328125 11.125 
Q 45.359375 5.03125 40.375 1.828125 
Q 35.40625 -1.375 29 -1.375 
Q 25.296875 -1.375 22.40625 -0.1875 
Q 19.53125 0.984375 16.75 3.609375 
L 9.1875 -1.3125 
L 7.515625 -1.3125 
L 7.515625 56.734375 
Q 7.515625 60.6875 7.171875 61.625 
Q 6.6875 62.984375 5.640625 63.640625 
Q 4.59375 64.3125 2.09375 64.40625 
L 2.09375 66.21875 
z
M 21.046875 36.71875 
L 21.046875 16.40625 
Q 21.046875 10.203125 21.34375 8.5 
Q 21.828125 5.609375 23.671875 3.828125 
Q 25.53125 2.046875 28.421875 2.046875 
Q 30.90625 2.046875 32.6875 3.46875 
Q 34.46875 4.890625 35.65625 9.078125 
Q 36.859375 13.28125 36.859375 24.21875 
Q 36.859375 34.71875 34.234375 38.625 
Q 32.328125 41.453125 29.109375 41.453125 
Q 24.90625 41.453125 21.046875 36.71875 
z
" id="TimesNewRomanPS-BoldMT-98"/>
        <path d="M 28.5625 6.734375 
Q 20.21875 -0.640625 13.578125 -0.640625 
Q 9.671875 -0.640625 7.078125 1.921875 
Q 4.5 4.5 4.5 8.34375 
Q 4.5 13.578125 8.984375 17.75 
Q 13.484375 21.921875 28.5625 28.859375 
L 28.5625 33.453125 
Q 28.5625 38.625 28 39.96875 
Q 27.4375 41.3125 25.875 42.3125 
Q 24.3125 43.3125 22.359375 43.3125 
Q 19.1875 43.3125 17.140625 41.890625 
Q 15.875 41.015625 15.875 39.84375 
Q 15.875 38.8125 17.234375 37.3125 
Q 19.09375 35.203125 19.09375 33.25 
Q 19.09375 30.859375 17.3125 29.171875 
Q 15.53125 27.484375 12.640625 27.484375 
Q 9.578125 27.484375 7.5 29.34375 
Q 5.421875 31.203125 5.421875 33.6875 
Q 5.421875 37.203125 8.203125 40.40625 
Q 10.984375 43.609375 15.96875 45.3125 
Q 20.953125 47.015625 26.3125 47.015625 
Q 32.8125 47.015625 36.59375 44.25 
Q 40.375 41.5 41.5 38.28125 
Q 42.1875 36.234375 42.1875 28.859375 
L 42.1875 11.140625 
Q 42.1875 8.015625 42.421875 7.203125 
Q 42.671875 6.390625 43.15625 6 
Q 43.65625 5.609375 44.28125 5.609375 
Q 45.5625 5.609375 46.875 7.421875 
L 48.34375 6.25 
Q 45.90625 2.640625 43.28125 1 
Q 40.671875 -0.640625 37.359375 -0.640625 
Q 33.453125 -0.640625 31.25 1.1875 
Q 29.046875 3.03125 28.5625 6.734375 
z
M 28.5625 10.296875 
L 28.5625 25.59375 
Q 22.65625 22.125 19.78125 18.171875 
Q 17.875 15.53125 17.875 12.84375 
Q 17.875 10.59375 19.484375 8.890625 
Q 20.703125 7.5625 22.90625 7.5625 
Q 25.34375 7.5625 28.5625 10.296875 
z
" id="TimesNewRomanPS-BoldMT-97"/>
        <path d="M 22.015625 45.65625 
L 22.015625 39.75 
Q 25.53125 43.5625 28.75 45.28125 
Q 31.984375 47.015625 35.6875 47.015625 
Q 40.140625 47.015625 43.0625 44.546875 
Q 46 42.09375 46.96875 38.421875 
Q 47.75 35.640625 47.75 27.734375 
L 47.75 9.96875 
Q 47.75 4.6875 48.703125 3.390625 
Q 49.65625 2.09375 52.6875 1.765625 
L 52.6875 0 
L 29.59375 0 
L 29.59375 1.765625 
Q 32.171875 2.09375 33.296875 3.90625 
Q 34.078125 5.125 34.078125 9.96875 
L 34.078125 30.28125 
Q 34.078125 35.890625 33.640625 37.34375 
Q 33.203125 38.8125 32.15625 39.625 
Q 31.109375 40.4375 29.828125 40.4375 
Q 25.640625 40.4375 22.015625 34.421875 
L 22.015625 9.96875 
Q 22.015625 4.828125 22.96875 3.453125 
Q 23.921875 2.09375 26.515625 1.765625 
L 26.515625 0 
L 3.421875 0 
L 3.421875 1.765625 
Q 6.296875 2.046875 7.515625 3.609375 
Q 8.34375 4.6875 8.34375 9.96875 
L 8.34375 35.75 
Q 8.34375 40.921875 7.390625 42.1875 
Q 6.453125 43.453125 3.421875 43.84375 
L 3.421875 45.65625 
z
" id="TimesNewRomanPS-BoldMT-110"/>
        <path d="M 47.75 66.21875 
L 47.75 13.671875 
Q 47.75 8.34375 48.046875 7.375 
Q 48.4375 5.765625 49.53125 4.984375 
Q 50.640625 4.203125 53.375 4 
L 53.375 2.390625 
L 34.078125 -1.375 
L 34.078125 5.859375 
Q 30.609375 1.65625 27.90625 0.140625 
Q 25.203125 -1.375 21.78125 -1.375 
Q 13.03125 -1.375 7.953125 6.453125 
Q 3.859375 12.796875 3.859375 22.015625 
Q 3.859375 29.390625 6.390625 35.21875 
Q 8.9375 41.0625 13.359375 44.03125 
Q 17.78125 47.015625 22.859375 47.015625 
Q 26.125 47.015625 28.65625 45.75 
Q 31.203125 44.484375 34.078125 41.3125 
L 34.078125 55.078125 
Q 34.078125 60.296875 33.640625 61.375 
Q 33.0625 62.796875 31.890625 63.46875 
Q 30.71875 64.15625 27.484375 64.15625 
L 27.484375 66.21875 
z
M 34.078125 35.25 
Q 30.46875 42.1875 25.25 42.1875 
Q 23.4375 42.1875 22.265625 41.21875 
Q 20.453125 39.703125 19.3125 35.890625 
Q 18.171875 32.078125 18.171875 24.21875 
Q 18.171875 15.578125 19.4375 11.421875 
Q 20.703125 7.28125 22.90625 5.421875 
Q 24.03125 4.5 25.984375 4.5 
Q 30.28125 4.5 34.078125 11.234375 
z
" id="TimesNewRomanPS-BoldMT-100"/>
        <path d="M 32.234375 46.921875 
L 32.953125 31.34375 
L 31.296875 31.34375 
Q 28.328125 38.28125 25.125 40.8125 
Q 21.921875 43.359375 18.75 43.359375 
Q 16.75 43.359375 15.328125 42.015625 
Q 13.921875 40.671875 13.921875 38.921875 
Q 13.921875 37.59375 14.890625 36.375 
Q 16.453125 34.375 23.625 29.515625 
Q 30.8125 24.65625 33.078125 21.265625 
Q 35.359375 17.875 35.359375 13.671875 
Q 35.359375 9.859375 33.453125 6.203125 
Q 31.546875 2.546875 28.078125 0.578125 
Q 24.609375 -1.375 20.40625 -1.375 
Q 17.140625 -1.375 11.671875 0.6875 
Q 10.203125 1.21875 9.671875 1.21875 
Q 8.0625 1.21875 6.984375 -1.21875 
L 5.375 -1.21875 
L 4.59375 15.1875 
L 6.25 15.1875 
Q 8.453125 8.734375 12.28125 5.515625 
Q 16.109375 2.296875 19.53125 2.296875 
Q 21.875 2.296875 23.359375 3.734375 
Q 24.859375 5.171875 24.859375 7.234375 
Q 24.859375 9.578125 23.390625 11.28125 
Q 21.921875 12.984375 16.84375 16.453125 
Q 9.375 21.625 7.171875 24.359375 
Q 3.953125 28.375 3.953125 33.203125 
Q 3.953125 38.484375 7.59375 42.75 
Q 11.234375 47.015625 18.109375 47.015625 
Q 21.828125 47.015625 25.296875 45.21875 
Q 26.609375 44.484375 27.4375 44.484375 
Q 28.328125 44.484375 28.859375 44.84375 
Q 29.390625 45.21875 30.5625 46.921875 
z
" id="TimesNewRomanPS-BoldMT-115"/>
        <path d="M 30.90625 17.921875 
L 2.4375 17.921875 
L 2.4375 28.03125 
L 30.90625 28.03125 
z
" id="TimesNewRomanPS-BoldMT-45"/>
        <path d="M 46.34375 33.109375 
Q 46.34375 23.1875 43.5625 14.59375 
Q 41.890625 9.328125 39.078125 5.953125 
Q 36.28125 2.59375 32.71875 0.609375 
Q 29.15625 -1.375 24.953125 -1.375 
Q 20.171875 -1.375 16.3125 1.0625 
Q 12.453125 3.515625 9.46875 8.0625 
Q 7.328125 11.375 5.71875 16.890625 
Q 3.609375 24.359375 3.609375 32.328125 
Q 3.609375 43.109375 6.640625 52.15625 
Q 9.125 59.625 14.203125 63.59375 
Q 19.28125 67.578125 24.953125 67.578125 
Q 30.71875 67.578125 35.71875 63.640625 
Q 40.71875 59.71875 43.0625 53.078125 
Q 46.34375 43.953125 46.34375 33.109375 
z
M 31.296875 33.203125 
Q 31.296875 50.59375 31.109375 53.46875 
Q 30.609375 60.25 28.765625 62.640625 
Q 27.546875 64.203125 24.8125 64.203125 
Q 22.703125 64.203125 21.484375 63.03125 
Q 19.671875 61.328125 19.03125 57 
Q 18.40625 52.6875 18.40625 26.859375 
Q 18.40625 12.796875 19.390625 8.015625 
Q 20.125 4.546875 21.484375 3.375 
Q 22.859375 2.203125 25.09375 2.203125 
Q 27.546875 2.203125 28.765625 3.765625 
Q 30.8125 6.5 31.109375 12.203125 
z
" id="TimesNewRomanPS-BoldMT-48"/>
       </defs>
       <use xlink:href="#TimesNewRomanPS-BoldMT-98"/>
       <use x="55.615234" xlink:href="#TimesNewRomanPS-BoldMT-97"/>
       <use x="105.615234" xlink:href="#TimesNewRomanPS-BoldMT-110"/>
       <use x="161.230469" xlink:href="#TimesNewRomanPS-BoldMT-100"/>
       <use x="216.845703" xlink:href="#TimesNewRomanPS-BoldMT-115"/>
       <use x="255.761719" xlink:href="#TimesNewRomanPS-BoldMT-45"/>
       <use x="289.0625" xlink:href="#TimesNewRomanPS-BoldMT-48"/>
      </g>
     </g>
    </g>
    <g id="xtick_2">
     <g id="line2d_2">
      <g>
       <use style="stroke:#000000;stroke-width:0.8;" x="169.188273" xlink:href="#m65f56dd7db" y="434.347772"/>
      </g>
     </g>
     <g id="text_2">
      <!-- glass-0 -->
      <g transform="translate(151.011179 473.825422)rotate(-30)scale(0.16 -0.16)">
       <defs>
        <path d="M 32.671875 45.125 
L 48.046875 45.125 
L 48.046875 39.75 
L 39.3125 39.75 
Q 41.703125 37.359375 42.625 35.40625 
Q 43.796875 32.765625 43.796875 29.890625 
Q 43.796875 25 41.078125 21.40625 
Q 38.375 17.828125 33.703125 15.796875 
Q 29.046875 13.765625 25.4375 13.765625 
Q 25.140625 13.765625 19.578125 14.015625 
Q 17.390625 14.015625 15.890625 12.578125 
Q 14.40625 11.140625 14.40625 9.125 
Q 14.40625 7.375 15.75 6.25 
Q 17.09375 5.125 20.125 5.125 
L 28.5625 5.21875 
Q 38.8125 5.21875 42.671875 2.984375 
Q 48.1875 -0.140625 48.1875 -6.640625 
Q 48.1875 -10.796875 45.640625 -14.1875 
Q 43.109375 -17.578125 38.96875 -19.1875 
Q 32.671875 -21.578125 24.46875 -21.578125 
Q 18.3125 -21.578125 13.234375 -20.375 
Q 8.15625 -19.1875 5.953125 -17.0625 
Q 3.765625 -14.9375 3.765625 -12.59375 
Q 3.765625 -10.359375 5.4375 -8.5625 
Q 7.125 -6.78125 11.71875 -5.5625 
Q 5.375 -2.4375 5.375 3.125 
Q 5.375 6.5 7.953125 9.671875 
Q 10.546875 12.84375 16.15625 15.1875 
Q 9.625 17.578125 6.6875 21.484375 
Q 3.765625 25.390625 3.765625 30.515625 
Q 3.765625 37.203125 9.234375 42.109375 
Q 14.703125 47.015625 23.296875 47.015625 
Q 27.828125 47.015625 32.671875 45.125 
z
M 24.21875 44 
Q 21.390625 44 19.4375 41.140625 
Q 17.484375 38.28125 17.484375 29.296875 
Q 17.484375 22.015625 19.40625 19.3125 
Q 21.34375 16.609375 23.96875 16.609375 
Q 26.90625 16.609375 28.859375 19.28125 
Q 30.8125 21.96875 30.8125 29.734375 
Q 30.8125 38.484375 28.609375 41.65625 
Q 27.046875 44 24.21875 44 
z
M 21.34375 -6.734375 
Q 16.359375 -6.734375 14.75 -7.5625 
Q 11.96875 -9.078125 11.96875 -11.671875 
Q 11.96875 -14.15625 14.84375 -16.1875 
Q 17.71875 -18.21875 25.6875 -18.21875 
Q 32.46875 -18.21875 36.34375 -16.40625 
Q 40.234375 -14.59375 40.234375 -11.328125 
Q 40.234375 -10.109375 39.5 -9.28125 
Q 38.1875 -7.8125 35.515625 -7.265625 
Q 32.859375 -6.734375 21.34375 -6.734375 
z
" id="TimesNewRomanPS-BoldMT-103"/>
        <path d="M 21.234375 66.21875 
L 21.234375 9.46875 
Q 21.234375 4.640625 22.359375 3.296875 
Q 23.484375 1.953125 26.765625 1.765625 
L 26.765625 0 
L 2.09375 0 
L 2.09375 1.765625 
Q 5.125 1.859375 6.59375 3.515625 
Q 7.5625 4.640625 7.5625 9.46875 
L 7.5625 56.734375 
Q 7.5625 61.53125 6.4375 62.859375 
Q 5.328125 64.203125 2.09375 64.40625 
L 2.09375 66.21875 
z
" id="TimesNewRomanPS-BoldMT-108"/>
       </defs>
       <use xlink:href="#TimesNewRomanPS-BoldMT-103"/>
       <use x="50" xlink:href="#TimesNewRomanPS-BoldMT-108"/>
       <use x="77.783203" xlink:href="#TimesNewRomanPS-BoldMT-97"/>
       <use x="127.783203" xlink:href="#TimesNewRomanPS-BoldMT-115"/>
       <use x="166.699219" xlink:href="#TimesNewRomanPS-BoldMT-115"/>
       <use x="205.615234" xlink:href="#TimesNewRomanPS-BoldMT-45"/>
       <use x="238.916016" xlink:href="#TimesNewRomanPS-BoldMT-48"/>
      </g>
     </g>
    </g>
    <g id="xtick_3">
     <g id="line2d_3">
      <g>
       <use style="stroke:#000000;stroke-width:0.8;" x="214.486211" xlink:href="#m65f56dd7db" y="434.347772"/>
      </g>
     </g>
     <g id="text_3">
      <!-- tae-0 -->
      <g transform="translate(201.66191 467.402062)rotate(-30)scale(0.16 -0.16)">
       <defs>
        <path d="M 21.484375 62.359375 
L 21.484375 45.65625 
L 32.328125 45.65625 
L 32.328125 40.828125 
L 21.484375 40.828125 
L 21.484375 12.640625 
Q 21.484375 8.6875 21.84375 7.53125 
Q 22.21875 6.390625 23.140625 5.6875 
Q 24.078125 4.984375 24.859375 4.984375 
Q 28.03125 4.984375 30.859375 9.8125 
L 32.328125 8.734375 
Q 28.375 -0.640625 19.484375 -0.640625 
Q 15.140625 -0.640625 12.125 1.78125 
Q 9.125 4.203125 8.296875 7.171875 
Q 7.8125 8.84375 7.8125 16.15625 
L 7.8125 40.828125 
L 1.859375 40.828125 
L 1.859375 42.53125 
Q 8.015625 46.875 12.328125 51.65625 
Q 16.65625 56.453125 19.875 62.359375 
z
" id="TimesNewRomanPS-BoldMT-116"/>
        <path d="M 42.046875 24.46875 
L 17 24.46875 
Q 17.4375 15.375 21.828125 10.109375 
Q 25.203125 6.0625 29.9375 6.0625 
Q 32.859375 6.0625 35.25 7.6875 
Q 37.640625 9.328125 40.375 13.578125 
L 42.046875 12.5 
Q 38.328125 4.9375 33.828125 1.78125 
Q 29.34375 -1.375 23.4375 -1.375 
Q 13.28125 -1.375 8.0625 6.453125 
Q 3.859375 12.75 3.859375 22.078125 
Q 3.859375 33.5 10.03125 40.25 
Q 16.21875 47.015625 24.515625 47.015625 
Q 31.453125 47.015625 36.546875 41.328125 
Q 41.65625 35.640625 42.046875 24.46875 
z
M 30.03125 27.734375 
Q 30.03125 35.59375 29.171875 38.515625 
Q 28.328125 41.453125 26.515625 42.96875 
Q 25.484375 43.84375 23.78125 43.84375 
Q 21.234375 43.84375 19.625 41.359375 
Q 16.75 37.015625 16.75 29.4375 
L 16.75 27.734375 
z
" id="TimesNewRomanPS-BoldMT-101"/>
       </defs>
       <use xlink:href="#TimesNewRomanPS-BoldMT-116"/>
       <use x="33.300781" xlink:href="#TimesNewRomanPS-BoldMT-97"/>
       <use x="83.300781" xlink:href="#TimesNewRomanPS-BoldMT-101"/>
       <use x="127.685547" xlink:href="#TimesNewRomanPS-BoldMT-45"/>
       <use x="160.986328" xlink:href="#TimesNewRomanPS-BoldMT-48"/>
      </g>
     </g>
    </g>
    <g id="xtick_4">
     <g id="line2d_4">
      <g>
       <use style="stroke:#000000;stroke-width:0.8;" x="259.784149" xlink:href="#m65f56dd7db" y="434.347772"/>
      </g>
     </g>
     <g id="text_4">
      <!-- yeast-1 -->
      <g transform="translate(240.846035 474.704172)rotate(-30)scale(0.16 -0.16)">
       <defs>
        <path d="M 24.3125 -1.859375 
L 9.578125 31.984375 
Q 6.25 39.65625 4.65625 41.40625 
Q 3.078125 43.171875 0.828125 43.84375 
L 0.828125 45.65625 
L 25.09375 45.65625 
L 25.09375 43.84375 
Q 22.703125 43.75 21.71875 42.921875 
Q 20.75 42.09375 20.75 40.921875 
Q 20.75 39.0625 23.1875 33.59375 
L 31 15.71875 
L 36.328125 29.546875 
Q 39.203125 36.921875 39.203125 39.796875 
Q 39.203125 41.609375 38 42.671875 
Q 36.8125 43.75 33.796875 43.84375 
L 33.796875 45.65625 
L 49.078125 45.65625 
L 49.078125 43.84375 
Q 46.828125 43.609375 45.40625 42.109375 
Q 44 40.625 40.671875 31.984375 
L 27.640625 -1.859375 
Q 22.703125 -14.546875 20.3125 -17.484375 
Q 16.9375 -21.578125 11.859375 -21.578125 
Q 7.8125 -21.578125 5.296875 -19.25 
Q 2.78125 -16.9375 2.78125 -13.671875 
Q 2.78125 -10.84375 4.515625 -8.984375 
Q 6.25 -7.125 8.796875 -7.125 
Q 11.234375 -7.125 12.71875 -8.6875 
Q 14.203125 -10.25 14.265625 -13.53125 
Q 14.3125 -15.375 14.703125 -15.921875 
Q 15.09375 -16.453125 15.828125 -16.453125 
Q 17 -16.453125 18.3125 -15.046875 
Q 20.265625 -12.984375 22.90625 -5.671875 
z
" id="TimesNewRomanPS-BoldMT-121"/>
        <path d="M 32.5625 67.578125 
L 32.5625 13.421875 
Q 32.5625 7.328125 33.09375 5.640625 
Q 33.640625 3.953125 35.34375 2.875 
Q 37.0625 1.8125 40.828125 1.8125 
L 42.328125 1.8125 
L 42.328125 0 
L 7.46875 0 
L 7.46875 1.8125 
L 9.234375 1.8125 
Q 13.484375 1.8125 15.28125 2.78125 
Q 17.09375 3.765625 17.71875 5.46875 
Q 18.359375 7.171875 18.359375 13.421875 
L 18.359375 47.75 
Q 18.359375 52.34375 17.921875 53.484375 
Q 17.484375 54.640625 16.28125 55.4375 
Q 15.09375 56.25 13.53125 56.25 
Q 11.03125 56.25 7.46875 54.6875 
L 6.59375 56.453125 
L 30.953125 67.578125 
z
" id="TimesNewRomanPS-BoldMT-49"/>
       </defs>
       <use xlink:href="#TimesNewRomanPS-BoldMT-121"/>
       <use x="50" xlink:href="#TimesNewRomanPS-BoldMT-101"/>
       <use x="94.384766" xlink:href="#TimesNewRomanPS-BoldMT-97"/>
       <use x="144.384766" xlink:href="#TimesNewRomanPS-BoldMT-115"/>
       <use x="183.300781" xlink:href="#TimesNewRomanPS-BoldMT-116"/>
       <use x="216.601562" xlink:href="#TimesNewRomanPS-BoldMT-45"/>
       <use x="249.902344" xlink:href="#TimesNewRomanPS-BoldMT-49"/>
      </g>
     </g>
    </g>
    <g id="xtick_5">
     <g id="line2d_5">
      <g>
       <use style="stroke:#000000;stroke-width:0.8;" x="305.082088" xlink:href="#m65f56dd7db" y="434.347772"/>
      </g>
     </g>
     <g id="text_5">
      <!-- ecoli-1 -->
      <g transform="translate(287.639706 472.734562)rotate(-30)scale(0.16 -0.16)">
       <defs>
        <path d="M 40.625 11.765625 
L 42.140625 10.59375 
Q 38.921875 4.546875 34.109375 1.578125 
Q 29.296875 -1.375 23.875 -1.375 
Q 14.75 -1.375 9.28125 5.515625 
Q 3.8125 12.40625 3.8125 22.078125 
Q 3.8125 31.390625 8.796875 38.484375 
Q 14.796875 47.015625 25.34375 47.015625 
Q 32.421875 47.015625 36.59375 43.453125 
Q 40.765625 39.890625 40.765625 35.5 
Q 40.765625 32.71875 39.078125 31.046875 
Q 37.40625 29.390625 34.671875 29.390625 
Q 31.78125 29.390625 29.90625 31.296875 
Q 28.03125 33.203125 27.59375 38.09375 
Q 27.296875 41.15625 26.171875 42.390625 
Q 25.046875 43.609375 23.53125 43.609375 
Q 21.1875 43.609375 19.53125 41.109375 
Q 17 37.359375 17 29.59375 
Q 17 23.140625 19.046875 17.25 
Q 21.09375 11.375 24.65625 8.5 
Q 27.34375 6.390625 31 6.390625 
Q 33.40625 6.390625 35.546875 7.515625 
Q 37.703125 8.640625 40.625 11.765625 
z
" id="TimesNewRomanPS-BoldMT-99"/>
        <path d="M 24.90625 47.015625 
Q 30.859375 47.015625 35.984375 43.9375 
Q 41.109375 40.875 43.765625 35.203125 
Q 46.4375 29.546875 46.4375 22.796875 
Q 46.4375 13.09375 41.5 6.546875 
Q 35.546875 -1.375 25.046875 -1.375 
Q 14.75 -1.375 9.171875 5.859375 
Q 3.609375 13.09375 3.609375 22.609375 
Q 3.609375 32.421875 9.296875 39.71875 
Q 14.984375 47.015625 24.90625 47.015625 
z
M 25.09375 43.5625 
Q 22.609375 43.5625 20.828125 41.671875 
Q 19.046875 39.796875 18.484375 34.25 
Q 17.921875 28.71875 17.921875 18.84375 
Q 17.921875 13.625 18.609375 9.078125 
Q 19.140625 5.609375 20.890625 3.796875 
Q 22.65625 2 24.90625 2 
Q 27.09375 2 28.5625 3.21875 
Q 30.46875 4.890625 31.109375 7.859375 
Q 32.078125 12.5 32.078125 26.609375 
Q 32.078125 34.90625 31.140625 38 
Q 30.21875 41.109375 28.421875 42.53125 
Q 27.15625 43.5625 25.09375 43.5625 
z
" id="TimesNewRomanPS-BoldMT-111"/>
        <path d="M 14.359375 67.78125 
Q 17.53125 67.78125 19.71875 65.546875 
Q 21.921875 63.328125 21.921875 60.203125 
Q 21.921875 57.078125 19.703125 54.875 
Q 17.484375 52.6875 14.359375 52.6875 
Q 11.234375 52.6875 9.03125 54.875 
Q 6.84375 57.078125 6.84375 60.203125 
Q 6.84375 63.328125 9.03125 65.546875 
Q 11.234375 67.78125 14.359375 67.78125 
z
M 21.1875 45.65625 
L 21.1875 9.46875 
Q 21.1875 4.640625 22.3125 3.296875 
Q 23.4375 1.953125 26.703125 1.765625 
L 26.703125 0 
L 2.046875 0 
L 2.046875 1.765625 
Q 5.078125 1.859375 6.546875 3.515625 
Q 7.515625 4.640625 7.515625 9.46875 
L 7.515625 36.140625 
Q 7.515625 40.96875 6.390625 42.3125 
Q 5.28125 43.65625 2.046875 43.84375 
L 2.046875 45.65625 
z
" id="TimesNewRomanPS-BoldMT-105"/>
       </defs>
       <use xlink:href="#TimesNewRomanPS-BoldMT-101"/>
       <use x="44.384766" xlink:href="#TimesNewRomanPS-BoldMT-99"/>
       <use x="88.769531" xlink:href="#TimesNewRomanPS-BoldMT-111"/>
       <use x="138.769531" xlink:href="#TimesNewRomanPS-BoldMT-108"/>
       <use x="166.552734" xlink:href="#TimesNewRomanPS-BoldMT-105"/>
       <use x="194.335938" xlink:href="#TimesNewRomanPS-BoldMT-45"/>
       <use x="227.636719" xlink:href="#TimesNewRomanPS-BoldMT-49"/>
      </g>
     </g>
    </g>
    <g id="xtick_6">
     <g id="line2d_6">
      <g>
       <use style="stroke:#000000;stroke-width:0.8;" x="350.380026" xlink:href="#m65f56dd7db" y="434.347772"/>
      </g>
     </g>
     <g id="text_6">
      <!-- appen-1 -->
      <g transform="translate(328.358783 478.272922)rotate(-30)scale(0.16 -0.16)">
       <defs>
        <path d="M 21.046875 4.640625 
L 21.046875 -12.359375 
Q 21.046875 -15.875 21.609375 -17.140625 
Q 22.171875 -18.40625 23.34375 -18.984375 
Q 24.515625 -19.578125 27.9375 -19.578125 
L 27.9375 -21.390625 
L 1.90625 -21.390625 
L 1.90625 -19.578125 
Q 4.9375 -19.484375 6.390625 -17.875 
Q 7.375 -16.75 7.375 -12.0625 
L 7.375 36.140625 
Q 7.375 40.96875 6.25 42.3125 
Q 5.125 43.65625 1.90625 43.84375 
L 1.90625 45.65625 
L 21.046875 45.65625 
L 21.046875 39.65625 
Q 23.4375 43.171875 25.921875 44.734375 
Q 29.5 47.015625 33.6875 47.015625 
Q 38.71875 47.015625 42.84375 43.84375 
Q 46.96875 40.671875 49.109375 35.078125 
Q 51.265625 29.5 51.265625 23.046875 
Q 51.265625 16.109375 49.046875 10.375 
Q 46.828125 4.640625 42.59375 1.625 
Q 38.375 -1.375 33.203125 -1.375 
Q 29.4375 -1.375 26.171875 0.296875 
Q 23.734375 1.5625 21.046875 4.640625 
z
M 21.046875 9.578125 
Q 25.25 3.609375 30.03125 3.609375 
Q 32.671875 3.609375 34.375 6.390625 
Q 36.921875 10.5 36.921875 22.015625 
Q 36.921875 33.84375 34.125 38.1875 
Q 32.28125 41.0625 29.15625 41.0625 
Q 24.21875 41.0625 21.046875 33.9375 
z
" id="TimesNewRomanPS-BoldMT-112"/>
       </defs>
       <use xlink:href="#TimesNewRomanPS-BoldMT-97"/>
       <use x="50" xlink:href="#TimesNewRomanPS-BoldMT-112"/>
       <use x="105.615234" xlink:href="#TimesNewRomanPS-BoldMT-112"/>
       <use x="161.230469" xlink:href="#TimesNewRomanPS-BoldMT-101"/>
       <use x="205.615234" xlink:href="#TimesNewRomanPS-BoldMT-110"/>
       <use x="261.230469" xlink:href="#TimesNewRomanPS-BoldMT-45"/>
       <use x="294.53125" xlink:href="#TimesNewRomanPS-BoldMT-49"/>
      </g>
     </g>
    </g>
    <g id="xtick_7">
     <g id="line2d_7">
      <g>
       <use style="stroke:#000000;stroke-width:0.8;" x="395.677964" xlink:href="#m65f56dd7db" y="434.347772"/>
      </g>
     </g>
     <g id="text_7">
      <!-- yeast-06 -->
      <g transform="translate(373.275748 478.704172)rotate(-30)scale(0.16 -0.16)">
       <defs>
        <path d="M 46.96875 67.578125 
L 46.96875 66.21875 
Q 38.140625 63.96875 32.78125 60.421875 
Q 27.4375 56.890625 24.328125 51.828125 
Q 21.234375 46.78125 19.53125 39.3125 
Q 21.6875 40.765625 23.09375 41.21875 
Q 26.265625 42.1875 29.5 42.1875 
Q 36.921875 42.1875 41.875 36.78125 
Q 46.828125 31.390625 46.828125 22.078125 
Q 46.828125 15.53125 44.140625 10.0625 
Q 41.453125 4.59375 36.515625 1.609375 
Q 31.59375 -1.375 25.984375 -1.375 
Q 19.875 -1.375 14.6875 1.96875 
Q 9.515625 5.328125 6.609375 11.765625 
Q 3.71875 18.21875 3.71875 25.78125 
Q 3.71875 36.921875 9.0625 46.515625 
Q 14.40625 56.109375 24.234375 61.796875 
Q 34.078125 67.484375 46.96875 67.578125 
z
M 18.890625 35.359375 
Q 18.5 28.609375 18.5 25.484375 
Q 18.5 18.75 19.796875 12.453125 
Q 21.09375 6.15625 23.34375 3.609375 
Q 24.953125 1.8125 27.15625 1.8125 
Q 29.390625 1.8125 31.140625 4.421875 
Q 32.90625 7.03125 32.90625 15.046875 
Q 32.90625 28.515625 29.640625 33.640625 
Q 27.546875 36.96875 23.96875 36.96875 
Q 22.015625 36.96875 18.890625 35.359375 
z
" id="TimesNewRomanPS-BoldMT-54"/>
       </defs>
       <use xlink:href="#TimesNewRomanPS-BoldMT-121"/>
       <use x="50" xlink:href="#TimesNewRomanPS-BoldMT-101"/>
       <use x="94.384766" xlink:href="#TimesNewRomanPS-BoldMT-97"/>
       <use x="144.384766" xlink:href="#TimesNewRomanPS-BoldMT-115"/>
       <use x="183.300781" xlink:href="#TimesNewRomanPS-BoldMT-116"/>
       <use x="216.601562" xlink:href="#TimesNewRomanPS-BoldMT-45"/>
       <use x="249.902344" xlink:href="#TimesNewRomanPS-BoldMT-48"/>
       <use x="299.902344" xlink:href="#TimesNewRomanPS-BoldMT-54"/>
      </g>
     </g>
    </g>
    <g id="xtick_8">
     <g id="line2d_8">
      <g>
       <use style="stroke:#000000;stroke-width:0.8;" x="440.975902" xlink:href="#m65f56dd7db" y="434.347772"/>
      </g>
     </g>
     <g id="text_8">
      <!-- cleve-1 -->
      <g transform="translate(422.382789 474.063312)rotate(-30)scale(0.16 -0.16)">
       <defs>
        <path d="M 23.96875 -1.375 
L 8.59375 34.03125 
Q 5.8125 40.4375 4.25 42.140625 
Q 3.125 43.40625 0.921875 43.84375 
L 0.921875 45.65625 
L 25.203125 45.65625 
L 25.203125 43.84375 
Q 22.90625 43.84375 22.078125 43.015625 
Q 20.90625 41.9375 20.90625 40.484375 
Q 20.90625 38.671875 23.046875 33.6875 
L 30.5625 16.546875 
L 36.578125 31.34375 
Q 39.15625 37.703125 39.15625 40.328125 
Q 39.15625 41.84375 38.0625 42.796875 
Q 36.96875 43.75 34.1875 43.84375 
L 34.1875 45.65625 
L 49.125 45.65625 
L 49.125 43.84375 
Q 46.96875 43.5625 45.59375 42.234375 
Q 44.234375 40.921875 41.5 34.46875 
L 26.265625 -1.375 
z
" id="TimesNewRomanPS-BoldMT-118"/>
       </defs>
       <use xlink:href="#TimesNewRomanPS-BoldMT-99"/>
       <use x="44.384766" xlink:href="#TimesNewRomanPS-BoldMT-108"/>
       <use x="72.167969" xlink:href="#TimesNewRomanPS-BoldMT-101"/>
       <use x="116.552734" xlink:href="#TimesNewRomanPS-BoldMT-118"/>
       <use x="166.552734" xlink:href="#TimesNewRomanPS-BoldMT-101"/>
       <use x="210.9375" xlink:href="#TimesNewRomanPS-BoldMT-45"/>
       <use x="244.238281" xlink:href="#TimesNewRomanPS-BoldMT-49"/>
      </g>
     </g>
    </g>
    <g id="xtick_9">
     <g id="line2d_9">
      <g>
       <use style="stroke:#000000;stroke-width:0.8;" x="486.27384" xlink:href="#m65f56dd7db" y="434.347772"/>
      </g>
     </g>
     <g id="text_9">
      <!-- yeast-0 -->
      <g transform="translate(467.335726 474.704172)rotate(-30)scale(0.16 -0.16)">
       <use xlink:href="#TimesNewRomanPS-BoldMT-121"/>
       <use x="50" xlink:href="#TimesNewRomanPS-BoldMT-101"/>
       <use x="94.384766" xlink:href="#TimesNewRomanPS-BoldMT-97"/>
       <use x="144.384766" xlink:href="#TimesNewRomanPS-BoldMT-115"/>
       <use x="183.300781" xlink:href="#TimesNewRomanPS-BoldMT-116"/>
       <use x="216.601562" xlink:href="#TimesNewRomanPS-BoldMT-45"/>
       <use x="249.902344" xlink:href="#TimesNewRomanPS-BoldMT-48"/>
      </g>
     </g>
    </g>
    <g id="xtick_10">
     <g id="line2d_10">
      <g>
       <use style="stroke:#000000;stroke-width:0.8;" x="531.571778" xlink:href="#m65f56dd7db" y="434.347772"/>
      </g>
     </g>
     <g id="text_10">
      <!-- ecoli-7 -->
      <g transform="translate(514.129397 472.734562)rotate(-30)scale(0.16 -0.16)">
       <defs>
        <path d="M 17.71875 -1.375 
L 35.75 53.265625 
L 22.015625 53.265625 
Q 13.96875 53.265625 9.90625 51.171875 
Q 7.078125 49.703125 5.21875 45.65625 
L 3.375 45.65625 
L 8.15625 66.21875 
L 47.609375 66.21875 
L 25.390625 -1.375 
z
" id="TimesNewRomanPS-BoldMT-55"/>
       </defs>
       <use xlink:href="#TimesNewRomanPS-BoldMT-101"/>
       <use x="44.384766" xlink:href="#TimesNewRomanPS-BoldMT-99"/>
       <use x="88.769531" xlink:href="#TimesNewRomanPS-BoldMT-111"/>
       <use x="138.769531" xlink:href="#TimesNewRomanPS-BoldMT-108"/>
       <use x="166.552734" xlink:href="#TimesNewRomanPS-BoldMT-105"/>
       <use x="194.335938" xlink:href="#TimesNewRomanPS-BoldMT-45"/>
       <use x="227.636719" xlink:href="#TimesNewRomanPS-BoldMT-55"/>
      </g>
     </g>
    </g>
    <g id="xtick_11">
     <g id="line2d_11">
      <g>
       <use style="stroke:#000000;stroke-width:0.8;" x="576.869716" xlink:href="#m65f56dd7db" y="434.347772"/>
      </g>
     </g>
     <g id="text_11">
      <!-- newth-0 -->
      <g transform="translate(554.800594 478.077062)rotate(-30)scale(0.16 -0.16)">
       <defs>
        <path d="M 48.640625 -1.375 
L 36.140625 32.125 
L 23.875 -1.375 
L 21.34375 -1.375 
L 9.1875 31.734375 
Q 6.453125 39.3125 4.546875 41.609375 
Q 3.328125 43.171875 0.828125 43.84375 
L 0.828125 45.65625 
L 23.875 45.65625 
L 23.875 43.84375 
Q 21.53125 43.84375 20.65625 43.15625 
Q 19.78125 42.484375 19.78125 41.609375 
Q 19.78125 40.765625 21.34375 36.625 
L 28.03125 18.796875 
L 34.46875 36.625 
L 33.984375 37.796875 
Q 32.515625 41.453125 31.421875 42.453125 
Q 30.328125 43.453125 28.03125 43.84375 
L 28.03125 45.65625 
L 51.421875 45.65625 
L 51.421875 43.84375 
Q 48.6875 43.703125 47.953125 43.09375 
Q 47.21875 42.484375 47.21875 41.359375 
Q 47.21875 40.28125 48.640625 36.625 
L 55.078125 18.796875 
L 60.9375 35.203125 
Q 62.203125 38.71875 62.203125 39.984375 
Q 62.203125 41.890625 61.28125 42.765625 
Q 60.359375 43.65625 57.671875 43.84375 
L 57.671875 45.65625 
L 71.1875 45.65625 
L 71.1875 43.84375 
Q 68.953125 43.5625 67.625 42.265625 
Q 66.3125 40.96875 64.203125 34.90625 
L 51.421875 -1.375 
z
" id="TimesNewRomanPS-BoldMT-119"/>
        <path d="M 22.015625 66.21875 
L 22.015625 39.796875 
Q 25.78125 43.75 28.90625 45.375 
Q 32.03125 47.015625 35.40625 47.015625 
Q 39.703125 47.015625 42.75 44.578125 
Q 45.796875 42.140625 46.796875 38.84375 
Q 47.796875 35.546875 47.796875 27.734375 
L 47.796875 9.90625 
Q 47.796875 4.6875 48.765625 3.390625 
Q 49.75 2.09375 52.734375 1.765625 
L 52.734375 0 
L 29.59375 0 
L 29.59375 1.765625 
Q 32.03125 2.09375 33.25 3.71875 
Q 34.125 4.984375 34.125 9.90625 
L 34.125 30.28125 
Q 34.125 35.9375 33.6875 37.375 
Q 33.25 38.8125 32.203125 39.625 
Q 31.15625 40.4375 29.828125 40.4375 
Q 27.875 40.4375 26.015625 39.09375 
Q 24.171875 37.75 22.015625 34.375 
L 22.015625 9.90625 
Q 22.015625 5.03125 22.75 3.8125 
Q 23.6875 2.15625 26.5625 1.765625 
L 26.5625 0 
L 3.421875 0 
L 3.421875 1.765625 
Q 6.296875 2.046875 7.515625 3.609375 
Q 8.34375 4.6875 8.34375 9.90625 
L 8.34375 56.296875 
Q 8.34375 61.46875 7.390625 62.734375 
Q 6.453125 64.015625 3.421875 64.40625 
L 3.421875 66.21875 
z
" id="TimesNewRomanPS-BoldMT-104"/>
       </defs>
       <use xlink:href="#TimesNewRomanPS-BoldMT-110"/>
       <use x="55.615234" xlink:href="#TimesNewRomanPS-BoldMT-101"/>
       <use x="100" xlink:href="#TimesNewRomanPS-BoldMT-119"/>
       <use x="172.216797" xlink:href="#TimesNewRomanPS-BoldMT-116"/>
       <use x="205.517578" xlink:href="#TimesNewRomanPS-BoldMT-104"/>
       <use x="261.132812" xlink:href="#TimesNewRomanPS-BoldMT-45"/>
       <use x="294.433594" xlink:href="#TimesNewRomanPS-BoldMT-48"/>
      </g>
     </g>
    </g>
    <g id="xtick_12">
     <g id="line2d_12">
      <g>
       <use style="stroke:#000000;stroke-width:0.8;" x="622.167655" xlink:href="#m65f56dd7db" y="434.347772"/>
      </g>
     </g>
     <g id="text_12">
      <!-- cleve-2 -->
      <g transform="translate(603.574542 474.063312)rotate(-30)scale(0.16 -0.16)">
       <defs>
        <path d="M 41.40625 0 
L 2.4375 0 
L 2.4375 1.078125 
Q 20.359375 22.40625 24.1875 29.78125 
Q 28.03125 37.15625 28.03125 44.1875 
Q 28.03125 49.3125 24.859375 52.703125 
Q 21.6875 56.109375 17.09375 56.109375 
Q 9.578125 56.109375 5.421875 48.578125 
L 3.609375 49.21875 
Q 6.25 58.59375 11.625 63.078125 
Q 17 67.578125 24.03125 67.578125 
Q 29.046875 67.578125 33.203125 65.234375 
Q 37.359375 62.890625 39.703125 58.8125 
Q 42.046875 54.734375 42.046875 51.171875 
Q 42.046875 44.671875 38.421875 37.984375 
Q 33.5 28.953125 16.890625 12.796875 
L 31.203125 12.796875 
Q 36.46875 12.796875 38.0625 13.234375 
Q 39.65625 13.671875 40.671875 14.71875 
Q 41.703125 15.765625 43.359375 19.140625 
L 45.125 19.140625 
z
" id="TimesNewRomanPS-BoldMT-50"/>
       </defs>
       <use xlink:href="#TimesNewRomanPS-BoldMT-99"/>
       <use x="44.384766" xlink:href="#TimesNewRomanPS-BoldMT-108"/>
       <use x="72.167969" xlink:href="#TimesNewRomanPS-BoldMT-101"/>
       <use x="116.552734" xlink:href="#TimesNewRomanPS-BoldMT-118"/>
       <use x="166.552734" xlink:href="#TimesNewRomanPS-BoldMT-101"/>
       <use x="210.9375" xlink:href="#TimesNewRomanPS-BoldMT-45"/>
       <use x="244.238281" xlink:href="#TimesNewRomanPS-BoldMT-50"/>
      </g>
     </g>
    </g>
    <g id="xtick_13">
     <g id="line2d_13">
      <g>
       <use style="stroke:#000000;stroke-width:0.8;" x="667.465593" xlink:href="#m65f56dd7db" y="434.347772"/>
      </g>
     </g>
     <g id="text_13">
      <!-- ecoli-4 -->
      <g transform="translate(650.023211 472.734562)rotate(-30)scale(0.16 -0.16)">
       <defs>
        <path d="M 2.484375 24.953125 
L 33.9375 67.578125 
L 39.890625 67.578125 
L 39.890625 24.953125 
L 45.953125 24.953125 
L 45.953125 14.84375 
L 39.890625 14.84375 
L 39.890625 0 
L 26.46875 0 
L 26.46875 14.84375 
L 2.484375 14.84375 
z
M 7.234375 24.953125 
L 26.46875 24.953125 
L 26.46875 51.078125 
z
" id="TimesNewRomanPS-BoldMT-52"/>
       </defs>
       <use xlink:href="#TimesNewRomanPS-BoldMT-101"/>
       <use x="44.384766" xlink:href="#TimesNewRomanPS-BoldMT-99"/>
       <use x="88.769531" xlink:href="#TimesNewRomanPS-BoldMT-111"/>
       <use x="138.769531" xlink:href="#TimesNewRomanPS-BoldMT-108"/>
       <use x="166.552734" xlink:href="#TimesNewRomanPS-BoldMT-105"/>
       <use x="194.335938" xlink:href="#TimesNewRomanPS-BoldMT-45"/>
       <use x="227.636719" xlink:href="#TimesNewRomanPS-BoldMT-52"/>
      </g>
     </g>
    </g>
    <g id="xtick_14">
     <g id="line2d_14">
      <g>
       <use style="stroke:#000000;stroke-width:0.8;" x="712.763531" xlink:href="#m65f56dd7db" y="434.347772"/>
      </g>
     </g>
     <g id="text_14">
      <!-- page-1234 -->
      <g transform="translate(684.583843 485.375422)rotate(-30)scale(0.16 -0.16)">
       <defs>
        <path d="M 14.796875 33.203125 
L 14.796875 34.90625 
Q 20.359375 36.53125 22.5 37.921875 
Q 24.65625 39.3125 26.21875 42.15625 
Q 27.78125 45.015625 27.78125 47.953125 
Q 27.78125 52 24.828125 54.90625 
Q 21.875 57.8125 17.484375 57.8125 
Q 10.640625 57.8125 5.859375 50.59375 
L 4.046875 51.21875 
Q 7.5625 59.375 13.0625 63.46875 
Q 18.5625 67.578125 25.296875 67.578125 
Q 32.171875 67.578125 36.640625 63.375 
Q 41.109375 59.1875 41.109375 53.5625 
Q 41.109375 49.90625 39.03125 46.5 
Q 36.96875 43.109375 32.515625 40.53125 
Q 38.234375 37.75 41.234375 33.671875 
Q 44.234375 29.59375 44.234375 23.4375 
Q 44.234375 13.09375 36.734375 5.828125 
Q 29.25 -1.421875 16.65625 -1.421875 
Q 8.25 -1.421875 4.390625 1.375 
Q 1.609375 3.328125 1.609375 6.390625 
Q 1.609375 8.640625 3.21875 10.21875 
Q 4.828125 11.8125 6.9375 11.8125 
Q 8.546875 11.8125 9.96875 11.140625 
Q 10.75 10.75 15.5 6.859375 
Q 20.265625 2.984375 24.421875 2.984375 
Q 28.03125 2.984375 30.609375 5.828125 
Q 33.203125 8.6875 33.203125 13.09375 
Q 33.203125 19.78125 28.515625 25.421875 
Q 23.828125 31.0625 14.796875 33.203125 
z
" id="TimesNewRomanPS-BoldMT-51"/>
       </defs>
       <use xlink:href="#TimesNewRomanPS-BoldMT-112"/>
       <use x="55.615234" xlink:href="#TimesNewRomanPS-BoldMT-97"/>
       <use x="105.615234" xlink:href="#TimesNewRomanPS-BoldMT-103"/>
       <use x="155.615234" xlink:href="#TimesNewRomanPS-BoldMT-101"/>
       <use x="200" xlink:href="#TimesNewRomanPS-BoldMT-45"/>
       <use x="233.300781" xlink:href="#TimesNewRomanPS-BoldMT-49"/>
       <use x="283.300781" xlink:href="#TimesNewRomanPS-BoldMT-50"/>
       <use x="333.300781" xlink:href="#TimesNewRomanPS-BoldMT-51"/>
       <use x="383.300781" xlink:href="#TimesNewRomanPS-BoldMT-52"/>
      </g>
     </g>
    </g>
    <g id="xtick_15">
     <g id="line2d_15">
      <g>
       <use style="stroke:#000000;stroke-width:0.8;" x="758.061469" xlink:href="#m65f56dd7db" y="434.347772"/>
      </g>
     </g>
     <g id="text_15">
      <!-- vowel-0 -->
      <g transform="translate(737.151738 476.738312)rotate(-30)scale(0.16 -0.16)">
       <use xlink:href="#TimesNewRomanPS-BoldMT-118"/>
       <use x="50" xlink:href="#TimesNewRomanPS-BoldMT-111"/>
       <use x="100" xlink:href="#TimesNewRomanPS-BoldMT-119"/>
       <use x="172.216797" xlink:href="#TimesNewRomanPS-BoldMT-101"/>
       <use x="216.601562" xlink:href="#TimesNewRomanPS-BoldMT-108"/>
       <use x="244.384766" xlink:href="#TimesNewRomanPS-BoldMT-45"/>
       <use x="277.685547" xlink:href="#TimesNewRomanPS-BoldMT-48"/>
      </g>
     </g>
    </g>
    <g id="xtick_16">
     <g id="line2d_16">
      <g>
       <use style="stroke:#000000;stroke-width:0.8;" x="803.359407" xlink:href="#m65f56dd7db" y="434.347772"/>
      </g>
     </g>
     <g id="text_16">
      <!-- ecoli-2356 -->
      <g transform="translate(775.524721 484.734562)rotate(-30)scale(0.16 -0.16)">
       <defs>
        <path d="M 15.234375 66.21875 
L 46.234375 66.21875 
L 41.3125 53.609375 
L 15.234375 53.609375 
L 12.75 47.015625 
Q 29.59375 46.390625 38.671875 38.625 
Q 46.140625 32.234375 46.140625 22.703125 
Q 46.140625 16.609375 42.671875 10.765625 
Q 39.203125 4.9375 32.90625 1.78125 
Q 26.609375 -1.375 19.09375 -1.375 
Q 10.984375 -1.375 6.640625 1.65625 
Q 3.609375 3.8125 3.609375 6.546875 
Q 3.609375 8.640625 5.1875 10.25 
Q 6.78125 11.859375 8.890625 11.859375 
Q 10.796875 11.859375 12.75 11.078125 
Q 14.703125 10.296875 19.4375 6.984375 
Q 22.40625 4.9375 24.5625 4.15625 
Q 26.078125 3.5625 27.984375 3.5625 
Q 31.984375 3.5625 34.78125 6.484375 
Q 37.59375 9.421875 37.59375 13.53125 
Q 37.59375 22.125 29 27.484375 
Q 20.40625 32.859375 7.328125 32.859375 
Q 6 32.859375 3.375 32.8125 
z
" id="TimesNewRomanPS-BoldMT-53"/>
       </defs>
       <use xlink:href="#TimesNewRomanPS-BoldMT-101"/>
       <use x="44.384766" xlink:href="#TimesNewRomanPS-BoldMT-99"/>
       <use x="88.769531" xlink:href="#TimesNewRomanPS-BoldMT-111"/>
       <use x="138.769531" xlink:href="#TimesNewRomanPS-BoldMT-108"/>
       <use x="166.552734" xlink:href="#TimesNewRomanPS-BoldMT-105"/>
       <use x="194.335938" xlink:href="#TimesNewRomanPS-BoldMT-45"/>
       <use x="227.636719" xlink:href="#TimesNewRomanPS-BoldMT-50"/>
       <use x="277.636719" xlink:href="#TimesNewRomanPS-BoldMT-51"/>
       <use x="327.636719" xlink:href="#TimesNewRomanPS-BoldMT-53"/>
       <use x="377.636719" xlink:href="#TimesNewRomanPS-BoldMT-54"/>
      </g>
     </g>
    </g>
    <g id="xtick_17">
     <g id="line2d_17">
      <g>
       <use style="stroke:#000000;stroke-width:0.8;" x="848.657345" xlink:href="#m65f56dd7db" y="434.347772"/>
      </g>
     </g>
     <g id="text_17">
      <!-- page-123 -->
      <g transform="translate(823.941759 481.375422)rotate(-30)scale(0.16 -0.16)">
       <use xlink:href="#TimesNewRomanPS-BoldMT-112"/>
       <use x="55.615234" xlink:href="#TimesNewRomanPS-BoldMT-97"/>
       <use x="105.615234" xlink:href="#TimesNewRomanPS-BoldMT-103"/>
       <use x="155.615234" xlink:href="#TimesNewRomanPS-BoldMT-101"/>
       <use x="200" xlink:href="#TimesNewRomanPS-BoldMT-45"/>
       <use x="233.300781" xlink:href="#TimesNewRomanPS-BoldMT-49"/>
       <use x="283.300781" xlink:href="#TimesNewRomanPS-BoldMT-50"/>
       <use x="333.300781" xlink:href="#TimesNewRomanPS-BoldMT-51"/>
      </g>
     </g>
    </g>
    <g id="xtick_18">
     <g id="line2d_18">
      <g>
       <use style="stroke:#000000;stroke-width:0.8;" x="893.955284" xlink:href="#m65f56dd7db" y="434.347772"/>
      </g>
     </g>
     <g id="text_18">
      <!-- glass-2 -->
      <g transform="translate(875.778189 473.825422)rotate(-30)scale(0.16 -0.16)">
       <use xlink:href="#TimesNewRomanPS-BoldMT-103"/>
       <use x="50" xlink:href="#TimesNewRomanPS-BoldMT-108"/>
       <use x="77.783203" xlink:href="#TimesNewRomanPS-BoldMT-97"/>
       <use x="127.783203" xlink:href="#TimesNewRomanPS-BoldMT-115"/>
       <use x="166.699219" xlink:href="#TimesNewRomanPS-BoldMT-115"/>
       <use x="205.615234" xlink:href="#TimesNewRomanPS-BoldMT-45"/>
       <use x="238.916016" xlink:href="#TimesNewRomanPS-BoldMT-50"/>
      </g>
     </g>
    </g>
    <g id="xtick_19">
     <g id="line2d_19">
      <g>
       <use style="stroke:#000000;stroke-width:0.8;" x="939.253222" xlink:href="#m65f56dd7db" y="434.347772"/>
      </g>
     </g>
     <g id="text_19">
      <!-- balance-1 -->
      <g transform="translate(912.566019 483.409562)rotate(-30)scale(0.16 -0.16)">
       <use xlink:href="#TimesNewRomanPS-BoldMT-98"/>
       <use x="55.615234" xlink:href="#TimesNewRomanPS-BoldMT-97"/>
       <use x="105.615234" xlink:href="#TimesNewRomanPS-BoldMT-108"/>
       <use x="133.398438" xlink:href="#TimesNewRomanPS-BoldMT-97"/>
       <use x="183.398438" xlink:href="#TimesNewRomanPS-BoldMT-110"/>
       <use x="239.013672" xlink:href="#TimesNewRomanPS-BoldMT-99"/>
       <use x="283.398438" xlink:href="#TimesNewRomanPS-BoldMT-101"/>
       <use x="327.783203" xlink:href="#TimesNewRomanPS-BoldMT-45"/>
       <use x="361.083984" xlink:href="#TimesNewRomanPS-BoldMT-49"/>
      </g>
     </g>
    </g>
    <g id="xtick_20">
     <g id="line2d_20">
      <g>
       <use style="stroke:#000000;stroke-width:0.8;" x="984.55116" xlink:href="#m65f56dd7db" y="434.347772"/>
      </g>
     </g>
     <g id="text_20">
      <!-- yst-7vs.1 -->
      <g transform="translate(960.795779 480.266672)rotate(-30)scale(0.16 -0.16)">
       <defs>
        <path d="M 12.5 15.046875 
Q 15.921875 15.046875 18.28125 12.640625 
Q 20.65625 10.25 20.65625 6.890625 
Q 20.65625 3.515625 18.265625 1.140625 
Q 15.875 -1.21875 12.5 -1.21875 
Q 9.125 -1.21875 6.75 1.140625 
Q 4.390625 3.515625 4.390625 6.890625 
Q 4.390625 10.25 6.75 12.640625 
Q 9.125 15.046875 12.5 15.046875 
z
" id="TimesNewRomanPS-BoldMT-46"/>
       </defs>
       <use xlink:href="#TimesNewRomanPS-BoldMT-121"/>
       <use x="50" xlink:href="#TimesNewRomanPS-BoldMT-115"/>
       <use x="88.916016" xlink:href="#TimesNewRomanPS-BoldMT-116"/>
       <use x="122.216797" xlink:href="#TimesNewRomanPS-BoldMT-45"/>
       <use x="155.517578" xlink:href="#TimesNewRomanPS-BoldMT-55"/>
       <use x="205.517578" xlink:href="#TimesNewRomanPS-BoldMT-118"/>
       <use x="255.517578" xlink:href="#TimesNewRomanPS-BoldMT-115"/>
       <use x="294.433594" xlink:href="#TimesNewRomanPS-BoldMT-46"/>
       <use x="319.433594" xlink:href="#TimesNewRomanPS-BoldMT-49"/>
      </g>
     </g>
    </g>
    <g id="xtick_21">
     <g id="line2d_21">
      <g>
       <use style="stroke:#000000;stroke-width:0.8;" x="1029.849098" xlink:href="#m65f56dd7db" y="434.347772"/>
      </g>
     </g>
     <g id="text_21">
      <!-- ecoli-5 -->
      <g transform="translate(1012.406716 472.734562)rotate(-30)scale(0.16 -0.16)">
       <use xlink:href="#TimesNewRomanPS-BoldMT-101"/>
       <use x="44.384766" xlink:href="#TimesNewRomanPS-BoldMT-99"/>
       <use x="88.769531" xlink:href="#TimesNewRomanPS-BoldMT-111"/>
       <use x="138.769531" xlink:href="#TimesNewRomanPS-BoldMT-108"/>
       <use x="166.552734" xlink:href="#TimesNewRomanPS-BoldMT-105"/>
       <use x="194.335938" xlink:href="#TimesNewRomanPS-BoldMT-45"/>
       <use x="227.636719" xlink:href="#TimesNewRomanPS-BoldMT-53"/>
      </g>
     </g>
    </g>
    <g id="xtick_22">
     <g id="line2d_22">
      <g>
       <use style="stroke:#000000;stroke-width:0.8;" x="1075.147036" xlink:href="#m65f56dd7db" y="434.347772"/>
      </g>
     </g>
     <g id="text_22">
      <!-- yst-7v1458 -->
      <g transform="translate(1045.427988 487.152922)rotate(-30)scale(0.16 -0.16)">
       <defs>
        <path d="M 34.078125 37.40625 
Q 41.0625 32.28125 43.765625 27.859375 
Q 46.484375 23.4375 46.484375 17.71875 
Q 46.484375 9.71875 40.453125 4.171875 
Q 34.421875 -1.375 24.078125 -1.375 
Q 14.265625 -1.375 8.890625 3.453125 
Q 3.515625 8.296875 3.515625 15.28125 
Q 3.515625 20.609375 6.609375 24.609375 
Q 9.71875 28.609375 16.9375 31.9375 
Q 9.078125 37.9375 6.859375 41.75 
Q 4.640625 45.5625 4.640625 50.59375 
Q 4.640625 57.234375 10.28125 62.28125 
Q 15.921875 67.328125 25.734375 67.328125 
Q 35.203125 67.328125 40.296875 62.859375 
Q 45.40625 58.40625 45.40625 52.15625 
Q 45.40625 47.46875 42.640625 43.875 
Q 39.890625 40.28125 34.078125 37.40625 
z
M 30.375 39.890625 
Q 32.171875 42.328125 33.046875 45.359375 
Q 33.9375 48.390625 33.9375 52 
Q 33.9375 58.34375 31.203125 61.71875 
Q 29.15625 64.3125 25.53125 64.3125 
Q 22.265625 64.3125 19.96875 61.9375 
Q 17.671875 59.578125 17.671875 56.0625 
Q 17.671875 52.484375 20.234375 48.65625 
Q 22.796875 44.828125 30.375 39.890625 
z
M 20.609375 29.59375 
Q 19.09375 28.21875 18.453125 27.09375 
Q 17.484375 25.390625 16.703125 22.109375 
Q 15.921875 18.84375 15.921875 15.28125 
Q 15.921875 10.6875 17.09375 7.59375 
Q 18.265625 4.5 20.4375 3.125 
Q 22.609375 1.765625 24.90625 1.765625 
Q 28.46875 1.765625 30.90625 4.375 
Q 33.34375 6.984375 33.34375 11.53125 
Q 33.34375 21 20.609375 29.59375 
z
" id="TimesNewRomanPS-BoldMT-56"/>
       </defs>
       <use xlink:href="#TimesNewRomanPS-BoldMT-121"/>
       <use x="50" xlink:href="#TimesNewRomanPS-BoldMT-115"/>
       <use x="88.916016" xlink:href="#TimesNewRomanPS-BoldMT-116"/>
       <use x="122.216797" xlink:href="#TimesNewRomanPS-BoldMT-45"/>
       <use x="155.517578" xlink:href="#TimesNewRomanPS-BoldMT-55"/>
       <use x="205.517578" xlink:href="#TimesNewRomanPS-BoldMT-118"/>
       <use x="255.517578" xlink:href="#TimesNewRomanPS-BoldMT-49"/>
       <use x="305.517578" xlink:href="#TimesNewRomanPS-BoldMT-52"/>
       <use x="355.517578" xlink:href="#TimesNewRomanPS-BoldMT-53"/>
       <use x="405.517578" xlink:href="#TimesNewRomanPS-BoldMT-56"/>
      </g>
     </g>
    </g>
    <g id="xtick_23">
     <g id="line2d_23">
      <g>
       <use style="stroke:#000000;stroke-width:0.8;" x="1120.444974" xlink:href="#m65f56dd7db" y="434.347772"/>
      </g>
     </g>
     <g id="text_23">
      <!-- letter-1 -->
      <g transform="translate(1100.96202 475.090812)rotate(-30)scale(0.16 -0.16)">
       <defs>
        <path d="M 22.3125 45.65625 
L 22.3125 35.296875 
Q 26.859375 42.390625 30.265625 44.703125 
Q 33.6875 47.015625 36.859375 47.015625 
Q 39.59375 47.015625 41.234375 45.328125 
Q 42.875 43.65625 42.875 40.578125 
Q 42.875 37.3125 41.28125 35.5 
Q 39.703125 33.6875 37.453125 33.6875 
Q 34.859375 33.6875 32.953125 35.34375 
Q 31.0625 37.015625 30.71875 37.203125 
Q 30.21875 37.5 29.59375 37.5 
Q 28.171875 37.5 26.90625 36.421875 
Q 24.90625 34.765625 23.875 31.6875 
Q 22.3125 26.953125 22.3125 21.234375 
L 22.3125 10.75 
L 22.359375 8.015625 
Q 22.359375 5.21875 22.703125 4.4375 
Q 23.296875 3.125 24.4375 2.515625 
Q 25.59375 1.90625 28.328125 1.765625 
L 28.328125 0 
L 3.65625 0 
L 3.65625 1.765625 
Q 6.640625 2 7.6875 3.390625 
Q 8.734375 4.78125 8.734375 10.75 
L 8.734375 35.984375 
Q 8.734375 39.890625 8.34375 40.96875 
Q 7.859375 42.328125 6.921875 42.96875 
Q 6 43.609375 3.65625 43.84375 
L 3.65625 45.65625 
z
" id="TimesNewRomanPS-BoldMT-114"/>
       </defs>
       <use xlink:href="#TimesNewRomanPS-BoldMT-108"/>
       <use x="27.783203" xlink:href="#TimesNewRomanPS-BoldMT-101"/>
       <use x="72.167969" xlink:href="#TimesNewRomanPS-BoldMT-116"/>
       <use x="105.46875" xlink:href="#TimesNewRomanPS-BoldMT-116"/>
       <use x="138.769531" xlink:href="#TimesNewRomanPS-BoldMT-101"/>
       <use x="183.154297" xlink:href="#TimesNewRomanPS-BoldMT-114"/>
       <use x="223.789062" xlink:href="#TimesNewRomanPS-BoldMT-45"/>
       <use x="257.089844" xlink:href="#TimesNewRomanPS-BoldMT-49"/>
      </g>
     </g>
    </g>
    <g id="xtick_24">
     <g id="line2d_24">
      <g>
       <use style="stroke:#000000;stroke-width:0.8;" x="1165.742912" xlink:href="#m65f56dd7db" y="434.347772"/>
      </g>
     </g>
     <g id="text_24">
      <!-- yeast-4 -->
      <g transform="translate(1146.804798 474.704172)rotate(-30)scale(0.16 -0.16)">
       <use xlink:href="#TimesNewRomanPS-BoldMT-121"/>
       <use x="50" xlink:href="#TimesNewRomanPS-BoldMT-101"/>
       <use x="94.384766" xlink:href="#TimesNewRomanPS-BoldMT-97"/>
       <use x="144.384766" xlink:href="#TimesNewRomanPS-BoldMT-115"/>
       <use x="183.300781" xlink:href="#TimesNewRomanPS-BoldMT-116"/>
       <use x="216.601562" xlink:href="#TimesNewRomanPS-BoldMT-45"/>
       <use x="249.902344" xlink:href="#TimesNewRomanPS-BoldMT-52"/>
      </g>
     </g>
    </g>
    <g id="xtick_25">
     <g id="line2d_25">
      <g>
       <use style="stroke:#000000;stroke-width:0.8;" x="1211.040851" xlink:href="#m65f56dd7db" y="434.347772"/>
      </g>
     </g>
     <g id="text_25">
      <!-- wine-4 -->
      <g transform="translate(1193.206592 473.187062)rotate(-30)scale(0.16 -0.16)">
       <use xlink:href="#TimesNewRomanPS-BoldMT-119"/>
       <use x="72.216797" xlink:href="#TimesNewRomanPS-BoldMT-105"/>
       <use x="100" xlink:href="#TimesNewRomanPS-BoldMT-110"/>
       <use x="155.615234" xlink:href="#TimesNewRomanPS-BoldMT-101"/>
       <use x="200" xlink:href="#TimesNewRomanPS-BoldMT-45"/>
       <use x="233.300781" xlink:href="#TimesNewRomanPS-BoldMT-52"/>
      </g>
     </g>
    </g>
    <g id="xtick_26">
     <g id="line2d_26">
      <g>
       <use style="stroke:#000000;stroke-width:0.8;" x="1256.338789" xlink:href="#m65f56dd7db" y="434.347772"/>
      </g>
     </g>
     <g id="text_26">
      <!-- wine-8vs.6 -->
      <g transform="translate(1227.14769 486.300812)rotate(-30)scale(0.16 -0.16)">
       <use xlink:href="#TimesNewRomanPS-BoldMT-119"/>
       <use x="72.216797" xlink:href="#TimesNewRomanPS-BoldMT-105"/>
       <use x="100" xlink:href="#TimesNewRomanPS-BoldMT-110"/>
       <use x="155.615234" xlink:href="#TimesNewRomanPS-BoldMT-101"/>
       <use x="200" xlink:href="#TimesNewRomanPS-BoldMT-45"/>
       <use x="233.300781" xlink:href="#TimesNewRomanPS-BoldMT-56"/>
       <use x="283.300781" xlink:href="#TimesNewRomanPS-BoldMT-118"/>
       <use x="333.300781" xlink:href="#TimesNewRomanPS-BoldMT-115"/>
       <use x="372.216797" xlink:href="#TimesNewRomanPS-BoldMT-46"/>
       <use x="397.216797" xlink:href="#TimesNewRomanPS-BoldMT-54"/>
      </g>
     </g>
    </g>
    <g id="xtick_27">
     <g id="line2d_27">
      <g>
       <use style="stroke:#000000;stroke-width:0.8;" x="1301.636727" xlink:href="#m65f56dd7db" y="434.347772"/>
      </g>
     </g>
     <g id="text_27">
      <!-- yeast-6 -->
      <g transform="translate(1282.698612 474.704172)rotate(-30)scale(0.16 -0.16)">
       <use xlink:href="#TimesNewRomanPS-BoldMT-121"/>
       <use x="50" xlink:href="#TimesNewRomanPS-BoldMT-101"/>
       <use x="94.384766" xlink:href="#TimesNewRomanPS-BoldMT-97"/>
       <use x="144.384766" xlink:href="#TimesNewRomanPS-BoldMT-115"/>
       <use x="183.300781" xlink:href="#TimesNewRomanPS-BoldMT-116"/>
       <use x="216.601562" xlink:href="#TimesNewRomanPS-BoldMT-45"/>
       <use x="249.902344" xlink:href="#TimesNewRomanPS-BoldMT-54"/>
      </g>
     </g>
    </g>
    <g id="xtick_28">
     <g id="line2d_28">
      <g>
       <use style="stroke:#000000;stroke-width:0.8;" x="1346.934665" xlink:href="#m65f56dd7db" y="434.347772"/>
      </g>
     </g>
     <g id="text_28">
      <!-- page-3 -->
      <g transform="translate(1329.147282 473.375422)rotate(-30)scale(0.16 -0.16)">
       <use xlink:href="#TimesNewRomanPS-BoldMT-112"/>
       <use x="55.615234" xlink:href="#TimesNewRomanPS-BoldMT-97"/>
       <use x="105.615234" xlink:href="#TimesNewRomanPS-BoldMT-103"/>
       <use x="155.615234" xlink:href="#TimesNewRomanPS-BoldMT-101"/>
       <use x="200" xlink:href="#TimesNewRomanPS-BoldMT-45"/>
       <use x="233.300781" xlink:href="#TimesNewRomanPS-BoldMT-51"/>
      </g>
     </g>
    </g>
   </g>
   <g id="matplotlib.axis_2">
    <g id="ytick_1">
     <g id="line2d_29">
      <path clip-path="url(#p3ba85ae82b)" d="M 44.9425 434.347772 
L 1425.8825 434.347772 
" style="fill:none;stroke:#b0b0b0;stroke-dasharray:2.96,1.28;stroke-dashoffset:0;stroke-width:0.8;"/>
     </g>
     <g id="line2d_30">
      <defs>
       <path d="M 0 0 
L -3.5 0 
" id="mc9fc79580f" style="stroke:#000000;stroke-width:0.8;"/>
      </defs>
      <g>
       <use style="stroke:#000000;stroke-width:0.8;" x="44.9425" xlink:href="#mc9fc79580f" y="434.347772"/>
      </g>
     </g>
     <g id="text_29">
      <!-- 0 -->
      <g transform="translate(31.58 438.146991)scale(0.1 -0.1)">
       <defs>
        <path d="M 31.78125 66.40625 
Q 24.171875 66.40625 20.328125 58.90625 
Q 16.5 51.421875 16.5 36.375 
Q 16.5 21.390625 20.328125 13.890625 
Q 24.171875 6.390625 31.78125 6.390625 
Q 39.453125 6.390625 43.28125 13.890625 
Q 47.125 21.390625 47.125 36.375 
Q 47.125 51.421875 43.28125 58.90625 
Q 39.453125 66.40625 31.78125 66.40625 
z
M 31.78125 74.21875 
Q 44.046875 74.21875 50.515625 64.515625 
Q 56.984375 54.828125 56.984375 36.375 
Q 56.984375 17.96875 50.515625 8.265625 
Q 44.046875 -1.421875 31.78125 -1.421875 
Q 19.53125 -1.421875 13.0625 8.265625 
Q 6.59375 17.96875 6.59375 36.375 
Q 6.59375 54.828125 13.0625 64.515625 
Q 19.53125 74.21875 31.78125 74.21875 
z
" id="DejaVuSans-48"/>
       </defs>
       <use xlink:href="#DejaVuSans-48"/>
      </g>
     </g>
    </g>
    <g id="ytick_2">
     <g id="line2d_31">
      <path clip-path="url(#p3ba85ae82b)" d="M 44.9425 383.496847 
L 1425.8825 383.496847 
" style="fill:none;stroke:#b0b0b0;stroke-dasharray:2.96,1.28;stroke-dashoffset:0;stroke-width:0.8;"/>
     </g>
     <g id="line2d_32">
      <g>
       <use style="stroke:#000000;stroke-width:0.8;" x="44.9425" xlink:href="#mc9fc79580f" y="383.496847"/>
      </g>
     </g>
     <g id="text_30">
      <!-- 2 -->
      <g transform="translate(31.58 387.296066)scale(0.1 -0.1)">
       <defs>
        <path d="M 19.1875 8.296875 
L 53.609375 8.296875 
L 53.609375 0 
L 7.328125 0 
L 7.328125 8.296875 
Q 12.9375 14.109375 22.625 23.890625 
Q 32.328125 33.6875 34.8125 36.53125 
Q 39.546875 41.84375 41.421875 45.53125 
Q 43.3125 49.21875 43.3125 52.78125 
Q 43.3125 58.59375 39.234375 62.25 
Q 35.15625 65.921875 28.609375 65.921875 
Q 23.96875 65.921875 18.8125 64.3125 
Q 13.671875 62.703125 7.8125 59.421875 
L 7.8125 69.390625 
Q 13.765625 71.78125 18.9375 73 
Q 24.125 74.21875 28.421875 74.21875 
Q 39.75 74.21875 46.484375 68.546875 
Q 53.21875 62.890625 53.21875 53.421875 
Q 53.21875 48.921875 51.53125 44.890625 
Q 49.859375 40.875 45.40625 35.40625 
Q 44.1875 33.984375 37.640625 27.21875 
Q 31.109375 20.453125 19.1875 8.296875 
z
" id="DejaVuSans-50"/>
       </defs>
       <use xlink:href="#DejaVuSans-50"/>
      </g>
     </g>
    </g>
    <g id="ytick_3">
     <g id="line2d_33">
      <path clip-path="url(#p3ba85ae82b)" d="M 44.9425 332.645922 
L 1425.8825 332.645922 
" style="fill:none;stroke:#b0b0b0;stroke-dasharray:2.96,1.28;stroke-dashoffset:0;stroke-width:0.8;"/>
     </g>
     <g id="line2d_34">
      <g>
       <use style="stroke:#000000;stroke-width:0.8;" x="44.9425" xlink:href="#mc9fc79580f" y="332.645922"/>
      </g>
     </g>
     <g id="text_31">
      <!-- 4 -->
      <g transform="translate(31.58 336.445141)scale(0.1 -0.1)">
       <defs>
        <path d="M 37.796875 64.3125 
L 12.890625 25.390625 
L 37.796875 25.390625 
z
M 35.203125 72.90625 
L 47.609375 72.90625 
L 47.609375 25.390625 
L 58.015625 25.390625 
L 58.015625 17.1875 
L 47.609375 17.1875 
L 47.609375 0 
L 37.796875 0 
L 37.796875 17.1875 
L 4.890625 17.1875 
L 4.890625 26.703125 
z
" id="DejaVuSans-52"/>
       </defs>
       <use xlink:href="#DejaVuSans-52"/>
      </g>
     </g>
    </g>
    <g id="ytick_4">
     <g id="line2d_35">
      <path clip-path="url(#p3ba85ae82b)" d="M 44.9425 281.794997 
L 1425.8825 281.794997 
" style="fill:none;stroke:#b0b0b0;stroke-dasharray:2.96,1.28;stroke-dashoffset:0;stroke-width:0.8;"/>
     </g>
     <g id="line2d_36">
      <g>
       <use style="stroke:#000000;stroke-width:0.8;" x="44.9425" xlink:href="#mc9fc79580f" y="281.794997"/>
      </g>
     </g>
     <g id="text_32">
      <!-- 6 -->
      <g transform="translate(31.58 285.594215)scale(0.1 -0.1)">
       <defs>
        <path d="M 33.015625 40.375 
Q 26.375 40.375 22.484375 35.828125 
Q 18.609375 31.296875 18.609375 23.390625 
Q 18.609375 15.53125 22.484375 10.953125 
Q 26.375 6.390625 33.015625 6.390625 
Q 39.65625 6.390625 43.53125 10.953125 
Q 47.40625 15.53125 47.40625 23.390625 
Q 47.40625 31.296875 43.53125 35.828125 
Q 39.65625 40.375 33.015625 40.375 
z
M 52.59375 71.296875 
L 52.59375 62.3125 
Q 48.875 64.0625 45.09375 64.984375 
Q 41.3125 65.921875 37.59375 65.921875 
Q 27.828125 65.921875 22.671875 59.328125 
Q 17.53125 52.734375 16.796875 39.40625 
Q 19.671875 43.65625 24.015625 45.921875 
Q 28.375 48.1875 33.59375 48.1875 
Q 44.578125 48.1875 50.953125 41.515625 
Q 57.328125 34.859375 57.328125 23.390625 
Q 57.328125 12.15625 50.6875 5.359375 
Q 44.046875 -1.421875 33.015625 -1.421875 
Q 20.359375 -1.421875 13.671875 8.265625 
Q 6.984375 17.96875 6.984375 36.375 
Q 6.984375 53.65625 15.1875 63.9375 
Q 23.390625 74.21875 37.203125 74.21875 
Q 40.921875 74.21875 44.703125 73.484375 
Q 48.484375 72.75 52.59375 71.296875 
z
" id="DejaVuSans-54"/>
       </defs>
       <use xlink:href="#DejaVuSans-54"/>
      </g>
     </g>
    </g>
    <g id="ytick_5">
     <g id="line2d_37">
      <path clip-path="url(#p3ba85ae82b)" d="M 44.9425 230.944071 
L 1425.8825 230.944071 
" style="fill:none;stroke:#b0b0b0;stroke-dasharray:2.96,1.28;stroke-dashoffset:0;stroke-width:0.8;"/>
     </g>
     <g id="line2d_38">
      <g>
       <use style="stroke:#000000;stroke-width:0.8;" x="44.9425" xlink:href="#mc9fc79580f" y="230.944071"/>
      </g>
     </g>
     <g id="text_33">
      <!-- 8 -->
      <g transform="translate(31.58 234.74329)scale(0.1 -0.1)">
       <defs>
        <path d="M 31.78125 34.625 
Q 24.75 34.625 20.71875 30.859375 
Q 16.703125 27.09375 16.703125 20.515625 
Q 16.703125 13.921875 20.71875 10.15625 
Q 24.75 6.390625 31.78125 6.390625 
Q 38.8125 6.390625 42.859375 10.171875 
Q 46.921875 13.96875 46.921875 20.515625 
Q 46.921875 27.09375 42.890625 30.859375 
Q 38.875 34.625 31.78125 34.625 
z
M 21.921875 38.8125 
Q 15.578125 40.375 12.03125 44.71875 
Q 8.5 49.078125 8.5 55.328125 
Q 8.5 64.0625 14.71875 69.140625 
Q 20.953125 74.21875 31.78125 74.21875 
Q 42.671875 74.21875 48.875 69.140625 
Q 55.078125 64.0625 55.078125 55.328125 
Q 55.078125 49.078125 51.53125 44.71875 
Q 48 40.375 41.703125 38.8125 
Q 48.828125 37.15625 52.796875 32.3125 
Q 56.78125 27.484375 56.78125 20.515625 
Q 56.78125 9.90625 50.3125 4.234375 
Q 43.84375 -1.421875 31.78125 -1.421875 
Q 19.734375 -1.421875 13.25 4.234375 
Q 6.78125 9.90625 6.78125 20.515625 
Q 6.78125 27.484375 10.78125 32.3125 
Q 14.796875 37.15625 21.921875 38.8125 
z
M 18.3125 54.390625 
Q 18.3125 48.734375 21.84375 45.5625 
Q 25.390625 42.390625 31.78125 42.390625 
Q 38.140625 42.390625 41.71875 45.5625 
Q 45.3125 48.734375 45.3125 54.390625 
Q 45.3125 60.0625 41.71875 63.234375 
Q 38.140625 66.40625 31.78125 66.40625 
Q 25.390625 66.40625 21.84375 63.234375 
Q 18.3125 60.0625 18.3125 54.390625 
z
" id="DejaVuSans-56"/>
       </defs>
       <use xlink:href="#DejaVuSans-56"/>
      </g>
     </g>
    </g>
    <g id="ytick_6">
     <g id="line2d_39">
      <path clip-path="url(#p3ba85ae82b)" d="M 44.9425 180.093146 
L 1425.8825 180.093146 
" style="fill:none;stroke:#b0b0b0;stroke-dasharray:2.96,1.28;stroke-dashoffset:0;stroke-width:0.8;"/>
     </g>
     <g id="line2d_40">
      <g>
       <use style="stroke:#000000;stroke-width:0.8;" x="44.9425" xlink:href="#mc9fc79580f" y="180.093146"/>
      </g>
     </g>
     <g id="text_34">
      <!-- 10 -->
      <g transform="translate(25.2175 183.892365)scale(0.1 -0.1)">
       <defs>
        <path d="M 12.40625 8.296875 
L 28.515625 8.296875 
L 28.515625 63.921875 
L 10.984375 60.40625 
L 10.984375 69.390625 
L 28.421875 72.90625 
L 38.28125 72.90625 
L 38.28125 8.296875 
L 54.390625 8.296875 
L 54.390625 0 
L 12.40625 0 
z
" id="DejaVuSans-49"/>
       </defs>
       <use xlink:href="#DejaVuSans-49"/>
       <use x="63.623047" xlink:href="#DejaVuSans-48"/>
      </g>
     </g>
    </g>
    <g id="ytick_7">
     <g id="line2d_41">
      <path clip-path="url(#p3ba85ae82b)" d="M 44.9425 129.242221 
L 1425.8825 129.242221 
" style="fill:none;stroke:#b0b0b0;stroke-dasharray:2.96,1.28;stroke-dashoffset:0;stroke-width:0.8;"/>
     </g>
     <g id="line2d_42">
      <g>
       <use style="stroke:#000000;stroke-width:0.8;" x="44.9425" xlink:href="#mc9fc79580f" y="129.242221"/>
      </g>
     </g>
     <g id="text_35">
      <!-- 12 -->
      <g transform="translate(25.2175 133.041439)scale(0.1 -0.1)">
       <use xlink:href="#DejaVuSans-49"/>
       <use x="63.623047" xlink:href="#DejaVuSans-50"/>
      </g>
     </g>
    </g>
    <g id="ytick_8">
     <g id="line2d_43">
      <path clip-path="url(#p3ba85ae82b)" d="M 44.9425 78.391295 
L 1425.8825 78.391295 
" style="fill:none;stroke:#b0b0b0;stroke-dasharray:2.96,1.28;stroke-dashoffset:0;stroke-width:0.8;"/>
     </g>
     <g id="line2d_44">
      <g>
       <use style="stroke:#000000;stroke-width:0.8;" x="44.9425" xlink:href="#mc9fc79580f" y="78.391295"/>
      </g>
     </g>
     <g id="text_36">
      <!-- 14 -->
      <g transform="translate(25.2175 82.190514)scale(0.1 -0.1)">
       <use xlink:href="#DejaVuSans-49"/>
       <use x="63.623047" xlink:href="#DejaVuSans-52"/>
      </g>
     </g>
    </g>
    <g id="ytick_9">
     <g id="line2d_45">
      <path clip-path="url(#p3ba85ae82b)" d="M 44.9425 27.54037 
L 1425.8825 27.54037 
" style="fill:none;stroke:#b0b0b0;stroke-dasharray:2.96,1.28;stroke-dashoffset:0;stroke-width:0.8;"/>
     </g>
     <g id="line2d_46">
      <g>
       <use style="stroke:#000000;stroke-width:0.8;" x="44.9425" xlink:href="#mc9fc79580f" y="27.54037"/>
      </g>
     </g>
     <g id="text_37">
      <!-- 16 -->
      <g transform="translate(25.2175 31.339589)scale(0.1 -0.1)">
       <use xlink:href="#DejaVuSans-49"/>
       <use x="63.623047" xlink:href="#DejaVuSans-54"/>
      </g>
     </g>
    </g>
    <g id="text_38">
     <!-- Number of attributes -->
     <g transform="translate(17.795 293.066386)rotate(-90)scale(0.16 -0.16)">
      <defs>
       <path d="M 24.90625 66.21875 
L 57.5625 25.140625 
L 57.5625 53.609375 
Q 57.5625 59.578125 55.859375 61.671875 
Q 53.515625 64.5 48 64.40625 
L 48 66.21875 
L 69.875 66.21875 
L 69.875 64.40625 
Q 65.671875 63.875 64.234375 63.015625 
Q 62.796875 62.15625 61.984375 60.21875 
Q 61.1875 58.296875 61.1875 53.609375 
L 61.1875 -1.515625 
L 59.515625 -1.515625 
L 14.75 53.609375 
L 14.75 11.53125 
Q 14.75 5.8125 17.359375 3.8125 
Q 19.96875 1.8125 23.34375 1.8125 
L 24.90625 1.8125 
L 24.90625 0 
L 1.421875 0 
L 1.421875 1.8125 
Q 6.890625 1.859375 9.03125 4.046875 
Q 11.1875 6.25 11.1875 11.53125 
L 11.1875 58.25 
L 9.765625 60.015625 
Q 7.671875 62.640625 6.046875 63.46875 
Q 4.4375 64.3125 1.421875 64.40625 
L 1.421875 66.21875 
z
" id="TimesNewRomanPS-BoldMT-78"/>
       <path d="M 47.46875 45.65625 
L 47.46875 9.90625 
Q 47.46875 4.6875 48.4375 3.390625 
Q 49.421875 2.09375 52.390625 1.765625 
L 52.390625 0 
L 33.796875 0 
L 33.796875 6.109375 
Q 30.515625 2.203125 27.234375 0.40625 
Q 23.96875 -1.375 19.921875 -1.375 
Q 16.0625 -1.375 13.0625 1 
Q 10.0625 3.375 9.03125 6.546875 
Q 8.015625 9.71875 8.015625 17.625 
L 8.015625 35.75 
Q 8.015625 40.921875 7.0625 42.1875 
Q 6.109375 43.453125 3.078125 43.84375 
L 3.078125 45.65625 
L 21.6875 45.65625 
L 21.6875 14.453125 
Q 21.6875 9.578125 22.140625 8.15625 
Q 22.609375 6.734375 23.609375 6 
Q 24.609375 5.28125 25.921875 5.28125 
Q 27.6875 5.28125 29.109375 6.203125 
Q 31.0625 7.46875 33.796875 11.328125 
L 33.796875 35.75 
Q 33.796875 40.921875 32.84375 42.1875 
Q 31.890625 43.453125 28.859375 43.84375 
L 28.859375 45.65625 
z
" id="TimesNewRomanPS-BoldMT-117"/>
       <path d="M 22.3125 45.65625 
L 22.3125 39.65625 
Q 26.078125 43.75 29.265625 45.375 
Q 32.46875 47.015625 36.28125 47.015625 
Q 40.671875 47.015625 43.640625 44.96875 
Q 46.625 42.921875 48.25 38.71875 
Q 52.15625 43.109375 55.734375 45.0625 
Q 59.328125 47.015625 63.234375 47.015625 
Q 67.96875 47.015625 70.765625 44.84375 
Q 73.578125 42.671875 74.671875 39.328125 
Q 75.78125 35.984375 75.78125 28.65625 
L 75.78125 9.96875 
Q 75.78125 4.6875 76.734375 3.421875 
Q 77.6875 2.15625 80.71875 1.765625 
L 80.71875 0 
L 57.125 0 
L 57.125 1.765625 
Q 59.90625 2 61.234375 3.90625 
Q 62.109375 5.21875 62.109375 9.96875 
L 62.109375 29.59375 
Q 62.109375 35.6875 61.625 37.34375 
Q 61.140625 39.015625 60.078125 39.8125 
Q 59.03125 40.625 57.625 40.625 
Q 55.515625 40.625 53.359375 39.078125 
Q 51.21875 37.546875 49.03125 34.46875 
L 49.03125 9.96875 
Q 49.03125 5.03125 49.859375 3.765625 
Q 50.984375 1.953125 54.15625 1.765625 
L 54.15625 0 
L 30.515625 0 
L 30.515625 1.765625 
Q 32.421875 1.859375 33.515625 2.703125 
Q 34.625 3.5625 34.984375 4.75 
Q 35.359375 5.953125 35.359375 9.96875 
L 35.359375 29.59375 
Q 35.359375 35.796875 34.859375 37.359375 
Q 34.375 38.921875 33.21875 39.796875 
Q 32.078125 40.671875 30.765625 40.671875 
Q 28.8125 40.671875 27.203125 39.65625 
Q 24.90625 38.140625 22.3125 34.46875 
L 22.3125 9.96875 
Q 22.3125 5.125 23.265625 3.578125 
Q 24.21875 2.046875 27.25 1.765625 
L 27.25 0 
L 3.71875 0 
L 3.71875 1.765625 
Q 6.59375 2.046875 7.8125 3.609375 
Q 8.640625 4.6875 8.640625 9.96875 
L 8.640625 35.75 
Q 8.640625 40.921875 7.6875 42.1875 
Q 6.734375 43.453125 3.71875 43.84375 
L 3.71875 45.65625 
z
" id="TimesNewRomanPS-BoldMT-109"/>
       <path id="TimesNewRomanPS-BoldMT-32"/>
       <path d="M 23.390625 40.875 
L 23.390625 9.1875 
Q 23.390625 4.59375 24.359375 3.421875 
Q 25.921875 1.609375 30.125 1.765625 
L 30.125 0 
L 3.21875 0 
L 3.21875 1.765625 
Q 6.296875 1.8125 7.59375 2.46875 
Q 8.890625 3.125 9.375 4.296875 
Q 9.859375 5.46875 9.859375 9.1875 
L 9.859375 40.875 
L 3.21875 40.875 
L 3.21875 45.65625 
L 9.859375 45.65625 
L 9.859375 49.03125 
L 9.8125 51.3125 
Q 9.8125 58.34375 14.96875 63.03125 
Q 20.125 67.71875 28.90625 67.71875 
Q 34.90625 67.71875 37.8125 65.46875 
Q 40.71875 63.234375 40.71875 60.5 
Q 40.71875 58.296875 38.90625 56.6875 
Q 37.109375 55.078125 34.125 55.078125 
Q 31.59375 55.078125 30.09375 56.390625 
Q 28.609375 57.71875 28.609375 59.328125 
Q 28.609375 59.765625 28.90625 61.140625 
Q 29.109375 61.96875 29.109375 62.703125 
Q 29.109375 63.71875 28.515625 64.203125 
Q 27.734375 64.9375 26.609375 64.9375 
Q 25.203125 64.9375 24.25 63.765625 
Q 23.296875 62.59375 23.296875 60.015625 
L 23.390625 51.46875 
L 23.390625 45.65625 
L 30.125 45.65625 
L 30.125 40.875 
z
" id="TimesNewRomanPS-BoldMT-102"/>
      </defs>
      <use xlink:href="#TimesNewRomanPS-BoldMT-78"/>
      <use x="72.216797" xlink:href="#TimesNewRomanPS-BoldMT-117"/>
      <use x="127.832031" xlink:href="#TimesNewRomanPS-BoldMT-109"/>
      <use x="211.132812" xlink:href="#TimesNewRomanPS-BoldMT-98"/>
      <use x="266.748047" xlink:href="#TimesNewRomanPS-BoldMT-101"/>
      <use x="311.132812" xlink:href="#TimesNewRomanPS-BoldMT-114"/>
      <use x="353.767578" xlink:href="#TimesNewRomanPS-BoldMT-32"/>
      <use x="378.767578" xlink:href="#TimesNewRomanPS-BoldMT-111"/>
      <use x="428.767578" xlink:href="#TimesNewRomanPS-BoldMT-102"/>
      <use x="462.068359" xlink:href="#TimesNewRomanPS-BoldMT-32"/>
      <use x="487.068359" xlink:href="#TimesNewRomanPS-BoldMT-97"/>
      <use x="537.068359" xlink:href="#TimesNewRomanPS-BoldMT-116"/>
      <use x="570.369141" xlink:href="#TimesNewRomanPS-BoldMT-116"/>
      <use x="603.669922" xlink:href="#TimesNewRomanPS-BoldMT-114"/>
      <use x="648.054688" xlink:href="#TimesNewRomanPS-BoldMT-105"/>
      <use x="675.837891" xlink:href="#TimesNewRomanPS-BoldMT-98"/>
      <use x="731.453125" xlink:href="#TimesNewRomanPS-BoldMT-117"/>
      <use x="787.068359" xlink:href="#TimesNewRomanPS-BoldMT-116"/>
      <use x="820.369141" xlink:href="#TimesNewRomanPS-BoldMT-101"/>
      <use x="864.753906" xlink:href="#TimesNewRomanPS-BoldMT-115"/>
     </g>
    </g>
   </g>
   <g id="patch_3">
    <path d="M 44.9425 434.347772 
L 44.9425 7.2 
" style="fill:none;stroke:#000000;stroke-linecap:square;stroke-linejoin:miter;stroke-width:0.8;"/>
   </g>
   <g id="patch_4">
    <path d="M 1425.8825 434.347772 
L 1425.8825 7.2 
" style="fill:none;stroke:#000000;stroke-linecap:square;stroke-linejoin:miter;stroke-width:0.8;"/>
   </g>
   <g id="patch_5">
    <path d="M 44.9425 434.347772 
L 1425.8825 434.347772 
" style="fill:none;stroke:#000000;stroke-linecap:square;stroke-linejoin:miter;stroke-width:0.8;"/>
   </g>
   <g id="patch_6">
    <path d="M 44.9425 7.2 
L 1425.8825 7.2 
" style="fill:none;stroke:#000000;stroke-linecap:square;stroke-linejoin:miter;stroke-width:0.8;"/>
   </g>
   <g id="text_39">
    <!-- 10 -->
    <g transform="translate(113.890335 178.093146)scale(0.12 -0.12)">
     <defs>
      <path d="M 11.71875 59.71875 
L 27.828125 67.578125 
L 29.4375 67.578125 
L 29.4375 11.671875 
Q 29.4375 6.109375 29.90625 4.734375 
Q 30.375 3.375 31.828125 2.640625 
Q 33.296875 1.90625 37.796875 1.8125 
L 37.796875 0 
L 12.890625 0 
L 12.890625 1.8125 
Q 17.578125 1.90625 18.9375 2.609375 
Q 20.3125 3.328125 20.84375 4.515625 
Q 21.390625 5.71875 21.390625 11.671875 
L 21.390625 47.40625 
Q 21.390625 54.640625 20.90625 56.6875 
Q 20.5625 58.25 19.65625 58.984375 
Q 18.75 59.71875 17.484375 59.71875 
Q 15.671875 59.71875 12.453125 58.203125 
z
" id="TimesNewRomanPSMT-49"/>
      <path d="M 3.609375 32.71875 
Q 3.609375 44.046875 7.03125 52.21875 
Q 10.453125 60.40625 16.109375 64.40625 
Q 20.515625 67.578125 25.203125 67.578125 
Q 32.8125 67.578125 38.875 59.8125 
Q 46.4375 50.203125 46.4375 33.734375 
Q 46.4375 22.21875 43.109375 14.15625 
Q 39.796875 6.109375 34.640625 2.46875 
Q 29.5 -1.171875 24.703125 -1.171875 
Q 15.234375 -1.171875 8.9375 10.015625 
Q 3.609375 19.4375 3.609375 32.71875 
z
M 13.1875 31.5 
Q 13.1875 17.828125 16.546875 9.1875 
Q 19.34375 1.90625 24.859375 1.90625 
Q 27.484375 1.90625 30.3125 4.265625 
Q 33.15625 6.640625 34.625 12.203125 
Q 36.859375 20.609375 36.859375 35.890625 
Q 36.859375 47.21875 34.515625 54.78125 
Q 32.765625 60.40625 29.984375 62.75 
Q 27.984375 64.359375 25.140625 64.359375 
Q 21.828125 64.359375 19.234375 61.375 
Q 15.71875 57.328125 14.453125 48.625 
Q 13.1875 39.9375 13.1875 31.5 
z
" id="TimesNewRomanPSMT-48"/>
     </defs>
     <use xlink:href="#TimesNewRomanPSMT-49"/>
     <use x="50" xlink:href="#TimesNewRomanPSMT-48"/>
    </g>
   </g>
   <g id="text_40">
    <!-- 9 -->
    <g transform="translate(159.188273 203.518609)scale(0.12 -0.12)">
     <defs>
      <path d="M 5.28125 -1.375 
L 5.28125 0.4375 
Q 11.625 0.53125 17.09375 3.390625 
Q 22.5625 6.25 27.65625 13.375 
Q 32.765625 20.515625 34.765625 29.046875 
Q 27.09375 24.125 20.90625 24.125 
Q 13.921875 24.125 8.9375 29.515625 
Q 3.953125 34.90625 3.953125 43.84375 
Q 3.953125 52.546875 8.9375 59.328125 
Q 14.9375 67.578125 24.609375 67.578125 
Q 32.765625 67.578125 38.578125 60.84375 
Q 45.703125 52.484375 45.703125 40.234375 
Q 45.703125 29.203125 40.28125 19.65625 
Q 34.859375 10.109375 25.203125 3.8125 
Q 17.328125 -1.375 8.0625 -1.375 
z
M 35.546875 32.671875 
Q 36.421875 39.015625 36.421875 42.828125 
Q 36.421875 47.5625 34.8125 53.046875 
Q 33.203125 58.546875 30.25 61.46875 
Q 27.296875 64.40625 23.53125 64.40625 
Q 19.1875 64.40625 15.90625 60.5 
Q 12.640625 56.59375 12.640625 48.875 
Q 12.640625 38.578125 17 32.765625 
Q 20.171875 28.5625 24.8125 28.5625 
Q 27.046875 28.5625 30.125 29.640625 
Q 33.203125 30.71875 35.546875 32.671875 
z
" id="TimesNewRomanPSMT-57"/>
     </defs>
     <use xlink:href="#TimesNewRomanPSMT-57"/>
    </g>
   </g>
   <g id="text_41">
    <!-- 5 -->
    <g transform="translate(204.486211 305.220459)scale(0.12 -0.12)">
     <defs>
      <path d="M 43.40625 66.21875 
L 39.59375 57.90625 
L 19.671875 57.90625 
L 15.328125 49.03125 
Q 28.265625 47.125 35.84375 39.40625 
Q 42.328125 32.765625 42.328125 23.78125 
Q 42.328125 18.5625 40.203125 14.109375 
Q 38.09375 9.671875 34.859375 6.546875 
Q 31.640625 3.421875 27.6875 1.515625 
Q 22.078125 -1.171875 16.15625 -1.171875 
Q 10.203125 -1.171875 7.484375 0.84375 
Q 4.78125 2.875 4.78125 5.328125 
Q 4.78125 6.6875 5.90625 7.734375 
Q 7.03125 8.796875 8.734375 8.796875 
Q 10.015625 8.796875 10.96875 8.40625 
Q 11.921875 8.015625 14.203125 6.390625 
Q 17.875 3.859375 21.625 3.859375 
Q 27.34375 3.859375 31.65625 8.171875 
Q 35.984375 12.5 35.984375 18.703125 
Q 35.984375 24.703125 32.125 29.90625 
Q 28.265625 35.109375 21.484375 37.9375 
Q 16.15625 40.140625 6.984375 40.484375 
L 19.671875 66.21875 
z
" id="TimesNewRomanPSMT-53"/>
     </defs>
     <use xlink:href="#TimesNewRomanPSMT-53"/>
    </g>
   </g>
   <g id="text_42">
    <!-- 8 -->
    <g transform="translate(249.784149 228.944071)scale(0.12 -0.12)">
     <defs>
      <path d="M 19.1875 33.34375 
Q 11.328125 39.796875 9.046875 43.703125 
Q 6.78125 47.609375 6.78125 51.8125 
Q 6.78125 58.25 11.765625 62.90625 
Q 16.75 67.578125 25 67.578125 
Q 33.015625 67.578125 37.890625 63.234375 
Q 42.78125 58.890625 42.78125 53.328125 
Q 42.78125 49.609375 40.140625 45.75 
Q 37.5 41.890625 29.15625 36.671875 
Q 37.75 30.03125 40.53125 26.21875 
Q 44.234375 21.234375 44.234375 15.71875 
Q 44.234375 8.734375 38.90625 3.78125 
Q 33.59375 -1.171875 24.953125 -1.171875 
Q 15.53125 -1.171875 10.25 4.734375 
Q 6.0625 9.46875 6.0625 15.09375 
Q 6.0625 19.484375 9.015625 23.796875 
Q 11.96875 28.125 19.1875 33.34375 
z
M 26.859375 38.578125 
Q 32.71875 43.84375 34.28125 46.890625 
Q 35.84375 49.953125 35.84375 53.8125 
Q 35.84375 58.9375 32.953125 61.84375 
Q 30.078125 64.75 25.09375 64.75 
Q 20.125 64.75 17 61.859375 
Q 13.875 58.984375 13.875 55.125 
Q 13.875 52.59375 15.15625 50.046875 
Q 16.453125 47.515625 18.84375 45.21875 
z
M 21.484375 31.5 
Q 17.4375 28.078125 15.484375 24.046875 
Q 13.53125 20.015625 13.53125 15.328125 
Q 13.53125 9.03125 16.96875 5.25 
Q 20.40625 1.46875 25.734375 1.46875 
Q 31 1.46875 34.171875 4.4375 
Q 37.359375 7.421875 37.359375 11.671875 
Q 37.359375 15.1875 35.5 17.96875 
Q 32.03125 23.140625 21.484375 31.5 
z
" id="TimesNewRomanPSMT-56"/>
     </defs>
     <use xlink:href="#TimesNewRomanPSMT-56"/>
    </g>
   </g>
   <g id="text_43">
    <!-- 7 -->
    <g transform="translate(295.082088 254.369534)scale(0.12 -0.12)">
     <defs>
      <path d="M 10.0625 66.21875 
L 45.5625 66.21875 
L 45.5625 64.359375 
L 23.484375 -1.375 
L 18.015625 -1.375 
L 37.796875 58.25 
L 19.578125 58.25 
Q 14.0625 58.25 11.71875 56.9375 
Q 7.625 54.6875 5.125 50 
L 3.71875 50.53125 
z
" id="TimesNewRomanPSMT-55"/>
     </defs>
     <use xlink:href="#TimesNewRomanPSMT-55"/>
    </g>
   </g>
   <g id="text_44">
    <!-- 7 -->
    <g transform="translate(340.380026 254.369534)scale(0.12 -0.12)">
     <use xlink:href="#TimesNewRomanPSMT-55"/>
    </g>
   </g>
   <g id="text_45">
    <!-- 8 -->
    <g transform="translate(385.677964 228.944071)scale(0.12 -0.12)">
     <use xlink:href="#TimesNewRomanPSMT-56"/>
    </g>
   </g>
   <g id="text_46">
    <!-- 13 -->
    <g transform="translate(430.975902 101.816758)scale(0.12 -0.12)">
     <defs>
      <path d="M 5.078125 53.609375 
Q 7.90625 60.296875 12.21875 63.9375 
Q 16.546875 67.578125 23 67.578125 
Q 30.953125 67.578125 35.203125 62.40625 
Q 38.421875 58.546875 38.421875 54.15625 
Q 38.421875 46.921875 29.34375 39.203125 
Q 35.453125 36.8125 38.578125 32.375 
Q 41.703125 27.9375 41.703125 21.921875 
Q 41.703125 13.328125 36.234375 7.03125 
Q 29.109375 -1.171875 15.578125 -1.171875 
Q 8.890625 -1.171875 6.46875 0.484375 
Q 4.046875 2.15625 4.046875 4.046875 
Q 4.046875 5.46875 5.1875 6.546875 
Q 6.34375 7.625 7.953125 7.625 
Q 9.1875 7.625 10.453125 7.234375 
Q 11.28125 6.984375 14.203125 5.4375 
Q 17.140625 3.90625 18.265625 3.609375 
Q 20.0625 3.078125 22.125 3.078125 
Q 27.09375 3.078125 30.78125 6.9375 
Q 34.46875 10.796875 34.46875 16.0625 
Q 34.46875 19.921875 32.765625 23.578125 
Q 31.5 26.3125 29.984375 27.734375 
Q 27.875 29.6875 24.21875 31.265625 
Q 20.5625 32.859375 16.75 32.859375 
L 15.1875 32.859375 
L 15.1875 34.328125 
Q 19.046875 34.8125 22.921875 37.109375 
Q 26.8125 39.40625 28.5625 42.625 
Q 30.328125 45.84375 30.328125 49.703125 
Q 30.328125 54.734375 27.171875 57.828125 
Q 24.03125 60.9375 19.34375 60.9375 
Q 11.765625 60.9375 6.6875 52.828125 
z
" id="TimesNewRomanPSMT-51"/>
     </defs>
     <use xlink:href="#TimesNewRomanPSMT-49"/>
     <use x="50" xlink:href="#TimesNewRomanPSMT-51"/>
    </g>
   </g>
   <g id="text_47">
    <!-- 8 -->
    <g transform="translate(476.27384 228.944071)scale(0.12 -0.12)">
     <use xlink:href="#TimesNewRomanPSMT-56"/>
    </g>
   </g>
   <g id="text_48">
    <!-- 7 -->
    <g transform="translate(521.571778 254.369534)scale(0.12 -0.12)">
     <use xlink:href="#TimesNewRomanPSMT-55"/>
    </g>
   </g>
   <g id="text_49">
    <!-- 5 -->
    <g transform="translate(566.869716 305.220459)scale(0.12 -0.12)">
     <use xlink:href="#TimesNewRomanPSMT-53"/>
    </g>
   </g>
   <g id="text_50">
    <!-- 13 -->
    <g transform="translate(612.167655 101.816758)scale(0.12 -0.12)">
     <use xlink:href="#TimesNewRomanPSMT-49"/>
     <use x="50" xlink:href="#TimesNewRomanPSMT-51"/>
    </g>
   </g>
   <g id="text_51">
    <!-- 7 -->
    <g transform="translate(657.465593 254.369534)scale(0.12 -0.12)">
     <use xlink:href="#TimesNewRomanPSMT-55"/>
    </g>
   </g>
   <g id="text_52">
    <!-- 10 -->
    <g transform="translate(702.763531 178.093146)scale(0.12 -0.12)">
     <use xlink:href="#TimesNewRomanPSMT-49"/>
     <use x="50" xlink:href="#TimesNewRomanPSMT-48"/>
    </g>
   </g>
   <g id="text_53">
    <!-- 13 -->
    <g transform="translate(748.061469 101.816758)scale(0.12 -0.12)">
     <use xlink:href="#TimesNewRomanPSMT-49"/>
     <use x="50" xlink:href="#TimesNewRomanPSMT-51"/>
    </g>
   </g>
   <g id="text_54">
    <!-- 7 -->
    <g transform="translate(793.359407 254.369534)scale(0.12 -0.12)">
     <use xlink:href="#TimesNewRomanPSMT-55"/>
    </g>
   </g>
   <g id="text_55">
    <!-- 10 -->
    <g transform="translate(838.657345 178.093146)scale(0.12 -0.12)">
     <use xlink:href="#TimesNewRomanPSMT-49"/>
     <use x="50" xlink:href="#TimesNewRomanPSMT-48"/>
    </g>
   </g>
   <g id="text_56">
    <!-- 9 -->
    <g transform="translate(883.955284 203.518609)scale(0.12 -0.12)">
     <use xlink:href="#TimesNewRomanPSMT-57"/>
    </g>
   </g>
   <g id="text_57">
    <!-- 4 -->
    <g transform="translate(929.253222 330.645922)scale(0.12 -0.12)">
     <defs>
      <path d="M 46.53125 24.421875 
L 46.53125 17.484375 
L 37.640625 17.484375 
L 37.640625 0 
L 29.59375 0 
L 29.59375 17.484375 
L 1.5625 17.484375 
L 1.5625 23.734375 
L 32.28125 67.578125 
L 37.640625 67.578125 
L 37.640625 24.421875 
z
M 29.59375 24.421875 
L 29.59375 57.28125 
L 6.34375 24.421875 
z
" id="TimesNewRomanPSMT-52"/>
     </defs>
     <use xlink:href="#TimesNewRomanPSMT-52"/>
    </g>
   </g>
   <g id="text_58">
    <!-- 8 -->
    <g transform="translate(974.55116 228.944071)scale(0.12 -0.12)">
     <use xlink:href="#TimesNewRomanPSMT-56"/>
    </g>
   </g>
   <g id="text_59">
    <!-- 7 -->
    <g transform="translate(1019.849098 254.369534)scale(0.12 -0.12)">
     <use xlink:href="#TimesNewRomanPSMT-55"/>
    </g>
   </g>
   <g id="text_60">
    <!-- 8 -->
    <g transform="translate(1065.147036 228.944071)scale(0.12 -0.12)">
     <use xlink:href="#TimesNewRomanPSMT-56"/>
    </g>
   </g>
   <g id="text_61">
    <!-- 16 -->
    <g transform="translate(1110.444974 25.54037)scale(0.12 -0.12)">
     <defs>
      <path d="M 44.828125 67.578125 
L 44.828125 65.765625 
Q 38.375 65.140625 34.296875 63.203125 
Q 30.21875 61.28125 26.234375 57.328125 
Q 22.265625 53.375 19.65625 48.515625 
Q 17.046875 43.65625 15.28125 36.96875 
Q 22.3125 41.796875 29.390625 41.796875 
Q 36.1875 41.796875 41.15625 36.328125 
Q 46.140625 30.859375 46.140625 22.265625 
Q 46.140625 13.96875 41.109375 7.125 
Q 35.0625 -1.171875 25.09375 -1.171875 
Q 18.3125 -1.171875 13.578125 3.328125 
Q 4.296875 12.0625 4.296875 25.984375 
Q 4.296875 34.859375 7.859375 42.859375 
Q 11.421875 50.875 18.03125 57.078125 
Q 24.65625 63.28125 30.703125 65.421875 
Q 36.765625 67.578125 42 67.578125 
z
M 14.453125 33.40625 
Q 13.578125 26.8125 13.578125 22.75 
Q 13.578125 18.0625 15.3125 12.5625 
Q 17.046875 7.078125 20.453125 3.859375 
Q 22.953125 1.5625 26.515625 1.5625 
Q 30.765625 1.5625 34.109375 5.5625 
Q 37.453125 9.578125 37.453125 17 
Q 37.453125 25.34375 34.125 31.4375 
Q 30.8125 37.546875 24.703125 37.546875 
Q 22.859375 37.546875 20.734375 36.765625 
Q 18.609375 35.984375 14.453125 33.40625 
z
" id="TimesNewRomanPSMT-54"/>
     </defs>
     <use xlink:href="#TimesNewRomanPSMT-49"/>
     <use x="50" xlink:href="#TimesNewRomanPSMT-54"/>
    </g>
   </g>
   <g id="text_62">
    <!-- 8 -->
    <g transform="translate(1155.742912 228.944071)scale(0.12 -0.12)">
     <use xlink:href="#TimesNewRomanPSMT-56"/>
    </g>
   </g>
   <g id="text_63">
    <!-- 11 -->
    <g transform="translate(1201.040851 152.667683)scale(0.12 -0.12)">
     <use xlink:href="#TimesNewRomanPSMT-49"/>
     <use x="46.25" xlink:href="#TimesNewRomanPSMT-49"/>
    </g>
   </g>
   <g id="text_64">
    <!-- 2 -->
    <g transform="translate(1246.338789 381.496847)scale(0.12 -0.12)">
     <defs>
      <path d="M 45.84375 12.75 
L 41.21875 0 
L 2.15625 0 
L 2.15625 1.8125 
Q 19.390625 17.53125 26.421875 27.484375 
Q 33.453125 37.453125 33.453125 45.703125 
Q 33.453125 52 29.59375 56.046875 
Q 25.734375 60.109375 20.359375 60.109375 
Q 15.484375 60.109375 11.59375 57.25 
Q 7.71875 54.390625 5.859375 48.875 
L 4.046875 48.875 
Q 5.28125 57.90625 10.328125 62.734375 
Q 15.375 67.578125 22.953125 67.578125 
Q 31 67.578125 36.390625 62.40625 
Q 41.796875 57.234375 41.796875 50.203125 
Q 41.796875 45.171875 39.453125 40.140625 
Q 35.84375 32.234375 27.734375 23.390625 
Q 15.578125 10.109375 12.546875 7.375 
L 29.828125 7.375 
Q 35.109375 7.375 37.234375 7.765625 
Q 39.359375 8.15625 41.0625 9.34375 
Q 42.78125 10.546875 44.046875 12.75 
z
" id="TimesNewRomanPSMT-50"/>
     </defs>
     <use xlink:href="#TimesNewRomanPSMT-50"/>
    </g>
   </g>
   <g id="text_65">
    <!-- 10 -->
    <g transform="translate(1291.636727 178.093146)scale(0.12 -0.12)">
     <use xlink:href="#TimesNewRomanPSMT-49"/>
     <use x="50" xlink:href="#TimesNewRomanPSMT-48"/>
    </g>
   </g>
   <g id="text_66">
    <!-- 5 -->
    <g transform="translate(1336.934665 305.220459)scale(0.12 -0.12)">
     <use xlink:href="#TimesNewRomanPSMT-53"/>
    </g>
   </g>
   <g id="patch_7">
    <path clip-path="url(#p3ba85ae82b)" d="M 107.7125 434.347772 
L 140.06817 434.347772 
L 140.06817 180.093146 
L 107.7125 180.093146 
z
" style="fill:url(#h8282f9c8d4);stroke:#000000;stroke-linejoin:miter;"/>
   </g>
   <g id="patch_8">
    <path clip-path="url(#p3ba85ae82b)" d="M 153.010438 434.347772 
L 185.366108 434.347772 
L 185.366108 205.518609 
L 153.010438 205.518609 
z
" style="fill:url(#h70a8abf44d);stroke:#000000;stroke-linejoin:miter;"/>
   </g>
   <g id="patch_9">
    <path clip-path="url(#p3ba85ae82b)" d="M 198.308376 434.347772 
L 230.664046 434.347772 
L 230.664046 307.220459 
L 198.308376 307.220459 
z
" style="fill:url(#h8282f9c8d4);stroke:#000000;stroke-linejoin:miter;"/>
   </g>
   <g id="patch_10">
    <path clip-path="url(#p3ba85ae82b)" d="M 243.606314 434.347772 
L 275.961985 434.347772 
L 275.961985 230.944071 
L 243.606314 230.944071 
z
" style="fill:url(#h70a8abf44d);stroke:#000000;stroke-linejoin:miter;"/>
   </g>
   <g id="patch_11">
    <path clip-path="url(#p3ba85ae82b)" d="M 288.904253 434.347772 
L 321.259923 434.347772 
L 321.259923 256.369534 
L 288.904253 256.369534 
z
" style="fill:url(#h8282f9c8d4);stroke:#000000;stroke-linejoin:miter;"/>
   </g>
   <g id="patch_12">
    <path clip-path="url(#p3ba85ae82b)" d="M 334.202191 434.347772 
L 366.557861 434.347772 
L 366.557861 256.369534 
L 334.202191 256.369534 
z
" style="fill:url(#h70a8abf44d);stroke:#000000;stroke-linejoin:miter;"/>
   </g>
   <g id="patch_13">
    <path clip-path="url(#p3ba85ae82b)" d="M 379.500129 434.347772 
L 411.855799 434.347772 
L 411.855799 230.944071 
L 379.500129 230.944071 
z
" style="fill:url(#h8282f9c8d4);stroke:#000000;stroke-linejoin:miter;"/>
   </g>
   <g id="patch_14">
    <path clip-path="url(#p3ba85ae82b)" d="M 424.798067 434.347772 
L 457.153737 434.347772 
L 457.153737 103.816758 
L 424.798067 103.816758 
z
" style="fill:url(#h70a8abf44d);stroke:#000000;stroke-linejoin:miter;"/>
   </g>
   <g id="patch_15">
    <path clip-path="url(#p3ba85ae82b)" d="M 470.096005 434.347772 
L 502.451675 434.347772 
L 502.451675 230.944071 
L 470.096005 230.944071 
z
" style="fill:url(#h8282f9c8d4);stroke:#000000;stroke-linejoin:miter;"/>
   </g>
   <g id="patch_16">
    <path clip-path="url(#p3ba85ae82b)" d="M 515.393943 434.347772 
L 547.749613 434.347772 
L 547.749613 256.369534 
L 515.393943 256.369534 
z
" style="fill:url(#h70a8abf44d);stroke:#000000;stroke-linejoin:miter;"/>
   </g>
   <g id="patch_17">
    <path clip-path="url(#p3ba85ae82b)" d="M 560.691881 434.347772 
L 593.047552 434.347772 
L 593.047552 307.220459 
L 560.691881 307.220459 
z
" style="fill:url(#h8282f9c8d4);stroke:#000000;stroke-linejoin:miter;"/>
   </g>
   <g id="patch_18">
    <path clip-path="url(#p3ba85ae82b)" d="M 605.98982 434.347772 
L 638.34549 434.347772 
L 638.34549 103.816758 
L 605.98982 103.816758 
z
" style="fill:url(#h70a8abf44d);stroke:#000000;stroke-linejoin:miter;"/>
   </g>
   <g id="patch_19">
    <path clip-path="url(#p3ba85ae82b)" d="M 651.287758 434.347772 
L 683.643428 434.347772 
L 683.643428 256.369534 
L 651.287758 256.369534 
z
" style="fill:url(#h8282f9c8d4);stroke:#000000;stroke-linejoin:miter;"/>
   </g>
   <g id="patch_20">
    <path clip-path="url(#p3ba85ae82b)" d="M 696.585696 434.347772 
L 728.941366 434.347772 
L 728.941366 180.093146 
L 696.585696 180.093146 
z
" style="fill:url(#h70a8abf44d);stroke:#000000;stroke-linejoin:miter;"/>
   </g>
   <g id="patch_21">
    <path clip-path="url(#p3ba85ae82b)" d="M 741.883634 434.347772 
L 774.239304 434.347772 
L 774.239304 103.816758 
L 741.883634 103.816758 
z
" style="fill:url(#h8282f9c8d4);stroke:#000000;stroke-linejoin:miter;"/>
   </g>
   <g id="patch_22">
    <path clip-path="url(#p3ba85ae82b)" d="M 787.181572 434.347772 
L 819.537242 434.347772 
L 819.537242 256.369534 
L 787.181572 256.369534 
z
" style="fill:url(#h70a8abf44d);stroke:#000000;stroke-linejoin:miter;"/>
   </g>
   <g id="patch_23">
    <path clip-path="url(#p3ba85ae82b)" d="M 832.47951 434.347772 
L 864.83518 434.347772 
L 864.83518 180.093146 
L 832.47951 180.093146 
z
" style="fill:url(#h8282f9c8d4);stroke:#000000;stroke-linejoin:miter;"/>
   </g>
   <g id="patch_24">
    <path clip-path="url(#p3ba85ae82b)" d="M 877.777448 434.347772 
L 910.133119 434.347772 
L 910.133119 205.518609 
L 877.777448 205.518609 
z
" style="fill:url(#h70a8abf44d);stroke:#000000;stroke-linejoin:miter;"/>
   </g>
   <g id="patch_25">
    <path clip-path="url(#p3ba85ae82b)" d="M 923.075387 434.347772 
L 955.431057 434.347772 
L 955.431057 332.645922 
L 923.075387 332.645922 
z
" style="fill:url(#h8282f9c8d4);stroke:#000000;stroke-linejoin:miter;"/>
   </g>
   <g id="patch_26">
    <path clip-path="url(#p3ba85ae82b)" d="M 968.373325 434.347772 
L 1000.728995 434.347772 
L 1000.728995 230.944071 
L 968.373325 230.944071 
z
" style="fill:url(#h70a8abf44d);stroke:#000000;stroke-linejoin:miter;"/>
   </g>
   <g id="patch_27">
    <path clip-path="url(#p3ba85ae82b)" d="M 1013.671263 434.347772 
L 1046.026933 434.347772 
L 1046.026933 256.369534 
L 1013.671263 256.369534 
z
" style="fill:url(#h8282f9c8d4);stroke:#000000;stroke-linejoin:miter;"/>
   </g>
   <g id="patch_28">
    <path clip-path="url(#p3ba85ae82b)" d="M 1058.969201 434.347772 
L 1091.324871 434.347772 
L 1091.324871 230.944071 
L 1058.969201 230.944071 
z
" style="fill:url(#h70a8abf44d);stroke:#000000;stroke-linejoin:miter;"/>
   </g>
   <g id="patch_29">
    <path clip-path="url(#p3ba85ae82b)" d="M 1104.267139 434.347772 
L 1136.622809 434.347772 
L 1136.622809 27.54037 
L 1104.267139 27.54037 
z
" style="fill:url(#h8282f9c8d4);stroke:#000000;stroke-linejoin:miter;"/>
   </g>
   <g id="patch_30">
    <path clip-path="url(#p3ba85ae82b)" d="M 1149.565077 434.347772 
L 1181.920747 434.347772 
L 1181.920747 230.944071 
L 1149.565077 230.944071 
z
" style="fill:url(#h70a8abf44d);stroke:#000000;stroke-linejoin:miter;"/>
   </g>
   <g id="patch_31">
    <path clip-path="url(#p3ba85ae82b)" d="M 1194.863015 434.347772 
L 1227.218686 434.347772 
L 1227.218686 154.667683 
L 1194.863015 154.667683 
z
" style="fill:url(#h8282f9c8d4);stroke:#000000;stroke-linejoin:miter;"/>
   </g>
   <g id="patch_32">
    <path clip-path="url(#p3ba85ae82b)" d="M 1240.160954 434.347772 
L 1272.516624 434.347772 
L 1272.516624 383.496847 
L 1240.160954 383.496847 
z
" style="fill:url(#h70a8abf44d);stroke:#000000;stroke-linejoin:miter;"/>
   </g>
   <g id="patch_33">
    <path clip-path="url(#p3ba85ae82b)" d="M 1285.458892 434.347772 
L 1317.814562 434.347772 
L 1317.814562 180.093146 
L 1285.458892 180.093146 
z
" style="fill:url(#h8282f9c8d4);stroke:#000000;stroke-linejoin:miter;"/>
   </g>
   <g id="patch_34">
    <path clip-path="url(#p3ba85ae82b)" d="M 1330.75683 434.347772 
L 1363.1125 434.347772 
L 1363.1125 307.220459 
L 1330.75683 307.220459 
z
" style="fill:url(#h70a8abf44d);stroke:#000000;stroke-linejoin:miter;"/>
   </g>
  </g>
 </g>
 <defs>
  <clipPath id="p3ba85ae82b">
   <rect height="427.147772" width="1380.94" x="44.9425" y="7.2"/>
  </clipPath>
 </defs>
 <defs>
  <pattern height="72" id="h8282f9c8d4" patternUnits="userSpaceOnUse" width="72" x="0" y="0">
   <rect fill="#ffffff" height="73" width="73" x="0" y="0"/>
   <path style="fill:#000000;stroke:#000000;stroke-linecap:butt;stroke-linejoin:miter;stroke-width:1.0;"/>
  </pattern>
  <pattern height="72" id="h70a8abf44d" patternUnits="userSpaceOnUse" width="72" x="0" y="0">
   <rect fill="#ffffff" height="73" width="73" x="0" y="0"/>
   <path d="M -36 36 
L 36 -36 
M -30 42 
L 42 -30 
M -24 48 
L 48 -24 
M -18 54 
L 54 -18 
M -12 60 
L 60 -12 
M -6 66 
L 66 -6 
M 0 72 
L 72 0 
M 6 78 
L 78 6 
M 12 84 
L 84 12 
M 18 90 
L 90 18 
M 24 96 
L 96 24 
M 30 102 
L 102 30 
M 36 108 
L 108 36 
" style="fill:#000000;stroke:#000000;stroke-linecap:butt;stroke-linejoin:miter;stroke-width:1.0;"/>
  </pattern>
 </defs>
</svg>
