<?xml version="1.0" encoding="utf-8" standalone="no"?>
<!DOCTYPE svg PUBLIC "-//W3C//DTD SVG 1.1//EN"
  "http://www.w3.org/Graphics/SVG/1.1/DTD/svg11.dtd">
<!-- Created with matplotlib (https://matplotlib.org/) -->
<svg height="640.927123pt" version="1.1" viewBox="0 0 1504.78875 640.927123" width="1504.78875pt" xmlns="http://www.w3.org/2000/svg" xmlns:xlink="http://www.w3.org/1999/xlink">
 <metadata>
  <rdf:RDF xmlns:cc="http://creativecommons.org/ns#" xmlns:dc="http://purl.org/dc/elements/1.1/" xmlns:rdf="http://www.w3.org/1999/02/22-rdf-syntax-ns#">
   <cc:Work>
    <dc:type rdf:resource="http://purl.org/dc/dcmitype/StillImage"/>
    <dc:date>2021-05-20T13:50:56.748468</dc:date>
    <dc:format>image/svg+xml</dc:format>
    <dc:creator>
     <cc:Agent>
      <dc:title>Matplotlib v3.3.4, https://matplotlib.org/</dc:title>
     </cc:Agent>
    </dc:creator>
   </cc:Work>
  </rdf:RDF>
 </metadata>
 <defs>
  <style type="text/css">*{stroke-linecap:butt;stroke-linejoin:round;}</style>
 </defs>
 <g id="figure_1">
  <g id="patch_1">
   <path d="M 0 640.927123 
L 1504.78875 640.927123 
L 1504.78875 0 
L 0 0 
z
" style="fill:#ffffff;"/>
  </g>
  <g id="axes_1">
   <g id="patch_2">
    <path d="M 63.99875 553.848851 
L 1497.58875 553.848851 
L 1497.58875 7.2 
L 63.99875 7.2 
z
" style="fill:#ffffff;"/>
   </g>
   <g id="matplotlib.axis_1">
    <g id="xtick_1">
     <g id="line2d_1">
      <defs>
       <path d="M 0 0 
L 0 3.5 
" id="m840fbf99fe" style="stroke:#000000;stroke-width:0.8;"/>
      </defs>
      <g>
       <use style="stroke:#000000;stroke-width:0.8;" x="143.904733" xlink:href="#m840fbf99fe" y="553.848851"/>
      </g>
     </g>
     <g id="text_1">
      <!-- bands-0 -->
      <g transform="translate(113.884534 613.27429)rotate(-30)scale(0.24 -0.24)">
       <defs>
        <path d="M 15.375 37.015625 
Q 21.875 46.046875 29.390625 46.046875 
Q 36.28125 46.046875 41.40625 40.15625 
Q 46.53125 34.28125 46.53125 24.078125 
Q 46.53125 12.15625 38.625 4.890625 
Q 31.84375 -1.375 23.484375 -1.375 
Q 19.578125 -1.375 15.546875 0.046875 
Q 11.53125 1.46875 7.328125 4.296875 
L 7.328125 50.640625 
Q 7.328125 58.25 6.953125 60 
Q 6.59375 61.765625 5.8125 62.390625 
Q 5.03125 63.03125 3.859375 63.03125 
Q 2.484375 63.03125 0.4375 62.25 
L -0.25 63.96875 
L 13.1875 69.4375 
L 15.375 69.4375 
z
M 15.375 33.890625 
L 15.375 7.125 
Q 17.875 4.6875 20.53125 3.4375 
Q 23.1875 2.203125 25.984375 2.203125 
Q 30.421875 2.203125 34.25 7.078125 
Q 38.09375 11.96875 38.09375 21.296875 
Q 38.09375 29.890625 34.25 34.5 
Q 30.421875 39.109375 25.53125 39.109375 
Q 22.953125 39.109375 20.359375 37.796875 
Q 18.40625 36.8125 15.375 33.890625 
z
" id="TimesNewRomanPSMT-98"/>
        <path d="M 28.46875 6.453125 
Q 21.578125 1.125 19.828125 0.296875 
Q 17.1875 -0.921875 14.203125 -0.921875 
Q 9.578125 -0.921875 6.5625 2.25 
Q 3.5625 5.421875 3.5625 10.59375 
Q 3.5625 13.875 5.03125 16.265625 
Q 7.03125 19.578125 11.984375 22.5 
Q 16.9375 25.4375 28.46875 29.640625 
L 28.46875 31.390625 
Q 28.46875 38.09375 26.34375 40.578125 
Q 24.21875 43.0625 20.171875 43.0625 
Q 17.09375 43.0625 15.28125 41.40625 
Q 13.421875 39.75 13.421875 37.59375 
L 13.53125 34.765625 
Q 13.53125 32.515625 12.375 31.296875 
Q 11.234375 30.078125 9.375 30.078125 
Q 7.5625 30.078125 6.421875 31.34375 
Q 5.28125 32.625 5.28125 34.8125 
Q 5.28125 39.015625 9.578125 42.53125 
Q 13.875 46.046875 21.625 46.046875 
Q 27.59375 46.046875 31.390625 44.046875 
Q 34.28125 42.53125 35.640625 39.3125 
Q 36.53125 37.203125 36.53125 30.71875 
L 36.53125 15.53125 
Q 36.53125 9.125 36.765625 7.6875 
Q 37.015625 6.25 37.578125 5.765625 
Q 38.140625 5.28125 38.875 5.28125 
Q 39.65625 5.28125 40.234375 5.609375 
Q 41.265625 6.25 44.1875 9.1875 
L 44.1875 6.453125 
Q 38.71875 -0.875 33.734375 -0.875 
Q 31.34375 -0.875 29.921875 0.78125 
Q 28.515625 2.4375 28.46875 6.453125 
z
M 28.46875 9.625 
L 28.46875 26.65625 
Q 21.09375 23.734375 18.953125 22.515625 
Q 15.09375 20.359375 13.421875 18.015625 
Q 11.765625 15.671875 11.765625 12.890625 
Q 11.765625 9.375 13.859375 7.046875 
Q 15.96875 4.734375 18.703125 4.734375 
Q 22.40625 4.734375 28.46875 9.625 
z
" id="TimesNewRomanPSMT-97"/>
        <path d="M 16.15625 36.578125 
Q 24.03125 46.046875 31.15625 46.046875 
Q 34.8125 46.046875 37.453125 44.21875 
Q 40.09375 42.390625 41.65625 38.1875 
Q 42.71875 35.25 42.71875 29.203125 
L 42.71875 10.109375 
Q 42.71875 5.859375 43.40625 4.34375 
Q 43.953125 3.125 45.140625 2.4375 
Q 46.34375 1.765625 49.5625 1.765625 
L 49.5625 0 
L 27.4375 0 
L 27.4375 1.765625 
L 28.375 1.765625 
Q 31.5 1.765625 32.734375 2.703125 
Q 33.984375 3.65625 34.46875 5.515625 
Q 34.671875 6.25 34.671875 10.109375 
L 34.671875 28.421875 
Q 34.671875 34.515625 33.078125 37.28125 
Q 31.5 40.046875 27.734375 40.046875 
Q 21.921875 40.046875 16.15625 33.6875 
L 16.15625 10.109375 
Q 16.15625 5.5625 16.703125 4.5 
Q 17.390625 3.078125 18.578125 2.421875 
Q 19.78125 1.765625 23.4375 1.765625 
L 23.4375 0 
L 1.3125 0 
L 1.3125 1.765625 
L 2.296875 1.765625 
Q 5.71875 1.765625 6.90625 3.484375 
Q 8.109375 5.21875 8.109375 10.109375 
L 8.109375 26.703125 
Q 8.109375 34.765625 7.734375 36.515625 
Q 7.375 38.28125 6.609375 38.90625 
Q 5.859375 39.546875 4.59375 39.546875 
Q 3.21875 39.546875 1.3125 38.8125 
L 0.59375 40.578125 
L 14.0625 46.046875 
L 16.15625 46.046875 
z
" id="TimesNewRomanPSMT-110"/>
        <path d="M 34.71875 5.03125 
Q 31.453125 1.609375 28.328125 0.109375 
Q 25.203125 -1.375 21.578125 -1.375 
Q 14.265625 -1.375 8.796875 4.75 
Q 3.328125 10.890625 3.328125 20.515625 
Q 3.328125 30.125 9.375 38.109375 
Q 15.4375 46.09375 24.953125 46.09375 
Q 30.859375 46.09375 34.71875 42.328125 
L 34.71875 50.59375 
Q 34.71875 58.25 34.34375 60 
Q 33.984375 61.765625 33.203125 62.390625 
Q 32.421875 63.03125 31.25 63.03125 
Q 29.984375 63.03125 27.875 62.25 
L 27.25 63.96875 
L 40.578125 69.4375 
L 42.78125 69.4375 
L 42.78125 17.71875 
Q 42.78125 9.859375 43.140625 8.125 
Q 43.5 6.390625 44.3125 5.703125 
Q 45.125 5.03125 46.1875 5.03125 
Q 47.515625 5.03125 49.703125 5.859375 
L 50.25 4.15625 
L 36.96875 -1.375 
L 34.71875 -1.375 
z
M 34.71875 8.453125 
L 34.71875 31.5 
Q 34.421875 34.8125 32.953125 37.546875 
Q 31.5 40.28125 29.078125 41.671875 
Q 26.65625 43.0625 24.359375 43.0625 
Q 20.0625 43.0625 16.703125 39.203125 
Q 12.25 34.125 12.25 24.359375 
Q 12.25 14.5 16.546875 9.25 
Q 20.84375 4 26.125 4 
Q 30.5625 4 34.71875 8.453125 
z
" id="TimesNewRomanPSMT-100"/>
        <path d="M 32.03125 46.046875 
L 32.03125 30.8125 
L 30.421875 30.8125 
Q 28.5625 37.984375 25.65625 40.578125 
Q 22.75 43.171875 18.265625 43.171875 
Q 14.84375 43.171875 12.734375 41.359375 
Q 10.640625 39.546875 10.640625 37.359375 
Q 10.640625 34.625 12.203125 32.671875 
Q 13.71875 30.671875 18.359375 28.421875 
L 25.484375 24.953125 
Q 35.40625 20.125 35.40625 12.203125 
Q 35.40625 6.109375 30.78125 2.359375 
Q 26.171875 -1.375 20.453125 -1.375 
Q 16.359375 -1.375 11.078125 0.09375 
Q 9.46875 0.59375 8.453125 0.59375 
Q 7.328125 0.59375 6.6875 -0.6875 
L 5.078125 -0.6875 
L 5.078125 15.28125 
L 6.6875 15.28125 
Q 8.0625 8.453125 11.90625 4.984375 
Q 15.765625 1.515625 20.5625 1.515625 
Q 23.921875 1.515625 26.046875 3.484375 
Q 28.171875 5.46875 28.171875 8.25 
Q 28.171875 11.625 25.796875 13.921875 
Q 23.4375 16.21875 16.359375 19.734375 
Q 9.28125 23.25 7.078125 26.078125 
Q 4.890625 28.859375 4.890625 33.109375 
Q 4.890625 38.625 8.671875 42.328125 
Q 12.453125 46.046875 18.453125 46.046875 
Q 21.09375 46.046875 24.859375 44.921875 
Q 27.34375 44.1875 28.171875 44.1875 
Q 28.953125 44.1875 29.390625 44.53125 
Q 29.828125 44.875 30.421875 46.046875 
z
" id="TimesNewRomanPSMT-115"/>
        <path d="M 4.046875 26.125 
L 29.296875 26.125 
L 29.296875 18.75 
L 4.046875 18.75 
z
" id="TimesNewRomanPSMT-45"/>
        <path d="M 3.609375 32.71875 
Q 3.609375 44.046875 7.03125 52.21875 
Q 10.453125 60.40625 16.109375 64.40625 
Q 20.515625 67.578125 25.203125 67.578125 
Q 32.8125 67.578125 38.875 59.8125 
Q 46.4375 50.203125 46.4375 33.734375 
Q 46.4375 22.21875 43.109375 14.15625 
Q 39.796875 6.109375 34.640625 2.46875 
Q 29.5 -1.171875 24.703125 -1.171875 
Q 15.234375 -1.171875 8.9375 10.015625 
Q 3.609375 19.4375 3.609375 32.71875 
z
M 13.1875 31.5 
Q 13.1875 17.828125 16.546875 9.1875 
Q 19.34375 1.90625 24.859375 1.90625 
Q 27.484375 1.90625 30.3125 4.265625 
Q 33.15625 6.640625 34.625 12.203125 
Q 36.859375 20.609375 36.859375 35.890625 
Q 36.859375 47.21875 34.515625 54.78125 
Q 32.765625 60.40625 29.984375 62.75 
Q 27.984375 64.359375 25.140625 64.359375 
Q 21.828125 64.359375 19.234375 61.375 
Q 15.71875 57.328125 14.453125 48.625 
Q 13.1875 39.9375 13.1875 31.5 
z
" id="TimesNewRomanPSMT-48"/>
       </defs>
       <use xlink:href="#TimesNewRomanPSMT-98"/>
       <use x="50" xlink:href="#TimesNewRomanPSMT-97"/>
       <use x="94.384766" xlink:href="#TimesNewRomanPSMT-110"/>
       <use x="144.384766" xlink:href="#TimesNewRomanPSMT-100"/>
       <use x="194.384766" xlink:href="#TimesNewRomanPSMT-115"/>
       <use x="233.300781" xlink:href="#TimesNewRomanPSMT-45"/>
       <use x="266.601562" xlink:href="#TimesNewRomanPSMT-48"/>
      </g>
     </g>
    </g>
    <g id="xtick_2">
     <g id="line2d_2">
      <g>
       <use style="stroke:#000000;stroke-width:0.8;" x="191.081697" xlink:href="#m840fbf99fe" y="553.848851"/>
      </g>
     </g>
     <g id="text_2">
      <!-- glass-0 -->
      <g transform="translate(164.510561 609.278665)rotate(-30)scale(0.24 -0.24)">
       <defs>
        <path d="M 15.09375 16.3125 
Q 10.984375 18.3125 8.78125 21.890625 
Q 6.59375 25.484375 6.59375 29.828125 
Q 6.59375 36.46875 11.59375 41.25 
Q 16.609375 46.046875 24.421875 46.046875 
Q 30.8125 46.046875 35.5 42.921875 
L 44.96875 42.921875 
Q 47.078125 42.921875 47.40625 42.796875 
Q 47.75 42.671875 47.90625 42.390625 
Q 48.1875 41.9375 48.1875 40.828125 
Q 48.1875 39.546875 47.953125 39.0625 
Q 47.796875 38.8125 47.4375 38.671875 
Q 47.078125 38.53125 44.96875 38.53125 
L 39.15625 38.53125 
Q 41.890625 35.015625 41.890625 29.546875 
Q 41.890625 23.296875 37.109375 18.84375 
Q 32.328125 14.40625 24.265625 14.40625 
Q 20.953125 14.40625 17.484375 15.375 
Q 15.328125 13.53125 14.5625 12.140625 
Q 13.8125 10.75 13.8125 9.765625 
Q 13.8125 8.9375 14.625 8.15625 
Q 15.4375 7.375 17.78125 7.03125 
Q 19.140625 6.84375 24.609375 6.6875 
Q 34.671875 6.453125 37.640625 6 
Q 42.1875 5.375 44.890625 2.640625 
Q 47.609375 -0.09375 47.609375 -4.109375 
Q 47.609375 -9.625 42.4375 -14.453125 
Q 34.8125 -21.578125 22.5625 -21.578125 
Q 13.140625 -21.578125 6.640625 -17.328125 
Q 2.984375 -14.890625 2.984375 -12.25 
Q 2.984375 -11.078125 3.515625 -9.90625 
Q 4.34375 -8.109375 6.9375 -4.890625 
Q 7.28125 -4.4375 11.921875 0.390625 
Q 9.375 1.90625 8.328125 3.09375 
Q 7.28125 4.296875 7.28125 5.8125 
Q 7.28125 7.515625 8.671875 9.8125 
Q 10.0625 12.109375 15.09375 16.3125 
z
M 23.578125 43.703125 
Q 19.96875 43.703125 17.53125 40.8125 
Q 15.09375 37.9375 15.09375 31.984375 
Q 15.09375 24.265625 18.40625 20.015625 
Q 20.953125 16.796875 24.859375 16.796875 
Q 28.5625 16.796875 30.953125 19.578125 
Q 33.34375 22.359375 33.34375 28.328125 
Q 33.34375 36.078125 29.984375 40.484375 
Q 27.484375 43.703125 23.578125 43.703125 
z
M 14.59375 0 
Q 12.3125 -2.484375 11.140625 -4.625 
Q 9.96875 -6.78125 9.96875 -8.59375 
Q 9.96875 -10.9375 12.796875 -12.703125 
Q 17.671875 -15.71875 26.90625 -15.71875 
Q 35.6875 -15.71875 39.859375 -12.609375 
Q 44.046875 -9.515625 44.046875 -6 
Q 44.046875 -3.46875 41.546875 -2.390625 
Q 39.015625 -1.3125 31.5 -1.125 
Q 20.515625 -0.828125 14.59375 0 
z
" id="TimesNewRomanPSMT-103"/>
        <path d="M 18.5 69.4375 
L 18.5 10.109375 
Q 18.5 5.90625 19.109375 4.53125 
Q 19.734375 3.171875 21 2.46875 
Q 22.265625 1.765625 25.734375 1.765625 
L 25.734375 0 
L 3.8125 0 
L 3.8125 1.765625 
Q 6.890625 1.765625 8 2.390625 
Q 9.125 3.03125 9.765625 4.484375 
Q 10.40625 5.953125 10.40625 10.109375 
L 10.40625 50.734375 
Q 10.40625 58.296875 10.0625 60.03125 
Q 9.71875 61.765625 8.953125 62.390625 
Q 8.203125 63.03125 7.03125 63.03125 
Q 5.765625 63.03125 3.8125 62.25 
L 2.984375 63.96875 
L 16.3125 69.4375 
z
" id="TimesNewRomanPSMT-108"/>
       </defs>
       <use xlink:href="#TimesNewRomanPSMT-103"/>
       <use x="50" xlink:href="#TimesNewRomanPSMT-108"/>
       <use x="77.783203" xlink:href="#TimesNewRomanPSMT-97"/>
       <use x="122.167969" xlink:href="#TimesNewRomanPSMT-115"/>
       <use x="161.083984" xlink:href="#TimesNewRomanPSMT-115"/>
       <use x="200" xlink:href="#TimesNewRomanPSMT-45"/>
       <use x="233.300781" xlink:href="#TimesNewRomanPSMT-48"/>
      </g>
     </g>
    </g>
    <g id="xtick_3">
     <g id="line2d_3">
      <g>
       <use style="stroke:#000000;stroke-width:0.8;" x="238.258662" xlink:href="#m840fbf99fe" y="553.848851"/>
      </g>
     </g>
     <g id="text_3">
      <!-- tae-0 -->
      <g transform="translate(220.371479 599.26429)rotate(-30)scale(0.24 -0.24)">
       <defs>
        <path d="M 16.109375 59.421875 
L 16.109375 44.734375 
L 26.5625 44.734375 
L 26.5625 41.3125 
L 16.109375 41.3125 
L 16.109375 12.3125 
Q 16.109375 7.953125 17.359375 6.4375 
Q 18.609375 4.9375 20.5625 4.9375 
Q 22.171875 4.9375 23.6875 5.9375 
Q 25.203125 6.9375 26.03125 8.890625 
L 27.9375 8.890625 
Q 26.21875 4.109375 23.09375 1.6875 
Q 19.96875 -0.734375 16.65625 -0.734375 
Q 14.40625 -0.734375 12.25 0.515625 
Q 10.109375 1.765625 9.078125 4.078125 
Q 8.0625 6.390625 8.0625 11.234375 
L 8.0625 41.3125 
L 0.984375 41.3125 
L 0.984375 42.921875 
Q 3.65625 44 6.46875 46.5625 
Q 9.28125 49.125 11.46875 52.640625 
Q 12.59375 54.5 14.59375 59.421875 
z
" id="TimesNewRomanPSMT-116"/>
        <path d="M 10.640625 27.875 
Q 10.59375 17.921875 15.484375 12.25 
Q 20.359375 6.59375 26.953125 6.59375 
Q 31.34375 6.59375 34.59375 9 
Q 37.84375 11.421875 40.046875 17.28125 
L 41.546875 16.3125 
Q 40.53125 9.625 35.59375 4.125 
Q 30.671875 -1.375 23.25 -1.375 
Q 15.1875 -1.375 9.453125 4.90625 
Q 3.71875 11.1875 3.71875 21.78125 
Q 3.71875 33.25 9.59375 39.671875 
Q 15.484375 46.09375 24.359375 46.09375 
Q 31.890625 46.09375 36.71875 41.140625 
Q 41.546875 36.1875 41.546875 27.875 
z
M 10.640625 30.71875 
L 31.34375 30.71875 
Q 31.109375 35.015625 30.328125 36.765625 
Q 29.109375 39.5 26.6875 41.0625 
Q 24.265625 42.625 21.625 42.625 
Q 17.578125 42.625 14.375 39.46875 
Q 11.1875 36.328125 10.640625 30.71875 
z
" id="TimesNewRomanPSMT-101"/>
       </defs>
       <use xlink:href="#TimesNewRomanPSMT-116"/>
       <use x="27.783203" xlink:href="#TimesNewRomanPSMT-97"/>
       <use x="72.167969" xlink:href="#TimesNewRomanPSMT-101"/>
       <use x="116.552734" xlink:href="#TimesNewRomanPSMT-45"/>
       <use x="149.853516" xlink:href="#TimesNewRomanPSMT-48"/>
      </g>
     </g>
    </g>
    <g id="xtick_4">
     <g id="line2d_4">
      <g>
       <use style="stroke:#000000;stroke-width:0.8;" x="285.435626" xlink:href="#m840fbf99fe" y="553.848851"/>
      </g>
     </g>
     <g id="text_4">
      <!-- yeast-1 -->
      <g transform="translate(258.28491 609.895943)rotate(-30)scale(0.24 -0.24)">
       <defs>
        <path d="M 0.59375 44.734375 
L 21.4375 44.734375 
L 21.4375 42.921875 
L 20.40625 42.921875 
Q 18.21875 42.921875 17.109375 41.96875 
Q 16.015625 41.015625 16.015625 39.59375 
Q 16.015625 37.703125 17.625 34.328125 
L 28.515625 11.765625 
L 38.53125 36.46875 
Q 39.359375 38.484375 39.359375 40.4375 
Q 39.359375 41.3125 39.015625 41.75 
Q 38.625 42.28125 37.796875 42.59375 
Q 36.96875 42.921875 34.859375 42.921875 
L 34.859375 44.734375 
L 49.421875 44.734375 
L 49.421875 42.921875 
Q 47.609375 42.71875 46.625 42.125 
Q 45.65625 41.546875 44.484375 39.9375 
Q 44.046875 39.265625 42.828125 36.1875 
L 24.609375 -8.453125 
Q 21.96875 -14.9375 17.6875 -18.25 
Q 13.421875 -21.578125 9.46875 -21.578125 
Q 6.59375 -21.578125 4.734375 -19.921875 
Q 2.875 -18.265625 2.875 -16.109375 
Q 2.875 -14.0625 4.21875 -12.8125 
Q 5.5625 -11.578125 7.90625 -11.578125 
Q 9.515625 -11.578125 12.3125 -12.640625 
Q 14.265625 -13.375 14.75 -13.375 
Q 16.21875 -13.375 17.9375 -11.859375 
Q 19.671875 -10.359375 21.4375 -6 
L 24.609375 1.765625 
L 8.546875 35.5 
Q 7.8125 37.015625 6.203125 39.265625 
Q 4.984375 40.96875 4.203125 41.546875 
Q 3.078125 42.328125 0.59375 42.921875 
z
" id="TimesNewRomanPSMT-121"/>
        <path d="M 11.71875 59.71875 
L 27.828125 67.578125 
L 29.4375 67.578125 
L 29.4375 11.671875 
Q 29.4375 6.109375 29.90625 4.734375 
Q 30.375 3.375 31.828125 2.640625 
Q 33.296875 1.90625 37.796875 1.8125 
L 37.796875 0 
L 12.890625 0 
L 12.890625 1.8125 
Q 17.578125 1.90625 18.9375 2.609375 
Q 20.3125 3.328125 20.84375 4.515625 
Q 21.390625 5.71875 21.390625 11.671875 
L 21.390625 47.40625 
Q 21.390625 54.640625 20.90625 56.6875 
Q 20.5625 58.25 19.65625 58.984375 
Q 18.75 59.71875 17.484375 59.71875 
Q 15.671875 59.71875 12.453125 58.203125 
z
" id="TimesNewRomanPSMT-49"/>
       </defs>
       <use xlink:href="#TimesNewRomanPSMT-121"/>
       <use x="50" xlink:href="#TimesNewRomanPSMT-101"/>
       <use x="94.384766" xlink:href="#TimesNewRomanPSMT-97"/>
       <use x="138.769531" xlink:href="#TimesNewRomanPSMT-115"/>
       <use x="177.685547" xlink:href="#TimesNewRomanPSMT-116"/>
       <use x="205.46875" xlink:href="#TimesNewRomanPSMT-45"/>
       <use x="238.769531" xlink:href="#TimesNewRomanPSMT-49"/>
      </g>
     </g>
    </g>
    <g id="xtick_5">
     <g id="line2d_5">
      <g>
       <use style="stroke:#000000;stroke-width:0.8;" x="332.61259" xlink:href="#m840fbf99fe" y="553.848851"/>
      </g>
     </g>
     <g id="text_5">
      <!-- ecoli-1 -->
      <g transform="translate(306.642142 608.59804)rotate(-30)scale(0.24 -0.24)">
       <defs>
        <path d="M 41.109375 17 
Q 39.3125 8.15625 34.03125 3.390625 
Q 28.765625 -1.375 22.359375 -1.375 
Q 14.75 -1.375 9.078125 5.015625 
Q 3.421875 11.421875 3.421875 22.3125 
Q 3.421875 32.859375 9.6875 39.453125 
Q 15.96875 46.046875 24.75 46.046875 
Q 31.34375 46.046875 35.59375 42.546875 
Q 39.84375 39.0625 39.84375 35.296875 
Q 39.84375 33.453125 38.640625 32.296875 
Q 37.453125 31.15625 35.296875 31.15625 
Q 32.421875 31.15625 30.953125 33.015625 
Q 30.125 34.03125 29.859375 36.90625 
Q 29.59375 39.796875 27.875 41.3125 
Q 26.171875 42.78125 23.140625 42.78125 
Q 18.265625 42.78125 15.28125 39.15625 
Q 11.328125 34.375 11.328125 26.515625 
Q 11.328125 18.5 15.25 12.375 
Q 19.1875 6.25 25.875 6.25 
Q 30.671875 6.25 34.46875 9.515625 
Q 37.15625 11.765625 39.703125 17.671875 
z
" id="TimesNewRomanPSMT-99"/>
        <path d="M 25 46.046875 
Q 35.15625 46.046875 41.3125 38.328125 
Q 46.53125 31.734375 46.53125 23.1875 
Q 46.53125 17.1875 43.640625 11.03125 
Q 40.765625 4.890625 35.71875 1.75 
Q 30.671875 -1.375 24.46875 -1.375 
Q 14.359375 -1.375 8.40625 6.6875 
Q 3.375 13.484375 3.375 21.921875 
Q 3.375 28.078125 6.421875 34.15625 
Q 9.46875 40.234375 14.453125 43.140625 
Q 19.4375 46.046875 25 46.046875 
z
M 23.484375 42.875 
Q 20.90625 42.875 18.28125 41.328125 
Q 15.671875 39.796875 14.0625 35.9375 
Q 12.453125 32.078125 12.453125 26.03125 
Q 12.453125 16.265625 16.328125 9.171875 
Q 20.21875 2.09375 26.5625 2.09375 
Q 31.296875 2.09375 34.375 6 
Q 37.453125 9.90625 37.453125 19.4375 
Q 37.453125 31.34375 32.328125 38.1875 
Q 28.859375 42.875 23.484375 42.875 
z
" id="TimesNewRomanPSMT-111"/>
        <path d="M 14.5 69.4375 
Q 16.546875 69.4375 17.984375 67.984375 
Q 19.4375 66.546875 19.4375 64.5 
Q 19.4375 62.453125 17.984375 60.984375 
Q 16.546875 59.515625 14.5 59.515625 
Q 12.453125 59.515625 10.984375 60.984375 
Q 9.515625 62.453125 9.515625 64.5 
Q 9.515625 66.546875 10.953125 67.984375 
Q 12.40625 69.4375 14.5 69.4375 
z
M 18.5625 46.046875 
L 18.5625 10.109375 
Q 18.5625 5.90625 19.171875 4.515625 
Q 19.78125 3.125 20.96875 2.4375 
Q 22.171875 1.765625 25.34375 1.765625 
L 25.34375 0 
L 3.609375 0 
L 3.609375 1.765625 
Q 6.890625 1.765625 8 2.390625 
Q 9.125 3.03125 9.78125 4.484375 
Q 10.453125 5.953125 10.453125 10.109375 
L 10.453125 27.34375 
Q 10.453125 34.625 10.015625 36.765625 
Q 9.671875 38.328125 8.9375 38.9375 
Q 8.203125 39.546875 6.9375 39.546875 
Q 5.5625 39.546875 3.609375 38.8125 
L 2.9375 40.578125 
L 16.40625 46.046875 
z
" id="TimesNewRomanPSMT-105"/>
       </defs>
       <use xlink:href="#TimesNewRomanPSMT-101"/>
       <use x="44.384766" xlink:href="#TimesNewRomanPSMT-99"/>
       <use x="88.769531" xlink:href="#TimesNewRomanPSMT-111"/>
       <use x="138.769531" xlink:href="#TimesNewRomanPSMT-108"/>
       <use x="166.552734" xlink:href="#TimesNewRomanPSMT-105"/>
       <use x="194.335938" xlink:href="#TimesNewRomanPSMT-45"/>
       <use x="227.636719" xlink:href="#TimesNewRomanPSMT-49"/>
      </g>
     </g>
    </g>
    <g id="xtick_6">
     <g id="line2d_6">
      <g>
       <use style="stroke:#000000;stroke-width:0.8;" x="379.789554" xlink:href="#m840fbf99fe" y="553.848851"/>
      </g>
     </g>
     <g id="text_6">
      <!-- appen-1 -->
      <g transform="translate(349.201026 613.93054)rotate(-30)scale(0.24 -0.24)">
       <defs>
        <path d="M -0.09375 40.28125 
L 13.671875 45.84375 
L 15.53125 45.84375 
L 15.53125 35.40625 
Q 19 41.3125 22.484375 43.671875 
Q 25.984375 46.046875 29.828125 46.046875 
Q 36.578125 46.046875 41.0625 40.765625 
Q 46.578125 34.328125 46.578125 23.96875 
Q 46.578125 12.40625 39.9375 4.828125 
Q 34.46875 -1.375 26.171875 -1.375 
Q 22.5625 -1.375 19.921875 -0.34375 
Q 17.96875 0.390625 15.53125 2.59375 
L 15.53125 -11.03125 
Q 15.53125 -15.625 16.09375 -16.859375 
Q 16.65625 -18.109375 18.046875 -18.84375 
Q 19.4375 -19.578125 23.09375 -19.578125 
L 23.09375 -21.390625 
L -0.34375 -21.390625 
L -0.34375 -19.578125 
L 0.875 -19.578125 
Q 3.5625 -19.625 5.46875 -18.5625 
Q 6.390625 -18.015625 6.90625 -16.8125 
Q 7.421875 -15.625 7.421875 -10.75 
L 7.421875 31.546875 
Q 7.421875 35.890625 7.03125 37.0625 
Q 6.640625 38.234375 5.78125 38.8125 
Q 4.9375 39.40625 3.46875 39.40625 
Q 2.296875 39.40625 0.484375 38.71875 
z
M 15.53125 32.515625 
L 15.53125 15.828125 
Q 15.53125 10.40625 15.96875 8.6875 
Q 16.65625 5.859375 19.3125 3.703125 
Q 21.96875 1.5625 26.03125 1.5625 
Q 30.90625 1.5625 33.9375 5.375 
Q 37.890625 10.359375 37.890625 19.390625 
Q 37.890625 29.640625 33.40625 35.15625 
Q 30.28125 38.96875 25.984375 38.96875 
Q 23.640625 38.96875 21.34375 37.796875 
Q 19.578125 36.921875 15.53125 32.515625 
z
" id="TimesNewRomanPSMT-112"/>
       </defs>
       <use xlink:href="#TimesNewRomanPSMT-97"/>
       <use x="44.384766" xlink:href="#TimesNewRomanPSMT-112"/>
       <use x="94.384766" xlink:href="#TimesNewRomanPSMT-112"/>
       <use x="144.384766" xlink:href="#TimesNewRomanPSMT-101"/>
       <use x="188.769531" xlink:href="#TimesNewRomanPSMT-110"/>
       <use x="238.769531" xlink:href="#TimesNewRomanPSMT-45"/>
       <use x="272.070312" xlink:href="#TimesNewRomanPSMT-49"/>
      </g>
     </g>
    </g>
    <g id="xtick_7">
     <g id="line2d_7">
      <g>
       <use style="stroke:#000000;stroke-width:0.8;" x="426.966518" xlink:href="#m840fbf99fe" y="553.848851"/>
      </g>
     </g>
     <g id="text_7">
      <!-- yeast-06 -->
      <g transform="translate(394.619651 615.895943)rotate(-30)scale(0.24 -0.24)">
       <defs>
        <path d="M 44.828125 67.578125 
L 44.828125 65.765625 
Q 38.375 65.140625 34.296875 63.203125 
Q 30.21875 61.28125 26.234375 57.328125 
Q 22.265625 53.375 19.65625 48.515625 
Q 17.046875 43.65625 15.28125 36.96875 
Q 22.3125 41.796875 29.390625 41.796875 
Q 36.1875 41.796875 41.15625 36.328125 
Q 46.140625 30.859375 46.140625 22.265625 
Q 46.140625 13.96875 41.109375 7.125 
Q 35.0625 -1.171875 25.09375 -1.171875 
Q 18.3125 -1.171875 13.578125 3.328125 
Q 4.296875 12.0625 4.296875 25.984375 
Q 4.296875 34.859375 7.859375 42.859375 
Q 11.421875 50.875 18.03125 57.078125 
Q 24.65625 63.28125 30.703125 65.421875 
Q 36.765625 67.578125 42 67.578125 
z
M 14.453125 33.40625 
Q 13.578125 26.8125 13.578125 22.75 
Q 13.578125 18.0625 15.3125 12.5625 
Q 17.046875 7.078125 20.453125 3.859375 
Q 22.953125 1.5625 26.515625 1.5625 
Q 30.765625 1.5625 34.109375 5.5625 
Q 37.453125 9.578125 37.453125 17 
Q 37.453125 25.34375 34.125 31.4375 
Q 30.8125 37.546875 24.703125 37.546875 
Q 22.859375 37.546875 20.734375 36.765625 
Q 18.609375 35.984375 14.453125 33.40625 
z
" id="TimesNewRomanPSMT-54"/>
       </defs>
       <use xlink:href="#TimesNewRomanPSMT-121"/>
       <use x="50" xlink:href="#TimesNewRomanPSMT-101"/>
       <use x="94.384766" xlink:href="#TimesNewRomanPSMT-97"/>
       <use x="138.769531" xlink:href="#TimesNewRomanPSMT-115"/>
       <use x="177.685547" xlink:href="#TimesNewRomanPSMT-116"/>
       <use x="205.46875" xlink:href="#TimesNewRomanPSMT-45"/>
       <use x="238.769531" xlink:href="#TimesNewRomanPSMT-48"/>
       <use x="288.769531" xlink:href="#TimesNewRomanPSMT-54"/>
      </g>
     </g>
    </g>
    <g id="xtick_8">
     <g id="line2d_8">
      <g>
       <use style="stroke:#000000;stroke-width:0.8;" x="474.143483" xlink:href="#m840fbf99fe" y="553.848851"/>
      </g>
     </g>
     <g id="text_8">
      <!-- cleve-1 -->
      <g transform="translate(446.446938 610.591165)rotate(-30)scale(0.24 -0.24)">
       <defs>
        <path d="M 0.828125 44.734375 
L 21.875 44.734375 
L 21.875 42.921875 
L 20.515625 42.921875 
Q 18.609375 42.921875 17.609375 41.984375 
Q 16.609375 41.0625 16.609375 39.5 
Q 16.609375 37.796875 17.625 35.453125 
L 28.03125 10.75 
L 38.484375 36.375 
Q 39.59375 39.109375 39.59375 40.53125 
Q 39.59375 41.21875 39.203125 41.65625 
Q 38.671875 42.390625 37.84375 42.65625 
Q 37.015625 42.921875 34.46875 42.921875 
L 34.46875 44.734375 
L 49.078125 44.734375 
L 49.078125 42.921875 
Q 46.53125 42.71875 45.5625 41.890625 
Q 43.84375 40.4375 42.484375 37.015625 
L 26.609375 -1.375 
L 24.609375 -1.375 
L 8.640625 36.375 
Q 7.5625 39.015625 6.578125 40.15625 
Q 5.609375 41.3125 4.109375 42.09375 
Q 3.265625 42.53125 0.828125 42.921875 
z
" id="TimesNewRomanPSMT-118"/>
       </defs>
       <use xlink:href="#TimesNewRomanPSMT-99"/>
       <use x="44.384766" xlink:href="#TimesNewRomanPSMT-108"/>
       <use x="72.167969" xlink:href="#TimesNewRomanPSMT-101"/>
       <use x="116.552734" xlink:href="#TimesNewRomanPSMT-118"/>
       <use x="166.552734" xlink:href="#TimesNewRomanPSMT-101"/>
       <use x="210.9375" xlink:href="#TimesNewRomanPSMT-45"/>
       <use x="244.238281" xlink:href="#TimesNewRomanPSMT-49"/>
      </g>
     </g>
    </g>
    <g id="xtick_9">
     <g id="line2d_9">
      <g>
       <use style="stroke:#000000;stroke-width:0.8;" x="521.320447" xlink:href="#m840fbf99fe" y="553.848851"/>
      </g>
     </g>
     <g id="text_9">
      <!-- yeast-0 -->
      <g transform="translate(494.169731 609.895943)rotate(-30)scale(0.24 -0.24)">
       <use xlink:href="#TimesNewRomanPSMT-121"/>
       <use x="50" xlink:href="#TimesNewRomanPSMT-101"/>
       <use x="94.384766" xlink:href="#TimesNewRomanPSMT-97"/>
       <use x="138.769531" xlink:href="#TimesNewRomanPSMT-115"/>
       <use x="177.685547" xlink:href="#TimesNewRomanPSMT-116"/>
       <use x="205.46875" xlink:href="#TimesNewRomanPSMT-45"/>
       <use x="238.769531" xlink:href="#TimesNewRomanPSMT-48"/>
      </g>
     </g>
    </g>
    <g id="xtick_10">
     <g id="line2d_10">
      <g>
       <use style="stroke:#000000;stroke-width:0.8;" x="568.497411" xlink:href="#m840fbf99fe" y="553.848851"/>
      </g>
     </g>
     <g id="text_10">
      <!-- ecoli-7 -->
      <g transform="translate(542.526963 608.59804)rotate(-30)scale(0.24 -0.24)">
       <defs>
        <path d="M 10.0625 66.21875 
L 45.5625 66.21875 
L 45.5625 64.359375 
L 23.484375 -1.375 
L 18.015625 -1.375 
L 37.796875 58.25 
L 19.578125 58.25 
Q 14.0625 58.25 11.71875 56.9375 
Q 7.625 54.6875 5.125 50 
L 3.71875 50.53125 
z
" id="TimesNewRomanPSMT-55"/>
       </defs>
       <use xlink:href="#TimesNewRomanPSMT-101"/>
       <use x="44.384766" xlink:href="#TimesNewRomanPSMT-99"/>
       <use x="88.769531" xlink:href="#TimesNewRomanPSMT-111"/>
       <use x="138.769531" xlink:href="#TimesNewRomanPSMT-108"/>
       <use x="166.552734" xlink:href="#TimesNewRomanPSMT-105"/>
       <use x="194.335938" xlink:href="#TimesNewRomanPSMT-45"/>
       <use x="227.636719" xlink:href="#TimesNewRomanPSMT-55"/>
      </g>
     </g>
    </g>
    <g id="xtick_11">
     <g id="line2d_11">
      <g>
       <use style="stroke:#000000;stroke-width:0.8;" x="615.674375" xlink:href="#m840fbf99fe" y="553.848851"/>
      </g>
     </g>
     <g id="text_11">
      <!-- newth-0 -->
      <g transform="translate(584.502904 614.603665)rotate(-30)scale(0.24 -0.24)">
       <defs>
        <path d="M 0.640625 44.734375 
L 19.390625 44.734375 
L 19.390625 42.921875 
Q 16.796875 42.71875 15.984375 41.984375 
Q 15.1875 41.265625 15.1875 39.890625 
Q 15.1875 38.375 16.015625 36.234375 
L 25.59375 10.5 
L 35.203125 31.453125 
L 32.671875 38.03125 
Q 31.5 40.96875 29.59375 42.09375 
Q 28.515625 42.78125 25.59375 42.921875 
L 25.59375 44.734375 
L 46.875 44.734375 
L 46.875 42.921875 
Q 43.359375 42.78125 41.890625 41.65625 
Q 40.921875 40.875 40.921875 39.15625 
Q 40.921875 38.1875 41.3125 37.15625 
L 51.46875 11.46875 
L 60.890625 36.234375 
Q 61.859375 38.875 61.859375 40.4375 
Q 61.859375 41.359375 60.90625 42.09375 
Q 59.96875 42.828125 57.171875 42.921875 
L 57.171875 44.734375 
L 71.296875 44.734375 
L 71.296875 42.921875 
Q 67.046875 42.28125 65.046875 37.15625 
L 50.09375 -1.375 
L 48.09375 -1.375 
L 36.921875 27.203125 
L 23.875 -1.375 
L 22.078125 -1.375 
L 7.71875 36.234375 
Q 6.296875 39.796875 4.921875 41.03125 
Q 3.5625 42.28125 0.640625 42.921875 
z
" id="TimesNewRomanPSMT-119"/>
        <path d="M 16.265625 69.4375 
L 16.265625 36.71875 
Q 21.6875 42.671875 24.859375 44.359375 
Q 28.03125 46.046875 31.203125 46.046875 
Q 35.015625 46.046875 37.75 43.9375 
Q 40.484375 41.84375 41.796875 37.359375 
Q 42.71875 34.234375 42.71875 25.921875 
L 42.71875 10.109375 
Q 42.71875 5.859375 43.40625 4.296875 
Q 43.890625 3.125 45.0625 2.4375 
Q 46.234375 1.765625 49.359375 1.765625 
L 49.359375 0 
L 27.390625 0 
L 27.390625 1.765625 
L 28.421875 1.765625 
Q 31.546875 1.765625 32.765625 2.703125 
Q 33.984375 3.65625 34.46875 5.515625 
Q 34.625 6.296875 34.625 10.109375 
L 34.625 25.921875 
Q 34.625 33.25 33.859375 35.546875 
Q 33.109375 37.84375 31.4375 38.984375 
Q 29.78125 40.140625 27.4375 40.140625 
Q 25.046875 40.140625 22.453125 38.859375 
Q 19.875 37.59375 16.265625 33.734375 
L 16.265625 10.109375 
Q 16.265625 5.515625 16.765625 4.390625 
Q 17.28125 3.265625 18.671875 2.515625 
Q 20.0625 1.765625 23.484375 1.765625 
L 23.484375 0 
L 1.3125 0 
L 1.3125 1.765625 
Q 4.296875 1.765625 6 2.6875 
Q 6.984375 3.171875 7.5625 4.53125 
Q 8.15625 5.90625 8.15625 10.109375 
L 8.15625 50.59375 
Q 8.15625 58.25 7.78125 60 
Q 7.421875 61.765625 6.65625 62.390625 
Q 5.90625 63.03125 4.640625 63.03125 
Q 3.609375 63.03125 1.3125 62.25 
L 0.640625 63.96875 
L 14.015625 69.4375 
z
" id="TimesNewRomanPSMT-104"/>
       </defs>
       <use xlink:href="#TimesNewRomanPSMT-110"/>
       <use x="50" xlink:href="#TimesNewRomanPSMT-101"/>
       <use x="94.384766" xlink:href="#TimesNewRomanPSMT-119"/>
       <use x="166.601562" xlink:href="#TimesNewRomanPSMT-116"/>
       <use x="194.384766" xlink:href="#TimesNewRomanPSMT-104"/>
       <use x="244.384766" xlink:href="#TimesNewRomanPSMT-45"/>
       <use x="277.685547" xlink:href="#TimesNewRomanPSMT-48"/>
      </g>
     </g>
    </g>
    <g id="xtick_12">
     <g id="line2d_12">
      <g>
       <use style="stroke:#000000;stroke-width:0.8;" x="662.851339" xlink:href="#m840fbf99fe" y="553.848851"/>
      </g>
     </g>
     <g id="text_12">
      <!-- cleve-2 -->
      <g transform="translate(635.154795 610.591165)rotate(-30)scale(0.24 -0.24)">
       <defs>
        <path d="M 45.84375 12.75 
L 41.21875 0 
L 2.15625 0 
L 2.15625 1.8125 
Q 19.390625 17.53125 26.421875 27.484375 
Q 33.453125 37.453125 33.453125 45.703125 
Q 33.453125 52 29.59375 56.046875 
Q 25.734375 60.109375 20.359375 60.109375 
Q 15.484375 60.109375 11.59375 57.25 
Q 7.71875 54.390625 5.859375 48.875 
L 4.046875 48.875 
Q 5.28125 57.90625 10.328125 62.734375 
Q 15.375 67.578125 22.953125 67.578125 
Q 31 67.578125 36.390625 62.40625 
Q 41.796875 57.234375 41.796875 50.203125 
Q 41.796875 45.171875 39.453125 40.140625 
Q 35.84375 32.234375 27.734375 23.390625 
Q 15.578125 10.109375 12.546875 7.375 
L 29.828125 7.375 
Q 35.109375 7.375 37.234375 7.765625 
Q 39.359375 8.15625 41.0625 9.34375 
Q 42.78125 10.546875 44.046875 12.75 
z
" id="TimesNewRomanPSMT-50"/>
       </defs>
       <use xlink:href="#TimesNewRomanPSMT-99"/>
       <use x="44.384766" xlink:href="#TimesNewRomanPSMT-108"/>
       <use x="72.167969" xlink:href="#TimesNewRomanPSMT-101"/>
       <use x="116.552734" xlink:href="#TimesNewRomanPSMT-118"/>
       <use x="166.552734" xlink:href="#TimesNewRomanPSMT-101"/>
       <use x="210.9375" xlink:href="#TimesNewRomanPSMT-45"/>
       <use x="244.238281" xlink:href="#TimesNewRomanPSMT-50"/>
      </g>
     </g>
    </g>
    <g id="xtick_13">
     <g id="line2d_13">
      <g>
       <use style="stroke:#000000;stroke-width:0.8;" x="710.028304" xlink:href="#m840fbf99fe" y="553.848851"/>
      </g>
     </g>
     <g id="text_13">
      <!-- ecoli-4 -->
      <g transform="translate(684.057856 608.59804)rotate(-30)scale(0.24 -0.24)">
       <defs>
        <path d="M 46.53125 24.421875 
L 46.53125 17.484375 
L 37.640625 17.484375 
L 37.640625 0 
L 29.59375 0 
L 29.59375 17.484375 
L 1.5625 17.484375 
L 1.5625 23.734375 
L 32.28125 67.578125 
L 37.640625 67.578125 
L 37.640625 24.421875 
z
M 29.59375 24.421875 
L 29.59375 57.28125 
L 6.34375 24.421875 
z
" id="TimesNewRomanPSMT-52"/>
       </defs>
       <use xlink:href="#TimesNewRomanPSMT-101"/>
       <use x="44.384766" xlink:href="#TimesNewRomanPSMT-99"/>
       <use x="88.769531" xlink:href="#TimesNewRomanPSMT-111"/>
       <use x="138.769531" xlink:href="#TimesNewRomanPSMT-108"/>
       <use x="166.552734" xlink:href="#TimesNewRomanPSMT-105"/>
       <use x="194.335938" xlink:href="#TimesNewRomanPSMT-45"/>
       <use x="227.636719" xlink:href="#TimesNewRomanPSMT-52"/>
      </g>
     </g>
    </g>
    <g id="xtick_14">
     <g id="line2d_14">
      <g>
       <use style="stroke:#000000;stroke-width:0.8;" x="757.205268" xlink:href="#m840fbf99fe" y="553.848851"/>
      </g>
     </g>
     <g id="text_14">
      <!-- page-1234 -->
      <g transform="translate(716.201935 625.891568)rotate(-30)scale(0.24 -0.24)">
       <defs>
        <path d="M 5.078125 53.609375 
Q 7.90625 60.296875 12.21875 63.9375 
Q 16.546875 67.578125 23 67.578125 
Q 30.953125 67.578125 35.203125 62.40625 
Q 38.421875 58.546875 38.421875 54.15625 
Q 38.421875 46.921875 29.34375 39.203125 
Q 35.453125 36.8125 38.578125 32.375 
Q 41.703125 27.9375 41.703125 21.921875 
Q 41.703125 13.328125 36.234375 7.03125 
Q 29.109375 -1.171875 15.578125 -1.171875 
Q 8.890625 -1.171875 6.46875 0.484375 
Q 4.046875 2.15625 4.046875 4.046875 
Q 4.046875 5.46875 5.1875 6.546875 
Q 6.34375 7.625 7.953125 7.625 
Q 9.1875 7.625 10.453125 7.234375 
Q 11.28125 6.984375 14.203125 5.4375 
Q 17.140625 3.90625 18.265625 3.609375 
Q 20.0625 3.078125 22.125 3.078125 
Q 27.09375 3.078125 30.78125 6.9375 
Q 34.46875 10.796875 34.46875 16.0625 
Q 34.46875 19.921875 32.765625 23.578125 
Q 31.5 26.3125 29.984375 27.734375 
Q 27.875 29.6875 24.21875 31.265625 
Q 20.5625 32.859375 16.75 32.859375 
L 15.1875 32.859375 
L 15.1875 34.328125 
Q 19.046875 34.8125 22.921875 37.109375 
Q 26.8125 39.40625 28.5625 42.625 
Q 30.328125 45.84375 30.328125 49.703125 
Q 30.328125 54.734375 27.171875 57.828125 
Q 24.03125 60.9375 19.34375 60.9375 
Q 11.765625 60.9375 6.6875 52.828125 
z
" id="TimesNewRomanPSMT-51"/>
       </defs>
       <use xlink:href="#TimesNewRomanPSMT-112"/>
       <use x="50" xlink:href="#TimesNewRomanPSMT-97"/>
       <use x="94.384766" xlink:href="#TimesNewRomanPSMT-103"/>
       <use x="144.384766" xlink:href="#TimesNewRomanPSMT-101"/>
       <use x="188.769531" xlink:href="#TimesNewRomanPSMT-45"/>
       <use x="222.070312" xlink:href="#TimesNewRomanPSMT-49"/>
       <use x="272.070312" xlink:href="#TimesNewRomanPSMT-50"/>
       <use x="322.070312" xlink:href="#TimesNewRomanPSMT-51"/>
       <use x="372.070312" xlink:href="#TimesNewRomanPSMT-52"/>
      </g>
     </g>
    </g>
    <g id="xtick_15">
     <g id="line2d_15">
      <g>
       <use style="stroke:#000000;stroke-width:0.8;" x="804.382232" xlink:href="#m840fbf99fe" y="553.848851"/>
      </g>
     </g>
     <g id="text_15">
      <!-- vowel-0 -->
      <g transform="translate(773.210761 614.603665)rotate(-30)scale(0.24 -0.24)">
       <use xlink:href="#TimesNewRomanPSMT-118"/>
       <use x="50" xlink:href="#TimesNewRomanPSMT-111"/>
       <use x="100" xlink:href="#TimesNewRomanPSMT-119"/>
       <use x="172.216797" xlink:href="#TimesNewRomanPSMT-101"/>
       <use x="216.601562" xlink:href="#TimesNewRomanPSMT-108"/>
       <use x="244.384766" xlink:href="#TimesNewRomanPSMT-45"/>
       <use x="277.685547" xlink:href="#TimesNewRomanPSMT-48"/>
      </g>
     </g>
    </g>
    <g id="xtick_16">
     <g id="line2d_16">
      <g>
       <use style="stroke:#000000;stroke-width:0.8;" x="851.559196" xlink:href="#m840fbf99fe" y="553.848851"/>
      </g>
     </g>
     <g id="text_16">
      <!-- ecoli-2356 -->
      <g transform="translate(810.000291 626.59804)rotate(-30)scale(0.24 -0.24)">
       <defs>
        <path d="M 43.40625 66.21875 
L 39.59375 57.90625 
L 19.671875 57.90625 
L 15.328125 49.03125 
Q 28.265625 47.125 35.84375 39.40625 
Q 42.328125 32.765625 42.328125 23.78125 
Q 42.328125 18.5625 40.203125 14.109375 
Q 38.09375 9.671875 34.859375 6.546875 
Q 31.640625 3.421875 27.6875 1.515625 
Q 22.078125 -1.171875 16.15625 -1.171875 
Q 10.203125 -1.171875 7.484375 0.84375 
Q 4.78125 2.875 4.78125 5.328125 
Q 4.78125 6.6875 5.90625 7.734375 
Q 7.03125 8.796875 8.734375 8.796875 
Q 10.015625 8.796875 10.96875 8.40625 
Q 11.921875 8.015625 14.203125 6.390625 
Q 17.875 3.859375 21.625 3.859375 
Q 27.34375 3.859375 31.65625 8.171875 
Q 35.984375 12.5 35.984375 18.703125 
Q 35.984375 24.703125 32.125 29.90625 
Q 28.265625 35.109375 21.484375 37.9375 
Q 16.15625 40.140625 6.984375 40.484375 
L 19.671875 66.21875 
z
" id="TimesNewRomanPSMT-53"/>
       </defs>
       <use xlink:href="#TimesNewRomanPSMT-101"/>
       <use x="44.384766" xlink:href="#TimesNewRomanPSMT-99"/>
       <use x="88.769531" xlink:href="#TimesNewRomanPSMT-111"/>
       <use x="138.769531" xlink:href="#TimesNewRomanPSMT-108"/>
       <use x="166.552734" xlink:href="#TimesNewRomanPSMT-105"/>
       <use x="194.335938" xlink:href="#TimesNewRomanPSMT-45"/>
       <use x="227.636719" xlink:href="#TimesNewRomanPSMT-50"/>
       <use x="277.636719" xlink:href="#TimesNewRomanPSMT-51"/>
       <use x="327.636719" xlink:href="#TimesNewRomanPSMT-53"/>
       <use x="377.636719" xlink:href="#TimesNewRomanPSMT-54"/>
      </g>
     </g>
    </g>
    <g id="xtick_17">
     <g id="line2d_17">
      <g>
       <use style="stroke:#000000;stroke-width:0.8;" x="898.736161" xlink:href="#m840fbf99fe" y="553.848851"/>
      </g>
     </g>
     <g id="text_17">
      <!-- page-123 -->
      <g transform="translate(862.92898 619.891568)rotate(-30)scale(0.24 -0.24)">
       <use xlink:href="#TimesNewRomanPSMT-112"/>
       <use x="50" xlink:href="#TimesNewRomanPSMT-97"/>
       <use x="94.384766" xlink:href="#TimesNewRomanPSMT-103"/>
       <use x="144.384766" xlink:href="#TimesNewRomanPSMT-101"/>
       <use x="188.769531" xlink:href="#TimesNewRomanPSMT-45"/>
       <use x="222.070312" xlink:href="#TimesNewRomanPSMT-49"/>
       <use x="272.070312" xlink:href="#TimesNewRomanPSMT-50"/>
       <use x="322.070312" xlink:href="#TimesNewRomanPSMT-51"/>
      </g>
     </g>
    </g>
    <g id="xtick_18">
     <g id="line2d_18">
      <g>
       <use style="stroke:#000000;stroke-width:0.8;" x="945.913125" xlink:href="#m840fbf99fe" y="553.848851"/>
      </g>
     </g>
     <g id="text_18">
      <!-- glass-2 -->
      <g transform="translate(919.341989 609.278665)rotate(-30)scale(0.24 -0.24)">
       <use xlink:href="#TimesNewRomanPSMT-103"/>
       <use x="50" xlink:href="#TimesNewRomanPSMT-108"/>
       <use x="77.783203" xlink:href="#TimesNewRomanPSMT-97"/>
       <use x="122.167969" xlink:href="#TimesNewRomanPSMT-115"/>
       <use x="161.083984" xlink:href="#TimesNewRomanPSMT-115"/>
       <use x="200" xlink:href="#TimesNewRomanPSMT-45"/>
       <use x="233.300781" xlink:href="#TimesNewRomanPSMT-50"/>
      </g>
     </g>
    </g>
    <g id="xtick_19">
     <g id="line2d_19">
      <g>
       <use style="stroke:#000000;stroke-width:0.8;" x="993.090089" xlink:href="#m840fbf99fe" y="553.848851"/>
      </g>
     </g>
     <g id="text_19">
      <!-- balance-1 -->
      <g transform="translate(955.584183 621.91804)rotate(-30)scale(0.24 -0.24)">
       <use xlink:href="#TimesNewRomanPSMT-98"/>
       <use x="50" xlink:href="#TimesNewRomanPSMT-97"/>
       <use x="94.384766" xlink:href="#TimesNewRomanPSMT-108"/>
       <use x="122.167969" xlink:href="#TimesNewRomanPSMT-97"/>
       <use x="166.552734" xlink:href="#TimesNewRomanPSMT-110"/>
       <use x="216.552734" xlink:href="#TimesNewRomanPSMT-99"/>
       <use x="260.9375" xlink:href="#TimesNewRomanPSMT-101"/>
       <use x="305.322266" xlink:href="#TimesNewRomanPSMT-45"/>
       <use x="338.623047" xlink:href="#TimesNewRomanPSMT-49"/>
      </g>
     </g>
    </g>
    <g id="xtick_20">
     <g id="line2d_20">
      <g>
       <use style="stroke:#000000;stroke-width:0.8;" x="1040.267053" xlink:href="#m840fbf99fe" y="553.848851"/>
      </g>
     </g>
     <g id="text_20">
      <!-- yst-7vs.1 -->
      <g transform="translate(1005.307495 618.912818)rotate(-30)scale(0.24 -0.24)">
       <defs>
        <path d="M 12.5 9.46875 
Q 14.796875 9.46875 16.359375 7.875 
Q 17.921875 6.296875 17.921875 4.046875 
Q 17.921875 1.8125 16.328125 0.21875 
Q 14.75 -1.375 12.5 -1.375 
Q 10.25 -1.375 8.65625 0.21875 
Q 7.078125 1.8125 7.078125 4.046875 
Q 7.078125 6.34375 8.65625 7.90625 
Q 10.25 9.46875 12.5 9.46875 
z
" id="TimesNewRomanPSMT-46"/>
       </defs>
       <use xlink:href="#TimesNewRomanPSMT-121"/>
       <use x="50" xlink:href="#TimesNewRomanPSMT-115"/>
       <use x="88.916016" xlink:href="#TimesNewRomanPSMT-116"/>
       <use x="116.699219" xlink:href="#TimesNewRomanPSMT-45"/>
       <use x="150" xlink:href="#TimesNewRomanPSMT-55"/>
       <use x="200" xlink:href="#TimesNewRomanPSMT-118"/>
       <use x="250" xlink:href="#TimesNewRomanPSMT-115"/>
       <use x="288.916016" xlink:href="#TimesNewRomanPSMT-46"/>
       <use x="313.916016" xlink:href="#TimesNewRomanPSMT-49"/>
      </g>
     </g>
    </g>
    <g id="xtick_21">
     <g id="line2d_21">
      <g>
       <use style="stroke:#000000;stroke-width:0.8;" x="1087.444017" xlink:href="#m840fbf99fe" y="553.848851"/>
      </g>
     </g>
     <g id="text_21">
      <!-- ecoli-5 -->
      <g transform="translate(1061.47357 608.59804)rotate(-30)scale(0.24 -0.24)">
       <use xlink:href="#TimesNewRomanPSMT-101"/>
       <use x="44.384766" xlink:href="#TimesNewRomanPSMT-99"/>
       <use x="88.769531" xlink:href="#TimesNewRomanPSMT-111"/>
       <use x="138.769531" xlink:href="#TimesNewRomanPSMT-108"/>
       <use x="166.552734" xlink:href="#TimesNewRomanPSMT-105"/>
       <use x="194.335938" xlink:href="#TimesNewRomanPSMT-45"/>
       <use x="227.636719" xlink:href="#TimesNewRomanPSMT-53"/>
      </g>
     </g>
    </g>
    <g id="xtick_22">
     <g id="line2d_22">
      <g>
       <use style="stroke:#000000;stroke-width:0.8;" x="1134.620982" xlink:href="#m840fbf99fe" y="553.848851"/>
      </g>
     </g>
     <g id="text_22">
      <!-- yst-7v1458 -->
      <g transform="translate(1090.715922 629.242193)rotate(-30)scale(0.24 -0.24)">
       <defs>
        <path d="M 19.1875 33.34375 
Q 11.328125 39.796875 9.046875 43.703125 
Q 6.78125 47.609375 6.78125 51.8125 
Q 6.78125 58.25 11.765625 62.90625 
Q 16.75 67.578125 25 67.578125 
Q 33.015625 67.578125 37.890625 63.234375 
Q 42.78125 58.890625 42.78125 53.328125 
Q 42.78125 49.609375 40.140625 45.75 
Q 37.5 41.890625 29.15625 36.671875 
Q 37.75 30.03125 40.53125 26.21875 
Q 44.234375 21.234375 44.234375 15.71875 
Q 44.234375 8.734375 38.90625 3.78125 
Q 33.59375 -1.171875 24.953125 -1.171875 
Q 15.53125 -1.171875 10.25 4.734375 
Q 6.0625 9.46875 6.0625 15.09375 
Q 6.0625 19.484375 9.015625 23.796875 
Q 11.96875 28.125 19.1875 33.34375 
z
M 26.859375 38.578125 
Q 32.71875 43.84375 34.28125 46.890625 
Q 35.84375 49.953125 35.84375 53.8125 
Q 35.84375 58.9375 32.953125 61.84375 
Q 30.078125 64.75 25.09375 64.75 
Q 20.125 64.75 17 61.859375 
Q 13.875 58.984375 13.875 55.125 
Q 13.875 52.59375 15.15625 50.046875 
Q 16.453125 47.515625 18.84375 45.21875 
z
M 21.484375 31.5 
Q 17.4375 28.078125 15.484375 24.046875 
Q 13.53125 20.015625 13.53125 15.328125 
Q 13.53125 9.03125 16.96875 5.25 
Q 20.40625 1.46875 25.734375 1.46875 
Q 31 1.46875 34.171875 4.4375 
Q 37.359375 7.421875 37.359375 11.671875 
Q 37.359375 15.1875 35.5 17.96875 
Q 32.03125 23.140625 21.484375 31.5 
z
" id="TimesNewRomanPSMT-56"/>
       </defs>
       <use xlink:href="#TimesNewRomanPSMT-121"/>
       <use x="50" xlink:href="#TimesNewRomanPSMT-115"/>
       <use x="88.916016" xlink:href="#TimesNewRomanPSMT-116"/>
       <use x="116.699219" xlink:href="#TimesNewRomanPSMT-45"/>
       <use x="150" xlink:href="#TimesNewRomanPSMT-55"/>
       <use x="200" xlink:href="#TimesNewRomanPSMT-118"/>
       <use x="250" xlink:href="#TimesNewRomanPSMT-49"/>
       <use x="300" xlink:href="#TimesNewRomanPSMT-52"/>
       <use x="350" xlink:href="#TimesNewRomanPSMT-53"/>
       <use x="400" xlink:href="#TimesNewRomanPSMT-56"/>
      </g>
     </g>
    </g>
    <g id="xtick_23">
     <g id="line2d_23">
      <g>
       <use style="stroke:#000000;stroke-width:0.8;" x="1181.797946" xlink:href="#m840fbf99fe" y="553.848851"/>
      </g>
     </g>
     <g id="text_23">
      <!-- letter-1 -->
      <g transform="translate(1154.884072 609.687415)rotate(-30)scale(0.24 -0.24)">
       <defs>
        <path d="M 16.21875 46.046875 
L 16.21875 35.984375 
Q 21.828125 46.046875 27.734375 46.046875 
Q 30.421875 46.046875 32.171875 44.40625 
Q 33.9375 42.78125 33.9375 40.625 
Q 33.9375 38.71875 32.65625 37.390625 
Q 31.390625 36.078125 29.640625 36.078125 
Q 27.9375 36.078125 25.8125 37.765625 
Q 23.6875 39.453125 22.65625 39.453125 
Q 21.78125 39.453125 20.75 38.484375 
Q 18.5625 36.46875 16.21875 31.890625 
L 16.21875 10.453125 
Q 16.21875 6.734375 17.140625 4.828125 
Q 17.78125 3.515625 19.390625 2.640625 
Q 21 1.765625 24.03125 1.765625 
L 24.03125 0 
L 1.125 0 
L 1.125 1.765625 
Q 4.546875 1.765625 6.203125 2.828125 
Q 7.421875 3.609375 7.90625 5.328125 
Q 8.15625 6.15625 8.15625 10.0625 
L 8.15625 27.390625 
Q 8.15625 35.203125 7.828125 36.6875 
Q 7.515625 38.1875 6.65625 38.859375 
Q 5.8125 39.546875 4.546875 39.546875 
Q 3.03125 39.546875 1.125 38.8125 
L 0.640625 40.578125 
L 14.15625 46.046875 
z
" id="TimesNewRomanPSMT-114"/>
       </defs>
       <use xlink:href="#TimesNewRomanPSMT-108"/>
       <use x="27.783203" xlink:href="#TimesNewRomanPSMT-101"/>
       <use x="72.167969" xlink:href="#TimesNewRomanPSMT-116"/>
       <use x="99.951172" xlink:href="#TimesNewRomanPSMT-116"/>
       <use x="127.734375" xlink:href="#TimesNewRomanPSMT-101"/>
       <use x="172.119141" xlink:href="#TimesNewRomanPSMT-114"/>
       <use x="203.419922" xlink:href="#TimesNewRomanPSMT-45"/>
       <use x="236.720703" xlink:href="#TimesNewRomanPSMT-49"/>
      </g>
     </g>
    </g>
    <g id="xtick_24">
     <g id="line2d_24">
      <g>
       <use style="stroke:#000000;stroke-width:0.8;" x="1228.97491" xlink:href="#m840fbf99fe" y="553.848851"/>
      </g>
     </g>
     <g id="text_24">
      <!-- yeast-4 -->
      <g transform="translate(1201.824195 609.895943)rotate(-30)scale(0.24 -0.24)">
       <use xlink:href="#TimesNewRomanPSMT-121"/>
       <use x="50" xlink:href="#TimesNewRomanPSMT-101"/>
       <use x="94.384766" xlink:href="#TimesNewRomanPSMT-97"/>
       <use x="138.769531" xlink:href="#TimesNewRomanPSMT-115"/>
       <use x="177.685547" xlink:href="#TimesNewRomanPSMT-116"/>
       <use x="205.46875" xlink:href="#TimesNewRomanPSMT-45"/>
       <use x="238.769531" xlink:href="#TimesNewRomanPSMT-52"/>
      </g>
     </g>
    </g>
    <g id="xtick_25">
     <g id="line2d_25">
      <g>
       <use style="stroke:#000000;stroke-width:0.8;" x="1276.151874" xlink:href="#m840fbf99fe" y="553.848851"/>
      </g>
     </g>
     <g id="text_25">
      <!-- wine-4 -->
      <g transform="translate(1250.176555 608.603665)rotate(-30)scale(0.24 -0.24)">
       <use xlink:href="#TimesNewRomanPSMT-119"/>
       <use x="72.216797" xlink:href="#TimesNewRomanPSMT-105"/>
       <use x="100" xlink:href="#TimesNewRomanPSMT-110"/>
       <use x="150" xlink:href="#TimesNewRomanPSMT-101"/>
       <use x="194.384766" xlink:href="#TimesNewRomanPSMT-45"/>
       <use x="227.685547" xlink:href="#TimesNewRomanPSMT-52"/>
      </g>
     </g>
    </g>
    <g id="xtick_26">
     <g id="line2d_26">
      <g>
       <use style="stroke:#000000;stroke-width:0.8;" x="1323.328838" xlink:href="#m840fbf99fe" y="553.848851"/>
      </g>
     </g>
     <g id="text_26">
      <!-- wine-8vs.6 -->
      <g transform="translate(1280.318258 628.27429)rotate(-30)scale(0.24 -0.24)">
       <use xlink:href="#TimesNewRomanPSMT-119"/>
       <use x="72.216797" xlink:href="#TimesNewRomanPSMT-105"/>
       <use x="100" xlink:href="#TimesNewRomanPSMT-110"/>
       <use x="150" xlink:href="#TimesNewRomanPSMT-101"/>
       <use x="194.384766" xlink:href="#TimesNewRomanPSMT-45"/>
       <use x="227.685547" xlink:href="#TimesNewRomanPSMT-56"/>
       <use x="277.685547" xlink:href="#TimesNewRomanPSMT-118"/>
       <use x="327.685547" xlink:href="#TimesNewRomanPSMT-115"/>
       <use x="366.601562" xlink:href="#TimesNewRomanPSMT-46"/>
       <use x="391.601562" xlink:href="#TimesNewRomanPSMT-54"/>
      </g>
     </g>
    </g>
    <g id="xtick_27">
     <g id="line2d_27">
      <g>
       <use style="stroke:#000000;stroke-width:0.8;" x="1370.505803" xlink:href="#m840fbf99fe" y="553.848851"/>
      </g>
     </g>
     <g id="text_27">
      <!-- yeast-6 -->
      <g transform="translate(1343.355087 609.895943)rotate(-30)scale(0.24 -0.24)">
       <use xlink:href="#TimesNewRomanPSMT-121"/>
       <use x="50" xlink:href="#TimesNewRomanPSMT-101"/>
       <use x="94.384766" xlink:href="#TimesNewRomanPSMT-97"/>
       <use x="138.769531" xlink:href="#TimesNewRomanPSMT-115"/>
       <use x="177.685547" xlink:href="#TimesNewRomanPSMT-116"/>
       <use x="205.46875" xlink:href="#TimesNewRomanPSMT-45"/>
       <use x="238.769531" xlink:href="#TimesNewRomanPSMT-54"/>
      </g>
     </g>
    </g>
    <g id="xtick_28">
     <g id="line2d_28">
      <g>
       <use style="stroke:#000000;stroke-width:0.8;" x="1417.682767" xlink:href="#m840fbf99fe" y="553.848851"/>
      </g>
     </g>
     <g id="text_28">
      <!-- page-3 -->
      <g transform="translate(1392.267891 607.891568)rotate(-30)scale(0.24 -0.24)">
       <use xlink:href="#TimesNewRomanPSMT-112"/>
       <use x="50" xlink:href="#TimesNewRomanPSMT-97"/>
       <use x="94.384766" xlink:href="#TimesNewRomanPSMT-103"/>
       <use x="144.384766" xlink:href="#TimesNewRomanPSMT-101"/>
       <use x="188.769531" xlink:href="#TimesNewRomanPSMT-45"/>
       <use x="222.070312" xlink:href="#TimesNewRomanPSMT-51"/>
      </g>
     </g>
    </g>
   </g>
   <g id="matplotlib.axis_2">
    <g id="ytick_1">
     <g id="line2d_29">
      <path clip-path="url(#p8d9cc96096)" d="M 63.99875 553.848851 
L 1497.58875 553.848851 
" style="fill:none;stroke:#b0b0b0;stroke-dasharray:2.96,1.28;stroke-dashoffset:0;stroke-width:0.8;"/>
     </g>
     <g id="line2d_30">
      <defs>
       <path d="M 0 0 
L -3.5 0 
" id="me12261d212" style="stroke:#000000;stroke-width:0.8;"/>
      </defs>
      <g>
       <use style="stroke:#000000;stroke-width:0.8;" x="63.99875" xlink:href="#me12261d212" y="553.848851"/>
      </g>
     </g>
     <g id="text_29">
      <!-- 0 -->
      <g transform="translate(44.99875 562.181351)scale(0.24 -0.24)">
       <use xlink:href="#TimesNewRomanPSMT-48"/>
      </g>
     </g>
    </g>
    <g id="ytick_2">
     <g id="line2d_31">
      <path clip-path="url(#p8d9cc96096)" d="M 63.99875 488.771607 
L 1497.58875 488.771607 
" style="fill:none;stroke:#b0b0b0;stroke-dasharray:2.96,1.28;stroke-dashoffset:0;stroke-width:0.8;"/>
     </g>
     <g id="line2d_32">
      <g>
       <use style="stroke:#000000;stroke-width:0.8;" x="63.99875" xlink:href="#me12261d212" y="488.771607"/>
      </g>
     </g>
     <g id="text_30">
      <!-- 2 -->
      <g transform="translate(44.99875 497.104107)scale(0.24 -0.24)">
       <use xlink:href="#TimesNewRomanPSMT-50"/>
      </g>
     </g>
    </g>
    <g id="ytick_3">
     <g id="line2d_33">
      <path clip-path="url(#p8d9cc96096)" d="M 63.99875 423.694363 
L 1497.58875 423.694363 
" style="fill:none;stroke:#b0b0b0;stroke-dasharray:2.96,1.28;stroke-dashoffset:0;stroke-width:0.8;"/>
     </g>
     <g id="line2d_34">
      <g>
       <use style="stroke:#000000;stroke-width:0.8;" x="63.99875" xlink:href="#me12261d212" y="423.694363"/>
      </g>
     </g>
     <g id="text_31">
      <!-- 4 -->
      <g transform="translate(44.99875 432.026863)scale(0.24 -0.24)">
       <use xlink:href="#TimesNewRomanPSMT-52"/>
      </g>
     </g>
    </g>
    <g id="ytick_4">
     <g id="line2d_35">
      <path clip-path="url(#p8d9cc96096)" d="M 63.99875 358.617119 
L 1497.58875 358.617119 
" style="fill:none;stroke:#b0b0b0;stroke-dasharray:2.96,1.28;stroke-dashoffset:0;stroke-width:0.8;"/>
     </g>
     <g id="line2d_36">
      <g>
       <use style="stroke:#000000;stroke-width:0.8;" x="63.99875" xlink:href="#me12261d212" y="358.617119"/>
      </g>
     </g>
     <g id="text_32">
      <!-- 6 -->
      <g transform="translate(44.99875 366.949619)scale(0.24 -0.24)">
       <use xlink:href="#TimesNewRomanPSMT-54"/>
      </g>
     </g>
    </g>
    <g id="ytick_5">
     <g id="line2d_37">
      <path clip-path="url(#p8d9cc96096)" d="M 63.99875 293.539874 
L 1497.58875 293.539874 
" style="fill:none;stroke:#b0b0b0;stroke-dasharray:2.96,1.28;stroke-dashoffset:0;stroke-width:0.8;"/>
     </g>
     <g id="line2d_38">
      <g>
       <use style="stroke:#000000;stroke-width:0.8;" x="63.99875" xlink:href="#me12261d212" y="293.539874"/>
      </g>
     </g>
     <g id="text_33">
      <!-- 8 -->
      <g transform="translate(44.99875 301.872374)scale(0.24 -0.24)">
       <use xlink:href="#TimesNewRomanPSMT-56"/>
      </g>
     </g>
    </g>
    <g id="ytick_6">
     <g id="line2d_39">
      <path clip-path="url(#p8d9cc96096)" d="M 63.99875 228.46263 
L 1497.58875 228.46263 
" style="fill:none;stroke:#b0b0b0;stroke-dasharray:2.96,1.28;stroke-dashoffset:0;stroke-width:0.8;"/>
     </g>
     <g id="line2d_40">
      <g>
       <use style="stroke:#000000;stroke-width:0.8;" x="63.99875" xlink:href="#me12261d212" y="228.46263"/>
      </g>
     </g>
     <g id="text_34">
      <!-- 10 -->
      <g transform="translate(32.99875 236.79513)scale(0.24 -0.24)">
       <use xlink:href="#TimesNewRomanPSMT-49"/>
       <use x="50" xlink:href="#TimesNewRomanPSMT-48"/>
      </g>
     </g>
    </g>
    <g id="ytick_7">
     <g id="line2d_41">
      <path clip-path="url(#p8d9cc96096)" d="M 63.99875 163.385386 
L 1497.58875 163.385386 
" style="fill:none;stroke:#b0b0b0;stroke-dasharray:2.96,1.28;stroke-dashoffset:0;stroke-width:0.8;"/>
     </g>
     <g id="line2d_42">
      <g>
       <use style="stroke:#000000;stroke-width:0.8;" x="63.99875" xlink:href="#me12261d212" y="163.385386"/>
      </g>
     </g>
     <g id="text_35">
      <!-- 12 -->
      <g transform="translate(32.99875 171.717886)scale(0.24 -0.24)">
       <use xlink:href="#TimesNewRomanPSMT-49"/>
       <use x="50" xlink:href="#TimesNewRomanPSMT-50"/>
      </g>
     </g>
    </g>
    <g id="ytick_8">
     <g id="line2d_43">
      <path clip-path="url(#p8d9cc96096)" d="M 63.99875 98.308142 
L 1497.58875 98.308142 
" style="fill:none;stroke:#b0b0b0;stroke-dasharray:2.96,1.28;stroke-dashoffset:0;stroke-width:0.8;"/>
     </g>
     <g id="line2d_44">
      <g>
       <use style="stroke:#000000;stroke-width:0.8;" x="63.99875" xlink:href="#me12261d212" y="98.308142"/>
      </g>
     </g>
     <g id="text_36">
      <!-- 14 -->
      <g transform="translate(32.99875 106.640642)scale(0.24 -0.24)">
       <use xlink:href="#TimesNewRomanPSMT-49"/>
       <use x="50" xlink:href="#TimesNewRomanPSMT-52"/>
      </g>
     </g>
    </g>
    <g id="ytick_9">
     <g id="line2d_45">
      <path clip-path="url(#p8d9cc96096)" d="M 63.99875 33.230898 
L 1497.58875 33.230898 
" style="fill:none;stroke:#b0b0b0;stroke-dasharray:2.96,1.28;stroke-dashoffset:0;stroke-width:0.8;"/>
     </g>
     <g id="line2d_46">
      <g>
       <use style="stroke:#000000;stroke-width:0.8;" x="63.99875" xlink:href="#me12261d212" y="33.230898"/>
      </g>
     </g>
     <g id="text_37">
      <!-- 16 -->
      <g transform="translate(32.99875 41.563398)scale(0.24 -0.24)">
       <use xlink:href="#TimesNewRomanPSMT-49"/>
       <use x="50" xlink:href="#TimesNewRomanPSMT-54"/>
      </g>
     </g>
    </g>
    <g id="text_38">
     <!-- Number of attributes -->
     <g transform="translate(23.865 380.497551)rotate(-90)scale(0.24 -0.24)">
      <defs>
       <path d="M -1.3125 66.21875 
L 16.65625 66.21875 
L 57.125 16.546875 
L 57.125 54.734375 
Q 57.125 60.84375 55.765625 62.359375 
Q 53.953125 64.40625 50.046875 64.40625 
L 47.75 64.40625 
L 47.75 66.21875 
L 70.796875 66.21875 
L 70.796875 64.40625 
L 68.453125 64.40625 
Q 64.265625 64.40625 62.5 61.859375 
Q 61.421875 60.296875 61.421875 54.734375 
L 61.421875 -1.078125 
L 59.671875 -1.078125 
L 16.015625 52.25 
L 16.015625 11.46875 
Q 16.015625 5.375 17.328125 3.859375 
Q 19.1875 1.8125 23.046875 1.8125 
L 25.390625 1.8125 
L 25.390625 0 
L 2.34375 0 
L 2.34375 1.8125 
L 4.640625 1.8125 
Q 8.890625 1.8125 10.640625 4.34375 
Q 11.71875 5.90625 11.71875 11.46875 
L 11.71875 57.515625 
Q 8.84375 60.890625 7.34375 61.953125 
Q 5.859375 63.03125 2.984375 63.96875 
Q 1.5625 64.40625 -1.3125 64.40625 
z
" id="TimesNewRomanPSMT-78"/>
       <path d="M 42.328125 44.734375 
L 42.328125 17.625 
Q 42.328125 9.859375 42.6875 8.125 
Q 43.0625 6.390625 43.859375 5.703125 
Q 44.671875 5.03125 45.75 5.03125 
Q 47.265625 5.03125 49.171875 5.859375 
L 49.859375 4.15625 
L 36.46875 -1.375 
L 34.28125 -1.375 
L 34.28125 8.109375 
Q 28.515625 1.859375 25.484375 0.234375 
Q 22.46875 -1.375 19.09375 -1.375 
Q 15.328125 -1.375 12.5625 0.796875 
Q 9.8125 2.984375 8.734375 6.390625 
Q 7.671875 9.8125 7.671875 16.0625 
L 7.671875 36.03125 
Q 7.671875 39.203125 6.984375 40.421875 
Q 6.296875 41.65625 4.953125 42.3125 
Q 3.609375 42.96875 0.09375 42.921875 
L 0.09375 44.734375 
L 15.765625 44.734375 
L 15.765625 14.796875 
Q 15.765625 8.546875 17.9375 6.59375 
Q 20.125 4.640625 23.1875 4.640625 
Q 25.296875 4.640625 27.953125 5.953125 
Q 30.609375 7.28125 34.28125 10.984375 
L 34.28125 36.328125 
Q 34.28125 40.140625 32.890625 41.484375 
Q 31.5 42.828125 27.09375 42.921875 
L 27.09375 44.734375 
z
" id="TimesNewRomanPSMT-117"/>
       <path d="M 16.40625 36.53125 
Q 21.296875 41.40625 22.171875 42.140625 
Q 24.359375 44 26.890625 45.015625 
Q 29.4375 46.046875 31.9375 46.046875 
Q 36.140625 46.046875 39.15625 43.59375 
Q 42.1875 41.15625 43.21875 36.53125 
Q 48.25 42.390625 51.703125 44.21875 
Q 55.171875 46.046875 58.84375 46.046875 
Q 62.40625 46.046875 65.15625 44.21875 
Q 67.921875 42.390625 69.53125 38.234375 
Q 70.609375 35.40625 70.609375 29.34375 
L 70.609375 10.109375 
Q 70.609375 5.90625 71.234375 4.34375 
Q 71.734375 3.265625 73.046875 2.515625 
Q 74.359375 1.765625 77.34375 1.765625 
L 77.34375 0 
L 55.28125 0 
L 55.28125 1.765625 
L 56.203125 1.765625 
Q 59.078125 1.765625 60.6875 2.875 
Q 61.8125 3.65625 62.3125 5.375 
Q 62.5 6.203125 62.5 10.109375 
L 62.5 29.34375 
Q 62.5 34.8125 61.1875 37.0625 
Q 59.28125 40.1875 55.078125 40.1875 
Q 52.484375 40.1875 49.875 38.890625 
Q 47.265625 37.59375 43.5625 34.078125 
L 43.453125 33.546875 
L 43.5625 31.453125 
L 43.5625 10.109375 
Q 43.5625 5.515625 44.0625 4.390625 
Q 44.578125 3.265625 45.984375 2.515625 
Q 47.40625 1.765625 50.828125 1.765625 
L 50.828125 0 
L 28.21875 0 
L 28.21875 1.765625 
Q 31.9375 1.765625 33.328125 2.640625 
Q 34.71875 3.515625 35.25 5.28125 
Q 35.5 6.109375 35.5 10.109375 
L 35.5 29.34375 
Q 35.5 34.8125 33.890625 37.203125 
Q 31.734375 40.328125 27.875 40.328125 
Q 25.25 40.328125 22.65625 38.921875 
Q 18.609375 36.765625 16.40625 34.078125 
L 16.40625 10.109375 
Q 16.40625 5.71875 17.015625 4.390625 
Q 17.625 3.078125 18.8125 2.421875 
Q 20.015625 1.765625 23.6875 1.765625 
L 23.6875 0 
L 1.5625 0 
L 1.5625 1.765625 
Q 4.640625 1.765625 5.859375 2.421875 
Q 7.078125 3.078125 7.703125 4.515625 
Q 8.34375 5.953125 8.34375 10.109375 
L 8.34375 27.203125 
Q 8.34375 34.578125 7.90625 36.71875 
Q 7.5625 38.328125 6.828125 38.9375 
Q 6.109375 39.546875 4.828125 39.546875 
Q 3.46875 39.546875 1.5625 38.8125 
L 0.828125 40.578125 
L 14.3125 46.046875 
L 16.40625 46.046875 
z
" id="TimesNewRomanPSMT-109"/>
       <path id="TimesNewRomanPSMT-32"/>
       <path d="M 20.609375 41.21875 
L 20.609375 11.8125 
Q 20.609375 5.5625 21.96875 3.90625 
Q 23.78125 1.765625 26.8125 1.765625 
L 30.859375 1.765625 
L 30.859375 0 
L 4.15625 0 
L 4.15625 1.765625 
L 6.15625 1.765625 
Q 8.109375 1.765625 9.71875 2.734375 
Q 11.328125 3.71875 11.9375 5.375 
Q 12.546875 7.03125 12.546875 11.8125 
L 12.546875 41.21875 
L 3.859375 41.21875 
L 3.859375 44.734375 
L 12.546875 44.734375 
L 12.546875 47.65625 
Q 12.546875 54.34375 14.6875 58.984375 
Q 16.84375 63.625 21.265625 66.484375 
Q 25.6875 69.34375 31.203125 69.34375 
Q 36.328125 69.34375 40.625 66.015625 
Q 43.453125 63.8125 43.453125 61.078125 
Q 43.453125 59.625 42.1875 58.328125 
Q 40.921875 57.03125 39.453125 57.03125 
Q 38.328125 57.03125 37.078125 57.828125 
Q 35.84375 58.640625 34.03125 61.296875 
Q 32.234375 63.96875 30.71875 64.890625 
Q 29.203125 65.828125 27.34375 65.828125 
Q 25.09375 65.828125 23.53125 64.625 
Q 21.96875 63.421875 21.28125 60.90625 
Q 20.609375 58.40625 20.609375 47.953125 
L 20.609375 44.734375 
L 32.125 44.734375 
L 32.125 41.21875 
z
" id="TimesNewRomanPSMT-102"/>
      </defs>
      <use xlink:href="#TimesNewRomanPSMT-78"/>
      <use x="72.216797" xlink:href="#TimesNewRomanPSMT-117"/>
      <use x="122.216797" xlink:href="#TimesNewRomanPSMT-109"/>
      <use x="200" xlink:href="#TimesNewRomanPSMT-98"/>
      <use x="250" xlink:href="#TimesNewRomanPSMT-101"/>
      <use x="294.384766" xlink:href="#TimesNewRomanPSMT-114"/>
      <use x="327.685547" xlink:href="#TimesNewRomanPSMT-32"/>
      <use x="352.685547" xlink:href="#TimesNewRomanPSMT-111"/>
      <use x="402.685547" xlink:href="#TimesNewRomanPSMT-102"/>
      <use x="435.986328" xlink:href="#TimesNewRomanPSMT-32"/>
      <use x="460.986328" xlink:href="#TimesNewRomanPSMT-97"/>
      <use x="505.371094" xlink:href="#TimesNewRomanPSMT-116"/>
      <use x="533.154297" xlink:href="#TimesNewRomanPSMT-116"/>
      <use x="560.9375" xlink:href="#TimesNewRomanPSMT-114"/>
      <use x="594.238281" xlink:href="#TimesNewRomanPSMT-105"/>
      <use x="622.021484" xlink:href="#TimesNewRomanPSMT-98"/>
      <use x="672.021484" xlink:href="#TimesNewRomanPSMT-117"/>
      <use x="722.021484" xlink:href="#TimesNewRomanPSMT-116"/>
      <use x="749.804688" xlink:href="#TimesNewRomanPSMT-101"/>
      <use x="794.189453" xlink:href="#TimesNewRomanPSMT-115"/>
     </g>
    </g>
   </g>
   <g id="patch_3">
    <path d="M 63.99875 553.848851 
L 63.99875 7.2 
" style="fill:none;stroke:#000000;stroke-linecap:square;stroke-linejoin:miter;stroke-width:0.8;"/>
   </g>
   <g id="patch_4">
    <path d="M 1497.58875 553.848851 
L 1497.58875 7.2 
" style="fill:none;stroke:#000000;stroke-linecap:square;stroke-linejoin:miter;stroke-width:0.8;"/>
   </g>
   <g id="patch_5">
    <path d="M 63.99875 553.848851 
L 1497.58875 553.848851 
" style="fill:none;stroke:#000000;stroke-linecap:square;stroke-linejoin:miter;stroke-width:0.8;"/>
   </g>
   <g id="patch_6">
    <path d="M 63.99875 7.2 
L 1497.58875 7.2 
" style="fill:none;stroke:#000000;stroke-linecap:square;stroke-linejoin:miter;stroke-width:0.8;"/>
   </g>
   <g id="text_39">
    <!-- 10 -->
    <g transform="translate(133.904733 222.46263)scale(0.24 -0.24)">
     <use xlink:href="#TimesNewRomanPSMT-49"/>
     <use x="50" xlink:href="#TimesNewRomanPSMT-48"/>
    </g>
   </g>
   <g id="text_40">
    <!-- 9 -->
    <g transform="translate(181.081697 255.001252)scale(0.24 -0.24)">
     <defs>
      <path d="M 5.28125 -1.375 
L 5.28125 0.4375 
Q 11.625 0.53125 17.09375 3.390625 
Q 22.5625 6.25 27.65625 13.375 
Q 32.765625 20.515625 34.765625 29.046875 
Q 27.09375 24.125 20.90625 24.125 
Q 13.921875 24.125 8.9375 29.515625 
Q 3.953125 34.90625 3.953125 43.84375 
Q 3.953125 52.546875 8.9375 59.328125 
Q 14.9375 67.578125 24.609375 67.578125 
Q 32.765625 67.578125 38.578125 60.84375 
Q 45.703125 52.484375 45.703125 40.234375 
Q 45.703125 29.203125 40.28125 19.65625 
Q 34.859375 10.109375 25.203125 3.8125 
Q 17.328125 -1.375 8.0625 -1.375 
z
M 35.546875 32.671875 
Q 36.421875 39.015625 36.421875 42.828125 
Q 36.421875 47.5625 34.8125 53.046875 
Q 33.203125 58.546875 30.25 61.46875 
Q 27.296875 64.40625 23.53125 64.40625 
Q 19.1875 64.40625 15.90625 60.5 
Q 12.640625 56.59375 12.640625 48.875 
Q 12.640625 38.578125 17 32.765625 
Q 20.171875 28.5625 24.8125 28.5625 
Q 27.046875 28.5625 30.125 29.640625 
Q 33.203125 30.71875 35.546875 32.671875 
z
" id="TimesNewRomanPSMT-57"/>
     </defs>
     <use xlink:href="#TimesNewRomanPSMT-57"/>
    </g>
   </g>
   <g id="text_41">
    <!-- 5 -->
    <g transform="translate(228.258662 385.155741)scale(0.24 -0.24)">
     <use xlink:href="#TimesNewRomanPSMT-53"/>
    </g>
   </g>
   <g id="text_42">
    <!-- 8 -->
    <g transform="translate(275.435626 287.539874)scale(0.24 -0.24)">
     <use xlink:href="#TimesNewRomanPSMT-56"/>
    </g>
   </g>
   <g id="text_43">
    <!-- 7 -->
    <g transform="translate(322.61259 320.078497)scale(0.24 -0.24)">
     <use xlink:href="#TimesNewRomanPSMT-55"/>
    </g>
   </g>
   <g id="text_44">
    <!-- 7 -->
    <g transform="translate(369.789554 320.078497)scale(0.24 -0.24)">
     <use xlink:href="#TimesNewRomanPSMT-55"/>
    </g>
   </g>
   <g id="text_45">
    <!-- 8 -->
    <g transform="translate(416.966518 287.539874)scale(0.24 -0.24)">
     <use xlink:href="#TimesNewRomanPSMT-56"/>
    </g>
   </g>
   <g id="text_46">
    <!-- 13 -->
    <g transform="translate(464.143483 124.846764)scale(0.24 -0.24)">
     <use xlink:href="#TimesNewRomanPSMT-49"/>
     <use x="50" xlink:href="#TimesNewRomanPSMT-51"/>
    </g>
   </g>
   <g id="text_47">
    <!-- 8 -->
    <g transform="translate(511.320447 287.539874)scale(0.24 -0.24)">
     <use xlink:href="#TimesNewRomanPSMT-56"/>
    </g>
   </g>
   <g id="text_48">
    <!-- 7 -->
    <g transform="translate(558.497411 320.078497)scale(0.24 -0.24)">
     <use xlink:href="#TimesNewRomanPSMT-55"/>
    </g>
   </g>
   <g id="text_49">
    <!-- 5 -->
    <g transform="translate(605.674375 385.155741)scale(0.24 -0.24)">
     <use xlink:href="#TimesNewRomanPSMT-53"/>
    </g>
   </g>
   <g id="text_50">
    <!-- 13 -->
    <g transform="translate(652.851339 124.846764)scale(0.24 -0.24)">
     <use xlink:href="#TimesNewRomanPSMT-49"/>
     <use x="50" xlink:href="#TimesNewRomanPSMT-51"/>
    </g>
   </g>
   <g id="text_51">
    <!-- 7 -->
    <g transform="translate(700.028304 320.078497)scale(0.24 -0.24)">
     <use xlink:href="#TimesNewRomanPSMT-55"/>
    </g>
   </g>
   <g id="text_52">
    <!-- 10 -->
    <g transform="translate(747.205268 222.46263)scale(0.24 -0.24)">
     <use xlink:href="#TimesNewRomanPSMT-49"/>
     <use x="50" xlink:href="#TimesNewRomanPSMT-48"/>
    </g>
   </g>
   <g id="text_53">
    <!-- 13 -->
    <g transform="translate(794.382232 124.846764)scale(0.24 -0.24)">
     <use xlink:href="#TimesNewRomanPSMT-49"/>
     <use x="50" xlink:href="#TimesNewRomanPSMT-51"/>
    </g>
   </g>
   <g id="text_54">
    <!-- 7 -->
    <g transform="translate(841.559196 320.078497)scale(0.24 -0.24)">
     <use xlink:href="#TimesNewRomanPSMT-55"/>
    </g>
   </g>
   <g id="text_55">
    <!-- 10 -->
    <g transform="translate(888.736161 222.46263)scale(0.24 -0.24)">
     <use xlink:href="#TimesNewRomanPSMT-49"/>
     <use x="50" xlink:href="#TimesNewRomanPSMT-48"/>
    </g>
   </g>
   <g id="text_56">
    <!-- 9 -->
    <g transform="translate(935.913125 255.001252)scale(0.24 -0.24)">
     <use xlink:href="#TimesNewRomanPSMT-57"/>
    </g>
   </g>
   <g id="text_57">
    <!-- 4 -->
    <g transform="translate(983.090089 417.694363)scale(0.24 -0.24)">
     <use xlink:href="#TimesNewRomanPSMT-52"/>
    </g>
   </g>
   <g id="text_58">
    <!-- 8 -->
    <g transform="translate(1030.267053 287.539874)scale(0.24 -0.24)">
     <use xlink:href="#TimesNewRomanPSMT-56"/>
    </g>
   </g>
   <g id="text_59">
    <!-- 7 -->
    <g transform="translate(1077.444017 320.078497)scale(0.24 -0.24)">
     <use xlink:href="#TimesNewRomanPSMT-55"/>
    </g>
   </g>
   <g id="text_60">
    <!-- 8 -->
    <g transform="translate(1124.620982 287.539874)scale(0.24 -0.24)">
     <use xlink:href="#TimesNewRomanPSMT-56"/>
    </g>
   </g>
   <g id="text_61">
    <!-- 16 -->
    <g transform="translate(1171.797946 27.230898)scale(0.24 -0.24)">
     <use xlink:href="#TimesNewRomanPSMT-49"/>
     <use x="50" xlink:href="#TimesNewRomanPSMT-54"/>
    </g>
   </g>
   <g id="text_62">
    <!-- 8 -->
    <g transform="translate(1218.97491 287.539874)scale(0.24 -0.24)">
     <use xlink:href="#TimesNewRomanPSMT-56"/>
    </g>
   </g>
   <g id="text_63">
    <!-- 11 -->
    <g transform="translate(1266.151874 189.924008)scale(0.24 -0.24)">
     <use xlink:href="#TimesNewRomanPSMT-49"/>
     <use x="46.25" xlink:href="#TimesNewRomanPSMT-49"/>
    </g>
   </g>
   <g id="text_64">
    <!-- 2 -->
    <g transform="translate(1313.328838 482.771607)scale(0.24 -0.24)">
     <use xlink:href="#TimesNewRomanPSMT-50"/>
    </g>
   </g>
   <g id="text_65">
    <!-- 10 -->
    <g transform="translate(1360.505803 222.46263)scale(0.24 -0.24)">
     <use xlink:href="#TimesNewRomanPSMT-49"/>
     <use x="50" xlink:href="#TimesNewRomanPSMT-48"/>
    </g>
   </g>
   <g id="text_66">
    <!-- 5 -->
    <g transform="translate(1407.682767 385.155741)scale(0.24 -0.24)">
     <use xlink:href="#TimesNewRomanPSMT-53"/>
    </g>
   </g>
   <g id="patch_7">
    <path clip-path="url(#p8d9cc96096)" d="M 129.161932 553.848851 
L 158.647534 553.848851 
L 158.647534 228.46263 
L 129.161932 228.46263 
z
" style="fill:url(#h53d10546a0);stroke:#000000;stroke-linejoin:miter;"/>
   </g>
   <g id="patch_8">
    <path clip-path="url(#p8d9cc96096)" d="M 176.338896 553.848851 
L 205.824499 553.848851 
L 205.824499 261.001252 
L 176.338896 261.001252 
z
" style="fill:url(#h0fcf23a7b6);stroke:#000000;stroke-linejoin:miter;"/>
   </g>
   <g id="patch_9">
    <path clip-path="url(#p8d9cc96096)" d="M 223.51586 553.848851 
L 253.001463 553.848851 
L 253.001463 391.155741 
L 223.51586 391.155741 
z
" style="fill:url(#h53d10546a0);stroke:#000000;stroke-linejoin:miter;"/>
   </g>
   <g id="patch_10">
    <path clip-path="url(#p8d9cc96096)" d="M 270.692824 553.848851 
L 300.178427 553.848851 
L 300.178427 293.539874 
L 270.692824 293.539874 
z
" style="fill:url(#h0fcf23a7b6);stroke:#000000;stroke-linejoin:miter;"/>
   </g>
   <g id="patch_11">
    <path clip-path="url(#p8d9cc96096)" d="M 317.869789 553.848851 
L 347.355391 553.848851 
L 347.355391 326.078497 
L 317.869789 326.078497 
z
" style="fill:url(#h53d10546a0);stroke:#000000;stroke-linejoin:miter;"/>
   </g>
   <g id="patch_12">
    <path clip-path="url(#p8d9cc96096)" d="M 365.046753 553.848851 
L 394.532356 553.848851 
L 394.532356 326.078497 
L 365.046753 326.078497 
z
" style="fill:url(#h0fcf23a7b6);stroke:#000000;stroke-linejoin:miter;"/>
   </g>
   <g id="patch_13">
    <path clip-path="url(#p8d9cc96096)" d="M 412.223717 553.848851 
L 441.70932 553.848851 
L 441.70932 293.539874 
L 412.223717 293.539874 
z
" style="fill:url(#h53d10546a0);stroke:#000000;stroke-linejoin:miter;"/>
   </g>
   <g id="patch_14">
    <path clip-path="url(#p8d9cc96096)" d="M 459.400681 553.848851 
L 488.886284 553.848851 
L 488.886284 130.846764 
L 459.400681 130.846764 
z
" style="fill:url(#h0fcf23a7b6);stroke:#000000;stroke-linejoin:miter;"/>
   </g>
   <g id="patch_15">
    <path clip-path="url(#p8d9cc96096)" d="M 506.577646 553.848851 
L 536.063248 553.848851 
L 536.063248 293.539874 
L 506.577646 293.539874 
z
" style="fill:url(#h53d10546a0);stroke:#000000;stroke-linejoin:miter;"/>
   </g>
   <g id="patch_16">
    <path clip-path="url(#p8d9cc96096)" d="M 553.75461 553.848851 
L 583.240212 553.848851 
L 583.240212 326.078497 
L 553.75461 326.078497 
z
" style="fill:url(#h0fcf23a7b6);stroke:#000000;stroke-linejoin:miter;"/>
   </g>
   <g id="patch_17">
    <path clip-path="url(#p8d9cc96096)" d="M 600.931574 553.848851 
L 630.417177 553.848851 
L 630.417177 391.155741 
L 600.931574 391.155741 
z
" style="fill:url(#h53d10546a0);stroke:#000000;stroke-linejoin:miter;"/>
   </g>
   <g id="patch_18">
    <path clip-path="url(#p8d9cc96096)" d="M 648.108538 553.848851 
L 677.594141 553.848851 
L 677.594141 130.846764 
L 648.108538 130.846764 
z
" style="fill:url(#h0fcf23a7b6);stroke:#000000;stroke-linejoin:miter;"/>
   </g>
   <g id="patch_19">
    <path clip-path="url(#p8d9cc96096)" d="M 695.285502 553.848851 
L 724.771105 553.848851 
L 724.771105 326.078497 
L 695.285502 326.078497 
z
" style="fill:url(#h53d10546a0);stroke:#000000;stroke-linejoin:miter;"/>
   </g>
   <g id="patch_20">
    <path clip-path="url(#p8d9cc96096)" d="M 742.462467 553.848851 
L 771.948069 553.848851 
L 771.948069 228.46263 
L 742.462467 228.46263 
z
" style="fill:url(#h0fcf23a7b6);stroke:#000000;stroke-linejoin:miter;"/>
   </g>
   <g id="patch_21">
    <path clip-path="url(#p8d9cc96096)" d="M 789.639431 553.848851 
L 819.125033 553.848851 
L 819.125033 130.846764 
L 789.639431 130.846764 
z
" style="fill:url(#h53d10546a0);stroke:#000000;stroke-linejoin:miter;"/>
   </g>
   <g id="patch_22">
    <path clip-path="url(#p8d9cc96096)" d="M 836.816395 553.848851 
L 866.301998 553.848851 
L 866.301998 326.078497 
L 836.816395 326.078497 
z
" style="fill:url(#h0fcf23a7b6);stroke:#000000;stroke-linejoin:miter;"/>
   </g>
   <g id="patch_23">
    <path clip-path="url(#p8d9cc96096)" d="M 883.993359 553.848851 
L 913.478962 553.848851 
L 913.478962 228.46263 
L 883.993359 228.46263 
z
" style="fill:url(#h53d10546a0);stroke:#000000;stroke-linejoin:miter;"/>
   </g>
   <g id="patch_24">
    <path clip-path="url(#p8d9cc96096)" d="M 931.170323 553.848851 
L 960.655926 553.848851 
L 960.655926 261.001252 
L 931.170323 261.001252 
z
" style="fill:url(#h0fcf23a7b6);stroke:#000000;stroke-linejoin:miter;"/>
   </g>
   <g id="patch_25">
    <path clip-path="url(#p8d9cc96096)" d="M 978.347288 553.848851 
L 1007.83289 553.848851 
L 1007.83289 423.694363 
L 978.347288 423.694363 
z
" style="fill:url(#h53d10546a0);stroke:#000000;stroke-linejoin:miter;"/>
   </g>
   <g id="patch_26">
    <path clip-path="url(#p8d9cc96096)" d="M 1025.524252 553.848851 
L 1055.009854 553.848851 
L 1055.009854 293.539874 
L 1025.524252 293.539874 
z
" style="fill:url(#h0fcf23a7b6);stroke:#000000;stroke-linejoin:miter;"/>
   </g>
   <g id="patch_27">
    <path clip-path="url(#p8d9cc96096)" d="M 1072.701216 553.848851 
L 1102.186819 553.848851 
L 1102.186819 326.078497 
L 1072.701216 326.078497 
z
" style="fill:url(#h53d10546a0);stroke:#000000;stroke-linejoin:miter;"/>
   </g>
   <g id="patch_28">
    <path clip-path="url(#p8d9cc96096)" d="M 1119.87818 553.848851 
L 1149.363783 553.848851 
L 1149.363783 293.539874 
L 1119.87818 293.539874 
z
" style="fill:url(#h0fcf23a7b6);stroke:#000000;stroke-linejoin:miter;"/>
   </g>
   <g id="patch_29">
    <path clip-path="url(#p8d9cc96096)" d="M 1167.055144 553.848851 
L 1196.540747 553.848851 
L 1196.540747 33.230898 
L 1167.055144 33.230898 
z
" style="fill:url(#h53d10546a0);stroke:#000000;stroke-linejoin:miter;"/>
   </g>
   <g id="patch_30">
    <path clip-path="url(#p8d9cc96096)" d="M 1214.232109 553.848851 
L 1243.717711 553.848851 
L 1243.717711 293.539874 
L 1214.232109 293.539874 
z
" style="fill:url(#h0fcf23a7b6);stroke:#000000;stroke-linejoin:miter;"/>
   </g>
   <g id="patch_31">
    <path clip-path="url(#p8d9cc96096)" d="M 1261.409073 553.848851 
L 1290.894676 553.848851 
L 1290.894676 195.924008 
L 1261.409073 195.924008 
z
" style="fill:url(#h53d10546a0);stroke:#000000;stroke-linejoin:miter;"/>
   </g>
   <g id="patch_32">
    <path clip-path="url(#p8d9cc96096)" d="M 1308.586037 553.848851 
L 1338.07164 553.848851 
L 1338.07164 488.771607 
L 1308.586037 488.771607 
z
" style="fill:url(#h0fcf23a7b6);stroke:#000000;stroke-linejoin:miter;"/>
   </g>
   <g id="patch_33">
    <path clip-path="url(#p8d9cc96096)" d="M 1355.763001 553.848851 
L 1385.248604 553.848851 
L 1385.248604 228.46263 
L 1355.763001 228.46263 
z
" style="fill:url(#h53d10546a0);stroke:#000000;stroke-linejoin:miter;"/>
   </g>
   <g id="patch_34">
    <path clip-path="url(#p8d9cc96096)" d="M 1402.939966 553.848851 
L 1432.425568 553.848851 
L 1432.425568 391.155741 
L 1402.939966 391.155741 
z
" style="fill:url(#h0fcf23a7b6);stroke:#000000;stroke-linejoin:miter;"/>
   </g>
  </g>
 </g>
 <defs>
  <clipPath id="p8d9cc96096">
   <rect height="546.648851" width="1433.59" x="63.99875" y="7.2"/>
  </clipPath>
 </defs>
 <defs>
  <pattern height="72" id="h53d10546a0" patternUnits="userSpaceOnUse" width="72" x="0" y="0">
   <rect fill="#ffffff" height="73" width="73" x="0" y="0"/>
   <path style="fill:#000000;stroke:#000000;stroke-linecap:butt;stroke-linejoin:miter;stroke-width:1.0;"/>
  </pattern>
  <pattern height="72" id="h0fcf23a7b6" patternUnits="userSpaceOnUse" width="72" x="0" y="0">
   <rect fill="#ffffff" height="73" width="73" x="0" y="0"/>
   <path d="M -36 36 
L 36 -36 
M -30 42 
L 42 -30 
M -24 48 
L 48 -24 
M -18 54 
L 54 -18 
M -12 60 
L 60 -12 
M -6 66 
L 66 -6 
M 0 72 
L 72 0 
M 6 78 
L 78 6 
M 12 84 
L 84 12 
M 18 90 
L 90 18 
M 24 96 
L 96 24 
M 30 102 
L 102 30 
M 36 108 
L 108 36 
" style="fill:#000000;stroke:#000000;stroke-linecap:butt;stroke-linejoin:miter;stroke-width:1.0;"/>
  </pattern>
 </defs>
</svg>
