<?xml version="1.0" encoding="utf-8" standalone="no"?>
<!DOCTYPE svg PUBLIC "-//W3C//DTD SVG 1.1//EN"
  "http://www.w3.org/Graphics/SVG/1.1/DTD/svg11.dtd">
<!-- Created with matplotlib (https://matplotlib.org/) -->
<svg height="587.799471pt" version="1.1" viewBox="0 0 1390.18125 587.799471" width="1390.18125pt" xmlns="http://www.w3.org/2000/svg" xmlns:xlink="http://www.w3.org/1999/xlink">
 <metadata>
  <rdf:RDF xmlns:cc="http://creativecommons.org/ns#" xmlns:dc="http://purl.org/dc/elements/1.1/" xmlns:rdf="http://www.w3.org/1999/02/22-rdf-syntax-ns#">
   <cc:Work>
    <dc:type rdf:resource="http://purl.org/dc/dcmitype/StillImage"/>
    <dc:date>2021-05-12T15:41:32.652804</dc:date>
    <dc:format>image/svg+xml</dc:format>
    <dc:creator>
     <cc:Agent>
      <dc:title>Matplotlib v3.3.4, https://matplotlib.org/</dc:title>
     </cc:Agent>
    </dc:creator>
   </cc:Work>
  </rdf:RDF>
 </metadata>
 <defs>
  <style type="text/css">*{stroke-linecap:butt;stroke-linejoin:round;}</style>
 </defs>
 <g id="figure_1">
  <g id="patch_1">
   <path d="M 0 587.799471 
L 1390.18125 587.799471 
L 1390.18125 0 
L 0 0 
z
" style="fill:#ffffff;"/>
  </g>
  <g id="axes_1">
   <g id="patch_2">
    <path d="M 43.78125 521.278125 
L 1382.98125 521.278125 
L 1382.98125 22.318125 
L 43.78125 22.318125 
z
" style="fill:#ffffff;"/>
   </g>
   <g id="matplotlib.axis_1">
    <g id="xtick_1">
     <g id="line2d_1">
      <defs>
       <path d="M 0 0 
L 0 3.5 
" id="m66b6de8fcd" style="stroke:#000000;stroke-width:0.8;"/>
      </defs>
      <g>
       <use style="stroke:#000000;stroke-width:0.8;" x="104.653977" xlink:href="#m66b6de8fcd" y="521.278125"/>
      </g>
     </g>
     <g id="text_1">
      <!-- bands-0 -->
      <g transform="translate(88.564985 555.029659)rotate(-30)scale(0.1 -0.1)">
       <defs>
        <path d="M 48.6875 27.296875 
Q 48.6875 37.203125 44.609375 42.84375 
Q 40.53125 48.484375 33.40625 48.484375 
Q 26.265625 48.484375 22.1875 42.84375 
Q 18.109375 37.203125 18.109375 27.296875 
Q 18.109375 17.390625 22.1875 11.75 
Q 26.265625 6.109375 33.40625 6.109375 
Q 40.53125 6.109375 44.609375 11.75 
Q 48.6875 17.390625 48.6875 27.296875 
z
M 18.109375 46.390625 
Q 20.953125 51.265625 25.265625 53.625 
Q 29.59375 56 35.59375 56 
Q 45.5625 56 51.78125 48.09375 
Q 58.015625 40.1875 58.015625 27.296875 
Q 58.015625 14.40625 51.78125 6.484375 
Q 45.5625 -1.421875 35.59375 -1.421875 
Q 29.59375 -1.421875 25.265625 0.953125 
Q 20.953125 3.328125 18.109375 8.203125 
L 18.109375 0 
L 9.078125 0 
L 9.078125 75.984375 
L 18.109375 75.984375 
z
" id="DejaVuSans-98"/>
        <path d="M 34.28125 27.484375 
Q 23.390625 27.484375 19.1875 25 
Q 14.984375 22.515625 14.984375 16.5 
Q 14.984375 11.71875 18.140625 8.90625 
Q 21.296875 6.109375 26.703125 6.109375 
Q 34.1875 6.109375 38.703125 11.40625 
Q 43.21875 16.703125 43.21875 25.484375 
L 43.21875 27.484375 
z
M 52.203125 31.203125 
L 52.203125 0 
L 43.21875 0 
L 43.21875 8.296875 
Q 40.140625 3.328125 35.546875 0.953125 
Q 30.953125 -1.421875 24.3125 -1.421875 
Q 15.921875 -1.421875 10.953125 3.296875 
Q 6 8.015625 6 15.921875 
Q 6 25.140625 12.171875 29.828125 
Q 18.359375 34.515625 30.609375 34.515625 
L 43.21875 34.515625 
L 43.21875 35.40625 
Q 43.21875 41.609375 39.140625 45 
Q 35.0625 48.390625 27.6875 48.390625 
Q 23 48.390625 18.546875 47.265625 
Q 14.109375 46.140625 10.015625 43.890625 
L 10.015625 52.203125 
Q 14.9375 54.109375 19.578125 55.046875 
Q 24.21875 56 28.609375 56 
Q 40.484375 56 46.34375 49.84375 
Q 52.203125 43.703125 52.203125 31.203125 
z
" id="DejaVuSans-97"/>
        <path d="M 54.890625 33.015625 
L 54.890625 0 
L 45.90625 0 
L 45.90625 32.71875 
Q 45.90625 40.484375 42.875 44.328125 
Q 39.84375 48.1875 33.796875 48.1875 
Q 26.515625 48.1875 22.3125 43.546875 
Q 18.109375 38.921875 18.109375 30.90625 
L 18.109375 0 
L 9.078125 0 
L 9.078125 54.6875 
L 18.109375 54.6875 
L 18.109375 46.1875 
Q 21.34375 51.125 25.703125 53.5625 
Q 30.078125 56 35.796875 56 
Q 45.21875 56 50.046875 50.171875 
Q 54.890625 44.34375 54.890625 33.015625 
z
" id="DejaVuSans-110"/>
        <path d="M 45.40625 46.390625 
L 45.40625 75.984375 
L 54.390625 75.984375 
L 54.390625 0 
L 45.40625 0 
L 45.40625 8.203125 
Q 42.578125 3.328125 38.25 0.953125 
Q 33.9375 -1.421875 27.875 -1.421875 
Q 17.96875 -1.421875 11.734375 6.484375 
Q 5.515625 14.40625 5.515625 27.296875 
Q 5.515625 40.1875 11.734375 48.09375 
Q 17.96875 56 27.875 56 
Q 33.9375 56 38.25 53.625 
Q 42.578125 51.265625 45.40625 46.390625 
z
M 14.796875 27.296875 
Q 14.796875 17.390625 18.875 11.75 
Q 22.953125 6.109375 30.078125 6.109375 
Q 37.203125 6.109375 41.296875 11.75 
Q 45.40625 17.390625 45.40625 27.296875 
Q 45.40625 37.203125 41.296875 42.84375 
Q 37.203125 48.484375 30.078125 48.484375 
Q 22.953125 48.484375 18.875 42.84375 
Q 14.796875 37.203125 14.796875 27.296875 
z
" id="DejaVuSans-100"/>
        <path d="M 44.28125 53.078125 
L 44.28125 44.578125 
Q 40.484375 46.53125 36.375 47.5 
Q 32.28125 48.484375 27.875 48.484375 
Q 21.1875 48.484375 17.84375 46.4375 
Q 14.5 44.390625 14.5 40.28125 
Q 14.5 37.15625 16.890625 35.375 
Q 19.28125 33.59375 26.515625 31.984375 
L 29.59375 31.296875 
Q 39.15625 29.25 43.1875 25.515625 
Q 47.21875 21.78125 47.21875 15.09375 
Q 47.21875 7.46875 41.1875 3.015625 
Q 35.15625 -1.421875 24.609375 -1.421875 
Q 20.21875 -1.421875 15.453125 -0.5625 
Q 10.6875 0.296875 5.421875 2 
L 5.421875 11.28125 
Q 10.40625 8.6875 15.234375 7.390625 
Q 20.0625 6.109375 24.8125 6.109375 
Q 31.15625 6.109375 34.5625 8.28125 
Q 37.984375 10.453125 37.984375 14.40625 
Q 37.984375 18.0625 35.515625 20.015625 
Q 33.0625 21.96875 24.703125 23.78125 
L 21.578125 24.515625 
Q 13.234375 26.265625 9.515625 29.90625 
Q 5.8125 33.546875 5.8125 39.890625 
Q 5.8125 47.609375 11.28125 51.796875 
Q 16.75 56 26.8125 56 
Q 31.78125 56 36.171875 55.265625 
Q 40.578125 54.546875 44.28125 53.078125 
z
" id="DejaVuSans-115"/>
        <path d="M 4.890625 31.390625 
L 31.203125 31.390625 
L 31.203125 23.390625 
L 4.890625 23.390625 
z
" id="DejaVuSans-45"/>
        <path d="M 31.78125 66.40625 
Q 24.171875 66.40625 20.328125 58.90625 
Q 16.5 51.421875 16.5 36.375 
Q 16.5 21.390625 20.328125 13.890625 
Q 24.171875 6.390625 31.78125 6.390625 
Q 39.453125 6.390625 43.28125 13.890625 
Q 47.125 21.390625 47.125 36.375 
Q 47.125 51.421875 43.28125 58.90625 
Q 39.453125 66.40625 31.78125 66.40625 
z
M 31.78125 74.21875 
Q 44.046875 74.21875 50.515625 64.515625 
Q 56.984375 54.828125 56.984375 36.375 
Q 56.984375 17.96875 50.515625 8.265625 
Q 44.046875 -1.421875 31.78125 -1.421875 
Q 19.53125 -1.421875 13.0625 8.265625 
Q 6.59375 17.96875 6.59375 36.375 
Q 6.59375 54.828125 13.0625 64.515625 
Q 19.53125 74.21875 31.78125 74.21875 
z
" id="DejaVuSans-48"/>
       </defs>
       <use xlink:href="#DejaVuSans-98"/>
       <use x="63.476562" xlink:href="#DejaVuSans-97"/>
       <use x="124.755859" xlink:href="#DejaVuSans-110"/>
       <use x="188.134766" xlink:href="#DejaVuSans-100"/>
       <use x="251.611328" xlink:href="#DejaVuSans-115"/>
       <use x="303.710938" xlink:href="#DejaVuSans-45"/>
       <use x="339.794922" xlink:href="#DejaVuSans-48"/>
      </g>
     </g>
    </g>
    <g id="xtick_2">
     <g id="line2d_2">
      <g>
       <use style="stroke:#000000;stroke-width:0.8;" x="149.744886" xlink:href="#m66b6de8fcd" y="521.278125"/>
      </g>
     </g>
     <g id="text_2">
      <!-- glass-0 -->
      <g transform="translate(135.690377 552.68044)rotate(-30)scale(0.1 -0.1)">
       <defs>
        <path d="M 45.40625 27.984375 
Q 45.40625 37.75 41.375 43.109375 
Q 37.359375 48.484375 30.078125 48.484375 
Q 22.859375 48.484375 18.828125 43.109375 
Q 14.796875 37.75 14.796875 27.984375 
Q 14.796875 18.265625 18.828125 12.890625 
Q 22.859375 7.515625 30.078125 7.515625 
Q 37.359375 7.515625 41.375 12.890625 
Q 45.40625 18.265625 45.40625 27.984375 
z
M 54.390625 6.78125 
Q 54.390625 -7.171875 48.1875 -13.984375 
Q 42 -20.796875 29.203125 -20.796875 
Q 24.46875 -20.796875 20.265625 -20.09375 
Q 16.0625 -19.390625 12.109375 -17.921875 
L 12.109375 -9.1875 
Q 16.0625 -11.328125 19.921875 -12.34375 
Q 23.78125 -13.375 27.78125 -13.375 
Q 36.625 -13.375 41.015625 -8.765625 
Q 45.40625 -4.15625 45.40625 5.171875 
L 45.40625 9.625 
Q 42.625 4.78125 38.28125 2.390625 
Q 33.9375 0 27.875 0 
Q 17.828125 0 11.671875 7.65625 
Q 5.515625 15.328125 5.515625 27.984375 
Q 5.515625 40.671875 11.671875 48.328125 
Q 17.828125 56 27.875 56 
Q 33.9375 56 38.28125 53.609375 
Q 42.625 51.21875 45.40625 46.390625 
L 45.40625 54.6875 
L 54.390625 54.6875 
z
" id="DejaVuSans-103"/>
        <path d="M 9.421875 75.984375 
L 18.40625 75.984375 
L 18.40625 0 
L 9.421875 0 
z
" id="DejaVuSans-108"/>
       </defs>
       <use xlink:href="#DejaVuSans-103"/>
       <use x="63.476562" xlink:href="#DejaVuSans-108"/>
       <use x="91.259766" xlink:href="#DejaVuSans-97"/>
       <use x="152.539062" xlink:href="#DejaVuSans-115"/>
       <use x="204.638672" xlink:href="#DejaVuSans-115"/>
       <use x="256.738281" xlink:href="#DejaVuSans-45"/>
       <use x="292.822266" xlink:href="#DejaVuSans-48"/>
      </g>
     </g>
    </g>
    <g id="xtick_3">
     <g id="line2d_3">
      <g>
       <use style="stroke:#000000;stroke-width:0.8;" x="194.835795" xlink:href="#m66b6de8fcd" y="521.278125"/>
      </g>
     </g>
     <g id="text_3">
      <!-- tae-0 -->
      <g transform="translate(184.882729 547.944502)rotate(-30)scale(0.1 -0.1)">
       <defs>
        <path d="M 18.3125 70.21875 
L 18.3125 54.6875 
L 36.8125 54.6875 
L 36.8125 47.703125 
L 18.3125 47.703125 
L 18.3125 18.015625 
Q 18.3125 11.328125 20.140625 9.421875 
Q 21.96875 7.515625 27.59375 7.515625 
L 36.8125 7.515625 
L 36.8125 0 
L 27.59375 0 
Q 17.1875 0 13.234375 3.875 
Q 9.28125 7.765625 9.28125 18.015625 
L 9.28125 47.703125 
L 2.6875 47.703125 
L 2.6875 54.6875 
L 9.28125 54.6875 
L 9.28125 70.21875 
z
" id="DejaVuSans-116"/>
        <path d="M 56.203125 29.59375 
L 56.203125 25.203125 
L 14.890625 25.203125 
Q 15.484375 15.921875 20.484375 11.0625 
Q 25.484375 6.203125 34.421875 6.203125 
Q 39.59375 6.203125 44.453125 7.46875 
Q 49.3125 8.734375 54.109375 11.28125 
L 54.109375 2.78125 
Q 49.265625 0.734375 44.1875 -0.34375 
Q 39.109375 -1.421875 33.890625 -1.421875 
Q 20.796875 -1.421875 13.15625 6.1875 
Q 5.515625 13.8125 5.515625 26.8125 
Q 5.515625 40.234375 12.765625 48.109375 
Q 20.015625 56 32.328125 56 
Q 43.359375 56 49.78125 48.890625 
Q 56.203125 41.796875 56.203125 29.59375 
z
M 47.21875 32.234375 
Q 47.125 39.59375 43.09375 43.984375 
Q 39.0625 48.390625 32.421875 48.390625 
Q 24.90625 48.390625 20.390625 44.140625 
Q 15.875 39.890625 15.1875 32.171875 
z
" id="DejaVuSans-101"/>
       </defs>
       <use xlink:href="#DejaVuSans-116"/>
       <use x="39.208984" xlink:href="#DejaVuSans-97"/>
       <use x="100.488281" xlink:href="#DejaVuSans-101"/>
       <use x="162.011719" xlink:href="#DejaVuSans-45"/>
       <use x="198.095703" xlink:href="#DejaVuSans-48"/>
      </g>
     </g>
    </g>
    <g id="xtick_4">
     <g id="line2d_4">
      <g>
       <use style="stroke:#000000;stroke-width:0.8;" x="239.926705" xlink:href="#m66b6de8fcd" y="521.278125"/>
      </g>
     </g>
     <g id="text_4">
      <!-- yeast-1 -->
      <g transform="translate(225.155018 553.508565)rotate(-30)scale(0.1 -0.1)">
       <defs>
        <path d="M 32.171875 -5.078125 
Q 28.375 -14.84375 24.75 -17.8125 
Q 21.140625 -20.796875 15.09375 -20.796875 
L 7.90625 -20.796875 
L 7.90625 -13.28125 
L 13.1875 -13.28125 
Q 16.890625 -13.28125 18.9375 -11.515625 
Q 21 -9.765625 23.484375 -3.21875 
L 25.09375 0.875 
L 2.984375 54.6875 
L 12.5 54.6875 
L 29.59375 11.921875 
L 46.6875 54.6875 
L 56.203125 54.6875 
z
" id="DejaVuSans-121"/>
        <path d="M 12.40625 8.296875 
L 28.515625 8.296875 
L 28.515625 63.921875 
L 10.984375 60.40625 
L 10.984375 69.390625 
L 28.421875 72.90625 
L 38.28125 72.90625 
L 38.28125 8.296875 
L 54.390625 8.296875 
L 54.390625 0 
L 12.40625 0 
z
" id="DejaVuSans-49"/>
       </defs>
       <use xlink:href="#DejaVuSans-121"/>
       <use x="59.179688" xlink:href="#DejaVuSans-101"/>
       <use x="120.703125" xlink:href="#DejaVuSans-97"/>
       <use x="181.982422" xlink:href="#DejaVuSans-115"/>
       <use x="234.082031" xlink:href="#DejaVuSans-116"/>
       <use x="273.291016" xlink:href="#DejaVuSans-45"/>
       <use x="309.375" xlink:href="#DejaVuSans-49"/>
      </g>
     </g>
    </g>
    <g id="xtick_5">
     <g id="line2d_5">
      <g>
       <use style="stroke:#000000;stroke-width:0.8;" x="285.017614" xlink:href="#m66b6de8fcd" y="521.278125"/>
      </g>
     </g>
     <g id="text_5">
      <!-- ecoli-1 -->
      <g transform="translate(271.979331 551.507002)rotate(-30)scale(0.1 -0.1)">
       <defs>
        <path d="M 48.78125 52.59375 
L 48.78125 44.1875 
Q 44.96875 46.296875 41.140625 47.34375 
Q 37.3125 48.390625 33.40625 48.390625 
Q 24.65625 48.390625 19.8125 42.84375 
Q 14.984375 37.3125 14.984375 27.296875 
Q 14.984375 17.28125 19.8125 11.734375 
Q 24.65625 6.203125 33.40625 6.203125 
Q 37.3125 6.203125 41.140625 7.25 
Q 44.96875 8.296875 48.78125 10.40625 
L 48.78125 2.09375 
Q 45.015625 0.34375 40.984375 -0.53125 
Q 36.96875 -1.421875 32.421875 -1.421875 
Q 20.0625 -1.421875 12.78125 6.34375 
Q 5.515625 14.109375 5.515625 27.296875 
Q 5.515625 40.671875 12.859375 48.328125 
Q 20.21875 56 33.015625 56 
Q 37.15625 56 41.109375 55.140625 
Q 45.0625 54.296875 48.78125 52.59375 
z
" id="DejaVuSans-99"/>
        <path d="M 30.609375 48.390625 
Q 23.390625 48.390625 19.1875 42.75 
Q 14.984375 37.109375 14.984375 27.296875 
Q 14.984375 17.484375 19.15625 11.84375 
Q 23.34375 6.203125 30.609375 6.203125 
Q 37.796875 6.203125 41.984375 11.859375 
Q 46.1875 17.53125 46.1875 27.296875 
Q 46.1875 37.015625 41.984375 42.703125 
Q 37.796875 48.390625 30.609375 48.390625 
z
M 30.609375 56 
Q 42.328125 56 49.015625 48.375 
Q 55.71875 40.765625 55.71875 27.296875 
Q 55.71875 13.875 49.015625 6.21875 
Q 42.328125 -1.421875 30.609375 -1.421875 
Q 18.84375 -1.421875 12.171875 6.21875 
Q 5.515625 13.875 5.515625 27.296875 
Q 5.515625 40.765625 12.171875 48.375 
Q 18.84375 56 30.609375 56 
z
" id="DejaVuSans-111"/>
        <path d="M 9.421875 54.6875 
L 18.40625 54.6875 
L 18.40625 0 
L 9.421875 0 
z
M 9.421875 75.984375 
L 18.40625 75.984375 
L 18.40625 64.59375 
L 9.421875 64.59375 
z
" id="DejaVuSans-105"/>
       </defs>
       <use xlink:href="#DejaVuSans-101"/>
       <use x="61.523438" xlink:href="#DejaVuSans-99"/>
       <use x="116.503906" xlink:href="#DejaVuSans-111"/>
       <use x="177.685547" xlink:href="#DejaVuSans-108"/>
       <use x="205.46875" xlink:href="#DejaVuSans-105"/>
       <use x="233.251953" xlink:href="#DejaVuSans-45"/>
       <use x="269.335938" xlink:href="#DejaVuSans-49"/>
      </g>
     </g>
    </g>
    <g id="xtick_6">
     <g id="line2d_6">
      <g>
       <use style="stroke:#000000;stroke-width:0.8;" x="330.108523" xlink:href="#m66b6de8fcd" y="521.278125"/>
      </g>
     </g>
     <g id="text_6">
      <!-- appendicitis-1 -->
      <g transform="translate(300.918867 570.157002)rotate(-30)scale(0.1 -0.1)">
       <defs>
        <path d="M 18.109375 8.203125 
L 18.109375 -20.796875 
L 9.078125 -20.796875 
L 9.078125 54.6875 
L 18.109375 54.6875 
L 18.109375 46.390625 
Q 20.953125 51.265625 25.265625 53.625 
Q 29.59375 56 35.59375 56 
Q 45.5625 56 51.78125 48.09375 
Q 58.015625 40.1875 58.015625 27.296875 
Q 58.015625 14.40625 51.78125 6.484375 
Q 45.5625 -1.421875 35.59375 -1.421875 
Q 29.59375 -1.421875 25.265625 0.953125 
Q 20.953125 3.328125 18.109375 8.203125 
z
M 48.6875 27.296875 
Q 48.6875 37.203125 44.609375 42.84375 
Q 40.53125 48.484375 33.40625 48.484375 
Q 26.265625 48.484375 22.1875 42.84375 
Q 18.109375 37.203125 18.109375 27.296875 
Q 18.109375 17.390625 22.1875 11.75 
Q 26.265625 6.109375 33.40625 6.109375 
Q 40.53125 6.109375 44.609375 11.75 
Q 48.6875 17.390625 48.6875 27.296875 
z
" id="DejaVuSans-112"/>
       </defs>
       <use xlink:href="#DejaVuSans-97"/>
       <use x="61.279297" xlink:href="#DejaVuSans-112"/>
       <use x="124.755859" xlink:href="#DejaVuSans-112"/>
       <use x="188.232422" xlink:href="#DejaVuSans-101"/>
       <use x="249.755859" xlink:href="#DejaVuSans-110"/>
       <use x="313.134766" xlink:href="#DejaVuSans-100"/>
       <use x="376.611328" xlink:href="#DejaVuSans-105"/>
       <use x="404.394531" xlink:href="#DejaVuSans-99"/>
       <use x="459.375" xlink:href="#DejaVuSans-105"/>
       <use x="487.158203" xlink:href="#DejaVuSans-116"/>
       <use x="526.367188" xlink:href="#DejaVuSans-105"/>
       <use x="554.150391" xlink:href="#DejaVuSans-115"/>
       <use x="606.25" xlink:href="#DejaVuSans-45"/>
       <use x="642.333984" xlink:href="#DejaVuSans-49"/>
      </g>
     </g>
    </g>
    <g id="xtick_7">
     <g id="line2d_7">
      <g>
       <use style="stroke:#000000;stroke-width:0.8;" x="375.199432" xlink:href="#m66b6de8fcd" y="521.278125"/>
      </g>
     </g>
     <g id="text_7">
      <!-- yeast-0-6 -->
      <g transform="translate(356.110474 558.493721)rotate(-30)scale(0.1 -0.1)">
       <defs>
        <path d="M 33.015625 40.375 
Q 26.375 40.375 22.484375 35.828125 
Q 18.609375 31.296875 18.609375 23.390625 
Q 18.609375 15.53125 22.484375 10.953125 
Q 26.375 6.390625 33.015625 6.390625 
Q 39.65625 6.390625 43.53125 10.953125 
Q 47.40625 15.53125 47.40625 23.390625 
Q 47.40625 31.296875 43.53125 35.828125 
Q 39.65625 40.375 33.015625 40.375 
z
M 52.59375 71.296875 
L 52.59375 62.3125 
Q 48.875 64.0625 45.09375 64.984375 
Q 41.3125 65.921875 37.59375 65.921875 
Q 27.828125 65.921875 22.671875 59.328125 
Q 17.53125 52.734375 16.796875 39.40625 
Q 19.671875 43.65625 24.015625 45.921875 
Q 28.375 48.1875 33.59375 48.1875 
Q 44.578125 48.1875 50.953125 41.515625 
Q 57.328125 34.859375 57.328125 23.390625 
Q 57.328125 12.15625 50.6875 5.359375 
Q 44.046875 -1.421875 33.015625 -1.421875 
Q 20.359375 -1.421875 13.671875 8.265625 
Q 6.984375 17.96875 6.984375 36.375 
Q 6.984375 53.65625 15.1875 63.9375 
Q 23.390625 74.21875 37.203125 74.21875 
Q 40.921875 74.21875 44.703125 73.484375 
Q 48.484375 72.75 52.59375 71.296875 
z
" id="DejaVuSans-54"/>
       </defs>
       <use xlink:href="#DejaVuSans-121"/>
       <use x="59.179688" xlink:href="#DejaVuSans-101"/>
       <use x="120.703125" xlink:href="#DejaVuSans-97"/>
       <use x="181.982422" xlink:href="#DejaVuSans-115"/>
       <use x="234.082031" xlink:href="#DejaVuSans-116"/>
       <use x="273.291016" xlink:href="#DejaVuSans-45"/>
       <use x="309.375" xlink:href="#DejaVuSans-48"/>
       <use x="372.998047" xlink:href="#DejaVuSans-45"/>
       <use x="409.082031" xlink:href="#DejaVuSans-54"/>
      </g>
     </g>
    </g>
    <g id="xtick_8">
     <g id="line2d_8">
      <g>
       <use style="stroke:#000000;stroke-width:0.8;" x="420.290341" xlink:href="#m66b6de8fcd" y="521.278125"/>
      </g>
     </g>
     <g id="text_8">
      <!-- cleveland-1 -->
      <g transform="translate(396.527552 563.890596)rotate(-30)scale(0.1 -0.1)">
       <defs>
        <path d="M 2.984375 54.6875 
L 12.5 54.6875 
L 29.59375 8.796875 
L 46.6875 54.6875 
L 56.203125 54.6875 
L 35.6875 0 
L 23.484375 0 
z
" id="DejaVuSans-118"/>
       </defs>
       <use xlink:href="#DejaVuSans-99"/>
       <use x="54.980469" xlink:href="#DejaVuSans-108"/>
       <use x="82.763672" xlink:href="#DejaVuSans-101"/>
       <use x="144.287109" xlink:href="#DejaVuSans-118"/>
       <use x="203.466797" xlink:href="#DejaVuSans-101"/>
       <use x="264.990234" xlink:href="#DejaVuSans-108"/>
       <use x="292.773438" xlink:href="#DejaVuSans-97"/>
       <use x="354.052734" xlink:href="#DejaVuSans-110"/>
       <use x="417.431641" xlink:href="#DejaVuSans-100"/>
       <use x="480.908203" xlink:href="#DejaVuSans-45"/>
       <use x="516.992188" xlink:href="#DejaVuSans-49"/>
      </g>
     </g>
    </g>
    <g id="xtick_9">
     <g id="line2d_9">
      <g>
       <use style="stroke:#000000;stroke-width:0.8;" x="465.38125" xlink:href="#m66b6de8fcd" y="521.278125"/>
      </g>
     </g>
     <g id="text_9">
      <!-- yeast-0 -->
      <g transform="translate(450.609564 553.508565)rotate(-30)scale(0.1 -0.1)">
       <use xlink:href="#DejaVuSans-121"/>
       <use x="59.179688" xlink:href="#DejaVuSans-101"/>
       <use x="120.703125" xlink:href="#DejaVuSans-97"/>
       <use x="181.982422" xlink:href="#DejaVuSans-115"/>
       <use x="234.082031" xlink:href="#DejaVuSans-116"/>
       <use x="273.291016" xlink:href="#DejaVuSans-45"/>
       <use x="309.375" xlink:href="#DejaVuSans-48"/>
      </g>
     </g>
    </g>
    <g id="xtick_10">
     <g id="line2d_10">
      <g>
       <use style="stroke:#000000;stroke-width:0.8;" x="510.472159" xlink:href="#m66b6de8fcd" y="521.278125"/>
      </g>
     </g>
     <g id="text_10">
      <!-- ecoli-7 -->
      <g transform="translate(497.433877 551.507002)rotate(-30)scale(0.1 -0.1)">
       <defs>
        <path d="M 8.203125 72.90625 
L 55.078125 72.90625 
L 55.078125 68.703125 
L 28.609375 0 
L 18.3125 0 
L 43.21875 64.59375 
L 8.203125 64.59375 
z
" id="DejaVuSans-55"/>
       </defs>
       <use xlink:href="#DejaVuSans-101"/>
       <use x="61.523438" xlink:href="#DejaVuSans-99"/>
       <use x="116.503906" xlink:href="#DejaVuSans-111"/>
       <use x="177.685547" xlink:href="#DejaVuSans-108"/>
       <use x="205.46875" xlink:href="#DejaVuSans-105"/>
       <use x="233.251953" xlink:href="#DejaVuSans-45"/>
       <use x="269.335938" xlink:href="#DejaVuSans-55"/>
      </g>
     </g>
    </g>
    <g id="xtick_11">
     <g id="line2d_11">
      <g>
       <use style="stroke:#000000;stroke-width:0.8;" x="555.563068" xlink:href="#m66b6de8fcd" y="521.278125"/>
      </g>
     </g>
     <g id="text_11">
      <!-- newthyroid-0 -->
      <g transform="translate(528.386921 567.832002)rotate(-30)scale(0.1 -0.1)">
       <defs>
        <path d="M 4.203125 54.6875 
L 13.1875 54.6875 
L 24.421875 12.015625 
L 35.59375 54.6875 
L 46.1875 54.6875 
L 57.421875 12.015625 
L 68.609375 54.6875 
L 77.59375 54.6875 
L 63.28125 0 
L 52.6875 0 
L 40.921875 44.828125 
L 29.109375 0 
L 18.5 0 
z
" id="DejaVuSans-119"/>
        <path d="M 54.890625 33.015625 
L 54.890625 0 
L 45.90625 0 
L 45.90625 32.71875 
Q 45.90625 40.484375 42.875 44.328125 
Q 39.84375 48.1875 33.796875 48.1875 
Q 26.515625 48.1875 22.3125 43.546875 
Q 18.109375 38.921875 18.109375 30.90625 
L 18.109375 0 
L 9.078125 0 
L 9.078125 75.984375 
L 18.109375 75.984375 
L 18.109375 46.1875 
Q 21.34375 51.125 25.703125 53.5625 
Q 30.078125 56 35.796875 56 
Q 45.21875 56 50.046875 50.171875 
Q 54.890625 44.34375 54.890625 33.015625 
z
" id="DejaVuSans-104"/>
        <path d="M 41.109375 46.296875 
Q 39.59375 47.171875 37.8125 47.578125 
Q 36.03125 48 33.890625 48 
Q 26.265625 48 22.1875 43.046875 
Q 18.109375 38.09375 18.109375 28.8125 
L 18.109375 0 
L 9.078125 0 
L 9.078125 54.6875 
L 18.109375 54.6875 
L 18.109375 46.1875 
Q 20.953125 51.171875 25.484375 53.578125 
Q 30.03125 56 36.53125 56 
Q 37.453125 56 38.578125 55.875 
Q 39.703125 55.765625 41.0625 55.515625 
z
" id="DejaVuSans-114"/>
       </defs>
       <use xlink:href="#DejaVuSans-110"/>
       <use x="63.378906" xlink:href="#DejaVuSans-101"/>
       <use x="124.902344" xlink:href="#DejaVuSans-119"/>
       <use x="206.689453" xlink:href="#DejaVuSans-116"/>
       <use x="245.898438" xlink:href="#DejaVuSans-104"/>
       <use x="309.277344" xlink:href="#DejaVuSans-121"/>
       <use x="368.457031" xlink:href="#DejaVuSans-114"/>
       <use x="407.320312" xlink:href="#DejaVuSans-111"/>
       <use x="468.501953" xlink:href="#DejaVuSans-105"/>
       <use x="496.285156" xlink:href="#DejaVuSans-100"/>
       <use x="559.761719" xlink:href="#DejaVuSans-45"/>
       <use x="595.845703" xlink:href="#DejaVuSans-48"/>
      </g>
     </g>
    </g>
    <g id="xtick_12">
     <g id="line2d_12">
      <g>
       <use style="stroke:#000000;stroke-width:0.8;" x="600.653977" xlink:href="#m66b6de8fcd" y="521.278125"/>
      </g>
     </g>
     <g id="text_12">
      <!-- cleveland-2 -->
      <g transform="translate(576.891188 563.890596)rotate(-30)scale(0.1 -0.1)">
       <defs>
        <path d="M 19.1875 8.296875 
L 53.609375 8.296875 
L 53.609375 0 
L 7.328125 0 
L 7.328125 8.296875 
Q 12.9375 14.109375 22.625 23.890625 
Q 32.328125 33.6875 34.8125 36.53125 
Q 39.546875 41.84375 41.421875 45.53125 
Q 43.3125 49.21875 43.3125 52.78125 
Q 43.3125 58.59375 39.234375 62.25 
Q 35.15625 65.921875 28.609375 65.921875 
Q 23.96875 65.921875 18.8125 64.3125 
Q 13.671875 62.703125 7.8125 59.421875 
L 7.8125 69.390625 
Q 13.765625 71.78125 18.9375 73 
Q 24.125 74.21875 28.421875 74.21875 
Q 39.75 74.21875 46.484375 68.546875 
Q 53.21875 62.890625 53.21875 53.421875 
Q 53.21875 48.921875 51.53125 44.890625 
Q 49.859375 40.875 45.40625 35.40625 
Q 44.1875 33.984375 37.640625 27.21875 
Q 31.109375 20.453125 19.1875 8.296875 
z
" id="DejaVuSans-50"/>
       </defs>
       <use xlink:href="#DejaVuSans-99"/>
       <use x="54.980469" xlink:href="#DejaVuSans-108"/>
       <use x="82.763672" xlink:href="#DejaVuSans-101"/>
       <use x="144.287109" xlink:href="#DejaVuSans-118"/>
       <use x="203.466797" xlink:href="#DejaVuSans-101"/>
       <use x="264.990234" xlink:href="#DejaVuSans-108"/>
       <use x="292.773438" xlink:href="#DejaVuSans-97"/>
       <use x="354.052734" xlink:href="#DejaVuSans-110"/>
       <use x="417.431641" xlink:href="#DejaVuSans-100"/>
       <use x="480.908203" xlink:href="#DejaVuSans-45"/>
       <use x="516.992188" xlink:href="#DejaVuSans-50"/>
      </g>
     </g>
    </g>
    <g id="xtick_13">
     <g id="line2d_13">
      <g>
       <use style="stroke:#000000;stroke-width:0.8;" x="645.744886" xlink:href="#m66b6de8fcd" y="521.278125"/>
      </g>
     </g>
     <g id="text_13">
      <!-- ecoli-4 -->
      <g transform="translate(632.706604 551.507002)rotate(-30)scale(0.1 -0.1)">
       <defs>
        <path d="M 37.796875 64.3125 
L 12.890625 25.390625 
L 37.796875 25.390625 
z
M 35.203125 72.90625 
L 47.609375 72.90625 
L 47.609375 25.390625 
L 58.015625 25.390625 
L 58.015625 17.1875 
L 47.609375 17.1875 
L 47.609375 0 
L 37.796875 0 
L 37.796875 17.1875 
L 4.890625 17.1875 
L 4.890625 26.703125 
z
" id="DejaVuSans-52"/>
       </defs>
       <use xlink:href="#DejaVuSans-101"/>
       <use x="61.523438" xlink:href="#DejaVuSans-99"/>
       <use x="116.503906" xlink:href="#DejaVuSans-111"/>
       <use x="177.685547" xlink:href="#DejaVuSans-108"/>
       <use x="205.46875" xlink:href="#DejaVuSans-105"/>
       <use x="233.251953" xlink:href="#DejaVuSans-45"/>
       <use x="269.335938" xlink:href="#DejaVuSans-52"/>
      </g>
     </g>
    </g>
    <g id="xtick_14">
     <g id="line2d_14">
      <g>
       <use style="stroke:#000000;stroke-width:0.8;" x="690.835795" xlink:href="#m66b6de8fcd" y="521.278125"/>
      </g>
     </g>
     <g id="text_14">
      <!-- page-blo-1-2-3-4 -->
      <g transform="translate(655.885717 576.808565)rotate(-30)scale(0.1 -0.1)">
       <defs>
        <path d="M 40.578125 39.3125 
Q 47.65625 37.796875 51.625 33 
Q 55.609375 28.21875 55.609375 21.1875 
Q 55.609375 10.40625 48.1875 4.484375 
Q 40.765625 -1.421875 27.09375 -1.421875 
Q 22.515625 -1.421875 17.65625 -0.515625 
Q 12.796875 0.390625 7.625 2.203125 
L 7.625 11.71875 
Q 11.71875 9.328125 16.59375 8.109375 
Q 21.484375 6.890625 26.8125 6.890625 
Q 36.078125 6.890625 40.9375 10.546875 
Q 45.796875 14.203125 45.796875 21.1875 
Q 45.796875 27.640625 41.28125 31.265625 
Q 36.765625 34.90625 28.71875 34.90625 
L 20.21875 34.90625 
L 20.21875 43.015625 
L 29.109375 43.015625 
Q 36.375 43.015625 40.234375 45.921875 
Q 44.09375 48.828125 44.09375 54.296875 
Q 44.09375 59.90625 40.109375 62.90625 
Q 36.140625 65.921875 28.71875 65.921875 
Q 24.65625 65.921875 20.015625 65.03125 
Q 15.375 64.15625 9.8125 62.3125 
L 9.8125 71.09375 
Q 15.4375 72.65625 20.34375 73.4375 
Q 25.25 74.21875 29.59375 74.21875 
Q 40.828125 74.21875 47.359375 69.109375 
Q 53.90625 64.015625 53.90625 55.328125 
Q 53.90625 49.265625 50.4375 45.09375 
Q 46.96875 40.921875 40.578125 39.3125 
z
" id="DejaVuSans-51"/>
       </defs>
       <use xlink:href="#DejaVuSans-112"/>
       <use x="63.476562" xlink:href="#DejaVuSans-97"/>
       <use x="124.755859" xlink:href="#DejaVuSans-103"/>
       <use x="188.232422" xlink:href="#DejaVuSans-101"/>
       <use x="249.755859" xlink:href="#DejaVuSans-45"/>
       <use x="285.839844" xlink:href="#DejaVuSans-98"/>
       <use x="349.316406" xlink:href="#DejaVuSans-108"/>
       <use x="377.099609" xlink:href="#DejaVuSans-111"/>
       <use x="440.15625" xlink:href="#DejaVuSans-45"/>
       <use x="476.240234" xlink:href="#DejaVuSans-49"/>
       <use x="539.863281" xlink:href="#DejaVuSans-45"/>
       <use x="575.947266" xlink:href="#DejaVuSans-50"/>
       <use x="639.570312" xlink:href="#DejaVuSans-45"/>
       <use x="675.654297" xlink:href="#DejaVuSans-51"/>
       <use x="739.277344" xlink:href="#DejaVuSans-45"/>
       <use x="775.361328" xlink:href="#DejaVuSans-52"/>
      </g>
     </g>
    </g>
    <g id="xtick_15">
     <g id="line2d_15">
      <g>
       <use style="stroke:#000000;stroke-width:0.8;" x="735.926705" xlink:href="#m66b6de8fcd" y="521.278125"/>
      </g>
     </g>
     <g id="text_15">
      <!-- vowel-0 -->
      <g transform="translate(720.368153 554.417159)rotate(-30)scale(0.1 -0.1)">
       <use xlink:href="#DejaVuSans-118"/>
       <use x="59.179688" xlink:href="#DejaVuSans-111"/>
       <use x="120.361328" xlink:href="#DejaVuSans-119"/>
       <use x="202.148438" xlink:href="#DejaVuSans-101"/>
       <use x="263.671875" xlink:href="#DejaVuSans-108"/>
       <use x="291.455078" xlink:href="#DejaVuSans-45"/>
       <use x="327.539062" xlink:href="#DejaVuSans-48"/>
      </g>
     </g>
    </g>
    <g id="xtick_16">
     <g id="line2d_16">
      <g>
       <use style="stroke:#000000;stroke-width:0.8;" x="781.017614" xlink:href="#m66b6de8fcd" y="521.278125"/>
      </g>
     </g>
     <g id="text_16">
      <!-- ecoli-2-3-5-6 -->
      <g transform="translate(755.027515 566.462471)rotate(-30)scale(0.1 -0.1)">
       <defs>
        <path d="M 10.796875 72.90625 
L 49.515625 72.90625 
L 49.515625 64.59375 
L 19.828125 64.59375 
L 19.828125 46.734375 
Q 21.96875 47.46875 24.109375 47.828125 
Q 26.265625 48.1875 28.421875 48.1875 
Q 40.625 48.1875 47.75 41.5 
Q 54.890625 34.8125 54.890625 23.390625 
Q 54.890625 11.625 47.5625 5.09375 
Q 40.234375 -1.421875 26.90625 -1.421875 
Q 22.3125 -1.421875 17.546875 -0.640625 
Q 12.796875 0.140625 7.71875 1.703125 
L 7.71875 11.625 
Q 12.109375 9.234375 16.796875 8.0625 
Q 21.484375 6.890625 26.703125 6.890625 
Q 35.15625 6.890625 40.078125 11.328125 
Q 45.015625 15.765625 45.015625 23.390625 
Q 45.015625 31 40.078125 35.4375 
Q 35.15625 39.890625 26.703125 39.890625 
Q 22.75 39.890625 18.8125 39.015625 
Q 14.890625 38.140625 10.796875 36.28125 
z
" id="DejaVuSans-53"/>
       </defs>
       <use xlink:href="#DejaVuSans-101"/>
       <use x="61.523438" xlink:href="#DejaVuSans-99"/>
       <use x="116.503906" xlink:href="#DejaVuSans-111"/>
       <use x="177.685547" xlink:href="#DejaVuSans-108"/>
       <use x="205.46875" xlink:href="#DejaVuSans-105"/>
       <use x="233.251953" xlink:href="#DejaVuSans-45"/>
       <use x="269.335938" xlink:href="#DejaVuSans-50"/>
       <use x="332.958984" xlink:href="#DejaVuSans-45"/>
       <use x="369.042969" xlink:href="#DejaVuSans-51"/>
       <use x="432.666016" xlink:href="#DejaVuSans-45"/>
       <use x="468.75" xlink:href="#DejaVuSans-53"/>
       <use x="532.373047" xlink:href="#DejaVuSans-45"/>
       <use x="568.457031" xlink:href="#DejaVuSans-54"/>
      </g>
     </g>
    </g>
    <g id="xtick_17">
     <g id="line2d_17">
      <g>
       <use style="stroke:#000000;stroke-width:0.8;" x="826.108523" xlink:href="#m66b6de8fcd" y="521.278125"/>
      </g>
     </g>
     <g id="text_17">
      <!-- page-blo-1-2-3 -->
      <g transform="translate(795.475716 571.823409)rotate(-30)scale(0.1 -0.1)">
       <use xlink:href="#DejaVuSans-112"/>
       <use x="63.476562" xlink:href="#DejaVuSans-97"/>
       <use x="124.755859" xlink:href="#DejaVuSans-103"/>
       <use x="188.232422" xlink:href="#DejaVuSans-101"/>
       <use x="249.755859" xlink:href="#DejaVuSans-45"/>
       <use x="285.839844" xlink:href="#DejaVuSans-98"/>
       <use x="349.316406" xlink:href="#DejaVuSans-108"/>
       <use x="377.099609" xlink:href="#DejaVuSans-111"/>
       <use x="440.15625" xlink:href="#DejaVuSans-45"/>
       <use x="476.240234" xlink:href="#DejaVuSans-49"/>
       <use x="539.863281" xlink:href="#DejaVuSans-45"/>
       <use x="575.947266" xlink:href="#DejaVuSans-50"/>
       <use x="639.570312" xlink:href="#DejaVuSans-45"/>
       <use x="675.654297" xlink:href="#DejaVuSans-51"/>
      </g>
     </g>
    </g>
    <g id="xtick_18">
     <g id="line2d_18">
      <g>
       <use style="stroke:#000000;stroke-width:0.8;" x="871.199432" xlink:href="#m66b6de8fcd" y="521.278125"/>
      </g>
     </g>
     <g id="text_18">
      <!-- glass-2 -->
      <g transform="translate(857.144923 552.68044)rotate(-30)scale(0.1 -0.1)">
       <use xlink:href="#DejaVuSans-103"/>
       <use x="63.476562" xlink:href="#DejaVuSans-108"/>
       <use x="91.259766" xlink:href="#DejaVuSans-97"/>
       <use x="152.539062" xlink:href="#DejaVuSans-115"/>
       <use x="204.638672" xlink:href="#DejaVuSans-115"/>
       <use x="256.738281" xlink:href="#DejaVuSans-45"/>
       <use x="292.822266" xlink:href="#DejaVuSans-50"/>
      </g>
     </g>
    </g>
    <g id="xtick_19">
     <g id="line2d_19">
      <g>
       <use style="stroke:#000000;stroke-width:0.8;" x="916.290341" xlink:href="#m66b6de8fcd" y="521.278125"/>
      </g>
     </g>
     <g id="text_19">
      <!-- balance-1 -->
      <g transform="translate(896.304234 559.529659)rotate(-30)scale(0.1 -0.1)">
       <use xlink:href="#DejaVuSans-98"/>
       <use x="63.476562" xlink:href="#DejaVuSans-97"/>
       <use x="124.755859" xlink:href="#DejaVuSans-108"/>
       <use x="152.539062" xlink:href="#DejaVuSans-97"/>
       <use x="213.818359" xlink:href="#DejaVuSans-110"/>
       <use x="277.197266" xlink:href="#DejaVuSans-99"/>
       <use x="332.177734" xlink:href="#DejaVuSans-101"/>
       <use x="393.701172" xlink:href="#DejaVuSans-45"/>
       <use x="429.785156" xlink:href="#DejaVuSans-49"/>
      </g>
     </g>
    </g>
    <g id="xtick_20">
     <g id="line2d_20">
      <g>
       <use style="stroke:#000000;stroke-width:0.8;" x="961.38125" xlink:href="#m66b6de8fcd" y="521.278125"/>
      </g>
     </g>
     <g id="text_20">
      <!-- yeast-7vs.1 -->
      <g transform="translate(937.659732 563.84294)rotate(-30)scale(0.1 -0.1)">
       <defs>
        <path d="M 10.6875 12.40625 
L 21 12.40625 
L 21 0 
L 10.6875 0 
z
" id="DejaVuSans-46"/>
       </defs>
       <use xlink:href="#DejaVuSans-121"/>
       <use x="59.179688" xlink:href="#DejaVuSans-101"/>
       <use x="120.703125" xlink:href="#DejaVuSans-97"/>
       <use x="181.982422" xlink:href="#DejaVuSans-115"/>
       <use x="234.082031" xlink:href="#DejaVuSans-116"/>
       <use x="273.291016" xlink:href="#DejaVuSans-45"/>
       <use x="309.375" xlink:href="#DejaVuSans-55"/>
       <use x="372.998047" xlink:href="#DejaVuSans-118"/>
       <use x="432.177734" xlink:href="#DejaVuSans-115"/>
       <use x="484.277344" xlink:href="#DejaVuSans-46"/>
       <use x="516.064453" xlink:href="#DejaVuSans-49"/>
      </g>
     </g>
    </g>
    <g id="xtick_21">
     <g id="line2d_21">
      <g>
       <use style="stroke:#000000;stroke-width:0.8;" x="1006.472159" xlink:href="#m66b6de8fcd" y="521.278125"/>
      </g>
     </g>
     <g id="text_21">
      <!-- ecoli-5 -->
      <g transform="translate(993.433877 551.507002)rotate(-30)scale(0.1 -0.1)">
       <use xlink:href="#DejaVuSans-101"/>
       <use x="61.523438" xlink:href="#DejaVuSans-99"/>
       <use x="116.503906" xlink:href="#DejaVuSans-111"/>
       <use x="177.685547" xlink:href="#DejaVuSans-108"/>
       <use x="205.46875" xlink:href="#DejaVuSans-105"/>
       <use x="233.251953" xlink:href="#DejaVuSans-45"/>
       <use x="269.335938" xlink:href="#DejaVuSans-53"/>
      </g>
     </g>
    </g>
    <g id="xtick_22">
     <g id="line2d_22">
      <g>
       <use style="stroke:#000000;stroke-width:0.8;" x="1051.563068" xlink:href="#m66b6de8fcd" y="521.278125"/>
      </g>
     </g>
     <g id="text_22">
      <!-- yeast-7vs.1-4-5-8 -->
      <g transform="translate(1014.889735 578.798409)rotate(-30)scale(0.1 -0.1)">
       <defs>
        <path d="M 31.78125 34.625 
Q 24.75 34.625 20.71875 30.859375 
Q 16.703125 27.09375 16.703125 20.515625 
Q 16.703125 13.921875 20.71875 10.15625 
Q 24.75 6.390625 31.78125 6.390625 
Q 38.8125 6.390625 42.859375 10.171875 
Q 46.921875 13.96875 46.921875 20.515625 
Q 46.921875 27.09375 42.890625 30.859375 
Q 38.875 34.625 31.78125 34.625 
z
M 21.921875 38.8125 
Q 15.578125 40.375 12.03125 44.71875 
Q 8.5 49.078125 8.5 55.328125 
Q 8.5 64.0625 14.71875 69.140625 
Q 20.953125 74.21875 31.78125 74.21875 
Q 42.671875 74.21875 48.875 69.140625 
Q 55.078125 64.0625 55.078125 55.328125 
Q 55.078125 49.078125 51.53125 44.71875 
Q 48 40.375 41.703125 38.8125 
Q 48.828125 37.15625 52.796875 32.3125 
Q 56.78125 27.484375 56.78125 20.515625 
Q 56.78125 9.90625 50.3125 4.234375 
Q 43.84375 -1.421875 31.78125 -1.421875 
Q 19.734375 -1.421875 13.25 4.234375 
Q 6.78125 9.90625 6.78125 20.515625 
Q 6.78125 27.484375 10.78125 32.3125 
Q 14.796875 37.15625 21.921875 38.8125 
z
M 18.3125 54.390625 
Q 18.3125 48.734375 21.84375 45.5625 
Q 25.390625 42.390625 31.78125 42.390625 
Q 38.140625 42.390625 41.71875 45.5625 
Q 45.3125 48.734375 45.3125 54.390625 
Q 45.3125 60.0625 41.71875 63.234375 
Q 38.140625 66.40625 31.78125 66.40625 
Q 25.390625 66.40625 21.84375 63.234375 
Q 18.3125 60.0625 18.3125 54.390625 
z
" id="DejaVuSans-56"/>
       </defs>
       <use xlink:href="#DejaVuSans-121"/>
       <use x="59.179688" xlink:href="#DejaVuSans-101"/>
       <use x="120.703125" xlink:href="#DejaVuSans-97"/>
       <use x="181.982422" xlink:href="#DejaVuSans-115"/>
       <use x="234.082031" xlink:href="#DejaVuSans-116"/>
       <use x="273.291016" xlink:href="#DejaVuSans-45"/>
       <use x="309.375" xlink:href="#DejaVuSans-55"/>
       <use x="372.998047" xlink:href="#DejaVuSans-118"/>
       <use x="432.177734" xlink:href="#DejaVuSans-115"/>
       <use x="484.277344" xlink:href="#DejaVuSans-46"/>
       <use x="516.064453" xlink:href="#DejaVuSans-49"/>
       <use x="579.6875" xlink:href="#DejaVuSans-45"/>
       <use x="615.771484" xlink:href="#DejaVuSans-52"/>
       <use x="679.394531" xlink:href="#DejaVuSans-45"/>
       <use x="715.478516" xlink:href="#DejaVuSans-53"/>
       <use x="779.101562" xlink:href="#DejaVuSans-45"/>
       <use x="815.185547" xlink:href="#DejaVuSans-56"/>
      </g>
     </g>
    </g>
    <g id="xtick_23">
     <g id="line2d_23">
      <g>
       <use style="stroke:#000000;stroke-width:0.8;" x="1096.653977" xlink:href="#m66b6de8fcd" y="521.278125"/>
      </g>
     </g>
     <g id="text_23">
      <!-- letter-img-1 -->
      <g transform="translate(1072.553574 564.28044)rotate(-30)scale(0.1 -0.1)">
       <defs>
        <path d="M 52 44.1875 
Q 55.375 50.25 60.0625 53.125 
Q 64.75 56 71.09375 56 
Q 79.640625 56 84.28125 50.015625 
Q 88.921875 44.046875 88.921875 33.015625 
L 88.921875 0 
L 79.890625 0 
L 79.890625 32.71875 
Q 79.890625 40.578125 77.09375 44.375 
Q 74.3125 48.1875 68.609375 48.1875 
Q 61.625 48.1875 57.5625 43.546875 
Q 53.515625 38.921875 53.515625 30.90625 
L 53.515625 0 
L 44.484375 0 
L 44.484375 32.71875 
Q 44.484375 40.625 41.703125 44.40625 
Q 38.921875 48.1875 33.109375 48.1875 
Q 26.21875 48.1875 22.15625 43.53125 
Q 18.109375 38.875 18.109375 30.90625 
L 18.109375 0 
L 9.078125 0 
L 9.078125 54.6875 
L 18.109375 54.6875 
L 18.109375 46.1875 
Q 21.1875 51.21875 25.484375 53.609375 
Q 29.78125 56 35.6875 56 
Q 41.65625 56 45.828125 52.96875 
Q 50 49.953125 52 44.1875 
z
" id="DejaVuSans-109"/>
       </defs>
       <use xlink:href="#DejaVuSans-108"/>
       <use x="27.783203" xlink:href="#DejaVuSans-101"/>
       <use x="89.306641" xlink:href="#DejaVuSans-116"/>
       <use x="128.515625" xlink:href="#DejaVuSans-116"/>
       <use x="167.724609" xlink:href="#DejaVuSans-101"/>
       <use x="229.248047" xlink:href="#DejaVuSans-114"/>
       <use x="263.986328" xlink:href="#DejaVuSans-45"/>
       <use x="300.070312" xlink:href="#DejaVuSans-105"/>
       <use x="327.853516" xlink:href="#DejaVuSans-109"/>
       <use x="425.265625" xlink:href="#DejaVuSans-103"/>
       <use x="488.742188" xlink:href="#DejaVuSans-45"/>
       <use x="524.826172" xlink:href="#DejaVuSans-49"/>
      </g>
     </g>
    </g>
    <g id="xtick_24">
     <g id="line2d_24">
      <g>
       <use style="stroke:#000000;stroke-width:0.8;" x="1141.744886" xlink:href="#m66b6de8fcd" y="521.278125"/>
      </g>
     </g>
     <g id="text_24">
      <!-- yeast-4 -->
      <g transform="translate(1126.9732 553.508565)rotate(-30)scale(0.1 -0.1)">
       <use xlink:href="#DejaVuSans-121"/>
       <use x="59.179688" xlink:href="#DejaVuSans-101"/>
       <use x="120.703125" xlink:href="#DejaVuSans-97"/>
       <use x="181.982422" xlink:href="#DejaVuSans-115"/>
       <use x="234.082031" xlink:href="#DejaVuSans-116"/>
       <use x="273.291016" xlink:href="#DejaVuSans-45"/>
       <use x="309.375" xlink:href="#DejaVuSans-52"/>
      </g>
     </g>
    </g>
    <g id="xtick_25">
     <g id="line2d_25">
      <g>
       <use style="stroke:#000000;stroke-width:0.8;" x="1186.835795" xlink:href="#m66b6de8fcd" y="521.278125"/>
      </g>
     </g>
     <g id="text_25">
      <!-- wine-red-4 -->
      <g transform="translate(1165.087192 561.564815)rotate(-30)scale(0.1 -0.1)">
       <use xlink:href="#DejaVuSans-119"/>
       <use x="81.787109" xlink:href="#DejaVuSans-105"/>
       <use x="109.570312" xlink:href="#DejaVuSans-110"/>
       <use x="172.949219" xlink:href="#DejaVuSans-101"/>
       <use x="234.472656" xlink:href="#DejaVuSans-45"/>
       <use x="270.556641" xlink:href="#DejaVuSans-114"/>
       <use x="309.419922" xlink:href="#DejaVuSans-101"/>
       <use x="370.943359" xlink:href="#DejaVuSans-100"/>
       <use x="434.419922" xlink:href="#DejaVuSans-45"/>
       <use x="470.503906" xlink:href="#DejaVuSans-52"/>
      </g>
     </g>
    </g>
    <g id="xtick_26">
     <g id="line2d_26">
      <g>
       <use style="stroke:#000000;stroke-width:0.8;" x="1231.926705" xlink:href="#m66b6de8fcd" y="521.278125"/>
      </g>
     </g>
     <g id="text_26">
      <!-- wine-red-8vs.6 -->
      <g transform="translate(1201.22827 571.89919)rotate(-30)scale(0.1 -0.1)">
       <use xlink:href="#DejaVuSans-119"/>
       <use x="81.787109" xlink:href="#DejaVuSans-105"/>
       <use x="109.570312" xlink:href="#DejaVuSans-110"/>
       <use x="172.949219" xlink:href="#DejaVuSans-101"/>
       <use x="234.472656" xlink:href="#DejaVuSans-45"/>
       <use x="270.556641" xlink:href="#DejaVuSans-114"/>
       <use x="309.419922" xlink:href="#DejaVuSans-101"/>
       <use x="370.943359" xlink:href="#DejaVuSans-100"/>
       <use x="434.419922" xlink:href="#DejaVuSans-45"/>
       <use x="470.503906" xlink:href="#DejaVuSans-56"/>
       <use x="534.126953" xlink:href="#DejaVuSans-118"/>
       <use x="593.306641" xlink:href="#DejaVuSans-115"/>
       <use x="645.40625" xlink:href="#DejaVuSans-46"/>
       <use x="677.193359" xlink:href="#DejaVuSans-54"/>
      </g>
     </g>
    </g>
    <g id="xtick_27">
     <g id="line2d_27">
      <g>
       <use style="stroke:#000000;stroke-width:0.8;" x="1277.017614" xlink:href="#m66b6de8fcd" y="521.278125"/>
      </g>
     </g>
     <g id="text_27">
      <!-- yeast-6 -->
      <g transform="translate(1262.245927 553.508565)rotate(-30)scale(0.1 -0.1)">
       <use xlink:href="#DejaVuSans-121"/>
       <use x="59.179688" xlink:href="#DejaVuSans-101"/>
       <use x="120.703125" xlink:href="#DejaVuSans-97"/>
       <use x="181.982422" xlink:href="#DejaVuSans-115"/>
       <use x="234.082031" xlink:href="#DejaVuSans-116"/>
       <use x="273.291016" xlink:href="#DejaVuSans-45"/>
       <use x="309.375" xlink:href="#DejaVuSans-54"/>
      </g>
     </g>
    </g>
    <g id="xtick_28">
     <g id="line2d_28">
      <g>
       <use style="stroke:#000000;stroke-width:0.8;" x="1322.108523" xlink:href="#m66b6de8fcd" y="521.278125"/>
      </g>
     </g>
     <g id="text_28">
      <!-- page-blo-3 -->
      <g transform="translate(1300.11026 561.853096)rotate(-30)scale(0.1 -0.1)">
       <use xlink:href="#DejaVuSans-112"/>
       <use x="63.476562" xlink:href="#DejaVuSans-97"/>
       <use x="124.755859" xlink:href="#DejaVuSans-103"/>
       <use x="188.232422" xlink:href="#DejaVuSans-101"/>
       <use x="249.755859" xlink:href="#DejaVuSans-45"/>
       <use x="285.839844" xlink:href="#DejaVuSans-98"/>
       <use x="349.316406" xlink:href="#DejaVuSans-108"/>
       <use x="377.099609" xlink:href="#DejaVuSans-111"/>
       <use x="440.15625" xlink:href="#DejaVuSans-45"/>
       <use x="476.240234" xlink:href="#DejaVuSans-51"/>
      </g>
     </g>
    </g>
   </g>
   <g id="matplotlib.axis_2">
    <g id="ytick_1">
     <g id="line2d_29">
      <path clip-path="url(#p3127ba7140)" d="M 43.78125 492.200382 
L 1382.98125 492.200382 
" style="fill:none;stroke:#b0b0b0;stroke-dasharray:2.96,1.28;stroke-dashoffset:0;stroke-width:0.8;"/>
     </g>
     <g id="line2d_30">
      <defs>
       <path d="M 0 0 
L -3.5 0 
" id="m21b758c944" style="stroke:#000000;stroke-width:0.8;"/>
      </defs>
      <g>
       <use style="stroke:#000000;stroke-width:0.8;" x="43.78125" xlink:href="#m21b758c944" y="492.200382"/>
      </g>
     </g>
     <g id="text_29">
      <!-- 0.3 -->
      <g transform="translate(20.878125 495.9996)scale(0.1 -0.1)">
       <use xlink:href="#DejaVuSans-48"/>
       <use x="63.623047" xlink:href="#DejaVuSans-46"/>
       <use x="95.410156" xlink:href="#DejaVuSans-51"/>
      </g>
     </g>
    </g>
    <g id="ytick_2">
     <g id="line2d_31">
      <path clip-path="url(#p3127ba7140)" d="M 43.78125 428.222949 
L 1382.98125 428.222949 
" style="fill:none;stroke:#b0b0b0;stroke-dasharray:2.96,1.28;stroke-dashoffset:0;stroke-width:0.8;"/>
     </g>
     <g id="line2d_32">
      <g>
       <use style="stroke:#000000;stroke-width:0.8;" x="43.78125" xlink:href="#m21b758c944" y="428.222949"/>
      </g>
     </g>
     <g id="text_30">
      <!-- 0.4 -->
      <g transform="translate(20.878125 432.022167)scale(0.1 -0.1)">
       <use xlink:href="#DejaVuSans-48"/>
       <use x="63.623047" xlink:href="#DejaVuSans-46"/>
       <use x="95.410156" xlink:href="#DejaVuSans-52"/>
      </g>
     </g>
    </g>
    <g id="ytick_3">
     <g id="line2d_33">
      <path clip-path="url(#p3127ba7140)" d="M 43.78125 364.245516 
L 1382.98125 364.245516 
" style="fill:none;stroke:#b0b0b0;stroke-dasharray:2.96,1.28;stroke-dashoffset:0;stroke-width:0.8;"/>
     </g>
     <g id="line2d_34">
      <g>
       <use style="stroke:#000000;stroke-width:0.8;" x="43.78125" xlink:href="#m21b758c944" y="364.245516"/>
      </g>
     </g>
     <g id="text_31">
      <!-- 0.5 -->
      <g transform="translate(20.878125 368.044734)scale(0.1 -0.1)">
       <use xlink:href="#DejaVuSans-48"/>
       <use x="63.623047" xlink:href="#DejaVuSans-46"/>
       <use x="95.410156" xlink:href="#DejaVuSans-53"/>
      </g>
     </g>
    </g>
    <g id="ytick_4">
     <g id="line2d_35">
      <path clip-path="url(#p3127ba7140)" d="M 43.78125 300.268083 
L 1382.98125 300.268083 
" style="fill:none;stroke:#b0b0b0;stroke-dasharray:2.96,1.28;stroke-dashoffset:0;stroke-width:0.8;"/>
     </g>
     <g id="line2d_36">
      <g>
       <use style="stroke:#000000;stroke-width:0.8;" x="43.78125" xlink:href="#m21b758c944" y="300.268083"/>
      </g>
     </g>
     <g id="text_32">
      <!-- 0.6 -->
      <g transform="translate(20.878125 304.067301)scale(0.1 -0.1)">
       <use xlink:href="#DejaVuSans-48"/>
       <use x="63.623047" xlink:href="#DejaVuSans-46"/>
       <use x="95.410156" xlink:href="#DejaVuSans-54"/>
      </g>
     </g>
    </g>
    <g id="ytick_5">
     <g id="line2d_37">
      <path clip-path="url(#p3127ba7140)" d="M 43.78125 236.29065 
L 1382.98125 236.29065 
" style="fill:none;stroke:#b0b0b0;stroke-dasharray:2.96,1.28;stroke-dashoffset:0;stroke-width:0.8;"/>
     </g>
     <g id="line2d_38">
      <g>
       <use style="stroke:#000000;stroke-width:0.8;" x="43.78125" xlink:href="#m21b758c944" y="236.29065"/>
      </g>
     </g>
     <g id="text_33">
      <!-- 0.7 -->
      <g transform="translate(20.878125 240.089868)scale(0.1 -0.1)">
       <use xlink:href="#DejaVuSans-48"/>
       <use x="63.623047" xlink:href="#DejaVuSans-46"/>
       <use x="95.410156" xlink:href="#DejaVuSans-55"/>
      </g>
     </g>
    </g>
    <g id="ytick_6">
     <g id="line2d_39">
      <path clip-path="url(#p3127ba7140)" d="M 43.78125 172.313217 
L 1382.98125 172.313217 
" style="fill:none;stroke:#b0b0b0;stroke-dasharray:2.96,1.28;stroke-dashoffset:0;stroke-width:0.8;"/>
     </g>
     <g id="line2d_40">
      <g>
       <use style="stroke:#000000;stroke-width:0.8;" x="43.78125" xlink:href="#m21b758c944" y="172.313217"/>
      </g>
     </g>
     <g id="text_34">
      <!-- 0.8 -->
      <g transform="translate(20.878125 176.112435)scale(0.1 -0.1)">
       <use xlink:href="#DejaVuSans-48"/>
       <use x="63.623047" xlink:href="#DejaVuSans-46"/>
       <use x="95.410156" xlink:href="#DejaVuSans-56"/>
      </g>
     </g>
    </g>
    <g id="ytick_7">
     <g id="line2d_41">
      <path clip-path="url(#p3127ba7140)" d="M 43.78125 108.335784 
L 1382.98125 108.335784 
" style="fill:none;stroke:#b0b0b0;stroke-dasharray:2.96,1.28;stroke-dashoffset:0;stroke-width:0.8;"/>
     </g>
     <g id="line2d_42">
      <g>
       <use style="stroke:#000000;stroke-width:0.8;" x="43.78125" xlink:href="#m21b758c944" y="108.335784"/>
      </g>
     </g>
     <g id="text_35">
      <!-- 0.9 -->
      <g transform="translate(20.878125 112.135002)scale(0.1 -0.1)">
       <defs>
        <path d="M 10.984375 1.515625 
L 10.984375 10.5 
Q 14.703125 8.734375 18.5 7.8125 
Q 22.3125 6.890625 25.984375 6.890625 
Q 35.75 6.890625 40.890625 13.453125 
Q 46.046875 20.015625 46.78125 33.40625 
Q 43.953125 29.203125 39.59375 26.953125 
Q 35.25 24.703125 29.984375 24.703125 
Q 19.046875 24.703125 12.671875 31.3125 
Q 6.296875 37.9375 6.296875 49.421875 
Q 6.296875 60.640625 12.9375 67.421875 
Q 19.578125 74.21875 30.609375 74.21875 
Q 43.265625 74.21875 49.921875 64.515625 
Q 56.59375 54.828125 56.59375 36.375 
Q 56.59375 19.140625 48.40625 8.859375 
Q 40.234375 -1.421875 26.421875 -1.421875 
Q 22.703125 -1.421875 18.890625 -0.6875 
Q 15.09375 0.046875 10.984375 1.515625 
z
M 30.609375 32.421875 
Q 37.25 32.421875 41.125 36.953125 
Q 45.015625 41.5 45.015625 49.421875 
Q 45.015625 57.28125 41.125 61.84375 
Q 37.25 66.40625 30.609375 66.40625 
Q 23.96875 66.40625 20.09375 61.84375 
Q 16.21875 57.28125 16.21875 49.421875 
Q 16.21875 41.5 20.09375 36.953125 
Q 23.96875 32.421875 30.609375 32.421875 
z
" id="DejaVuSans-57"/>
       </defs>
       <use xlink:href="#DejaVuSans-48"/>
       <use x="63.623047" xlink:href="#DejaVuSans-46"/>
       <use x="95.410156" xlink:href="#DejaVuSans-57"/>
      </g>
     </g>
    </g>
    <g id="ytick_8">
     <g id="line2d_43">
      <path clip-path="url(#p3127ba7140)" d="M 43.78125 44.358351 
L 1382.98125 44.358351 
" style="fill:none;stroke:#b0b0b0;stroke-dasharray:2.96,1.28;stroke-dashoffset:0;stroke-width:0.8;"/>
     </g>
     <g id="line2d_44">
      <g>
       <use style="stroke:#000000;stroke-width:0.8;" x="43.78125" xlink:href="#m21b758c944" y="44.358351"/>
      </g>
     </g>
     <g id="text_36">
      <!-- 1.0 -->
      <g transform="translate(20.878125 48.157569)scale(0.1 -0.1)">
       <use xlink:href="#DejaVuSans-49"/>
       <use x="63.623047" xlink:href="#DejaVuSans-46"/>
       <use x="95.410156" xlink:href="#DejaVuSans-48"/>
      </g>
     </g>
    </g>
    <g id="text_37">
     <!-- AUC -->
     <g transform="translate(14.798437 282.369219)rotate(-90)scale(0.1 -0.1)">
      <defs>
       <path d="M 34.1875 63.1875 
L 20.796875 26.90625 
L 47.609375 26.90625 
z
M 28.609375 72.90625 
L 39.796875 72.90625 
L 67.578125 0 
L 57.328125 0 
L 50.6875 18.703125 
L 17.828125 18.703125 
L 11.1875 0 
L 0.78125 0 
z
" id="DejaVuSans-65"/>
       <path d="M 8.6875 72.90625 
L 18.609375 72.90625 
L 18.609375 28.609375 
Q 18.609375 16.890625 22.84375 11.734375 
Q 27.09375 6.59375 36.625 6.59375 
Q 46.09375 6.59375 50.34375 11.734375 
Q 54.59375 16.890625 54.59375 28.609375 
L 54.59375 72.90625 
L 64.5 72.90625 
L 64.5 27.390625 
Q 64.5 13.140625 57.4375 5.859375 
Q 50.390625 -1.421875 36.625 -1.421875 
Q 22.796875 -1.421875 15.734375 5.859375 
Q 8.6875 13.140625 8.6875 27.390625 
z
" id="DejaVuSans-85"/>
       <path d="M 64.40625 67.28125 
L 64.40625 56.890625 
Q 59.421875 61.53125 53.78125 63.8125 
Q 48.140625 66.109375 41.796875 66.109375 
Q 29.296875 66.109375 22.65625 58.46875 
Q 16.015625 50.828125 16.015625 36.375 
Q 16.015625 21.96875 22.65625 14.328125 
Q 29.296875 6.6875 41.796875 6.6875 
Q 48.140625 6.6875 53.78125 8.984375 
Q 59.421875 11.28125 64.40625 15.921875 
L 64.40625 5.609375 
Q 59.234375 2.09375 53.4375 0.328125 
Q 47.65625 -1.421875 41.21875 -1.421875 
Q 24.65625 -1.421875 15.125 8.703125 
Q 5.609375 18.84375 5.609375 36.375 
Q 5.609375 53.953125 15.125 64.078125 
Q 24.65625 74.21875 41.21875 74.21875 
Q 47.75 74.21875 53.53125 72.484375 
Q 59.328125 70.75 64.40625 67.28125 
z
" id="DejaVuSans-67"/>
      </defs>
      <use xlink:href="#DejaVuSans-65"/>
      <use x="68.408203" xlink:href="#DejaVuSans-85"/>
      <use x="141.601562" xlink:href="#DejaVuSans-67"/>
     </g>
    </g>
   </g>
   <g id="line2d_45">
    <path clip-path="url(#p3127ba7140)" d="M 104.653977 261.241849 
L 149.744886 140.3245 
L 194.835795 274.037335 
L 239.926705 171.673442 
L 285.017614 111.534655 
L 330.108523 199.823513 
L 375.199432 192.785995 
L 420.290341 358.487547 
L 465.38125 186.388252 
L 510.472159 97.45962 
L 555.563068 75.707293 
L 600.653977 266.999818 
L 645.744886 124.969916 
L 690.835795 66.750452 
L 735.926705 55.874289 
L 781.017614 150.560889 
L 826.108523 73.78797 
L 871.199432 55.234514 
L 916.290341 380.879648 
L 961.38125 268.919141 
L 1006.472159 44.998125 
L 1051.563068 366.164839 
L 1096.653977 67.390227 
L 1141.744886 221.57584 
L 1186.835795 316.262441 
L 1231.926705 206.221256 
L 1277.017614 203.662159 
L 1322.108523 64.831129 
" style="fill:none;stroke:#1f77b4;stroke-linecap:square;stroke-width:2;"/>
    <defs>
     <path d="M 0 -5 
L -5 5 
L 5 5 
z
" id="m7429335a9c" style="stroke:#1f77b4;stroke-linejoin:miter;"/>
    </defs>
    <g clip-path="url(#p3127ba7140)">
     <use style="fill:#1f77b4;stroke:#1f77b4;stroke-linejoin:miter;" x="104.653977" xlink:href="#m7429335a9c" y="261.241849"/>
     <use style="fill:#1f77b4;stroke:#1f77b4;stroke-linejoin:miter;" x="149.744886" xlink:href="#m7429335a9c" y="140.3245"/>
     <use style="fill:#1f77b4;stroke:#1f77b4;stroke-linejoin:miter;" x="194.835795" xlink:href="#m7429335a9c" y="274.037335"/>
     <use style="fill:#1f77b4;stroke:#1f77b4;stroke-linejoin:miter;" x="239.926705" xlink:href="#m7429335a9c" y="171.673442"/>
     <use style="fill:#1f77b4;stroke:#1f77b4;stroke-linejoin:miter;" x="285.017614" xlink:href="#m7429335a9c" y="111.534655"/>
     <use style="fill:#1f77b4;stroke:#1f77b4;stroke-linejoin:miter;" x="330.108523" xlink:href="#m7429335a9c" y="199.823513"/>
     <use style="fill:#1f77b4;stroke:#1f77b4;stroke-linejoin:miter;" x="375.199432" xlink:href="#m7429335a9c" y="192.785995"/>
     <use style="fill:#1f77b4;stroke:#1f77b4;stroke-linejoin:miter;" x="420.290341" xlink:href="#m7429335a9c" y="358.487547"/>
     <use style="fill:#1f77b4;stroke:#1f77b4;stroke-linejoin:miter;" x="465.38125" xlink:href="#m7429335a9c" y="186.388252"/>
     <use style="fill:#1f77b4;stroke:#1f77b4;stroke-linejoin:miter;" x="510.472159" xlink:href="#m7429335a9c" y="97.45962"/>
     <use style="fill:#1f77b4;stroke:#1f77b4;stroke-linejoin:miter;" x="555.563068" xlink:href="#m7429335a9c" y="75.707293"/>
     <use style="fill:#1f77b4;stroke:#1f77b4;stroke-linejoin:miter;" x="600.653977" xlink:href="#m7429335a9c" y="266.999818"/>
     <use style="fill:#1f77b4;stroke:#1f77b4;stroke-linejoin:miter;" x="645.744886" xlink:href="#m7429335a9c" y="124.969916"/>
     <use style="fill:#1f77b4;stroke:#1f77b4;stroke-linejoin:miter;" x="690.835795" xlink:href="#m7429335a9c" y="66.750452"/>
     <use style="fill:#1f77b4;stroke:#1f77b4;stroke-linejoin:miter;" x="735.926705" xlink:href="#m7429335a9c" y="55.874289"/>
     <use style="fill:#1f77b4;stroke:#1f77b4;stroke-linejoin:miter;" x="781.017614" xlink:href="#m7429335a9c" y="150.560889"/>
     <use style="fill:#1f77b4;stroke:#1f77b4;stroke-linejoin:miter;" x="826.108523" xlink:href="#m7429335a9c" y="73.78797"/>
     <use style="fill:#1f77b4;stroke:#1f77b4;stroke-linejoin:miter;" x="871.199432" xlink:href="#m7429335a9c" y="55.234514"/>
     <use style="fill:#1f77b4;stroke:#1f77b4;stroke-linejoin:miter;" x="916.290341" xlink:href="#m7429335a9c" y="380.879648"/>
     <use style="fill:#1f77b4;stroke:#1f77b4;stroke-linejoin:miter;" x="961.38125" xlink:href="#m7429335a9c" y="268.919141"/>
     <use style="fill:#1f77b4;stroke:#1f77b4;stroke-linejoin:miter;" x="1006.472159" xlink:href="#m7429335a9c" y="44.998125"/>
     <use style="fill:#1f77b4;stroke:#1f77b4;stroke-linejoin:miter;" x="1051.563068" xlink:href="#m7429335a9c" y="366.164839"/>
     <use style="fill:#1f77b4;stroke:#1f77b4;stroke-linejoin:miter;" x="1096.653977" xlink:href="#m7429335a9c" y="67.390227"/>
     <use style="fill:#1f77b4;stroke:#1f77b4;stroke-linejoin:miter;" x="1141.744886" xlink:href="#m7429335a9c" y="221.57584"/>
     <use style="fill:#1f77b4;stroke:#1f77b4;stroke-linejoin:miter;" x="1186.835795" xlink:href="#m7429335a9c" y="316.262441"/>
     <use style="fill:#1f77b4;stroke:#1f77b4;stroke-linejoin:miter;" x="1231.926705" xlink:href="#m7429335a9c" y="206.221256"/>
     <use style="fill:#1f77b4;stroke:#1f77b4;stroke-linejoin:miter;" x="1277.017614" xlink:href="#m7429335a9c" y="203.662159"/>
     <use style="fill:#1f77b4;stroke:#1f77b4;stroke-linejoin:miter;" x="1322.108523" xlink:href="#m7429335a9c" y="64.831129"/>
    </g>
   </g>
   <g id="line2d_46">
    <path clip-path="url(#p3127ba7140)" d="M 104.653977 290.031693 
L 149.744886 148.641566 
L 194.835795 264.44072 
L 239.926705 177.431411 
L 285.017614 112.814204 
L 330.108523 208.780353 
L 375.199432 172.952991 
L 420.290341 340.573865 
L 465.38125 160.797279 
L 510.472159 104.497138 
L 555.563068 53.954966 
L 600.653977 251.005459 
L 645.744886 107.056235 
L 690.835795 89.142554 
L 735.926705 71.228873 
L 781.017614 104.497138 
L 826.108523 59.712935 
L 871.199432 108.975558 
L 916.290341 498.598125 
L 961.38125 183.829155 
L 1006.472159 78.26639 
L 1051.563068 257.403203 
L 1096.653977 85.303908 
L 1141.744886 106.416461 
L 1186.835795 256.123654 
L 1231.926705 176.791637 
L 1277.017614 123.050593 
L 1322.108523 50.11632 
" style="fill:none;stroke:#ff7f0e;stroke-linecap:square;stroke-width:2;"/>
    <defs>
     <path d="M -1.666667 5 
L 1.666667 5 
L 1.666667 1.666667 
L 5 1.666667 
L 5 -1.666667 
L 1.666667 -1.666667 
L 1.666667 -5 
L -1.666667 -5 
L -1.666667 -1.666667 
L -5 -1.666667 
L -5 1.666667 
L -1.666667 1.666667 
z
" id="md02764895d" style="stroke:#ff7f0e;stroke-linejoin:miter;"/>
    </defs>
    <g clip-path="url(#p3127ba7140)">
     <use style="fill:#ff7f0e;stroke:#ff7f0e;stroke-linejoin:miter;" x="104.653977" xlink:href="#md02764895d" y="290.031693"/>
     <use style="fill:#ff7f0e;stroke:#ff7f0e;stroke-linejoin:miter;" x="149.744886" xlink:href="#md02764895d" y="148.641566"/>
     <use style="fill:#ff7f0e;stroke:#ff7f0e;stroke-linejoin:miter;" x="194.835795" xlink:href="#md02764895d" y="264.44072"/>
     <use style="fill:#ff7f0e;stroke:#ff7f0e;stroke-linejoin:miter;" x="239.926705" xlink:href="#md02764895d" y="177.431411"/>
     <use style="fill:#ff7f0e;stroke:#ff7f0e;stroke-linejoin:miter;" x="285.017614" xlink:href="#md02764895d" y="112.814204"/>
     <use style="fill:#ff7f0e;stroke:#ff7f0e;stroke-linejoin:miter;" x="330.108523" xlink:href="#md02764895d" y="208.780353"/>
     <use style="fill:#ff7f0e;stroke:#ff7f0e;stroke-linejoin:miter;" x="375.199432" xlink:href="#md02764895d" y="172.952991"/>
     <use style="fill:#ff7f0e;stroke:#ff7f0e;stroke-linejoin:miter;" x="420.290341" xlink:href="#md02764895d" y="340.573865"/>
     <use style="fill:#ff7f0e;stroke:#ff7f0e;stroke-linejoin:miter;" x="465.38125" xlink:href="#md02764895d" y="160.797279"/>
     <use style="fill:#ff7f0e;stroke:#ff7f0e;stroke-linejoin:miter;" x="510.472159" xlink:href="#md02764895d" y="104.497138"/>
     <use style="fill:#ff7f0e;stroke:#ff7f0e;stroke-linejoin:miter;" x="555.563068" xlink:href="#md02764895d" y="53.954966"/>
     <use style="fill:#ff7f0e;stroke:#ff7f0e;stroke-linejoin:miter;" x="600.653977" xlink:href="#md02764895d" y="251.005459"/>
     <use style="fill:#ff7f0e;stroke:#ff7f0e;stroke-linejoin:miter;" x="645.744886" xlink:href="#md02764895d" y="107.056235"/>
     <use style="fill:#ff7f0e;stroke:#ff7f0e;stroke-linejoin:miter;" x="690.835795" xlink:href="#md02764895d" y="89.142554"/>
     <use style="fill:#ff7f0e;stroke:#ff7f0e;stroke-linejoin:miter;" x="735.926705" xlink:href="#md02764895d" y="71.228873"/>
     <use style="fill:#ff7f0e;stroke:#ff7f0e;stroke-linejoin:miter;" x="781.017614" xlink:href="#md02764895d" y="104.497138"/>
     <use style="fill:#ff7f0e;stroke:#ff7f0e;stroke-linejoin:miter;" x="826.108523" xlink:href="#md02764895d" y="59.712935"/>
     <use style="fill:#ff7f0e;stroke:#ff7f0e;stroke-linejoin:miter;" x="871.199432" xlink:href="#md02764895d" y="108.975558"/>
     <use style="fill:#ff7f0e;stroke:#ff7f0e;stroke-linejoin:miter;" x="916.290341" xlink:href="#md02764895d" y="498.598125"/>
     <use style="fill:#ff7f0e;stroke:#ff7f0e;stroke-linejoin:miter;" x="961.38125" xlink:href="#md02764895d" y="183.829155"/>
     <use style="fill:#ff7f0e;stroke:#ff7f0e;stroke-linejoin:miter;" x="1006.472159" xlink:href="#md02764895d" y="78.26639"/>
     <use style="fill:#ff7f0e;stroke:#ff7f0e;stroke-linejoin:miter;" x="1051.563068" xlink:href="#md02764895d" y="257.403203"/>
     <use style="fill:#ff7f0e;stroke:#ff7f0e;stroke-linejoin:miter;" x="1096.653977" xlink:href="#md02764895d" y="85.303908"/>
     <use style="fill:#ff7f0e;stroke:#ff7f0e;stroke-linejoin:miter;" x="1141.744886" xlink:href="#md02764895d" y="106.416461"/>
     <use style="fill:#ff7f0e;stroke:#ff7f0e;stroke-linejoin:miter;" x="1186.835795" xlink:href="#md02764895d" y="256.123654"/>
     <use style="fill:#ff7f0e;stroke:#ff7f0e;stroke-linejoin:miter;" x="1231.926705" xlink:href="#md02764895d" y="176.791637"/>
     <use style="fill:#ff7f0e;stroke:#ff7f0e;stroke-linejoin:miter;" x="1277.017614" xlink:href="#md02764895d" y="123.050593"/>
     <use style="fill:#ff7f0e;stroke:#ff7f0e;stroke-linejoin:miter;" x="1322.108523" xlink:href="#md02764895d" y="50.11632"/>
    </g>
   </g>
   <g id="line2d_47">
    <path clip-path="url(#p3127ba7140)" d="M 104.653977 240.76907 
L 149.744886 141.604049 
L 194.835795 256.123654 
L 239.926705 182.549606 
L 285.017614 124.969916 
L 330.108523 174.23254 
L 375.199432 151.840438 
L 420.290341 362.326193 
L 465.38125 155.679084 
L 510.472159 98.099394 
L 555.563068 49.476545 
L 600.653977 238.209973 
L 645.744886 128.168788 
L 690.835795 57.153837 
L 735.926705 46.917448 
L 781.017614 95.540297 
L 826.108523 54.59474 
L 871.199432 50.756094 
L 916.290341 444.857081 
L 961.38125 145.442695 
L 1006.472159 53.954966 
L 1051.563068 240.76907 
L 1096.653977 55.234514 
L 1141.744886 123.690368 
L 1186.835795 227.973583 
L 1231.926705 169.754119 
L 1277.017614 97.45962 
L 1322.108523 53.954966 
" style="fill:none;stroke:#2ca02c;stroke-linecap:square;stroke-width:2;"/>
    <defs>
     <path d="M -5 5 
L 5 -5 
M -5 -5 
L 5 5 
" id="mb6de27dfee" style="stroke:#2ca02c;"/>
    </defs>
    <g clip-path="url(#p3127ba7140)">
     <use style="fill:#2ca02c;stroke:#2ca02c;" x="104.653977" xlink:href="#mb6de27dfee" y="240.76907"/>
     <use style="fill:#2ca02c;stroke:#2ca02c;" x="149.744886" xlink:href="#mb6de27dfee" y="141.604049"/>
     <use style="fill:#2ca02c;stroke:#2ca02c;" x="194.835795" xlink:href="#mb6de27dfee" y="256.123654"/>
     <use style="fill:#2ca02c;stroke:#2ca02c;" x="239.926705" xlink:href="#mb6de27dfee" y="182.549606"/>
     <use style="fill:#2ca02c;stroke:#2ca02c;" x="285.017614" xlink:href="#mb6de27dfee" y="124.969916"/>
     <use style="fill:#2ca02c;stroke:#2ca02c;" x="330.108523" xlink:href="#mb6de27dfee" y="174.23254"/>
     <use style="fill:#2ca02c;stroke:#2ca02c;" x="375.199432" xlink:href="#mb6de27dfee" y="151.840438"/>
     <use style="fill:#2ca02c;stroke:#2ca02c;" x="420.290341" xlink:href="#mb6de27dfee" y="362.326193"/>
     <use style="fill:#2ca02c;stroke:#2ca02c;" x="465.38125" xlink:href="#mb6de27dfee" y="155.679084"/>
     <use style="fill:#2ca02c;stroke:#2ca02c;" x="510.472159" xlink:href="#mb6de27dfee" y="98.099394"/>
     <use style="fill:#2ca02c;stroke:#2ca02c;" x="555.563068" xlink:href="#mb6de27dfee" y="49.476545"/>
     <use style="fill:#2ca02c;stroke:#2ca02c;" x="600.653977" xlink:href="#mb6de27dfee" y="238.209973"/>
     <use style="fill:#2ca02c;stroke:#2ca02c;" x="645.744886" xlink:href="#mb6de27dfee" y="128.168788"/>
     <use style="fill:#2ca02c;stroke:#2ca02c;" x="690.835795" xlink:href="#mb6de27dfee" y="57.153837"/>
     <use style="fill:#2ca02c;stroke:#2ca02c;" x="735.926705" xlink:href="#mb6de27dfee" y="46.917448"/>
     <use style="fill:#2ca02c;stroke:#2ca02c;" x="781.017614" xlink:href="#mb6de27dfee" y="95.540297"/>
     <use style="fill:#2ca02c;stroke:#2ca02c;" x="826.108523" xlink:href="#mb6de27dfee" y="54.59474"/>
     <use style="fill:#2ca02c;stroke:#2ca02c;" x="871.199432" xlink:href="#mb6de27dfee" y="50.756094"/>
     <use style="fill:#2ca02c;stroke:#2ca02c;" x="916.290341" xlink:href="#mb6de27dfee" y="444.857081"/>
     <use style="fill:#2ca02c;stroke:#2ca02c;" x="961.38125" xlink:href="#mb6de27dfee" y="145.442695"/>
     <use style="fill:#2ca02c;stroke:#2ca02c;" x="1006.472159" xlink:href="#mb6de27dfee" y="53.954966"/>
     <use style="fill:#2ca02c;stroke:#2ca02c;" x="1051.563068" xlink:href="#mb6de27dfee" y="240.76907"/>
     <use style="fill:#2ca02c;stroke:#2ca02c;" x="1096.653977" xlink:href="#mb6de27dfee" y="55.234514"/>
     <use style="fill:#2ca02c;stroke:#2ca02c;" x="1141.744886" xlink:href="#mb6de27dfee" y="123.690368"/>
     <use style="fill:#2ca02c;stroke:#2ca02c;" x="1186.835795" xlink:href="#mb6de27dfee" y="227.973583"/>
     <use style="fill:#2ca02c;stroke:#2ca02c;" x="1231.926705" xlink:href="#mb6de27dfee" y="169.754119"/>
     <use style="fill:#2ca02c;stroke:#2ca02c;" x="1277.017614" xlink:href="#mb6de27dfee" y="97.45962"/>
     <use style="fill:#2ca02c;stroke:#2ca02c;" x="1322.108523" xlink:href="#mb6de27dfee" y="53.954966"/>
    </g>
   </g>
   <g id="line2d_48">
    <path clip-path="url(#p3127ba7140)" d="M 104.653977 249.086136 
L 149.744886 115.373301 
L 194.835795 220.296291 
L 239.926705 190.866672 
L 285.017614 104.497138 
L 330.108523 179.990509 
L 375.199432 163.99615 
L 420.290341 363.605741 
L 465.38125 161.437053 
L 510.472159 97.45962 
L 555.563068 47.557222 
L 600.653977 200.463287 
L 645.744886 96.180071 
L 690.835795 55.874289 
L 735.926705 56.514063 
L 781.017614 90.422102 
L 826.108523 52.675417 
L 871.199432 50.756094 
L 916.290341 299.628308 
L 961.38125 202.38261 
L 1006.472159 72.508421 
L 1051.563068 272.757786 
L 1096.653977 54.59474 
L 1141.744886 124.969916 
L 1186.835795 254.204331 
L 1231.926705 202.38261 
L 1277.017614 106.416461 
L 1322.108523 53.954966 
" style="fill:none;stroke:#d62728;stroke-linecap:square;stroke-width:2;"/>
    <defs>
     <path d="M -0 5 
L 5 -5 
L -5 -5 
z
" id="maf5376c344" style="stroke:#d62728;stroke-linejoin:miter;"/>
    </defs>
    <g clip-path="url(#p3127ba7140)">
     <use style="fill:#d62728;stroke:#d62728;stroke-linejoin:miter;" x="104.653977" xlink:href="#maf5376c344" y="249.086136"/>
     <use style="fill:#d62728;stroke:#d62728;stroke-linejoin:miter;" x="149.744886" xlink:href="#maf5376c344" y="115.373301"/>
     <use style="fill:#d62728;stroke:#d62728;stroke-linejoin:miter;" x="194.835795" xlink:href="#maf5376c344" y="220.296291"/>
     <use style="fill:#d62728;stroke:#d62728;stroke-linejoin:miter;" x="239.926705" xlink:href="#maf5376c344" y="190.866672"/>
     <use style="fill:#d62728;stroke:#d62728;stroke-linejoin:miter;" x="285.017614" xlink:href="#maf5376c344" y="104.497138"/>
     <use style="fill:#d62728;stroke:#d62728;stroke-linejoin:miter;" x="330.108523" xlink:href="#maf5376c344" y="179.990509"/>
     <use style="fill:#d62728;stroke:#d62728;stroke-linejoin:miter;" x="375.199432" xlink:href="#maf5376c344" y="163.99615"/>
     <use style="fill:#d62728;stroke:#d62728;stroke-linejoin:miter;" x="420.290341" xlink:href="#maf5376c344" y="363.605741"/>
     <use style="fill:#d62728;stroke:#d62728;stroke-linejoin:miter;" x="465.38125" xlink:href="#maf5376c344" y="161.437053"/>
     <use style="fill:#d62728;stroke:#d62728;stroke-linejoin:miter;" x="510.472159" xlink:href="#maf5376c344" y="97.45962"/>
     <use style="fill:#d62728;stroke:#d62728;stroke-linejoin:miter;" x="555.563068" xlink:href="#maf5376c344" y="47.557222"/>
     <use style="fill:#d62728;stroke:#d62728;stroke-linejoin:miter;" x="600.653977" xlink:href="#maf5376c344" y="200.463287"/>
     <use style="fill:#d62728;stroke:#d62728;stroke-linejoin:miter;" x="645.744886" xlink:href="#maf5376c344" y="96.180071"/>
     <use style="fill:#d62728;stroke:#d62728;stroke-linejoin:miter;" x="690.835795" xlink:href="#maf5376c344" y="55.874289"/>
     <use style="fill:#d62728;stroke:#d62728;stroke-linejoin:miter;" x="735.926705" xlink:href="#maf5376c344" y="56.514063"/>
     <use style="fill:#d62728;stroke:#d62728;stroke-linejoin:miter;" x="781.017614" xlink:href="#maf5376c344" y="90.422102"/>
     <use style="fill:#d62728;stroke:#d62728;stroke-linejoin:miter;" x="826.108523" xlink:href="#maf5376c344" y="52.675417"/>
     <use style="fill:#d62728;stroke:#d62728;stroke-linejoin:miter;" x="871.199432" xlink:href="#maf5376c344" y="50.756094"/>
     <use style="fill:#d62728;stroke:#d62728;stroke-linejoin:miter;" x="916.290341" xlink:href="#maf5376c344" y="299.628308"/>
     <use style="fill:#d62728;stroke:#d62728;stroke-linejoin:miter;" x="961.38125" xlink:href="#maf5376c344" y="202.38261"/>
     <use style="fill:#d62728;stroke:#d62728;stroke-linejoin:miter;" x="1006.472159" xlink:href="#maf5376c344" y="72.508421"/>
     <use style="fill:#d62728;stroke:#d62728;stroke-linejoin:miter;" x="1051.563068" xlink:href="#maf5376c344" y="272.757786"/>
     <use style="fill:#d62728;stroke:#d62728;stroke-linejoin:miter;" x="1096.653977" xlink:href="#maf5376c344" y="54.59474"/>
     <use style="fill:#d62728;stroke:#d62728;stroke-linejoin:miter;" x="1141.744886" xlink:href="#maf5376c344" y="124.969916"/>
     <use style="fill:#d62728;stroke:#d62728;stroke-linejoin:miter;" x="1186.835795" xlink:href="#maf5376c344" y="254.204331"/>
     <use style="fill:#d62728;stroke:#d62728;stroke-linejoin:miter;" x="1231.926705" xlink:href="#maf5376c344" y="202.38261"/>
     <use style="fill:#d62728;stroke:#d62728;stroke-linejoin:miter;" x="1277.017614" xlink:href="#maf5376c344" y="106.416461"/>
     <use style="fill:#d62728;stroke:#d62728;stroke-linejoin:miter;" x="1322.108523" xlink:href="#maf5376c344" y="53.954966"/>
    </g>
   </g>
   <g id="line2d_49">
    <path clip-path="url(#p3127ba7140)" d="M 104.653977 170.393894 
L 149.744886 145.442695 
L 194.835795 197.90419 
L 239.926705 135.84608 
L 285.017614 104.497138 
L 330.108523 154.399535 
L 375.199432 139.684726 
L 420.290341 246.527039 
L 465.38125 152.480212 
L 510.472159 86.583456 
L 555.563068 46.917448 
L 600.653977 211.979225 
L 645.744886 70.589098 
L 690.835795 57.153837 
L 735.926705 44.998125 
L 781.017614 91.061877 
L 826.108523 46.917448 
L 871.199432 47.557222 
L 916.290341 233.731552 
L 961.38125 124.969916 
L 1006.472159 69.30955 
L 1051.563068 226.694035 
L 1096.653977 50.11632 
L 1141.744886 93.620974 
L 1186.835795 359.767095 
L 1231.926705 162.076827 
L 1277.017614 81.465262 
L 1322.108523 50.756094 
" style="fill:none;stroke:#9467bd;stroke-linecap:square;stroke-width:2;"/>
    <defs>
     <path d="M 0 -5 
L -4.755283 -1.545085 
L -2.938926 4.045085 
L 2.938926 4.045085 
L 4.755283 -1.545085 
z
" id="m4f41b28bec" style="stroke:#9467bd;stroke-linejoin:miter;"/>
    </defs>
    <g clip-path="url(#p3127ba7140)">
     <use style="fill:#9467bd;stroke:#9467bd;stroke-linejoin:miter;" x="104.653977" xlink:href="#m4f41b28bec" y="170.393894"/>
     <use style="fill:#9467bd;stroke:#9467bd;stroke-linejoin:miter;" x="149.744886" xlink:href="#m4f41b28bec" y="145.442695"/>
     <use style="fill:#9467bd;stroke:#9467bd;stroke-linejoin:miter;" x="194.835795" xlink:href="#m4f41b28bec" y="197.90419"/>
     <use style="fill:#9467bd;stroke:#9467bd;stroke-linejoin:miter;" x="239.926705" xlink:href="#m4f41b28bec" y="135.84608"/>
     <use style="fill:#9467bd;stroke:#9467bd;stroke-linejoin:miter;" x="285.017614" xlink:href="#m4f41b28bec" y="104.497138"/>
     <use style="fill:#9467bd;stroke:#9467bd;stroke-linejoin:miter;" x="330.108523" xlink:href="#m4f41b28bec" y="154.399535"/>
     <use style="fill:#9467bd;stroke:#9467bd;stroke-linejoin:miter;" x="375.199432" xlink:href="#m4f41b28bec" y="139.684726"/>
     <use style="fill:#9467bd;stroke:#9467bd;stroke-linejoin:miter;" x="420.290341" xlink:href="#m4f41b28bec" y="246.527039"/>
     <use style="fill:#9467bd;stroke:#9467bd;stroke-linejoin:miter;" x="465.38125" xlink:href="#m4f41b28bec" y="152.480212"/>
     <use style="fill:#9467bd;stroke:#9467bd;stroke-linejoin:miter;" x="510.472159" xlink:href="#m4f41b28bec" y="86.583456"/>
     <use style="fill:#9467bd;stroke:#9467bd;stroke-linejoin:miter;" x="555.563068" xlink:href="#m4f41b28bec" y="46.917448"/>
     <use style="fill:#9467bd;stroke:#9467bd;stroke-linejoin:miter;" x="600.653977" xlink:href="#m4f41b28bec" y="211.979225"/>
     <use style="fill:#9467bd;stroke:#9467bd;stroke-linejoin:miter;" x="645.744886" xlink:href="#m4f41b28bec" y="70.589098"/>
     <use style="fill:#9467bd;stroke:#9467bd;stroke-linejoin:miter;" x="690.835795" xlink:href="#m4f41b28bec" y="57.153837"/>
     <use style="fill:#9467bd;stroke:#9467bd;stroke-linejoin:miter;" x="735.926705" xlink:href="#m4f41b28bec" y="44.998125"/>
     <use style="fill:#9467bd;stroke:#9467bd;stroke-linejoin:miter;" x="781.017614" xlink:href="#m4f41b28bec" y="91.061877"/>
     <use style="fill:#9467bd;stroke:#9467bd;stroke-linejoin:miter;" x="826.108523" xlink:href="#m4f41b28bec" y="46.917448"/>
     <use style="fill:#9467bd;stroke:#9467bd;stroke-linejoin:miter;" x="871.199432" xlink:href="#m4f41b28bec" y="47.557222"/>
     <use style="fill:#9467bd;stroke:#9467bd;stroke-linejoin:miter;" x="916.290341" xlink:href="#m4f41b28bec" y="233.731552"/>
     <use style="fill:#9467bd;stroke:#9467bd;stroke-linejoin:miter;" x="961.38125" xlink:href="#m4f41b28bec" y="124.969916"/>
     <use style="fill:#9467bd;stroke:#9467bd;stroke-linejoin:miter;" x="1006.472159" xlink:href="#m4f41b28bec" y="69.30955"/>
     <use style="fill:#9467bd;stroke:#9467bd;stroke-linejoin:miter;" x="1051.563068" xlink:href="#m4f41b28bec" y="226.694035"/>
     <use style="fill:#9467bd;stroke:#9467bd;stroke-linejoin:miter;" x="1096.653977" xlink:href="#m4f41b28bec" y="50.11632"/>
     <use style="fill:#9467bd;stroke:#9467bd;stroke-linejoin:miter;" x="1141.744886" xlink:href="#m4f41b28bec" y="93.620974"/>
     <use style="fill:#9467bd;stroke:#9467bd;stroke-linejoin:miter;" x="1186.835795" xlink:href="#m4f41b28bec" y="359.767095"/>
     <use style="fill:#9467bd;stroke:#9467bd;stroke-linejoin:miter;" x="1231.926705" xlink:href="#m4f41b28bec" y="162.076827"/>
     <use style="fill:#9467bd;stroke:#9467bd;stroke-linejoin:miter;" x="1277.017614" xlink:href="#m4f41b28bec" y="81.465262"/>
     <use style="fill:#9467bd;stroke:#9467bd;stroke-linejoin:miter;" x="1322.108523" xlink:href="#m4f41b28bec" y="50.756094"/>
    </g>
   </g>
   <g id="patch_3">
    <path d="M 43.78125 521.278125 
L 43.78125 22.318125 
" style="fill:none;stroke:#000000;stroke-linecap:square;stroke-linejoin:miter;stroke-width:0.8;"/>
   </g>
   <g id="patch_4">
    <path d="M 1382.98125 521.278125 
L 1382.98125 22.318125 
" style="fill:none;stroke:#000000;stroke-linecap:square;stroke-linejoin:miter;stroke-width:0.8;"/>
   </g>
   <g id="patch_5">
    <path d="M 43.78125 521.278125 
L 1382.98125 521.278125 
" style="fill:none;stroke:#000000;stroke-linecap:square;stroke-linejoin:miter;stroke-width:0.8;"/>
   </g>
   <g id="patch_6">
    <path d="M 43.78125 22.318125 
L 1382.98125 22.318125 
" style="fill:none;stroke:#000000;stroke-linecap:square;stroke-linejoin:miter;stroke-width:0.8;"/>
   </g>
   <g id="text_38">
    <!-- Performance on each dataset of ensemble classifier and HABC  -->
    <g transform="translate(523.86 16.318125)scale(0.12 -0.12)">
     <defs>
      <path d="M 19.671875 64.796875 
L 19.671875 37.40625 
L 32.078125 37.40625 
Q 38.96875 37.40625 42.71875 40.96875 
Q 46.484375 44.53125 46.484375 51.125 
Q 46.484375 57.671875 42.71875 61.234375 
Q 38.96875 64.796875 32.078125 64.796875 
z
M 9.8125 72.90625 
L 32.078125 72.90625 
Q 44.34375 72.90625 50.609375 67.359375 
Q 56.890625 61.8125 56.890625 51.125 
Q 56.890625 40.328125 50.609375 34.8125 
Q 44.34375 29.296875 32.078125 29.296875 
L 19.671875 29.296875 
L 19.671875 0 
L 9.8125 0 
z
" id="DejaVuSans-80"/>
      <path d="M 37.109375 75.984375 
L 37.109375 68.5 
L 28.515625 68.5 
Q 23.6875 68.5 21.796875 66.546875 
Q 19.921875 64.59375 19.921875 59.515625 
L 19.921875 54.6875 
L 34.71875 54.6875 
L 34.71875 47.703125 
L 19.921875 47.703125 
L 19.921875 0 
L 10.890625 0 
L 10.890625 47.703125 
L 2.296875 47.703125 
L 2.296875 54.6875 
L 10.890625 54.6875 
L 10.890625 58.5 
Q 10.890625 67.625 15.140625 71.796875 
Q 19.390625 75.984375 28.609375 75.984375 
z
" id="DejaVuSans-102"/>
      <path id="DejaVuSans-32"/>
      <path d="M 9.8125 72.90625 
L 19.671875 72.90625 
L 19.671875 43.015625 
L 55.515625 43.015625 
L 55.515625 72.90625 
L 65.375 72.90625 
L 65.375 0 
L 55.515625 0 
L 55.515625 34.71875 
L 19.671875 34.71875 
L 19.671875 0 
L 9.8125 0 
z
" id="DejaVuSans-72"/>
      <path d="M 19.671875 34.8125 
L 19.671875 8.109375 
L 35.5 8.109375 
Q 43.453125 8.109375 47.28125 11.40625 
Q 51.125 14.703125 51.125 21.484375 
Q 51.125 28.328125 47.28125 31.5625 
Q 43.453125 34.8125 35.5 34.8125 
z
M 19.671875 64.796875 
L 19.671875 42.828125 
L 34.28125 42.828125 
Q 41.5 42.828125 45.03125 45.53125 
Q 48.578125 48.25 48.578125 53.8125 
Q 48.578125 59.328125 45.03125 62.0625 
Q 41.5 64.796875 34.28125 64.796875 
z
M 9.8125 72.90625 
L 35.015625 72.90625 
Q 46.296875 72.90625 52.390625 68.21875 
Q 58.5 63.53125 58.5 54.890625 
Q 58.5 48.1875 55.375 44.234375 
Q 52.25 40.28125 46.1875 39.3125 
Q 53.46875 37.75 57.5 32.78125 
Q 61.53125 27.828125 61.53125 20.40625 
Q 61.53125 10.640625 54.890625 5.3125 
Q 48.25 0 35.984375 0 
L 9.8125 0 
z
" id="DejaVuSans-66"/>
     </defs>
     <use xlink:href="#DejaVuSans-80"/>
     <use x="56.677734" xlink:href="#DejaVuSans-101"/>
     <use x="118.201172" xlink:href="#DejaVuSans-114"/>
     <use x="159.314453" xlink:href="#DejaVuSans-102"/>
     <use x="194.519531" xlink:href="#DejaVuSans-111"/>
     <use x="255.701172" xlink:href="#DejaVuSans-114"/>
     <use x="295.064453" xlink:href="#DejaVuSans-109"/>
     <use x="392.476562" xlink:href="#DejaVuSans-97"/>
     <use x="453.755859" xlink:href="#DejaVuSans-110"/>
     <use x="517.134766" xlink:href="#DejaVuSans-99"/>
     <use x="572.115234" xlink:href="#DejaVuSans-101"/>
     <use x="633.638672" xlink:href="#DejaVuSans-32"/>
     <use x="665.425781" xlink:href="#DejaVuSans-111"/>
     <use x="726.607422" xlink:href="#DejaVuSans-110"/>
     <use x="789.986328" xlink:href="#DejaVuSans-32"/>
     <use x="821.773438" xlink:href="#DejaVuSans-101"/>
     <use x="883.296875" xlink:href="#DejaVuSans-97"/>
     <use x="944.576172" xlink:href="#DejaVuSans-99"/>
     <use x="999.556641" xlink:href="#DejaVuSans-104"/>
     <use x="1062.935547" xlink:href="#DejaVuSans-32"/>
     <use x="1094.722656" xlink:href="#DejaVuSans-100"/>
     <use x="1158.199219" xlink:href="#DejaVuSans-97"/>
     <use x="1219.478516" xlink:href="#DejaVuSans-116"/>
     <use x="1258.6875" xlink:href="#DejaVuSans-97"/>
     <use x="1319.966797" xlink:href="#DejaVuSans-115"/>
     <use x="1372.066406" xlink:href="#DejaVuSans-101"/>
     <use x="1433.589844" xlink:href="#DejaVuSans-116"/>
     <use x="1472.798828" xlink:href="#DejaVuSans-32"/>
     <use x="1504.585938" xlink:href="#DejaVuSans-111"/>
     <use x="1565.767578" xlink:href="#DejaVuSans-102"/>
     <use x="1600.972656" xlink:href="#DejaVuSans-32"/>
     <use x="1632.759766" xlink:href="#DejaVuSans-101"/>
     <use x="1694.283203" xlink:href="#DejaVuSans-110"/>
     <use x="1757.662109" xlink:href="#DejaVuSans-115"/>
     <use x="1809.761719" xlink:href="#DejaVuSans-101"/>
     <use x="1871.285156" xlink:href="#DejaVuSans-109"/>
     <use x="1968.697266" xlink:href="#DejaVuSans-98"/>
     <use x="2032.173828" xlink:href="#DejaVuSans-108"/>
     <use x="2059.957031" xlink:href="#DejaVuSans-101"/>
     <use x="2121.480469" xlink:href="#DejaVuSans-32"/>
     <use x="2153.267578" xlink:href="#DejaVuSans-99"/>
     <use x="2208.248047" xlink:href="#DejaVuSans-108"/>
     <use x="2236.03125" xlink:href="#DejaVuSans-97"/>
     <use x="2297.310547" xlink:href="#DejaVuSans-115"/>
     <use x="2349.410156" xlink:href="#DejaVuSans-115"/>
     <use x="2401.509766" xlink:href="#DejaVuSans-105"/>
     <use x="2429.292969" xlink:href="#DejaVuSans-102"/>
     <use x="2464.498047" xlink:href="#DejaVuSans-105"/>
     <use x="2492.28125" xlink:href="#DejaVuSans-101"/>
     <use x="2553.804688" xlink:href="#DejaVuSans-114"/>
     <use x="2594.917969" xlink:href="#DejaVuSans-32"/>
     <use x="2626.705078" xlink:href="#DejaVuSans-97"/>
     <use x="2687.984375" xlink:href="#DejaVuSans-110"/>
     <use x="2751.363281" xlink:href="#DejaVuSans-100"/>
     <use x="2814.839844" xlink:href="#DejaVuSans-32"/>
     <use x="2846.626953" xlink:href="#DejaVuSans-72"/>
     <use x="2921.822266" xlink:href="#DejaVuSans-65"/>
     <use x="2990.230469" xlink:href="#DejaVuSans-66"/>
     <use x="3057.083984" xlink:href="#DejaVuSans-67"/>
     <use x="3126.908203" xlink:href="#DejaVuSans-32"/>
    </g>
   </g>
   <g id="legend_1">
    <g id="patch_7">
     <path d="M 50.78125 103.70875 
L 170.164062 103.70875 
Q 172.164062 103.70875 172.164062 101.70875 
L 172.164062 29.318125 
Q 172.164062 27.318125 170.164062 27.318125 
L 50.78125 27.318125 
Q 48.78125 27.318125 48.78125 29.318125 
L 48.78125 101.70875 
Q 48.78125 103.70875 50.78125 103.70875 
z
" style="fill:#ffffff;opacity:0.8;stroke:#cccccc;stroke-linejoin:miter;"/>
    </g>
    <g id="line2d_50">
     <path d="M 52.78125 35.416562 
L 72.78125 35.416562 
" style="fill:none;stroke:#1f77b4;stroke-linecap:square;stroke-width:2;"/>
    </g>
    <g id="line2d_51">
     <g>
      <use style="fill:#1f77b4;stroke:#1f77b4;stroke-linejoin:miter;" x="62.78125" xlink:href="#m7429335a9c" y="35.416562"/>
     </g>
    </g>
    <g id="text_39">
     <!-- RandomForest -->
     <g transform="translate(80.78125 38.916562)scale(0.1 -0.1)">
      <defs>
       <path d="M 44.390625 34.1875 
Q 47.5625 33.109375 50.5625 29.59375 
Q 53.5625 26.078125 56.59375 19.921875 
L 66.609375 0 
L 56 0 
L 46.6875 18.703125 
Q 43.0625 26.03125 39.671875 28.421875 
Q 36.28125 30.8125 30.421875 30.8125 
L 19.671875 30.8125 
L 19.671875 0 
L 9.8125 0 
L 9.8125 72.90625 
L 32.078125 72.90625 
Q 44.578125 72.90625 50.734375 67.671875 
Q 56.890625 62.453125 56.890625 51.90625 
Q 56.890625 45.015625 53.6875 40.46875 
Q 50.484375 35.9375 44.390625 34.1875 
z
M 19.671875 64.796875 
L 19.671875 38.921875 
L 32.078125 38.921875 
Q 39.203125 38.921875 42.84375 42.21875 
Q 46.484375 45.515625 46.484375 51.90625 
Q 46.484375 58.296875 42.84375 61.546875 
Q 39.203125 64.796875 32.078125 64.796875 
z
" id="DejaVuSans-82"/>
       <path d="M 9.8125 72.90625 
L 51.703125 72.90625 
L 51.703125 64.59375 
L 19.671875 64.59375 
L 19.671875 43.109375 
L 48.578125 43.109375 
L 48.578125 34.8125 
L 19.671875 34.8125 
L 19.671875 0 
L 9.8125 0 
z
" id="DejaVuSans-70"/>
      </defs>
      <use xlink:href="#DejaVuSans-82"/>
      <use x="67.232422" xlink:href="#DejaVuSans-97"/>
      <use x="128.511719" xlink:href="#DejaVuSans-110"/>
      <use x="191.890625" xlink:href="#DejaVuSans-100"/>
      <use x="255.367188" xlink:href="#DejaVuSans-111"/>
      <use x="316.548828" xlink:href="#DejaVuSans-109"/>
      <use x="413.960938" xlink:href="#DejaVuSans-70"/>
      <use x="467.855469" xlink:href="#DejaVuSans-111"/>
      <use x="529.037109" xlink:href="#DejaVuSans-114"/>
      <use x="567.900391" xlink:href="#DejaVuSans-101"/>
      <use x="629.423828" xlink:href="#DejaVuSans-115"/>
      <use x="681.523438" xlink:href="#DejaVuSans-116"/>
     </g>
    </g>
    <g id="line2d_52">
     <path d="M 52.78125 50.094687 
L 72.78125 50.094687 
" style="fill:none;stroke:#ff7f0e;stroke-linecap:square;stroke-width:2;"/>
    </g>
    <g id="line2d_53">
     <g>
      <use style="fill:#ff7f0e;stroke:#ff7f0e;stroke-linejoin:miter;" x="62.78125" xlink:href="#md02764895d" y="50.094687"/>
     </g>
    </g>
    <g id="text_40">
     <!-- AdaBoost -->
     <g transform="translate(80.78125 53.594687)scale(0.1 -0.1)">
      <use xlink:href="#DejaVuSans-65"/>
      <use x="66.658203" xlink:href="#DejaVuSans-100"/>
      <use x="130.134766" xlink:href="#DejaVuSans-97"/>
      <use x="191.414062" xlink:href="#DejaVuSans-66"/>
      <use x="260.017578" xlink:href="#DejaVuSans-111"/>
      <use x="321.199219" xlink:href="#DejaVuSans-111"/>
      <use x="382.380859" xlink:href="#DejaVuSans-115"/>
      <use x="434.480469" xlink:href="#DejaVuSans-116"/>
     </g>
    </g>
    <g id="line2d_54">
     <path d="M 52.78125 64.772812 
L 72.78125 64.772812 
" style="fill:none;stroke:#2ca02c;stroke-linecap:square;stroke-width:2;"/>
    </g>
    <g id="line2d_55">
     <g>
      <use style="fill:#2ca02c;stroke:#2ca02c;" x="62.78125" xlink:href="#mb6de27dfee" y="64.772812"/>
     </g>
    </g>
    <g id="text_41">
     <!-- EasyEnsemble -->
     <g transform="translate(80.78125 68.272812)scale(0.1 -0.1)">
      <defs>
       <path d="M 9.8125 72.90625 
L 55.90625 72.90625 
L 55.90625 64.59375 
L 19.671875 64.59375 
L 19.671875 43.015625 
L 54.390625 43.015625 
L 54.390625 34.71875 
L 19.671875 34.71875 
L 19.671875 8.296875 
L 56.78125 8.296875 
L 56.78125 0 
L 9.8125 0 
z
" id="DejaVuSans-69"/>
      </defs>
      <use xlink:href="#DejaVuSans-69"/>
      <use x="63.183594" xlink:href="#DejaVuSans-97"/>
      <use x="124.462891" xlink:href="#DejaVuSans-115"/>
      <use x="176.5625" xlink:href="#DejaVuSans-121"/>
      <use x="235.742188" xlink:href="#DejaVuSans-69"/>
      <use x="298.925781" xlink:href="#DejaVuSans-110"/>
      <use x="362.304688" xlink:href="#DejaVuSans-115"/>
      <use x="414.404297" xlink:href="#DejaVuSans-101"/>
      <use x="475.927734" xlink:href="#DejaVuSans-109"/>
      <use x="573.339844" xlink:href="#DejaVuSans-98"/>
      <use x="636.816406" xlink:href="#DejaVuSans-108"/>
      <use x="664.599609" xlink:href="#DejaVuSans-101"/>
     </g>
    </g>
    <g id="line2d_56">
     <path d="M 52.78125 79.450937 
L 72.78125 79.450937 
" style="fill:none;stroke:#d62728;stroke-linecap:square;stroke-width:2;"/>
    </g>
    <g id="line2d_57">
     <g>
      <use style="fill:#d62728;stroke:#d62728;stroke-linejoin:miter;" x="62.78125" xlink:href="#maf5376c344" y="79.450937"/>
     </g>
    </g>
    <g id="text_42">
     <!-- BalancedBagging -->
     <g transform="translate(80.78125 82.950937)scale(0.1 -0.1)">
      <use xlink:href="#DejaVuSans-66"/>
      <use x="68.603516" xlink:href="#DejaVuSans-97"/>
      <use x="129.882812" xlink:href="#DejaVuSans-108"/>
      <use x="157.666016" xlink:href="#DejaVuSans-97"/>
      <use x="218.945312" xlink:href="#DejaVuSans-110"/>
      <use x="282.324219" xlink:href="#DejaVuSans-99"/>
      <use x="337.304688" xlink:href="#DejaVuSans-101"/>
      <use x="398.828125" xlink:href="#DejaVuSans-100"/>
      <use x="462.304688" xlink:href="#DejaVuSans-66"/>
      <use x="530.908203" xlink:href="#DejaVuSans-97"/>
      <use x="592.1875" xlink:href="#DejaVuSans-103"/>
      <use x="655.664062" xlink:href="#DejaVuSans-103"/>
      <use x="719.140625" xlink:href="#DejaVuSans-105"/>
      <use x="746.923828" xlink:href="#DejaVuSans-110"/>
      <use x="810.302734" xlink:href="#DejaVuSans-103"/>
     </g>
    </g>
    <g id="line2d_58">
     <path d="M 52.78125 94.129062 
L 72.78125 94.129062 
" style="fill:none;stroke:#9467bd;stroke-linecap:square;stroke-width:2;"/>
    </g>
    <g id="line2d_59">
     <g>
      <use style="fill:#9467bd;stroke:#9467bd;stroke-linejoin:miter;" x="62.78125" xlink:href="#m4f41b28bec" y="94.129062"/>
     </g>
    </g>
    <g id="text_43">
     <!-- HABC -->
     <g transform="translate(80.78125 97.629062)scale(0.1 -0.1)">
      <use xlink:href="#DejaVuSans-72"/>
      <use x="75.195312" xlink:href="#DejaVuSans-65"/>
      <use x="143.603516" xlink:href="#DejaVuSans-66"/>
      <use x="210.457031" xlink:href="#DejaVuSans-67"/>
     </g>
    </g>
   </g>
  </g>
 </g>
 <defs>
  <clipPath id="p3127ba7140">
   <rect height="498.96" width="1339.2" x="43.78125" y="22.318125"/>
  </clipPath>
 </defs>
</svg>
