<?xml version="1.0" encoding="utf-8" standalone="no"?>
<!DOCTYPE svg PUBLIC "-//W3C//DTD SVG 1.1//EN"
  "http://www.w3.org/Graphics/SVG/1.1/DTD/svg11.dtd">
<!-- Created with matplotlib (https://matplotlib.org/) -->
<svg height="640.328227pt" version="1.1" viewBox="0 0 857.4175 640.328227" width="857.4175pt" xmlns="http://www.w3.org/2000/svg" xmlns:xlink="http://www.w3.org/1999/xlink">
 <metadata>
  <rdf:RDF xmlns:cc="http://creativecommons.org/ns#" xmlns:dc="http://purl.org/dc/elements/1.1/" xmlns:rdf="http://www.w3.org/1999/02/22-rdf-syntax-ns#">
   <cc:Work>
    <dc:type rdf:resource="http://purl.org/dc/dcmitype/StillImage"/>
    <dc:date>2021-05-14T14:40:27.810360</dc:date>
    <dc:format>image/svg+xml</dc:format>
    <dc:creator>
     <cc:Agent>
      <dc:title>Matplotlib v3.3.4, https://matplotlib.org/</dc:title>
     </cc:Agent>
    </dc:creator>
   </cc:Work>
  </rdf:RDF>
 </metadata>
 <defs>
  <style type="text/css">*{stroke-linecap:butt;stroke-linejoin:round;}</style>
 </defs>
 <g id="figure_1">
  <g id="patch_1">
   <path d="M 0 640.328227 
L 857.4175 640.328227 
L 857.4175 0 
L 0 0 
z
" style="fill:#ffffff;"/>
  </g>
  <g id="axes_1">
   <g id="patch_2">
    <path d="M 44.4675 612.110727 
L 850.2175 612.110727 
L 850.2175 7.611597 
L 44.4675 7.611597 
z
" style="fill:#ffffff;"/>
   </g>
   <g id="matplotlib.axis_1">
    <g id="xtick_1">
     <g id="line2d_1">
      <defs>
       <path d="M 0 0 
L 0 3.5 
" id="me06a179e8f" style="stroke:#000000;stroke-width:0.8;"/>
      </defs>
      <g>
       <use style="stroke:#000000;stroke-width:0.8;" x="136.584924" xlink:href="#me06a179e8f" y="612.110727"/>
      </g>
     </g>
     <g id="text_1">
      <!-- RUS-KNN -->
      <g transform="translate(100.139924 629.705727)scale(0.16 -0.16)">
       <defs>
        <path d="M 26.5625 30.171875 
L 26.5625 11.625 
Q 26.5625 6.25 27.21875 4.859375 
Q 27.875 3.46875 29.53125 2.640625 
Q 31.203125 1.8125 35.75 1.8125 
L 35.75 0 
L 1.859375 0 
L 1.859375 1.8125 
Q 6.453125 1.8125 8.078125 2.65625 
Q 9.71875 3.515625 10.375 4.875 
Q 11.03125 6.25 11.03125 11.625 
L 11.03125 54.59375 
Q 11.03125 59.96875 10.375 61.359375 
Q 9.71875 62.75 8.046875 63.578125 
Q 6.390625 64.40625 1.859375 64.40625 
L 1.859375 66.21875 
L 32.625 66.21875 
Q 44.625 66.21875 50.1875 64.546875 
Q 55.765625 62.890625 59.28125 58.421875 
Q 62.796875 53.953125 62.796875 47.953125 
Q 62.796875 40.625 57.515625 35.84375 
Q 54.15625 32.8125 48.09375 31.296875 
L 64.015625 8.890625 
Q 67.140625 4.546875 68.453125 3.46875 
Q 70.453125 1.953125 73.09375 1.8125 
L 73.09375 0 
L 52.25 0 
L 30.90625 30.171875 
z
M 26.5625 62.640625 
L 26.5625 33.640625 
L 29.34375 33.640625 
Q 36.140625 33.640625 39.5 34.890625 
Q 42.875 36.140625 44.796875 39.375 
Q 46.734375 42.625 46.734375 47.859375 
Q 46.734375 55.421875 43.1875 59.03125 
Q 39.65625 62.640625 31.78125 62.640625 
z
" id="TimesNewRomanPS-BoldMT-82"/>
        <path d="M 2.34375 66.21875 
L 36.53125 66.21875 
L 36.53125 64.40625 
L 34.8125 64.40625 
Q 30.953125 64.40625 29.515625 63.59375 
Q 28.078125 62.796875 27.46875 61.375 
Q 26.859375 59.96875 26.859375 54.296875 
L 26.859375 21.875 
Q 26.859375 12.984375 28.203125 10.109375 
Q 29.546875 7.234375 32.609375 5.328125 
Q 35.6875 3.421875 40.375 3.421875 
Q 45.75 3.421875 49.53125 5.828125 
Q 53.328125 8.25 55.203125 12.5 
Q 57.078125 16.75 57.078125 27.296875 
L 57.078125 54.296875 
Q 57.078125 58.734375 56.140625 60.640625 
Q 55.21875 62.546875 53.8125 63.28125 
Q 51.609375 64.40625 47.609375 64.40625 
L 47.609375 66.21875 
L 70.515625 66.21875 
L 70.515625 64.40625 
L 69.140625 64.40625 
Q 66.359375 64.40625 64.5 63.28125 
Q 62.640625 62.15625 61.8125 59.90625 
Q 61.1875 58.34375 61.1875 54.296875 
L 61.1875 29.15625 
Q 61.1875 17.484375 59.640625 12.296875 
Q 58.109375 7.125 52.140625 2.78125 
Q 46.1875 -1.5625 35.890625 -1.5625 
Q 27.296875 -1.5625 22.609375 0.734375 
Q 16.21875 3.859375 13.578125 8.734375 
Q 10.9375 13.625 10.9375 21.875 
L 10.9375 54.296875 
Q 10.9375 60.015625 10.296875 61.40625 
Q 9.671875 62.796875 8.109375 63.625 
Q 6.546875 64.453125 2.34375 64.40625 
z
" id="TimesNewRomanPS-BoldMT-85"/>
        <path d="M 46.96875 67.71875 
L 47.515625 45.65625 
L 45.515625 45.65625 
Q 44.09375 53.953125 38.546875 59 
Q 33.015625 64.0625 26.5625 64.0625 
Q 21.578125 64.0625 18.671875 61.390625 
Q 15.765625 58.734375 15.765625 55.28125 
Q 15.765625 53.078125 16.796875 51.375 
Q 18.21875 49.078125 21.34375 46.828125 
Q 23.640625 45.21875 31.9375 41.109375 
Q 43.5625 35.40625 47.609375 30.328125 
Q 51.609375 25.25 51.609375 18.703125 
Q 51.609375 10.40625 45.140625 4.421875 
Q 38.671875 -1.5625 28.71875 -1.5625 
Q 25.59375 -1.5625 22.796875 -0.921875 
Q 20.015625 -0.296875 15.828125 1.46875 
Q 13.484375 2.4375 11.96875 2.4375 
Q 10.6875 2.4375 9.265625 1.453125 
Q 7.859375 0.484375 6.984375 -1.515625 
L 5.171875 -1.515625 
L 5.171875 23.484375 
L 6.984375 23.484375 
Q 9.125 12.9375 15.25 7.390625 
Q 21.390625 1.859375 28.46875 1.859375 
Q 33.9375 1.859375 37.1875 4.828125 
Q 40.4375 7.8125 40.4375 11.765625 
Q 40.4375 14.109375 39.1875 16.296875 
Q 37.9375 18.5 35.390625 20.484375 
Q 32.859375 22.46875 26.421875 25.640625 
Q 17.390625 30.078125 13.421875 33.203125 
Q 9.46875 36.328125 7.34375 40.1875 
Q 5.21875 44.046875 5.21875 48.6875 
Q 5.21875 56.59375 11.03125 62.15625 
Q 16.84375 67.71875 25.6875 67.71875 
Q 28.90625 67.71875 31.9375 66.9375 
Q 34.234375 66.359375 37.53125 64.765625 
Q 40.828125 63.1875 42.140625 63.1875 
Q 43.40625 63.1875 44.140625 63.96875 
Q 44.875 64.75 45.515625 67.71875 
z
" id="TimesNewRomanPS-BoldMT-83"/>
        <path d="M 30.90625 17.921875 
L 2.4375 17.921875 
L 2.4375 28.03125 
L 30.90625 28.03125 
z
" id="TimesNewRomanPS-BoldMT-45"/>
        <path d="M 41.65625 40.875 
L 64.9375 11.71875 
Q 69.875 5.5625 73.4375 3.375 
Q 76.03125 1.8125 78.90625 1.8125 
L 78.90625 0 
L 44.4375 0 
L 44.4375 1.8125 
Q 47.703125 2.09375 48.65625 2.828125 
Q 49.609375 3.5625 49.609375 4.640625 
Q 49.609375 6.6875 45.125 12.359375 
L 29.9375 31.453125 
L 27.484375 29.390625 
L 27.484375 11.328125 
Q 27.484375 6.15625 28.0625 4.875 
Q 28.65625 3.609375 30.3125 2.703125 
Q 31.984375 1.8125 35.640625 1.8125 
L 35.640625 0 
L 2.25 0 
L 2.25 1.8125 
L 4.4375 1.8125 
Q 7.328125 1.8125 9.078125 2.828125 
Q 10.359375 3.515625 11.03125 5.171875 
Q 11.578125 6.34375 11.578125 11.328125 
L 11.578125 54.890625 
Q 11.578125 59.96875 11.03125 61.234375 
Q 10.5 62.5 8.859375 63.453125 
Q 7.234375 64.40625 4.4375 64.40625 
L 2.25 64.40625 
L 2.25 66.21875 
L 35.203125 66.21875 
L 35.203125 64.40625 
Q 31.84375 64.40625 30.078125 63.421875 
Q 28.8125 62.75 28.078125 61.140625 
Q 27.484375 59.90625 27.484375 54.890625 
L 27.484375 34.28125 
L 52.046875 54.15625 
Q 57.171875 58.296875 57.171875 60.796875 
Q 57.171875 62.640625 55.078125 63.71875 
Q 54 64.265625 49.75 64.40625 
L 49.75 66.21875 
L 75.59375 66.21875 
L 75.59375 64.40625 
Q 72.125 64.15625 70.140625 63.15625 
Q 68.171875 62.15625 61.03125 56.390625 
z
" id="TimesNewRomanPS-BoldMT-75"/>
        <path d="M 24.90625 66.21875 
L 57.5625 25.140625 
L 57.5625 53.609375 
Q 57.5625 59.578125 55.859375 61.671875 
Q 53.515625 64.5 48 64.40625 
L 48 66.21875 
L 69.875 66.21875 
L 69.875 64.40625 
Q 65.671875 63.875 64.234375 63.015625 
Q 62.796875 62.15625 61.984375 60.21875 
Q 61.1875 58.296875 61.1875 53.609375 
L 61.1875 -1.515625 
L 59.515625 -1.515625 
L 14.75 53.609375 
L 14.75 11.53125 
Q 14.75 5.8125 17.359375 3.8125 
Q 19.96875 1.8125 23.34375 1.8125 
L 24.90625 1.8125 
L 24.90625 0 
L 1.421875 0 
L 1.421875 1.8125 
Q 6.890625 1.859375 9.03125 4.046875 
Q 11.1875 6.25 11.1875 11.53125 
L 11.1875 58.25 
L 9.765625 60.015625 
Q 7.671875 62.640625 6.046875 63.46875 
Q 4.4375 64.3125 1.421875 64.40625 
L 1.421875 66.21875 
z
" id="TimesNewRomanPS-BoldMT-78"/>
       </defs>
       <use xlink:href="#TimesNewRomanPS-BoldMT-82"/>
       <use x="72.216797" xlink:href="#TimesNewRomanPS-BoldMT-85"/>
       <use x="144.433594" xlink:href="#TimesNewRomanPS-BoldMT-83"/>
       <use x="200.048828" xlink:href="#TimesNewRomanPS-BoldMT-45"/>
       <use x="233.349609" xlink:href="#TimesNewRomanPS-BoldMT-75"/>
       <use x="311.132812" xlink:href="#TimesNewRomanPS-BoldMT-78"/>
       <use x="383.349609" xlink:href="#TimesNewRomanPS-BoldMT-78"/>
      </g>
     </g>
    </g>
    <g id="xtick_2">
     <g id="line2d_2">
      <g>
       <use style="stroke:#000000;stroke-width:0.8;" x="291.963712" xlink:href="#me06a179e8f" y="612.110727"/>
      </g>
     </g>
     <g id="text_2">
      <!-- SMOTE-KNN -->
      <g transform="translate(242.627462 629.705727)scale(0.16 -0.16)">
       <defs>
        <path d="M 47.65625 22.5625 
L 65.625 66.21875 
L 92.578125 66.21875 
L 92.578125 64.40625 
L 90.4375 64.40625 
Q 87.5 64.40625 85.75 63.375 
Q 84.515625 62.703125 83.796875 61.078125 
Q 83.25 59.90625 83.25 54.984375 
L 83.25 11.328125 
Q 83.25 6.25 83.78125 4.984375 
Q 84.328125 3.71875 85.984375 2.765625 
Q 87.640625 1.8125 90.4375 1.8125 
L 92.578125 1.8125 
L 92.578125 0 
L 58.015625 0 
L 58.015625 1.8125 
L 60.15625 1.8125 
Q 63.09375 1.8125 64.84375 2.828125 
Q 66.0625 3.515625 66.796875 5.171875 
Q 67.328125 6.34375 67.328125 11.328125 
L 67.328125 60.40625 
L 41.9375 0 
L 40.765625 0 
L 14.984375 59.96875 
L 14.984375 13.328125 
Q 14.984375 8.453125 15.234375 7.328125 
Q 15.875 4.890625 18 3.34375 
Q 20.125 1.8125 24.65625 1.8125 
L 24.65625 0 
L 2 0 
L 2 1.8125 
L 2.6875 1.8125 
Q 4.890625 1.765625 6.78125 2.515625 
Q 8.6875 3.265625 9.65625 4.53125 
Q 10.640625 5.8125 11.1875 8.109375 
Q 11.28125 8.640625 11.28125 13.09375 
L 11.28125 54.984375 
Q 11.28125 60.015625 10.734375 61.25 
Q 10.203125 62.5 8.546875 63.453125 
Q 6.890625 64.40625 4.109375 64.40625 
L 2 64.40625 
L 2 66.21875 
L 29.046875 66.21875 
z
" id="TimesNewRomanPS-BoldMT-77"/>
        <path d="M 38.625 67.140625 
Q 54.4375 67.71875 64.328125 57.90625 
Q 74.21875 48.09375 74.21875 33.34375 
Q 74.21875 20.75 66.84375 11.1875 
Q 57.078125 -1.515625 39.265625 -1.515625 
Q 21.390625 -1.515625 11.625 10.59375 
Q 3.90625 20.171875 3.90625 33.296875 
Q 3.90625 48.046875 13.9375 57.875 
Q 23.96875 67.71875 38.625 67.140625 
z
M 39.203125 64.015625 
Q 30.125 64.015625 25.390625 54.734375 
Q 21.53125 47.125 21.53125 32.859375 
Q 21.53125 15.921875 27.484375 7.8125 
Q 31.640625 2.15625 39.109375 2.15625 
Q 44.140625 2.15625 47.515625 4.59375 
Q 51.8125 7.71875 54.203125 14.578125 
Q 56.59375 21.4375 56.59375 32.46875 
Q 56.59375 45.609375 54.140625 52.125 
Q 51.703125 58.640625 47.921875 61.328125 
Q 44.140625 64.015625 39.203125 64.015625 
z
" id="TimesNewRomanPS-BoldMT-79"/>
        <path d="M 63.09375 66.21875 
L 63.09375 48.296875 
L 61.328125 48.296875 
Q 59.765625 54.5 57.859375 57.203125 
Q 55.953125 59.90625 52.640625 61.53125 
Q 50.78125 62.40625 46.140625 62.40625 
L 41.21875 62.40625 
L 41.21875 11.328125 
Q 41.21875 6.25 41.765625 4.984375 
Q 42.328125 3.71875 43.96875 2.765625 
Q 45.609375 1.8125 48.4375 1.8125 
L 50.640625 1.8125 
L 50.640625 0 
L 15.96875 0 
L 15.96875 1.8125 
L 18.171875 1.8125 
Q 21.046875 1.8125 22.796875 2.828125 
Q 24.078125 3.515625 24.8125 5.171875 
Q 25.34375 6.34375 25.34375 11.328125 
L 25.34375 62.40625 
L 20.5625 62.40625 
Q 13.875 62.40625 10.84375 59.578125 
Q 6.59375 55.609375 5.46875 48.296875 
L 3.609375 48.296875 
L 3.609375 66.21875 
z
" id="TimesNewRomanPS-BoldMT-84"/>
        <path d="M 27.25 62.40625 
L 27.25 35.453125 
L 28.5625 35.453125 
Q 34.859375 35.453125 37.6875 39.40625 
Q 40.53125 43.359375 41.3125 51.078125 
L 43.171875 51.078125 
L 43.171875 16.40625 
L 41.3125 16.40625 
Q 40.71875 22.078125 38.84375 25.6875 
Q 36.96875 29.296875 34.46875 30.53125 
Q 31.984375 31.78125 27.25 31.78125 
L 27.25 13.140625 
Q 27.25 7.671875 27.703125 6.4375 
Q 28.171875 5.21875 29.4375 4.4375 
Q 30.71875 3.65625 33.546875 3.65625 
L 37.5 3.65625 
Q 46.78125 3.65625 52.359375 7.953125 
Q 57.953125 12.25 60.40625 21.046875 
L 62.203125 21.046875 
L 59.234375 0 
L 2 0 
L 2 1.8125 
L 4.203125 1.8125 
Q 7.078125 1.8125 8.84375 2.828125 
Q 10.109375 3.515625 10.796875 5.171875 
Q 11.328125 6.34375 11.328125 11.328125 
L 11.328125 54.890625 
Q 11.328125 59.375 11.078125 60.40625 
Q 10.59375 62.109375 9.28125 63.03125 
Q 7.421875 64.40625 4.203125 64.40625 
L 2 64.40625 
L 2 66.21875 
L 57.421875 66.21875 
L 57.421875 46.625 
L 55.5625 46.625 
Q 54.15625 53.8125 51.59375 56.9375 
Q 49.03125 60.0625 44.34375 61.53125 
Q 41.609375 62.40625 34.078125 62.40625 
z
" id="TimesNewRomanPS-BoldMT-69"/>
       </defs>
       <use xlink:href="#TimesNewRomanPS-BoldMT-83"/>
       <use x="55.615234" xlink:href="#TimesNewRomanPS-BoldMT-77"/>
       <use x="150" xlink:href="#TimesNewRomanPS-BoldMT-79"/>
       <use x="227.783203" xlink:href="#TimesNewRomanPS-BoldMT-84"/>
       <use x="294.482422" xlink:href="#TimesNewRomanPS-BoldMT-69"/>
       <use x="361.181641" xlink:href="#TimesNewRomanPS-BoldMT-45"/>
       <use x="394.482422" xlink:href="#TimesNewRomanPS-BoldMT-75"/>
       <use x="472.265625" xlink:href="#TimesNewRomanPS-BoldMT-78"/>
       <use x="544.482422" xlink:href="#TimesNewRomanPS-BoldMT-78"/>
      </g>
     </g>
    </g>
    <g id="xtick_3">
     <g id="line2d_3">
      <g>
       <use style="stroke:#000000;stroke-width:0.8;" x="447.3425" xlink:href="#me06a179e8f" y="612.110727"/>
      </g>
     </g>
     <g id="text_3">
      <!-- RUS-DT -->
      <g transform="translate(417.56125 629.705727)scale(0.16 -0.16)">
       <defs>
        <path d="M 1.3125 0 
L 1.3125 1.8125 
L 3.515625 1.8125 
Q 6.390625 1.8125 7.921875 2.703125 
Q 9.46875 3.609375 10.203125 5.171875 
Q 10.640625 6.203125 10.640625 11.328125 
L 10.640625 54.890625 
Q 10.640625 59.96875 10.109375 61.234375 
Q 9.578125 62.5 7.9375 63.453125 
Q 6.296875 64.40625 3.515625 64.40625 
L 1.3125 64.40625 
L 1.3125 66.21875 
L 30.953125 66.21875 
Q 42.828125 66.21875 50.046875 62.984375 
Q 58.890625 59.03125 63.453125 51.015625 
Q 68.015625 43.015625 68.015625 32.90625 
Q 68.015625 25.921875 65.765625 20.03125 
Q 63.53125 14.15625 59.953125 10.328125 
Q 56.390625 6.5 51.734375 4.171875 
Q 47.078125 1.859375 40.328125 0.59375 
Q 37.359375 0 30.953125 0 
z
M 26.5625 62.453125 
L 26.5625 10.796875 
Q 26.5625 6.6875 26.953125 5.75 
Q 27.34375 4.828125 28.265625 4.34375 
Q 29.59375 3.609375 32.078125 3.609375 
Q 40.234375 3.609375 44.53125 9.1875 
Q 50.390625 16.703125 50.390625 32.515625 
Q 50.390625 45.265625 46.390625 52.875 
Q 43.21875 58.84375 38.234375 60.984375 
Q 34.71875 62.5 26.5625 62.453125 
z
" id="TimesNewRomanPS-BoldMT-68"/>
       </defs>
       <use xlink:href="#TimesNewRomanPS-BoldMT-82"/>
       <use x="72.216797" xlink:href="#TimesNewRomanPS-BoldMT-85"/>
       <use x="144.433594" xlink:href="#TimesNewRomanPS-BoldMT-83"/>
       <use x="200.048828" xlink:href="#TimesNewRomanPS-BoldMT-45"/>
       <use x="233.349609" xlink:href="#TimesNewRomanPS-BoldMT-68"/>
       <use x="305.566406" xlink:href="#TimesNewRomanPS-BoldMT-84"/>
      </g>
     </g>
    </g>
    <g id="xtick_4">
     <g id="line2d_4">
      <g>
       <use style="stroke:#000000;stroke-width:0.8;" x="602.721288" xlink:href="#me06a179e8f" y="612.110727"/>
      </g>
     </g>
     <g id="text_4">
      <!-- SMOTE-DT -->
      <g transform="translate(560.048788 629.705727)scale(0.16 -0.16)">
       <use xlink:href="#TimesNewRomanPS-BoldMT-83"/>
       <use x="55.615234" xlink:href="#TimesNewRomanPS-BoldMT-77"/>
       <use x="150" xlink:href="#TimesNewRomanPS-BoldMT-79"/>
       <use x="227.783203" xlink:href="#TimesNewRomanPS-BoldMT-84"/>
       <use x="294.482422" xlink:href="#TimesNewRomanPS-BoldMT-69"/>
       <use x="361.181641" xlink:href="#TimesNewRomanPS-BoldMT-45"/>
       <use x="394.482422" xlink:href="#TimesNewRomanPS-BoldMT-68"/>
       <use x="466.699219" xlink:href="#TimesNewRomanPS-BoldMT-84"/>
      </g>
     </g>
    </g>
    <g id="xtick_5">
     <g id="line2d_5">
      <g>
       <use style="stroke:#000000;stroke-width:0.8;" x="758.100076" xlink:href="#me06a179e8f" y="612.110727"/>
      </g>
     </g>
     <g id="text_5">
      <!-- HABC -->
      <g transform="translate(734.986326 629.705727)scale(0.16 -0.16)">
       <defs>
        <path d="M 27.34375 31.84375 
L 27.34375 11.328125 
Q 27.34375 6.25 27.90625 4.984375 
Q 28.46875 3.71875 30.09375 2.765625 
Q 31.734375 1.8125 34.515625 1.8125 
L 36.71875 1.8125 
L 36.71875 0 
L 2.09375 0 
L 2.09375 1.8125 
L 4.296875 1.8125 
Q 7.171875 1.8125 8.9375 2.828125 
Q 10.203125 3.515625 10.890625 5.171875 
Q 11.421875 6.34375 11.421875 11.328125 
L 11.421875 54.890625 
Q 11.421875 59.96875 10.890625 61.234375 
Q 10.359375 62.5 8.71875 63.453125 
Q 7.078125 64.40625 4.296875 64.40625 
L 2.09375 64.40625 
L 2.09375 66.21875 
L 36.71875 66.21875 
L 36.71875 64.40625 
L 34.515625 64.40625 
Q 31.640625 64.40625 29.890625 63.375 
Q 28.609375 62.703125 27.875 61.03125 
Q 27.34375 59.859375 27.34375 54.890625 
L 27.34375 36.140625 
L 50.734375 36.140625 
L 50.734375 54.890625 
Q 50.734375 59.96875 50.1875 61.234375 
Q 49.65625 62.5 48 63.453125 
Q 46.34375 64.40625 43.5625 64.40625 
L 41.40625 64.40625 
L 41.40625 66.21875 
L 75.984375 66.21875 
L 75.984375 64.40625 
L 73.828125 64.40625 
Q 70.90625 64.40625 69.1875 63.375 
Q 67.921875 62.703125 67.1875 61.03125 
Q 66.65625 59.859375 66.65625 54.890625 
L 66.65625 11.328125 
Q 66.65625 6.25 67.1875 4.984375 
Q 67.71875 3.71875 69.375 2.765625 
Q 71.046875 1.8125 73.828125 1.8125 
L 75.984375 1.8125 
L 75.984375 0 
L 41.40625 0 
L 41.40625 1.8125 
L 43.5625 1.8125 
Q 46.484375 1.8125 48.1875 2.828125 
Q 49.46875 3.515625 50.203125 5.171875 
Q 50.734375 6.34375 50.734375 11.328125 
L 50.734375 31.84375 
z
" id="TimesNewRomanPS-BoldMT-72"/>
        <path d="M 41.609375 18.84375 
L 18.21875 18.84375 
L 15.4375 12.40625 
Q 14.0625 9.1875 14.0625 7.078125 
Q 14.0625 4.296875 16.3125 2.984375 
Q 17.625 2.203125 22.796875 1.8125 
L 22.796875 0 
L 0.78125 0 
L 0.78125 1.8125 
Q 4.34375 2.34375 6.640625 4.75 
Q 8.9375 7.171875 12.3125 14.75 
L 35.984375 67.578125 
L 36.921875 67.578125 
L 60.796875 13.28125 
Q 64.203125 5.5625 66.40625 3.5625 
Q 68.0625 2.046875 71.09375 1.8125 
L 71.09375 0 
L 39.0625 0 
L 39.0625 1.8125 
L 40.375 1.8125 
Q 44.234375 1.8125 45.796875 2.875 
Q 46.875 3.65625 46.875 5.125 
Q 46.875 6 46.578125 6.9375 
Q 46.484375 7.375 45.125 10.59375 
z
M 39.9375 22.46875 
L 30.078125 45.265625 
L 19.921875 22.46875 
z
" id="TimesNewRomanPS-BoldMT-65"/>
        <path d="M 44.484375 35.109375 
Q 53.90625 32.90625 57.71875 29.78125 
Q 63.1875 25.34375 63.1875 18.265625 
Q 63.1875 10.796875 57.171875 5.90625 
Q 49.8125 0 35.75 0 
L 2.09375 0 
L 2.09375 1.8125 
Q 6.6875 1.8125 8.328125 2.65625 
Q 9.96875 3.515625 10.625 4.875 
Q 11.28125 6.25 11.28125 11.625 
L 11.28125 54.59375 
Q 11.28125 59.96875 10.625 61.359375 
Q 9.96875 62.75 8.296875 63.578125 
Q 6.640625 64.40625 2.09375 64.40625 
L 2.09375 66.21875 
L 33.84375 66.21875 
Q 45.21875 66.21875 49.953125 64.1875 
Q 54.6875 62.15625 57.421875 58.125 
Q 60.15625 54.109375 60.15625 49.5625 
Q 60.15625 44.78125 56.6875 41.046875 
Q 53.21875 37.3125 44.484375 35.109375 
z
M 26.703125 36.421875 
Q 33.640625 36.421875 36.9375 37.984375 
Q 40.234375 39.546875 41.984375 42.375 
Q 43.75 45.21875 43.75 49.609375 
Q 43.75 54 42.015625 56.8125 
Q 40.28125 59.625 37.0625 61.078125 
Q 33.84375 62.546875 26.703125 62.5 
z
M 26.703125 32.625 
L 26.703125 11.375 
L 26.65625 8.9375 
Q 26.65625 6.296875 28 4.953125 
Q 29.34375 3.609375 31.984375 3.609375 
Q 35.890625 3.609375 39.1875 5.34375 
Q 42.484375 7.078125 44.234375 10.375 
Q 46 13.671875 46 17.71875 
Q 46 22.359375 43.84375 26.046875 
Q 41.703125 29.734375 37.9375 31.203125 
Q 34.1875 32.671875 26.703125 32.625 
z
" id="TimesNewRomanPS-BoldMT-66"/>
        <path d="M 66.75 67.71875 
L 66.75 44.78125 
L 64.84375 44.78125 
Q 62.703125 53.765625 56.84375 58.546875 
Q 50.984375 63.328125 43.5625 63.328125 
Q 37.359375 63.328125 32.171875 59.765625 
Q 27 56.203125 24.609375 50.4375 
Q 21.53125 43.0625 21.53125 34.03125 
Q 21.53125 25.140625 23.78125 17.84375 
Q 26.03125 10.546875 30.8125 6.8125 
Q 35.59375 3.078125 43.21875 3.078125 
Q 49.46875 3.078125 54.65625 5.8125 
Q 59.859375 8.546875 65.625 15.234375 
L 65.625 9.515625 
Q 60.0625 3.71875 54.03125 1.09375 
Q 48 -1.515625 39.9375 -1.515625 
Q 29.34375 -1.515625 21.109375 2.734375 
Q 12.890625 6.984375 8.421875 14.9375 
Q 3.953125 22.90625 3.953125 31.890625 
Q 3.953125 41.359375 8.90625 49.84375 
Q 13.875 58.34375 22.296875 63.03125 
Q 30.71875 67.71875 40.1875 67.71875 
Q 47.171875 67.71875 54.9375 64.703125 
Q 59.421875 62.9375 60.640625 62.9375 
Q 62.203125 62.9375 63.34375 64.078125 
Q 64.5 65.234375 64.84375 67.71875 
z
" id="TimesNewRomanPS-BoldMT-67"/>
       </defs>
       <use xlink:href="#TimesNewRomanPS-BoldMT-72"/>
       <use x="77.783203" xlink:href="#TimesNewRomanPS-BoldMT-65"/>
       <use x="150" xlink:href="#TimesNewRomanPS-BoldMT-66"/>
       <use x="216.699219" xlink:href="#TimesNewRomanPS-BoldMT-67"/>
      </g>
     </g>
    </g>
   </g>
   <g id="matplotlib.axis_2">
    <g id="ytick_1">
     <g id="line2d_6">
      <path clip-path="url(#p103ca7062c)" d="M 44.4675 612.110727 
L 850.2175 612.110727 
" style="fill:none;stroke:#b0b0b0;stroke-dasharray:2.96,1.28;stroke-dashoffset:0;stroke-width:0.8;"/>
     </g>
     <g id="line2d_7">
      <defs>
       <path d="M 0 0 
L -3.5 0 
" id="mdc077529ca" style="stroke:#000000;stroke-width:0.8;"/>
      </defs>
      <g>
       <use style="stroke:#000000;stroke-width:0.8;" x="44.4675" xlink:href="#mdc077529ca" y="612.110727"/>
      </g>
     </g>
     <g id="text_6">
      <!-- 0 -->
      <g transform="translate(31.4675 616.276977)scale(0.12 -0.12)">
       <defs>
        <path d="M 3.609375 32.71875 
Q 3.609375 44.046875 7.03125 52.21875 
Q 10.453125 60.40625 16.109375 64.40625 
Q 20.515625 67.578125 25.203125 67.578125 
Q 32.8125 67.578125 38.875 59.8125 
Q 46.4375 50.203125 46.4375 33.734375 
Q 46.4375 22.21875 43.109375 14.15625 
Q 39.796875 6.109375 34.640625 2.46875 
Q 29.5 -1.171875 24.703125 -1.171875 
Q 15.234375 -1.171875 8.9375 10.015625 
Q 3.609375 19.4375 3.609375 32.71875 
z
M 13.1875 31.5 
Q 13.1875 17.828125 16.546875 9.1875 
Q 19.34375 1.90625 24.859375 1.90625 
Q 27.484375 1.90625 30.3125 4.265625 
Q 33.15625 6.640625 34.625 12.203125 
Q 36.859375 20.609375 36.859375 35.890625 
Q 36.859375 47.21875 34.515625 54.78125 
Q 32.765625 60.40625 29.984375 62.75 
Q 27.984375 64.359375 25.140625 64.359375 
Q 21.828125 64.359375 19.234375 61.375 
Q 15.71875 57.328125 14.453125 48.625 
Q 13.1875 39.9375 13.1875 31.5 
z
" id="TimesNewRomanPSMT-48"/>
       </defs>
       <use xlink:href="#TimesNewRomanPSMT-48"/>
      </g>
     </g>
    </g>
    <g id="ytick_2">
     <g id="line2d_8">
      <path clip-path="url(#p103ca7062c)" d="M 44.4675 562.048688 
L 850.2175 562.048688 
" style="fill:none;stroke:#b0b0b0;stroke-dasharray:2.96,1.28;stroke-dashoffset:0;stroke-width:0.8;"/>
     </g>
     <g id="line2d_9">
      <g>
       <use style="stroke:#000000;stroke-width:0.8;" x="44.4675" xlink:href="#mdc077529ca" y="562.048688"/>
      </g>
     </g>
     <g id="text_7">
      <!-- 2 -->
      <g transform="translate(31.4675 566.214938)scale(0.12 -0.12)">
       <defs>
        <path d="M 45.84375 12.75 
L 41.21875 0 
L 2.15625 0 
L 2.15625 1.8125 
Q 19.390625 17.53125 26.421875 27.484375 
Q 33.453125 37.453125 33.453125 45.703125 
Q 33.453125 52 29.59375 56.046875 
Q 25.734375 60.109375 20.359375 60.109375 
Q 15.484375 60.109375 11.59375 57.25 
Q 7.71875 54.390625 5.859375 48.875 
L 4.046875 48.875 
Q 5.28125 57.90625 10.328125 62.734375 
Q 15.375 67.578125 22.953125 67.578125 
Q 31 67.578125 36.390625 62.40625 
Q 41.796875 57.234375 41.796875 50.203125 
Q 41.796875 45.171875 39.453125 40.140625 
Q 35.84375 32.234375 27.734375 23.390625 
Q 15.578125 10.109375 12.546875 7.375 
L 29.828125 7.375 
Q 35.109375 7.375 37.234375 7.765625 
Q 39.359375 8.15625 41.0625 9.34375 
Q 42.78125 10.546875 44.046875 12.75 
z
" id="TimesNewRomanPSMT-50"/>
       </defs>
       <use xlink:href="#TimesNewRomanPSMT-50"/>
      </g>
     </g>
    </g>
    <g id="ytick_3">
     <g id="line2d_10">
      <path clip-path="url(#p103ca7062c)" d="M 44.4675 511.986648 
L 850.2175 511.986648 
" style="fill:none;stroke:#b0b0b0;stroke-dasharray:2.96,1.28;stroke-dashoffset:0;stroke-width:0.8;"/>
     </g>
     <g id="line2d_11">
      <g>
       <use style="stroke:#000000;stroke-width:0.8;" x="44.4675" xlink:href="#mdc077529ca" y="511.986648"/>
      </g>
     </g>
     <g id="text_8">
      <!-- 4 -->
      <g transform="translate(31.4675 516.152898)scale(0.12 -0.12)">
       <defs>
        <path d="M 46.53125 24.421875 
L 46.53125 17.484375 
L 37.640625 17.484375 
L 37.640625 0 
L 29.59375 0 
L 29.59375 17.484375 
L 1.5625 17.484375 
L 1.5625 23.734375 
L 32.28125 67.578125 
L 37.640625 67.578125 
L 37.640625 24.421875 
z
M 29.59375 24.421875 
L 29.59375 57.28125 
L 6.34375 24.421875 
z
" id="TimesNewRomanPSMT-52"/>
       </defs>
       <use xlink:href="#TimesNewRomanPSMT-52"/>
      </g>
     </g>
    </g>
    <g id="ytick_4">
     <g id="line2d_12">
      <path clip-path="url(#p103ca7062c)" d="M 44.4675 461.924608 
L 850.2175 461.924608 
" style="fill:none;stroke:#b0b0b0;stroke-dasharray:2.96,1.28;stroke-dashoffset:0;stroke-width:0.8;"/>
     </g>
     <g id="line2d_13">
      <g>
       <use style="stroke:#000000;stroke-width:0.8;" x="44.4675" xlink:href="#mdc077529ca" y="461.924608"/>
      </g>
     </g>
     <g id="text_9">
      <!-- 6 -->
      <g transform="translate(31.4675 466.090858)scale(0.12 -0.12)">
       <defs>
        <path d="M 44.828125 67.578125 
L 44.828125 65.765625 
Q 38.375 65.140625 34.296875 63.203125 
Q 30.21875 61.28125 26.234375 57.328125 
Q 22.265625 53.375 19.65625 48.515625 
Q 17.046875 43.65625 15.28125 36.96875 
Q 22.3125 41.796875 29.390625 41.796875 
Q 36.1875 41.796875 41.15625 36.328125 
Q 46.140625 30.859375 46.140625 22.265625 
Q 46.140625 13.96875 41.109375 7.125 
Q 35.0625 -1.171875 25.09375 -1.171875 
Q 18.3125 -1.171875 13.578125 3.328125 
Q 4.296875 12.0625 4.296875 25.984375 
Q 4.296875 34.859375 7.859375 42.859375 
Q 11.421875 50.875 18.03125 57.078125 
Q 24.65625 63.28125 30.703125 65.421875 
Q 36.765625 67.578125 42 67.578125 
z
M 14.453125 33.40625 
Q 13.578125 26.8125 13.578125 22.75 
Q 13.578125 18.0625 15.3125 12.5625 
Q 17.046875 7.078125 20.453125 3.859375 
Q 22.953125 1.5625 26.515625 1.5625 
Q 30.765625 1.5625 34.109375 5.5625 
Q 37.453125 9.578125 37.453125 17 
Q 37.453125 25.34375 34.125 31.4375 
Q 30.8125 37.546875 24.703125 37.546875 
Q 22.859375 37.546875 20.734375 36.765625 
Q 18.609375 35.984375 14.453125 33.40625 
z
" id="TimesNewRomanPSMT-54"/>
       </defs>
       <use xlink:href="#TimesNewRomanPSMT-54"/>
      </g>
     </g>
    </g>
    <g id="ytick_5">
     <g id="line2d_14">
      <path clip-path="url(#p103ca7062c)" d="M 44.4675 411.862568 
L 850.2175 411.862568 
" style="fill:none;stroke:#b0b0b0;stroke-dasharray:2.96,1.28;stroke-dashoffset:0;stroke-width:0.8;"/>
     </g>
     <g id="line2d_15">
      <g>
       <use style="stroke:#000000;stroke-width:0.8;" x="44.4675" xlink:href="#mdc077529ca" y="411.862568"/>
      </g>
     </g>
     <g id="text_10">
      <!-- 8 -->
      <g transform="translate(31.4675 416.028818)scale(0.12 -0.12)">
       <defs>
        <path d="M 19.1875 33.34375 
Q 11.328125 39.796875 9.046875 43.703125 
Q 6.78125 47.609375 6.78125 51.8125 
Q 6.78125 58.25 11.765625 62.90625 
Q 16.75 67.578125 25 67.578125 
Q 33.015625 67.578125 37.890625 63.234375 
Q 42.78125 58.890625 42.78125 53.328125 
Q 42.78125 49.609375 40.140625 45.75 
Q 37.5 41.890625 29.15625 36.671875 
Q 37.75 30.03125 40.53125 26.21875 
Q 44.234375 21.234375 44.234375 15.71875 
Q 44.234375 8.734375 38.90625 3.78125 
Q 33.59375 -1.171875 24.953125 -1.171875 
Q 15.53125 -1.171875 10.25 4.734375 
Q 6.0625 9.46875 6.0625 15.09375 
Q 6.0625 19.484375 9.015625 23.796875 
Q 11.96875 28.125 19.1875 33.34375 
z
M 26.859375 38.578125 
Q 32.71875 43.84375 34.28125 46.890625 
Q 35.84375 49.953125 35.84375 53.8125 
Q 35.84375 58.9375 32.953125 61.84375 
Q 30.078125 64.75 25.09375 64.75 
Q 20.125 64.75 17 61.859375 
Q 13.875 58.984375 13.875 55.125 
Q 13.875 52.59375 15.15625 50.046875 
Q 16.453125 47.515625 18.84375 45.21875 
z
M 21.484375 31.5 
Q 17.4375 28.078125 15.484375 24.046875 
Q 13.53125 20.015625 13.53125 15.328125 
Q 13.53125 9.03125 16.96875 5.25 
Q 20.40625 1.46875 25.734375 1.46875 
Q 31 1.46875 34.171875 4.4375 
Q 37.359375 7.421875 37.359375 11.671875 
Q 37.359375 15.1875 35.5 17.96875 
Q 32.03125 23.140625 21.484375 31.5 
z
" id="TimesNewRomanPSMT-56"/>
       </defs>
       <use xlink:href="#TimesNewRomanPSMT-56"/>
      </g>
     </g>
    </g>
    <g id="ytick_6">
     <g id="line2d_16">
      <path clip-path="url(#p103ca7062c)" d="M 44.4675 361.800529 
L 850.2175 361.800529 
" style="fill:none;stroke:#b0b0b0;stroke-dasharray:2.96,1.28;stroke-dashoffset:0;stroke-width:0.8;"/>
     </g>
     <g id="line2d_17">
      <g>
       <use style="stroke:#000000;stroke-width:0.8;" x="44.4675" xlink:href="#mdc077529ca" y="361.800529"/>
      </g>
     </g>
     <g id="text_11">
      <!-- 10 -->
      <g transform="translate(25.4675 365.966779)scale(0.12 -0.12)">
       <defs>
        <path d="M 11.71875 59.71875 
L 27.828125 67.578125 
L 29.4375 67.578125 
L 29.4375 11.671875 
Q 29.4375 6.109375 29.90625 4.734375 
Q 30.375 3.375 31.828125 2.640625 
Q 33.296875 1.90625 37.796875 1.8125 
L 37.796875 0 
L 12.890625 0 
L 12.890625 1.8125 
Q 17.578125 1.90625 18.9375 2.609375 
Q 20.3125 3.328125 20.84375 4.515625 
Q 21.390625 5.71875 21.390625 11.671875 
L 21.390625 47.40625 
Q 21.390625 54.640625 20.90625 56.6875 
Q 20.5625 58.25 19.65625 58.984375 
Q 18.75 59.71875 17.484375 59.71875 
Q 15.671875 59.71875 12.453125 58.203125 
z
" id="TimesNewRomanPSMT-49"/>
       </defs>
       <use xlink:href="#TimesNewRomanPSMT-49"/>
       <use x="50" xlink:href="#TimesNewRomanPSMT-48"/>
      </g>
     </g>
    </g>
    <g id="ytick_7">
     <g id="line2d_18">
      <path clip-path="url(#p103ca7062c)" d="M 44.4675 311.738489 
L 850.2175 311.738489 
" style="fill:none;stroke:#b0b0b0;stroke-dasharray:2.96,1.28;stroke-dashoffset:0;stroke-width:0.8;"/>
     </g>
     <g id="line2d_19">
      <g>
       <use style="stroke:#000000;stroke-width:0.8;" x="44.4675" xlink:href="#mdc077529ca" y="311.738489"/>
      </g>
     </g>
     <g id="text_12">
      <!-- 12 -->
      <g transform="translate(25.4675 315.904739)scale(0.12 -0.12)">
       <use xlink:href="#TimesNewRomanPSMT-49"/>
       <use x="50" xlink:href="#TimesNewRomanPSMT-50"/>
      </g>
     </g>
    </g>
    <g id="ytick_8">
     <g id="line2d_20">
      <path clip-path="url(#p103ca7062c)" d="M 44.4675 261.676449 
L 850.2175 261.676449 
" style="fill:none;stroke:#b0b0b0;stroke-dasharray:2.96,1.28;stroke-dashoffset:0;stroke-width:0.8;"/>
     </g>
     <g id="line2d_21">
      <g>
       <use style="stroke:#000000;stroke-width:0.8;" x="44.4675" xlink:href="#mdc077529ca" y="261.676449"/>
      </g>
     </g>
     <g id="text_13">
      <!-- 14 -->
      <g transform="translate(25.4675 265.842699)scale(0.12 -0.12)">
       <use xlink:href="#TimesNewRomanPSMT-49"/>
       <use x="50" xlink:href="#TimesNewRomanPSMT-52"/>
      </g>
     </g>
    </g>
    <g id="ytick_9">
     <g id="line2d_22">
      <path clip-path="url(#p103ca7062c)" d="M 44.4675 211.614409 
L 850.2175 211.614409 
" style="fill:none;stroke:#b0b0b0;stroke-dasharray:2.96,1.28;stroke-dashoffset:0;stroke-width:0.8;"/>
     </g>
     <g id="line2d_23">
      <g>
       <use style="stroke:#000000;stroke-width:0.8;" x="44.4675" xlink:href="#mdc077529ca" y="211.614409"/>
      </g>
     </g>
     <g id="text_14">
      <!-- 16 -->
      <g transform="translate(25.4675 215.780659)scale(0.12 -0.12)">
       <use xlink:href="#TimesNewRomanPSMT-49"/>
       <use x="50" xlink:href="#TimesNewRomanPSMT-54"/>
      </g>
     </g>
    </g>
    <g id="ytick_10">
     <g id="line2d_24">
      <path clip-path="url(#p103ca7062c)" d="M 44.4675 161.552369 
L 850.2175 161.552369 
" style="fill:none;stroke:#b0b0b0;stroke-dasharray:2.96,1.28;stroke-dashoffset:0;stroke-width:0.8;"/>
     </g>
     <g id="line2d_25">
      <g>
       <use style="stroke:#000000;stroke-width:0.8;" x="44.4675" xlink:href="#mdc077529ca" y="161.552369"/>
      </g>
     </g>
     <g id="text_15">
      <!-- 18 -->
      <g transform="translate(25.4675 165.718619)scale(0.12 -0.12)">
       <use xlink:href="#TimesNewRomanPSMT-49"/>
       <use x="50" xlink:href="#TimesNewRomanPSMT-56"/>
      </g>
     </g>
    </g>
    <g id="ytick_11">
     <g id="line2d_26">
      <path clip-path="url(#p103ca7062c)" d="M 44.4675 111.49033 
L 850.2175 111.49033 
" style="fill:none;stroke:#b0b0b0;stroke-dasharray:2.96,1.28;stroke-dashoffset:0;stroke-width:0.8;"/>
     </g>
     <g id="line2d_27">
      <g>
       <use style="stroke:#000000;stroke-width:0.8;" x="44.4675" xlink:href="#mdc077529ca" y="111.49033"/>
      </g>
     </g>
     <g id="text_16">
      <!-- 20 -->
      <g transform="translate(25.4675 115.65658)scale(0.12 -0.12)">
       <use xlink:href="#TimesNewRomanPSMT-50"/>
       <use x="50" xlink:href="#TimesNewRomanPSMT-48"/>
      </g>
     </g>
    </g>
    <g id="ytick_12">
     <g id="line2d_28">
      <path clip-path="url(#p103ca7062c)" d="M 44.4675 61.42829 
L 850.2175 61.42829 
" style="fill:none;stroke:#b0b0b0;stroke-dasharray:2.96,1.28;stroke-dashoffset:0;stroke-width:0.8;"/>
     </g>
     <g id="line2d_29">
      <g>
       <use style="stroke:#000000;stroke-width:0.8;" x="44.4675" xlink:href="#mdc077529ca" y="61.42829"/>
      </g>
     </g>
     <g id="text_17">
      <!-- 22 -->
      <g transform="translate(25.4675 65.59454)scale(0.12 -0.12)">
       <use xlink:href="#TimesNewRomanPSMT-50"/>
       <use x="50" xlink:href="#TimesNewRomanPSMT-50"/>
      </g>
     </g>
    </g>
    <g id="ytick_13">
     <g id="line2d_30">
      <path clip-path="url(#p103ca7062c)" d="M 44.4675 11.36625 
L 850.2175 11.36625 
" style="fill:none;stroke:#b0b0b0;stroke-dasharray:2.96,1.28;stroke-dashoffset:0;stroke-width:0.8;"/>
     </g>
     <g id="line2d_31">
      <g>
       <use style="stroke:#000000;stroke-width:0.8;" x="44.4675" xlink:href="#mdc077529ca" y="11.36625"/>
      </g>
     </g>
     <g id="text_18">
      <!-- 24 -->
      <g transform="translate(25.4675 15.5325)scale(0.12 -0.12)">
       <use xlink:href="#TimesNewRomanPSMT-50"/>
       <use x="50" xlink:href="#TimesNewRomanPSMT-52"/>
      </g>
     </g>
    </g>
    <g id="text_19">
     <!-- times of optimal F1-Score -->
     <g transform="translate(18.045 397.473662)rotate(-90)scale(0.16 -0.16)">
      <defs>
       <path d="M 21.484375 62.359375 
L 21.484375 45.65625 
L 32.328125 45.65625 
L 32.328125 40.828125 
L 21.484375 40.828125 
L 21.484375 12.640625 
Q 21.484375 8.6875 21.84375 7.53125 
Q 22.21875 6.390625 23.140625 5.6875 
Q 24.078125 4.984375 24.859375 4.984375 
Q 28.03125 4.984375 30.859375 9.8125 
L 32.328125 8.734375 
Q 28.375 -0.640625 19.484375 -0.640625 
Q 15.140625 -0.640625 12.125 1.78125 
Q 9.125 4.203125 8.296875 7.171875 
Q 7.8125 8.84375 7.8125 16.15625 
L 7.8125 40.828125 
L 1.859375 40.828125 
L 1.859375 42.53125 
Q 8.015625 46.875 12.328125 51.65625 
Q 16.65625 56.453125 19.875 62.359375 
z
" id="TimesNewRomanPS-BoldMT-116"/>
       <path d="M 14.359375 67.78125 
Q 17.53125 67.78125 19.71875 65.546875 
Q 21.921875 63.328125 21.921875 60.203125 
Q 21.921875 57.078125 19.703125 54.875 
Q 17.484375 52.6875 14.359375 52.6875 
Q 11.234375 52.6875 9.03125 54.875 
Q 6.84375 57.078125 6.84375 60.203125 
Q 6.84375 63.328125 9.03125 65.546875 
Q 11.234375 67.78125 14.359375 67.78125 
z
M 21.1875 45.65625 
L 21.1875 9.46875 
Q 21.1875 4.640625 22.3125 3.296875 
Q 23.4375 1.953125 26.703125 1.765625 
L 26.703125 0 
L 2.046875 0 
L 2.046875 1.765625 
Q 5.078125 1.859375 6.546875 3.515625 
Q 7.515625 4.640625 7.515625 9.46875 
L 7.515625 36.140625 
Q 7.515625 40.96875 6.390625 42.3125 
Q 5.28125 43.65625 2.046875 43.84375 
L 2.046875 45.65625 
z
" id="TimesNewRomanPS-BoldMT-105"/>
       <path d="M 22.3125 45.65625 
L 22.3125 39.65625 
Q 26.078125 43.75 29.265625 45.375 
Q 32.46875 47.015625 36.28125 47.015625 
Q 40.671875 47.015625 43.640625 44.96875 
Q 46.625 42.921875 48.25 38.71875 
Q 52.15625 43.109375 55.734375 45.0625 
Q 59.328125 47.015625 63.234375 47.015625 
Q 67.96875 47.015625 70.765625 44.84375 
Q 73.578125 42.671875 74.671875 39.328125 
Q 75.78125 35.984375 75.78125 28.65625 
L 75.78125 9.96875 
Q 75.78125 4.6875 76.734375 3.421875 
Q 77.6875 2.15625 80.71875 1.765625 
L 80.71875 0 
L 57.125 0 
L 57.125 1.765625 
Q 59.90625 2 61.234375 3.90625 
Q 62.109375 5.21875 62.109375 9.96875 
L 62.109375 29.59375 
Q 62.109375 35.6875 61.625 37.34375 
Q 61.140625 39.015625 60.078125 39.8125 
Q 59.03125 40.625 57.625 40.625 
Q 55.515625 40.625 53.359375 39.078125 
Q 51.21875 37.546875 49.03125 34.46875 
L 49.03125 9.96875 
Q 49.03125 5.03125 49.859375 3.765625 
Q 50.984375 1.953125 54.15625 1.765625 
L 54.15625 0 
L 30.515625 0 
L 30.515625 1.765625 
Q 32.421875 1.859375 33.515625 2.703125 
Q 34.625 3.5625 34.984375 4.75 
Q 35.359375 5.953125 35.359375 9.96875 
L 35.359375 29.59375 
Q 35.359375 35.796875 34.859375 37.359375 
Q 34.375 38.921875 33.21875 39.796875 
Q 32.078125 40.671875 30.765625 40.671875 
Q 28.8125 40.671875 27.203125 39.65625 
Q 24.90625 38.140625 22.3125 34.46875 
L 22.3125 9.96875 
Q 22.3125 5.125 23.265625 3.578125 
Q 24.21875 2.046875 27.25 1.765625 
L 27.25 0 
L 3.71875 0 
L 3.71875 1.765625 
Q 6.59375 2.046875 7.8125 3.609375 
Q 8.640625 4.6875 8.640625 9.96875 
L 8.640625 35.75 
Q 8.640625 40.921875 7.6875 42.1875 
Q 6.734375 43.453125 3.71875 43.84375 
L 3.71875 45.65625 
z
" id="TimesNewRomanPS-BoldMT-109"/>
       <path d="M 42.046875 24.46875 
L 17 24.46875 
Q 17.4375 15.375 21.828125 10.109375 
Q 25.203125 6.0625 29.9375 6.0625 
Q 32.859375 6.0625 35.25 7.6875 
Q 37.640625 9.328125 40.375 13.578125 
L 42.046875 12.5 
Q 38.328125 4.9375 33.828125 1.78125 
Q 29.34375 -1.375 23.4375 -1.375 
Q 13.28125 -1.375 8.0625 6.453125 
Q 3.859375 12.75 3.859375 22.078125 
Q 3.859375 33.5 10.03125 40.25 
Q 16.21875 47.015625 24.515625 47.015625 
Q 31.453125 47.015625 36.546875 41.328125 
Q 41.65625 35.640625 42.046875 24.46875 
z
M 30.03125 27.734375 
Q 30.03125 35.59375 29.171875 38.515625 
Q 28.328125 41.453125 26.515625 42.96875 
Q 25.484375 43.84375 23.78125 43.84375 
Q 21.234375 43.84375 19.625 41.359375 
Q 16.75 37.015625 16.75 29.4375 
L 16.75 27.734375 
z
" id="TimesNewRomanPS-BoldMT-101"/>
       <path d="M 32.234375 46.921875 
L 32.953125 31.34375 
L 31.296875 31.34375 
Q 28.328125 38.28125 25.125 40.8125 
Q 21.921875 43.359375 18.75 43.359375 
Q 16.75 43.359375 15.328125 42.015625 
Q 13.921875 40.671875 13.921875 38.921875 
Q 13.921875 37.59375 14.890625 36.375 
Q 16.453125 34.375 23.625 29.515625 
Q 30.8125 24.65625 33.078125 21.265625 
Q 35.359375 17.875 35.359375 13.671875 
Q 35.359375 9.859375 33.453125 6.203125 
Q 31.546875 2.546875 28.078125 0.578125 
Q 24.609375 -1.375 20.40625 -1.375 
Q 17.140625 -1.375 11.671875 0.6875 
Q 10.203125 1.21875 9.671875 1.21875 
Q 8.0625 1.21875 6.984375 -1.21875 
L 5.375 -1.21875 
L 4.59375 15.1875 
L 6.25 15.1875 
Q 8.453125 8.734375 12.28125 5.515625 
Q 16.109375 2.296875 19.53125 2.296875 
Q 21.875 2.296875 23.359375 3.734375 
Q 24.859375 5.171875 24.859375 7.234375 
Q 24.859375 9.578125 23.390625 11.28125 
Q 21.921875 12.984375 16.84375 16.453125 
Q 9.375 21.625 7.171875 24.359375 
Q 3.953125 28.375 3.953125 33.203125 
Q 3.953125 38.484375 7.59375 42.75 
Q 11.234375 47.015625 18.109375 47.015625 
Q 21.828125 47.015625 25.296875 45.21875 
Q 26.609375 44.484375 27.4375 44.484375 
Q 28.328125 44.484375 28.859375 44.84375 
Q 29.390625 45.21875 30.5625 46.921875 
z
" id="TimesNewRomanPS-BoldMT-115"/>
       <path id="TimesNewRomanPS-BoldMT-32"/>
       <path d="M 24.90625 47.015625 
Q 30.859375 47.015625 35.984375 43.9375 
Q 41.109375 40.875 43.765625 35.203125 
Q 46.4375 29.546875 46.4375 22.796875 
Q 46.4375 13.09375 41.5 6.546875 
Q 35.546875 -1.375 25.046875 -1.375 
Q 14.75 -1.375 9.171875 5.859375 
Q 3.609375 13.09375 3.609375 22.609375 
Q 3.609375 32.421875 9.296875 39.71875 
Q 14.984375 47.015625 24.90625 47.015625 
z
M 25.09375 43.5625 
Q 22.609375 43.5625 20.828125 41.671875 
Q 19.046875 39.796875 18.484375 34.25 
Q 17.921875 28.71875 17.921875 18.84375 
Q 17.921875 13.625 18.609375 9.078125 
Q 19.140625 5.609375 20.890625 3.796875 
Q 22.65625 2 24.90625 2 
Q 27.09375 2 28.5625 3.21875 
Q 30.46875 4.890625 31.109375 7.859375 
Q 32.078125 12.5 32.078125 26.609375 
Q 32.078125 34.90625 31.140625 38 
Q 30.21875 41.109375 28.421875 42.53125 
Q 27.15625 43.5625 25.09375 43.5625 
z
" id="TimesNewRomanPS-BoldMT-111"/>
       <path d="M 23.390625 40.875 
L 23.390625 9.1875 
Q 23.390625 4.59375 24.359375 3.421875 
Q 25.921875 1.609375 30.125 1.765625 
L 30.125 0 
L 3.21875 0 
L 3.21875 1.765625 
Q 6.296875 1.8125 7.59375 2.46875 
Q 8.890625 3.125 9.375 4.296875 
Q 9.859375 5.46875 9.859375 9.1875 
L 9.859375 40.875 
L 3.21875 40.875 
L 3.21875 45.65625 
L 9.859375 45.65625 
L 9.859375 49.03125 
L 9.8125 51.3125 
Q 9.8125 58.34375 14.96875 63.03125 
Q 20.125 67.71875 28.90625 67.71875 
Q 34.90625 67.71875 37.8125 65.46875 
Q 40.71875 63.234375 40.71875 60.5 
Q 40.71875 58.296875 38.90625 56.6875 
Q 37.109375 55.078125 34.125 55.078125 
Q 31.59375 55.078125 30.09375 56.390625 
Q 28.609375 57.71875 28.609375 59.328125 
Q 28.609375 59.765625 28.90625 61.140625 
Q 29.109375 61.96875 29.109375 62.703125 
Q 29.109375 63.71875 28.515625 64.203125 
Q 27.734375 64.9375 26.609375 64.9375 
Q 25.203125 64.9375 24.25 63.765625 
Q 23.296875 62.59375 23.296875 60.015625 
L 23.390625 51.46875 
L 23.390625 45.65625 
L 30.125 45.65625 
L 30.125 40.875 
z
" id="TimesNewRomanPS-BoldMT-102"/>
       <path d="M 21.046875 4.640625 
L 21.046875 -12.359375 
Q 21.046875 -15.875 21.609375 -17.140625 
Q 22.171875 -18.40625 23.34375 -18.984375 
Q 24.515625 -19.578125 27.9375 -19.578125 
L 27.9375 -21.390625 
L 1.90625 -21.390625 
L 1.90625 -19.578125 
Q 4.9375 -19.484375 6.390625 -17.875 
Q 7.375 -16.75 7.375 -12.0625 
L 7.375 36.140625 
Q 7.375 40.96875 6.25 42.3125 
Q 5.125 43.65625 1.90625 43.84375 
L 1.90625 45.65625 
L 21.046875 45.65625 
L 21.046875 39.65625 
Q 23.4375 43.171875 25.921875 44.734375 
Q 29.5 47.015625 33.6875 47.015625 
Q 38.71875 47.015625 42.84375 43.84375 
Q 46.96875 40.671875 49.109375 35.078125 
Q 51.265625 29.5 51.265625 23.046875 
Q 51.265625 16.109375 49.046875 10.375 
Q 46.828125 4.640625 42.59375 1.625 
Q 38.375 -1.375 33.203125 -1.375 
Q 29.4375 -1.375 26.171875 0.296875 
Q 23.734375 1.5625 21.046875 4.640625 
z
M 21.046875 9.578125 
Q 25.25 3.609375 30.03125 3.609375 
Q 32.671875 3.609375 34.375 6.390625 
Q 36.921875 10.5 36.921875 22.015625 
Q 36.921875 33.84375 34.125 38.1875 
Q 32.28125 41.0625 29.15625 41.0625 
Q 24.21875 41.0625 21.046875 33.9375 
z
" id="TimesNewRomanPS-BoldMT-112"/>
       <path d="M 28.5625 6.734375 
Q 20.21875 -0.640625 13.578125 -0.640625 
Q 9.671875 -0.640625 7.078125 1.921875 
Q 4.5 4.5 4.5 8.34375 
Q 4.5 13.578125 8.984375 17.75 
Q 13.484375 21.921875 28.5625 28.859375 
L 28.5625 33.453125 
Q 28.5625 38.625 28 39.96875 
Q 27.4375 41.3125 25.875 42.3125 
Q 24.3125 43.3125 22.359375 43.3125 
Q 19.1875 43.3125 17.140625 41.890625 
Q 15.875 41.015625 15.875 39.84375 
Q 15.875 38.8125 17.234375 37.3125 
Q 19.09375 35.203125 19.09375 33.25 
Q 19.09375 30.859375 17.3125 29.171875 
Q 15.53125 27.484375 12.640625 27.484375 
Q 9.578125 27.484375 7.5 29.34375 
Q 5.421875 31.203125 5.421875 33.6875 
Q 5.421875 37.203125 8.203125 40.40625 
Q 10.984375 43.609375 15.96875 45.3125 
Q 20.953125 47.015625 26.3125 47.015625 
Q 32.8125 47.015625 36.59375 44.25 
Q 40.375 41.5 41.5 38.28125 
Q 42.1875 36.234375 42.1875 28.859375 
L 42.1875 11.140625 
Q 42.1875 8.015625 42.421875 7.203125 
Q 42.671875 6.390625 43.15625 6 
Q 43.65625 5.609375 44.28125 5.609375 
Q 45.5625 5.609375 46.875 7.421875 
L 48.34375 6.25 
Q 45.90625 2.640625 43.28125 1 
Q 40.671875 -0.640625 37.359375 -0.640625 
Q 33.453125 -0.640625 31.25 1.1875 
Q 29.046875 3.03125 28.5625 6.734375 
z
M 28.5625 10.296875 
L 28.5625 25.59375 
Q 22.65625 22.125 19.78125 18.171875 
Q 17.875 15.53125 17.875 12.84375 
Q 17.875 10.59375 19.484375 8.890625 
Q 20.703125 7.5625 22.90625 7.5625 
Q 25.34375 7.5625 28.5625 10.296875 
z
" id="TimesNewRomanPS-BoldMT-97"/>
       <path d="M 21.234375 66.21875 
L 21.234375 9.46875 
Q 21.234375 4.640625 22.359375 3.296875 
Q 23.484375 1.953125 26.765625 1.765625 
L 26.765625 0 
L 2.09375 0 
L 2.09375 1.765625 
Q 5.125 1.859375 6.59375 3.515625 
Q 7.5625 4.640625 7.5625 9.46875 
L 7.5625 56.734375 
Q 7.5625 61.53125 6.4375 62.859375 
Q 5.328125 64.203125 2.09375 64.40625 
L 2.09375 66.21875 
z
" id="TimesNewRomanPS-BoldMT-108"/>
       <path d="M 27.484375 62.40625 
L 27.484375 35.203125 
L 29.390625 35.203125 
Q 33.796875 35.203125 36.578125 36.515625 
Q 39.359375 37.84375 41.28125 40.96875 
Q 43.21875 44.09375 43.796875 49.421875 
L 45.515625 49.421875 
L 45.515625 16.15625 
L 43.796875 16.15625 
Q 42.875 25.59375 38.75 28.59375 
Q 34.625 31.59375 29.390625 31.59375 
L 27.484375 31.59375 
L 27.484375 11.328125 
Q 27.484375 6.25 28.046875 4.984375 
Q 28.609375 3.71875 30.25 2.765625 
Q 31.890625 1.8125 34.671875 1.8125 
L 36.859375 1.8125 
L 36.859375 0 
L 2.25 0 
L 2.25 1.8125 
L 4.4375 1.8125 
Q 7.328125 1.8125 9.078125 2.828125 
Q 10.359375 3.515625 11.03125 5.171875 
Q 11.578125 6.34375 11.578125 11.328125 
L 11.578125 54.890625 
Q 11.578125 59.96875 11.03125 61.234375 
Q 10.5 62.5 8.859375 63.453125 
Q 7.234375 64.40625 4.4375 64.40625 
L 2.25 64.40625 
L 2.25 66.21875 
L 58.109375 66.21875 
L 58.109375 47.21875 
L 56.109375 47.21875 
Q 55.421875 53.90625 52.609375 57.125 
Q 49.8125 60.359375 44.484375 61.671875 
Q 41.546875 62.40625 33.640625 62.40625 
z
" id="TimesNewRomanPS-BoldMT-70"/>
       <path d="M 32.5625 67.578125 
L 32.5625 13.421875 
Q 32.5625 7.328125 33.09375 5.640625 
Q 33.640625 3.953125 35.34375 2.875 
Q 37.0625 1.8125 40.828125 1.8125 
L 42.328125 1.8125 
L 42.328125 0 
L 7.46875 0 
L 7.46875 1.8125 
L 9.234375 1.8125 
Q 13.484375 1.8125 15.28125 2.78125 
Q 17.09375 3.765625 17.71875 5.46875 
Q 18.359375 7.171875 18.359375 13.421875 
L 18.359375 47.75 
Q 18.359375 52.34375 17.921875 53.484375 
Q 17.484375 54.640625 16.28125 55.4375 
Q 15.09375 56.25 13.53125 56.25 
Q 11.03125 56.25 7.46875 54.6875 
L 6.59375 56.453125 
L 30.953125 67.578125 
z
" id="TimesNewRomanPS-BoldMT-49"/>
       <path d="M 40.625 11.765625 
L 42.140625 10.59375 
Q 38.921875 4.546875 34.109375 1.578125 
Q 29.296875 -1.375 23.875 -1.375 
Q 14.75 -1.375 9.28125 5.515625 
Q 3.8125 12.40625 3.8125 22.078125 
Q 3.8125 31.390625 8.796875 38.484375 
Q 14.796875 47.015625 25.34375 47.015625 
Q 32.421875 47.015625 36.59375 43.453125 
Q 40.765625 39.890625 40.765625 35.5 
Q 40.765625 32.71875 39.078125 31.046875 
Q 37.40625 29.390625 34.671875 29.390625 
Q 31.78125 29.390625 29.90625 31.296875 
Q 28.03125 33.203125 27.59375 38.09375 
Q 27.296875 41.15625 26.171875 42.390625 
Q 25.046875 43.609375 23.53125 43.609375 
Q 21.1875 43.609375 19.53125 41.109375 
Q 17 37.359375 17 29.59375 
Q 17 23.140625 19.046875 17.25 
Q 21.09375 11.375 24.65625 8.5 
Q 27.34375 6.390625 31 6.390625 
Q 33.40625 6.390625 35.546875 7.515625 
Q 37.703125 8.640625 40.625 11.765625 
z
" id="TimesNewRomanPS-BoldMT-99"/>
       <path d="M 22.3125 45.65625 
L 22.3125 35.296875 
Q 26.859375 42.390625 30.265625 44.703125 
Q 33.6875 47.015625 36.859375 47.015625 
Q 39.59375 47.015625 41.234375 45.328125 
Q 42.875 43.65625 42.875 40.578125 
Q 42.875 37.3125 41.28125 35.5 
Q 39.703125 33.6875 37.453125 33.6875 
Q 34.859375 33.6875 32.953125 35.34375 
Q 31.0625 37.015625 30.71875 37.203125 
Q 30.21875 37.5 29.59375 37.5 
Q 28.171875 37.5 26.90625 36.421875 
Q 24.90625 34.765625 23.875 31.6875 
Q 22.3125 26.953125 22.3125 21.234375 
L 22.3125 10.75 
L 22.359375 8.015625 
Q 22.359375 5.21875 22.703125 4.4375 
Q 23.296875 3.125 24.4375 2.515625 
Q 25.59375 1.90625 28.328125 1.765625 
L 28.328125 0 
L 3.65625 0 
L 3.65625 1.765625 
Q 6.640625 2 7.6875 3.390625 
Q 8.734375 4.78125 8.734375 10.75 
L 8.734375 35.984375 
Q 8.734375 39.890625 8.34375 40.96875 
Q 7.859375 42.328125 6.921875 42.96875 
Q 6 43.609375 3.65625 43.84375 
L 3.65625 45.65625 
z
" id="TimesNewRomanPS-BoldMT-114"/>
      </defs>
      <use xlink:href="#TimesNewRomanPS-BoldMT-116"/>
      <use x="33.300781" xlink:href="#TimesNewRomanPS-BoldMT-105"/>
      <use x="61.083984" xlink:href="#TimesNewRomanPS-BoldMT-109"/>
      <use x="144.384766" xlink:href="#TimesNewRomanPS-BoldMT-101"/>
      <use x="188.769531" xlink:href="#TimesNewRomanPS-BoldMT-115"/>
      <use x="227.685547" xlink:href="#TimesNewRomanPS-BoldMT-32"/>
      <use x="252.685547" xlink:href="#TimesNewRomanPS-BoldMT-111"/>
      <use x="302.685547" xlink:href="#TimesNewRomanPS-BoldMT-102"/>
      <use x="335.986328" xlink:href="#TimesNewRomanPS-BoldMT-32"/>
      <use x="360.986328" xlink:href="#TimesNewRomanPS-BoldMT-111"/>
      <use x="410.986328" xlink:href="#TimesNewRomanPS-BoldMT-112"/>
      <use x="466.601562" xlink:href="#TimesNewRomanPS-BoldMT-116"/>
      <use x="499.902344" xlink:href="#TimesNewRomanPS-BoldMT-105"/>
      <use x="527.685547" xlink:href="#TimesNewRomanPS-BoldMT-109"/>
      <use x="610.986328" xlink:href="#TimesNewRomanPS-BoldMT-97"/>
      <use x="660.986328" xlink:href="#TimesNewRomanPS-BoldMT-108"/>
      <use x="688.769531" xlink:href="#TimesNewRomanPS-BoldMT-32"/>
      <use x="713.769531" xlink:href="#TimesNewRomanPS-BoldMT-70"/>
      <use x="774.853516" xlink:href="#TimesNewRomanPS-BoldMT-49"/>
      <use x="824.853516" xlink:href="#TimesNewRomanPS-BoldMT-45"/>
      <use x="858.154297" xlink:href="#TimesNewRomanPS-BoldMT-83"/>
      <use x="913.769531" xlink:href="#TimesNewRomanPS-BoldMT-99"/>
      <use x="958.154297" xlink:href="#TimesNewRomanPS-BoldMT-111"/>
      <use x="1008.154297" xlink:href="#TimesNewRomanPS-BoldMT-114"/>
      <use x="1050.789062" xlink:href="#TimesNewRomanPS-BoldMT-101"/>
     </g>
    </g>
   </g>
   <g id="patch_3">
    <path d="M 44.4675 612.110727 
L 44.4675 7.611597 
" style="fill:none;stroke:#000000;stroke-linecap:square;stroke-linejoin:miter;stroke-width:0.8;"/>
   </g>
   <g id="patch_4">
    <path d="M 850.2175 612.110727 
L 850.2175 7.611597 
" style="fill:none;stroke:#000000;stroke-linecap:square;stroke-linejoin:miter;stroke-width:0.8;"/>
   </g>
   <g id="patch_5">
    <path d="M 44.4675 612.110727 
L 850.2175 612.110727 
" style="fill:none;stroke:#000000;stroke-linecap:square;stroke-linejoin:miter;stroke-width:0.8;"/>
   </g>
   <g id="patch_6">
    <path d="M 44.4675 7.611597 
L 850.2175 7.611597 
" style="fill:none;stroke:#000000;stroke-linecap:square;stroke-linejoin:miter;stroke-width:0.8;"/>
   </g>
   <g id="text_20">
    <!-- 0 -->
    <g transform="translate(126.584924 610.110727)scale(0.12 -0.12)">
     <use xlink:href="#TimesNewRomanPSMT-48"/>
    </g>
   </g>
   <g id="text_21">
    <!-- 2 -->
    <g transform="translate(281.963712 560.048688)scale(0.12 -0.12)">
     <use xlink:href="#TimesNewRomanPSMT-50"/>
    </g>
   </g>
   <g id="text_22">
    <!-- 0 -->
    <g transform="translate(437.3425 610.110727)scale(0.12 -0.12)">
     <use xlink:href="#TimesNewRomanPSMT-48"/>
    </g>
   </g>
   <g id="text_23">
    <!-- 3 -->
    <g transform="translate(592.721288 535.017668)scale(0.12 -0.12)">
     <defs>
      <path d="M 5.078125 53.609375 
Q 7.90625 60.296875 12.21875 63.9375 
Q 16.546875 67.578125 23 67.578125 
Q 30.953125 67.578125 35.203125 62.40625 
Q 38.421875 58.546875 38.421875 54.15625 
Q 38.421875 46.921875 29.34375 39.203125 
Q 35.453125 36.8125 38.578125 32.375 
Q 41.703125 27.9375 41.703125 21.921875 
Q 41.703125 13.328125 36.234375 7.03125 
Q 29.109375 -1.171875 15.578125 -1.171875 
Q 8.890625 -1.171875 6.46875 0.484375 
Q 4.046875 2.15625 4.046875 4.046875 
Q 4.046875 5.46875 5.1875 6.546875 
Q 6.34375 7.625 7.953125 7.625 
Q 9.1875 7.625 10.453125 7.234375 
Q 11.28125 6.984375 14.203125 5.4375 
Q 17.140625 3.90625 18.265625 3.609375 
Q 20.0625 3.078125 22.125 3.078125 
Q 27.09375 3.078125 30.78125 6.9375 
Q 34.46875 10.796875 34.46875 16.0625 
Q 34.46875 19.921875 32.765625 23.578125 
Q 31.5 26.3125 29.984375 27.734375 
Q 27.875 29.6875 24.21875 31.265625 
Q 20.5625 32.859375 16.75 32.859375 
L 15.1875 32.859375 
L 15.1875 34.328125 
Q 19.046875 34.8125 22.921875 37.109375 
Q 26.8125 39.40625 28.5625 42.625 
Q 30.328125 45.84375 30.328125 49.703125 
Q 30.328125 54.734375 27.171875 57.828125 
Q 24.03125 60.9375 19.34375 60.9375 
Q 11.765625 60.9375 6.6875 52.828125 
z
" id="TimesNewRomanPSMT-51"/>
     </defs>
     <use xlink:href="#TimesNewRomanPSMT-51"/>
    </g>
   </g>
   <g id="text_24">
    <!-- 23 -->
    <g transform="translate(748.100076 34.39727)scale(0.12 -0.12)">
     <use xlink:href="#TimesNewRomanPSMT-50"/>
     <use x="50" xlink:href="#TimesNewRomanPSMT-51"/>
    </g>
   </g>
   <g id="patch_7">
    <path clip-path="url(#p103ca7062c)" d="M 81.0925 612.110727 
L 192.077348 612.110727 
L 192.077348 612.110727 
L 81.0925 612.110727 
z
" style="fill:url(#hcbf4267777);stroke:#000000;stroke-linejoin:miter;"/>
   </g>
   <g id="patch_8">
    <path clip-path="url(#p103ca7062c)" d="M 236.471288 612.110727 
L 347.456136 612.110727 
L 347.456136 562.048688 
L 236.471288 562.048688 
z
" style="fill:url(#he9d41d773d);stroke:#000000;stroke-linejoin:miter;"/>
   </g>
   <g id="patch_9">
    <path clip-path="url(#p103ca7062c)" d="M 391.850076 612.110727 
L 502.834924 612.110727 
L 502.834924 612.110727 
L 391.850076 612.110727 
z
" style="fill:url(#hcbf4267777);stroke:#000000;stroke-linejoin:miter;"/>
   </g>
   <g id="patch_10">
    <path clip-path="url(#p103ca7062c)" d="M 547.228864 612.110727 
L 658.213712 612.110727 
L 658.213712 537.017668 
L 547.228864 537.017668 
z
" style="fill:url(#he9d41d773d);stroke:#000000;stroke-linejoin:miter;"/>
   </g>
   <g id="patch_11">
    <path clip-path="url(#p103ca7062c)" d="M 702.607652 612.110727 
L 813.5925 612.110727 
L 813.5925 36.39727 
L 702.607652 36.39727 
z
" style="fill:url(#hcbf4267777);stroke:#000000;stroke-linejoin:miter;"/>
   </g>
  </g>
 </g>
 <defs>
  <clipPath id="p103ca7062c">
   <rect height="604.49913" width="805.75" x="44.4675" y="7.611597"/>
  </clipPath>
 </defs>
 <defs>
  <pattern height="72" id="hcbf4267777" patternUnits="userSpaceOnUse" width="72" x="0" y="0">
   <rect fill="#ffffff" height="73" width="73" x="0" y="0"/>
   <path style="fill:#000000;stroke:#000000;stroke-linecap:butt;stroke-linejoin:miter;stroke-width:1.0;"/>
  </pattern>
  <pattern height="72" id="he9d41d773d" patternUnits="userSpaceOnUse" width="72" x="0" y="0">
   <rect fill="#ffffff" height="73" width="73" x="0" y="0"/>
   <path d="M -36 36 
L 36 -36 
M -30 42 
L 42 -30 
M -24 48 
L 48 -24 
M -18 54 
L 54 -18 
M -12 60 
L 60 -12 
M -6 66 
L 66 -6 
M 0 72 
L 72 0 
M 6 78 
L 78 6 
M 12 84 
L 84 12 
M 18 90 
L 90 18 
M 24 96 
L 96 24 
M 30 102 
L 102 30 
M 36 108 
L 108 36 
" style="fill:#000000;stroke:#000000;stroke-linecap:butt;stroke-linejoin:miter;stroke-width:1.0;"/>
  </pattern>
 </defs>
</svg>
