<?xml version="1.0" encoding="utf-8" standalone="no"?>
<!DOCTYPE svg PUBLIC "-//W3C//DTD SVG 1.1//EN"
  "http://www.w3.org/Graphics/SVG/1.1/DTD/svg11.dtd">
<!-- Created with matplotlib (https://matplotlib.org/) -->
<svg height="566.344577pt" version="1.1" viewBox="0 0 1163.803125 566.344577" width="1163.803125pt" xmlns="http://www.w3.org/2000/svg" xmlns:xlink="http://www.w3.org/1999/xlink">
 <metadata>
  <rdf:RDF xmlns:cc="http://creativecommons.org/ns#" xmlns:dc="http://purl.org/dc/elements/1.1/" xmlns:rdf="http://www.w3.org/1999/02/22-rdf-syntax-ns#">
   <cc:Work>
    <dc:type rdf:resource="http://purl.org/dc/dcmitype/StillImage"/>
    <dc:date>2021-05-12T15:32:00.918048</dc:date>
    <dc:format>image/svg+xml</dc:format>
    <dc:creator>
     <cc:Agent>
      <dc:title>Matplotlib v3.3.4, https://matplotlib.org/</dc:title>
     </cc:Agent>
    </dc:creator>
   </cc:Work>
  </rdf:RDF>
 </metadata>
 <defs>
  <style type="text/css">*{stroke-linecap:butt;stroke-linejoin:round;}</style>
 </defs>
 <g id="figure_1">
  <g id="patch_1">
   <path d="M 0 566.344577 
L 1163.803125 566.344577 
L 1163.803125 0 
L 0 0 
z
" style="fill:#ffffff;"/>
  </g>
  <g id="axes_1">
   <g id="patch_2">
    <path d="M 40.603125 521.278125 
L 1156.603125 521.278125 
L 1156.603125 22.318125 
L 40.603125 22.318125 
z
" style="fill:#ffffff;"/>
   </g>
   <g id="matplotlib.axis_1">
    <g id="xtick_1">
     <g id="line2d_1">
      <defs>
       <path d="M 0 0 
L 0 3.5 
" id="m5180d4116b" style="stroke:#000000;stroke-width:0.8;"/>
      </defs>
      <g>
       <use style="stroke:#000000;stroke-width:0.8;" x="168.189902" xlink:href="#m5180d4116b" y="521.278125"/>
      </g>
     </g>
     <g id="text_1">
      <!-- RUS-KNN -->
      <g transform="translate(153.447552 551.839977)rotate(-30)scale(0.08 -0.08)">
       <defs>
        <path d="M 44.390625 34.1875 
Q 47.5625 33.109375 50.5625 29.59375 
Q 53.5625 26.078125 56.59375 19.921875 
L 66.609375 0 
L 56 0 
L 46.6875 18.703125 
Q 43.0625 26.03125 39.671875 28.421875 
Q 36.28125 30.8125 30.421875 30.8125 
L 19.671875 30.8125 
L 19.671875 0 
L 9.8125 0 
L 9.8125 72.90625 
L 32.078125 72.90625 
Q 44.578125 72.90625 50.734375 67.671875 
Q 56.890625 62.453125 56.890625 51.90625 
Q 56.890625 45.015625 53.6875 40.46875 
Q 50.484375 35.9375 44.390625 34.1875 
z
M 19.671875 64.796875 
L 19.671875 38.921875 
L 32.078125 38.921875 
Q 39.203125 38.921875 42.84375 42.21875 
Q 46.484375 45.515625 46.484375 51.90625 
Q 46.484375 58.296875 42.84375 61.546875 
Q 39.203125 64.796875 32.078125 64.796875 
z
" id="DejaVuSans-82"/>
        <path d="M 8.6875 72.90625 
L 18.609375 72.90625 
L 18.609375 28.609375 
Q 18.609375 16.890625 22.84375 11.734375 
Q 27.09375 6.59375 36.625 6.59375 
Q 46.09375 6.59375 50.34375 11.734375 
Q 54.59375 16.890625 54.59375 28.609375 
L 54.59375 72.90625 
L 64.5 72.90625 
L 64.5 27.390625 
Q 64.5 13.140625 57.4375 5.859375 
Q 50.390625 -1.421875 36.625 -1.421875 
Q 22.796875 -1.421875 15.734375 5.859375 
Q 8.6875 13.140625 8.6875 27.390625 
z
" id="DejaVuSans-85"/>
        <path d="M 53.515625 70.515625 
L 53.515625 60.890625 
Q 47.90625 63.578125 42.921875 64.890625 
Q 37.9375 66.21875 33.296875 66.21875 
Q 25.25 66.21875 20.875 63.09375 
Q 16.5 59.96875 16.5 54.203125 
Q 16.5 49.359375 19.40625 46.890625 
Q 22.3125 44.4375 30.421875 42.921875 
L 36.375 41.703125 
Q 47.40625 39.59375 52.65625 34.296875 
Q 57.90625 29 57.90625 20.125 
Q 57.90625 9.515625 50.796875 4.046875 
Q 43.703125 -1.421875 29.984375 -1.421875 
Q 24.8125 -1.421875 18.96875 -0.25 
Q 13.140625 0.921875 6.890625 3.21875 
L 6.890625 13.375 
Q 12.890625 10.015625 18.65625 8.296875 
Q 24.421875 6.59375 29.984375 6.59375 
Q 38.421875 6.59375 43.015625 9.90625 
Q 47.609375 13.234375 47.609375 19.390625 
Q 47.609375 24.75 44.3125 27.78125 
Q 41.015625 30.8125 33.5 32.328125 
L 27.484375 33.5 
Q 16.453125 35.6875 11.515625 40.375 
Q 6.59375 45.0625 6.59375 53.421875 
Q 6.59375 63.09375 13.40625 68.65625 
Q 20.21875 74.21875 32.171875 74.21875 
Q 37.3125 74.21875 42.625 73.28125 
Q 47.953125 72.359375 53.515625 70.515625 
z
" id="DejaVuSans-83"/>
        <path d="M 4.890625 31.390625 
L 31.203125 31.390625 
L 31.203125 23.390625 
L 4.890625 23.390625 
z
" id="DejaVuSans-45"/>
        <path d="M 9.8125 72.90625 
L 19.671875 72.90625 
L 19.671875 42.09375 
L 52.390625 72.90625 
L 65.09375 72.90625 
L 28.90625 38.921875 
L 67.671875 0 
L 54.6875 0 
L 19.671875 35.109375 
L 19.671875 0 
L 9.8125 0 
z
" id="DejaVuSans-75"/>
        <path d="M 9.8125 72.90625 
L 23.09375 72.90625 
L 55.421875 11.921875 
L 55.421875 72.90625 
L 64.984375 72.90625 
L 64.984375 0 
L 51.703125 0 
L 19.390625 60.984375 
L 19.390625 0 
L 9.8125 0 
z
" id="DejaVuSans-78"/>
       </defs>
       <use xlink:href="#DejaVuSans-82"/>
       <use x="69.482422" xlink:href="#DejaVuSans-85"/>
       <use x="142.675781" xlink:href="#DejaVuSans-83"/>
       <use x="206.152344" xlink:href="#DejaVuSans-45"/>
       <use x="242.236328" xlink:href="#DejaVuSans-75"/>
       <use x="307.8125" xlink:href="#DejaVuSans-78"/>
       <use x="382.617188" xlink:href="#DejaVuSans-78"/>
      </g>
     </g>
    </g>
    <g id="xtick_2">
     <g id="line2d_2">
      <g>
       <use style="stroke:#000000;stroke-width:0.8;" x="383.396513" xlink:href="#m5180d4116b" y="521.278125"/>
      </g>
     </g>
     <g id="text_2">
      <!-- SMOTE-KNN -->
      <g transform="translate(363.576007 557.703727)rotate(-30)scale(0.08 -0.08)">
       <defs>
        <path d="M 9.8125 72.90625 
L 24.515625 72.90625 
L 43.109375 23.296875 
L 61.8125 72.90625 
L 76.515625 72.90625 
L 76.515625 0 
L 66.890625 0 
L 66.890625 64.015625 
L 48.09375 14.015625 
L 38.1875 14.015625 
L 19.390625 64.015625 
L 19.390625 0 
L 9.8125 0 
z
" id="DejaVuSans-77"/>
        <path d="M 39.40625 66.21875 
Q 28.65625 66.21875 22.328125 58.203125 
Q 16.015625 50.203125 16.015625 36.375 
Q 16.015625 22.609375 22.328125 14.59375 
Q 28.65625 6.59375 39.40625 6.59375 
Q 50.140625 6.59375 56.421875 14.59375 
Q 62.703125 22.609375 62.703125 36.375 
Q 62.703125 50.203125 56.421875 58.203125 
Q 50.140625 66.21875 39.40625 66.21875 
z
M 39.40625 74.21875 
Q 54.734375 74.21875 63.90625 63.9375 
Q 73.09375 53.65625 73.09375 36.375 
Q 73.09375 19.140625 63.90625 8.859375 
Q 54.734375 -1.421875 39.40625 -1.421875 
Q 24.03125 -1.421875 14.8125 8.828125 
Q 5.609375 19.09375 5.609375 36.375 
Q 5.609375 53.65625 14.8125 63.9375 
Q 24.03125 74.21875 39.40625 74.21875 
z
" id="DejaVuSans-79"/>
        <path d="M -0.296875 72.90625 
L 61.375 72.90625 
L 61.375 64.59375 
L 35.5 64.59375 
L 35.5 0 
L 25.59375 0 
L 25.59375 64.59375 
L -0.296875 64.59375 
z
" id="DejaVuSans-84"/>
        <path d="M 9.8125 72.90625 
L 55.90625 72.90625 
L 55.90625 64.59375 
L 19.671875 64.59375 
L 19.671875 43.015625 
L 54.390625 43.015625 
L 54.390625 34.71875 
L 19.671875 34.71875 
L 19.671875 8.296875 
L 56.78125 8.296875 
L 56.78125 0 
L 9.8125 0 
z
" id="DejaVuSans-69"/>
       </defs>
       <use xlink:href="#DejaVuSans-83"/>
       <use x="63.476562" xlink:href="#DejaVuSans-77"/>
       <use x="149.755859" xlink:href="#DejaVuSans-79"/>
       <use x="228.466797" xlink:href="#DejaVuSans-84"/>
       <use x="289.550781" xlink:href="#DejaVuSans-69"/>
       <use x="352.734375" xlink:href="#DejaVuSans-45"/>
       <use x="388.818359" xlink:href="#DejaVuSans-75"/>
       <use x="454.394531" xlink:href="#DejaVuSans-78"/>
       <use x="529.199219" xlink:href="#DejaVuSans-78"/>
      </g>
     </g>
    </g>
    <g id="xtick_3">
     <g id="line2d_3">
      <g>
       <use style="stroke:#000000;stroke-width:0.8;" x="598.603125" xlink:href="#m5180d4116b" y="521.278125"/>
      </g>
     </g>
     <g id="text_3">
      <!-- RUS-DT -->
      <g transform="translate(586.532464 548.754977)rotate(-30)scale(0.08 -0.08)">
       <defs>
        <path d="M 19.671875 64.796875 
L 19.671875 8.109375 
L 31.59375 8.109375 
Q 46.6875 8.109375 53.6875 14.9375 
Q 60.6875 21.78125 60.6875 36.53125 
Q 60.6875 51.171875 53.6875 57.984375 
Q 46.6875 64.796875 31.59375 64.796875 
z
M 9.8125 72.90625 
L 30.078125 72.90625 
Q 51.265625 72.90625 61.171875 64.09375 
Q 71.09375 55.28125 71.09375 36.53125 
Q 71.09375 17.671875 61.125 8.828125 
Q 51.171875 0 30.078125 0 
L 9.8125 0 
z
" id="DejaVuSans-68"/>
       </defs>
       <use xlink:href="#DejaVuSans-82"/>
       <use x="69.482422" xlink:href="#DejaVuSans-85"/>
       <use x="142.675781" xlink:href="#DejaVuSans-83"/>
       <use x="206.152344" xlink:href="#DejaVuSans-45"/>
       <use x="242.236328" xlink:href="#DejaVuSans-68"/>
       <use x="319.238281" xlink:href="#DejaVuSans-84"/>
      </g>
     </g>
    </g>
    <g id="xtick_4">
     <g id="line2d_4">
      <g>
       <use style="stroke:#000000;stroke-width:0.8;" x="813.809737" xlink:href="#m5180d4116b" y="521.278125"/>
      </g>
     </g>
     <g id="text_4">
      <!-- SMOTE-DT -->
      <g transform="translate(796.660919 554.618727)rotate(-30)scale(0.08 -0.08)">
       <use xlink:href="#DejaVuSans-83"/>
       <use x="63.476562" xlink:href="#DejaVuSans-77"/>
       <use x="149.755859" xlink:href="#DejaVuSans-79"/>
       <use x="228.466797" xlink:href="#DejaVuSans-84"/>
       <use x="289.550781" xlink:href="#DejaVuSans-69"/>
       <use x="352.734375" xlink:href="#DejaVuSans-45"/>
       <use x="388.818359" xlink:href="#DejaVuSans-68"/>
       <use x="465.820312" xlink:href="#DejaVuSans-84"/>
      </g>
     </g>
    </g>
    <g id="xtick_5">
     <g id="line2d_5">
      <g>
       <use style="stroke:#000000;stroke-width:0.8;" x="1029.016348" xlink:href="#m5180d4116b" y="521.278125"/>
      </g>
     </g>
     <g id="text_5">
      <!-- HABC -->
      <g transform="translate(1020.41033 544.754352)rotate(-30)scale(0.08 -0.08)">
       <defs>
        <path d="M 9.8125 72.90625 
L 19.671875 72.90625 
L 19.671875 43.015625 
L 55.515625 43.015625 
L 55.515625 72.90625 
L 65.375 72.90625 
L 65.375 0 
L 55.515625 0 
L 55.515625 34.71875 
L 19.671875 34.71875 
L 19.671875 0 
L 9.8125 0 
z
" id="DejaVuSans-72"/>
        <path d="M 34.1875 63.1875 
L 20.796875 26.90625 
L 47.609375 26.90625 
z
M 28.609375 72.90625 
L 39.796875 72.90625 
L 67.578125 0 
L 57.328125 0 
L 50.6875 18.703125 
L 17.828125 18.703125 
L 11.1875 0 
L 0.78125 0 
z
" id="DejaVuSans-65"/>
        <path d="M 19.671875 34.8125 
L 19.671875 8.109375 
L 35.5 8.109375 
Q 43.453125 8.109375 47.28125 11.40625 
Q 51.125 14.703125 51.125 21.484375 
Q 51.125 28.328125 47.28125 31.5625 
Q 43.453125 34.8125 35.5 34.8125 
z
M 19.671875 64.796875 
L 19.671875 42.828125 
L 34.28125 42.828125 
Q 41.5 42.828125 45.03125 45.53125 
Q 48.578125 48.25 48.578125 53.8125 
Q 48.578125 59.328125 45.03125 62.0625 
Q 41.5 64.796875 34.28125 64.796875 
z
M 9.8125 72.90625 
L 35.015625 72.90625 
Q 46.296875 72.90625 52.390625 68.21875 
Q 58.5 63.53125 58.5 54.890625 
Q 58.5 48.1875 55.375 44.234375 
Q 52.25 40.28125 46.1875 39.3125 
Q 53.46875 37.75 57.5 32.78125 
Q 61.53125 27.828125 61.53125 20.40625 
Q 61.53125 10.640625 54.890625 5.3125 
Q 48.25 0 35.984375 0 
L 9.8125 0 
z
" id="DejaVuSans-66"/>
        <path d="M 64.40625 67.28125 
L 64.40625 56.890625 
Q 59.421875 61.53125 53.78125 63.8125 
Q 48.140625 66.109375 41.796875 66.109375 
Q 29.296875 66.109375 22.65625 58.46875 
Q 16.015625 50.828125 16.015625 36.375 
Q 16.015625 21.96875 22.65625 14.328125 
Q 29.296875 6.6875 41.796875 6.6875 
Q 48.140625 6.6875 53.78125 8.984375 
Q 59.421875 11.28125 64.40625 15.921875 
L 64.40625 5.609375 
Q 59.234375 2.09375 53.4375 0.328125 
Q 47.65625 -1.421875 41.21875 -1.421875 
Q 24.65625 -1.421875 15.125 8.703125 
Q 5.609375 18.84375 5.609375 36.375 
Q 5.609375 53.953125 15.125 64.078125 
Q 24.65625 74.21875 41.21875 74.21875 
Q 47.75 74.21875 53.53125 72.484375 
Q 59.328125 70.75 64.40625 67.28125 
z
" id="DejaVuSans-67"/>
       </defs>
       <use xlink:href="#DejaVuSans-72"/>
       <use x="75.195312" xlink:href="#DejaVuSans-65"/>
       <use x="143.603516" xlink:href="#DejaVuSans-66"/>
       <use x="210.457031" xlink:href="#DejaVuSans-67"/>
      </g>
     </g>
    </g>
   </g>
   <g id="matplotlib.axis_2">
    <g id="ytick_1">
     <g id="line2d_6">
      <path clip-path="url(#pb382258e5e)" d="M 40.603125 521.278125 
L 1156.603125 521.278125 
" style="fill:none;stroke:#b0b0b0;stroke-dasharray:2.96,1.28;stroke-dashoffset:0;stroke-width:0.8;"/>
     </g>
     <g id="line2d_7">
      <defs>
       <path d="M 0 0 
L -3.5 0 
" id="m245947d546" style="stroke:#000000;stroke-width:0.8;"/>
      </defs>
      <g>
       <use style="stroke:#000000;stroke-width:0.8;" x="40.603125" xlink:href="#m245947d546" y="521.278125"/>
      </g>
     </g>
     <g id="text_6">
      <!-- 0 -->
      <g transform="translate(27.240625 525.077344)scale(0.1 -0.1)">
       <defs>
        <path d="M 31.78125 66.40625 
Q 24.171875 66.40625 20.328125 58.90625 
Q 16.5 51.421875 16.5 36.375 
Q 16.5 21.390625 20.328125 13.890625 
Q 24.171875 6.390625 31.78125 6.390625 
Q 39.453125 6.390625 43.28125 13.890625 
Q 47.125 21.390625 47.125 36.375 
Q 47.125 51.421875 43.28125 58.90625 
Q 39.453125 66.40625 31.78125 66.40625 
z
M 31.78125 74.21875 
Q 44.046875 74.21875 50.515625 64.515625 
Q 56.984375 54.828125 56.984375 36.375 
Q 56.984375 17.96875 50.515625 8.265625 
Q 44.046875 -1.421875 31.78125 -1.421875 
Q 19.53125 -1.421875 13.0625 8.265625 
Q 6.59375 17.96875 6.59375 36.375 
Q 6.59375 54.828125 13.0625 64.515625 
Q 19.53125 74.21875 31.78125 74.21875 
z
" id="DejaVuSans-48"/>
       </defs>
       <use xlink:href="#DejaVuSans-48"/>
      </g>
     </g>
    </g>
    <g id="ytick_2">
     <g id="line2d_8">
      <path clip-path="url(#pb382258e5e)" d="M 40.603125 479.956386 
L 1156.603125 479.956386 
" style="fill:none;stroke:#b0b0b0;stroke-dasharray:2.96,1.28;stroke-dashoffset:0;stroke-width:0.8;"/>
     </g>
     <g id="line2d_9">
      <g>
       <use style="stroke:#000000;stroke-width:0.8;" x="40.603125" xlink:href="#m245947d546" y="479.956386"/>
      </g>
     </g>
     <g id="text_7">
      <!-- 2 -->
      <g transform="translate(27.240625 483.755605)scale(0.1 -0.1)">
       <defs>
        <path d="M 19.1875 8.296875 
L 53.609375 8.296875 
L 53.609375 0 
L 7.328125 0 
L 7.328125 8.296875 
Q 12.9375 14.109375 22.625 23.890625 
Q 32.328125 33.6875 34.8125 36.53125 
Q 39.546875 41.84375 41.421875 45.53125 
Q 43.3125 49.21875 43.3125 52.78125 
Q 43.3125 58.59375 39.234375 62.25 
Q 35.15625 65.921875 28.609375 65.921875 
Q 23.96875 65.921875 18.8125 64.3125 
Q 13.671875 62.703125 7.8125 59.421875 
L 7.8125 69.390625 
Q 13.765625 71.78125 18.9375 73 
Q 24.125 74.21875 28.421875 74.21875 
Q 39.75 74.21875 46.484375 68.546875 
Q 53.21875 62.890625 53.21875 53.421875 
Q 53.21875 48.921875 51.53125 44.890625 
Q 49.859375 40.875 45.40625 35.40625 
Q 44.1875 33.984375 37.640625 27.21875 
Q 31.109375 20.453125 19.1875 8.296875 
z
" id="DejaVuSans-50"/>
       </defs>
       <use xlink:href="#DejaVuSans-50"/>
      </g>
     </g>
    </g>
    <g id="ytick_3">
     <g id="line2d_10">
      <path clip-path="url(#pb382258e5e)" d="M 40.603125 438.634647 
L 1156.603125 438.634647 
" style="fill:none;stroke:#b0b0b0;stroke-dasharray:2.96,1.28;stroke-dashoffset:0;stroke-width:0.8;"/>
     </g>
     <g id="line2d_11">
      <g>
       <use style="stroke:#000000;stroke-width:0.8;" x="40.603125" xlink:href="#m245947d546" y="438.634647"/>
      </g>
     </g>
     <g id="text_8">
      <!-- 4 -->
      <g transform="translate(27.240625 442.433865)scale(0.1 -0.1)">
       <defs>
        <path d="M 37.796875 64.3125 
L 12.890625 25.390625 
L 37.796875 25.390625 
z
M 35.203125 72.90625 
L 47.609375 72.90625 
L 47.609375 25.390625 
L 58.015625 25.390625 
L 58.015625 17.1875 
L 47.609375 17.1875 
L 47.609375 0 
L 37.796875 0 
L 37.796875 17.1875 
L 4.890625 17.1875 
L 4.890625 26.703125 
z
" id="DejaVuSans-52"/>
       </defs>
       <use xlink:href="#DejaVuSans-52"/>
      </g>
     </g>
    </g>
    <g id="ytick_4">
     <g id="line2d_12">
      <path clip-path="url(#pb382258e5e)" d="M 40.603125 397.312908 
L 1156.603125 397.312908 
" style="fill:none;stroke:#b0b0b0;stroke-dasharray:2.96,1.28;stroke-dashoffset:0;stroke-width:0.8;"/>
     </g>
     <g id="line2d_13">
      <g>
       <use style="stroke:#000000;stroke-width:0.8;" x="40.603125" xlink:href="#m245947d546" y="397.312908"/>
      </g>
     </g>
     <g id="text_9">
      <!-- 6 -->
      <g transform="translate(27.240625 401.112126)scale(0.1 -0.1)">
       <defs>
        <path d="M 33.015625 40.375 
Q 26.375 40.375 22.484375 35.828125 
Q 18.609375 31.296875 18.609375 23.390625 
Q 18.609375 15.53125 22.484375 10.953125 
Q 26.375 6.390625 33.015625 6.390625 
Q 39.65625 6.390625 43.53125 10.953125 
Q 47.40625 15.53125 47.40625 23.390625 
Q 47.40625 31.296875 43.53125 35.828125 
Q 39.65625 40.375 33.015625 40.375 
z
M 52.59375 71.296875 
L 52.59375 62.3125 
Q 48.875 64.0625 45.09375 64.984375 
Q 41.3125 65.921875 37.59375 65.921875 
Q 27.828125 65.921875 22.671875 59.328125 
Q 17.53125 52.734375 16.796875 39.40625 
Q 19.671875 43.65625 24.015625 45.921875 
Q 28.375 48.1875 33.59375 48.1875 
Q 44.578125 48.1875 50.953125 41.515625 
Q 57.328125 34.859375 57.328125 23.390625 
Q 57.328125 12.15625 50.6875 5.359375 
Q 44.046875 -1.421875 33.015625 -1.421875 
Q 20.359375 -1.421875 13.671875 8.265625 
Q 6.984375 17.96875 6.984375 36.375 
Q 6.984375 53.65625 15.1875 63.9375 
Q 23.390625 74.21875 37.203125 74.21875 
Q 40.921875 74.21875 44.703125 73.484375 
Q 48.484375 72.75 52.59375 71.296875 
z
" id="DejaVuSans-54"/>
       </defs>
       <use xlink:href="#DejaVuSans-54"/>
      </g>
     </g>
    </g>
    <g id="ytick_5">
     <g id="line2d_14">
      <path clip-path="url(#pb382258e5e)" d="M 40.603125 355.991168 
L 1156.603125 355.991168 
" style="fill:none;stroke:#b0b0b0;stroke-dasharray:2.96,1.28;stroke-dashoffset:0;stroke-width:0.8;"/>
     </g>
     <g id="line2d_15">
      <g>
       <use style="stroke:#000000;stroke-width:0.8;" x="40.603125" xlink:href="#m245947d546" y="355.991168"/>
      </g>
     </g>
     <g id="text_10">
      <!-- 8 -->
      <g transform="translate(27.240625 359.790387)scale(0.1 -0.1)">
       <defs>
        <path d="M 31.78125 34.625 
Q 24.75 34.625 20.71875 30.859375 
Q 16.703125 27.09375 16.703125 20.515625 
Q 16.703125 13.921875 20.71875 10.15625 
Q 24.75 6.390625 31.78125 6.390625 
Q 38.8125 6.390625 42.859375 10.171875 
Q 46.921875 13.96875 46.921875 20.515625 
Q 46.921875 27.09375 42.890625 30.859375 
Q 38.875 34.625 31.78125 34.625 
z
M 21.921875 38.8125 
Q 15.578125 40.375 12.03125 44.71875 
Q 8.5 49.078125 8.5 55.328125 
Q 8.5 64.0625 14.71875 69.140625 
Q 20.953125 74.21875 31.78125 74.21875 
Q 42.671875 74.21875 48.875 69.140625 
Q 55.078125 64.0625 55.078125 55.328125 
Q 55.078125 49.078125 51.53125 44.71875 
Q 48 40.375 41.703125 38.8125 
Q 48.828125 37.15625 52.796875 32.3125 
Q 56.78125 27.484375 56.78125 20.515625 
Q 56.78125 9.90625 50.3125 4.234375 
Q 43.84375 -1.421875 31.78125 -1.421875 
Q 19.734375 -1.421875 13.25 4.234375 
Q 6.78125 9.90625 6.78125 20.515625 
Q 6.78125 27.484375 10.78125 32.3125 
Q 14.796875 37.15625 21.921875 38.8125 
z
M 18.3125 54.390625 
Q 18.3125 48.734375 21.84375 45.5625 
Q 25.390625 42.390625 31.78125 42.390625 
Q 38.140625 42.390625 41.71875 45.5625 
Q 45.3125 48.734375 45.3125 54.390625 
Q 45.3125 60.0625 41.71875 63.234375 
Q 38.140625 66.40625 31.78125 66.40625 
Q 25.390625 66.40625 21.84375 63.234375 
Q 18.3125 60.0625 18.3125 54.390625 
z
" id="DejaVuSans-56"/>
       </defs>
       <use xlink:href="#DejaVuSans-56"/>
      </g>
     </g>
    </g>
    <g id="ytick_6">
     <g id="line2d_16">
      <path clip-path="url(#pb382258e5e)" d="M 40.603125 314.669429 
L 1156.603125 314.669429 
" style="fill:none;stroke:#b0b0b0;stroke-dasharray:2.96,1.28;stroke-dashoffset:0;stroke-width:0.8;"/>
     </g>
     <g id="line2d_17">
      <g>
       <use style="stroke:#000000;stroke-width:0.8;" x="40.603125" xlink:href="#m245947d546" y="314.669429"/>
      </g>
     </g>
     <g id="text_11">
      <!-- 10 -->
      <g transform="translate(20.878125 318.468648)scale(0.1 -0.1)">
       <defs>
        <path d="M 12.40625 8.296875 
L 28.515625 8.296875 
L 28.515625 63.921875 
L 10.984375 60.40625 
L 10.984375 69.390625 
L 28.421875 72.90625 
L 38.28125 72.90625 
L 38.28125 8.296875 
L 54.390625 8.296875 
L 54.390625 0 
L 12.40625 0 
z
" id="DejaVuSans-49"/>
       </defs>
       <use xlink:href="#DejaVuSans-49"/>
       <use x="63.623047" xlink:href="#DejaVuSans-48"/>
      </g>
     </g>
    </g>
    <g id="ytick_7">
     <g id="line2d_18">
      <path clip-path="url(#pb382258e5e)" d="M 40.603125 273.34769 
L 1156.603125 273.34769 
" style="fill:none;stroke:#b0b0b0;stroke-dasharray:2.96,1.28;stroke-dashoffset:0;stroke-width:0.8;"/>
     </g>
     <g id="line2d_19">
      <g>
       <use style="stroke:#000000;stroke-width:0.8;" x="40.603125" xlink:href="#m245947d546" y="273.34769"/>
      </g>
     </g>
     <g id="text_12">
      <!-- 12 -->
      <g transform="translate(20.878125 277.146909)scale(0.1 -0.1)">
       <use xlink:href="#DejaVuSans-49"/>
       <use x="63.623047" xlink:href="#DejaVuSans-50"/>
      </g>
     </g>
    </g>
    <g id="ytick_8">
     <g id="line2d_20">
      <path clip-path="url(#pb382258e5e)" d="M 40.603125 232.025951 
L 1156.603125 232.025951 
" style="fill:none;stroke:#b0b0b0;stroke-dasharray:2.96,1.28;stroke-dashoffset:0;stroke-width:0.8;"/>
     </g>
     <g id="line2d_21">
      <g>
       <use style="stroke:#000000;stroke-width:0.8;" x="40.603125" xlink:href="#m245947d546" y="232.025951"/>
      </g>
     </g>
     <g id="text_13">
      <!-- 14 -->
      <g transform="translate(20.878125 235.82517)scale(0.1 -0.1)">
       <use xlink:href="#DejaVuSans-49"/>
       <use x="63.623047" xlink:href="#DejaVuSans-52"/>
      </g>
     </g>
    </g>
    <g id="ytick_9">
     <g id="line2d_22">
      <path clip-path="url(#pb382258e5e)" d="M 40.603125 190.704212 
L 1156.603125 190.704212 
" style="fill:none;stroke:#b0b0b0;stroke-dasharray:2.96,1.28;stroke-dashoffset:0;stroke-width:0.8;"/>
     </g>
     <g id="line2d_23">
      <g>
       <use style="stroke:#000000;stroke-width:0.8;" x="40.603125" xlink:href="#m245947d546" y="190.704212"/>
      </g>
     </g>
     <g id="text_14">
      <!-- 16 -->
      <g transform="translate(20.878125 194.503431)scale(0.1 -0.1)">
       <use xlink:href="#DejaVuSans-49"/>
       <use x="63.623047" xlink:href="#DejaVuSans-54"/>
      </g>
     </g>
    </g>
    <g id="ytick_10">
     <g id="line2d_24">
      <path clip-path="url(#pb382258e5e)" d="M 40.603125 149.382473 
L 1156.603125 149.382473 
" style="fill:none;stroke:#b0b0b0;stroke-dasharray:2.96,1.28;stroke-dashoffset:0;stroke-width:0.8;"/>
     </g>
     <g id="line2d_25">
      <g>
       <use style="stroke:#000000;stroke-width:0.8;" x="40.603125" xlink:href="#m245947d546" y="149.382473"/>
      </g>
     </g>
     <g id="text_15">
      <!-- 18 -->
      <g transform="translate(20.878125 153.181692)scale(0.1 -0.1)">
       <use xlink:href="#DejaVuSans-49"/>
       <use x="63.623047" xlink:href="#DejaVuSans-56"/>
      </g>
     </g>
    </g>
    <g id="ytick_11">
     <g id="line2d_26">
      <path clip-path="url(#pb382258e5e)" d="M 40.603125 108.060734 
L 1156.603125 108.060734 
" style="fill:none;stroke:#b0b0b0;stroke-dasharray:2.96,1.28;stroke-dashoffset:0;stroke-width:0.8;"/>
     </g>
     <g id="line2d_27">
      <g>
       <use style="stroke:#000000;stroke-width:0.8;" x="40.603125" xlink:href="#m245947d546" y="108.060734"/>
      </g>
     </g>
     <g id="text_16">
      <!-- 20 -->
      <g transform="translate(20.878125 111.859952)scale(0.1 -0.1)">
       <use xlink:href="#DejaVuSans-50"/>
       <use x="63.623047" xlink:href="#DejaVuSans-48"/>
      </g>
     </g>
    </g>
    <g id="ytick_12">
     <g id="line2d_28">
      <path clip-path="url(#pb382258e5e)" d="M 40.603125 66.738995 
L 1156.603125 66.738995 
" style="fill:none;stroke:#b0b0b0;stroke-dasharray:2.96,1.28;stroke-dashoffset:0;stroke-width:0.8;"/>
     </g>
     <g id="line2d_29">
      <g>
       <use style="stroke:#000000;stroke-width:0.8;" x="40.603125" xlink:href="#m245947d546" y="66.738995"/>
      </g>
     </g>
     <g id="text_17">
      <!-- 22 -->
      <g transform="translate(20.878125 70.538213)scale(0.1 -0.1)">
       <use xlink:href="#DejaVuSans-50"/>
       <use x="63.623047" xlink:href="#DejaVuSans-50"/>
      </g>
     </g>
    </g>
    <g id="ytick_13">
     <g id="line2d_30">
      <path clip-path="url(#pb382258e5e)" d="M 40.603125 25.417255 
L 1156.603125 25.417255 
" style="fill:none;stroke:#b0b0b0;stroke-dasharray:2.96,1.28;stroke-dashoffset:0;stroke-width:0.8;"/>
     </g>
     <g id="line2d_31">
      <g>
       <use style="stroke:#000000;stroke-width:0.8;" x="40.603125" xlink:href="#m245947d546" y="25.417255"/>
      </g>
     </g>
     <g id="text_18">
      <!-- 24 -->
      <g transform="translate(20.878125 29.216474)scale(0.1 -0.1)">
       <use xlink:href="#DejaVuSans-50"/>
       <use x="63.623047" xlink:href="#DejaVuSans-52"/>
      </g>
     </g>
    </g>
    <g id="text_19">
     <!-- times -->
     <g transform="translate(14.798438 285.698906)rotate(-90)scale(0.1 -0.1)">
      <defs>
       <path d="M 18.3125 70.21875 
L 18.3125 54.6875 
L 36.8125 54.6875 
L 36.8125 47.703125 
L 18.3125 47.703125 
L 18.3125 18.015625 
Q 18.3125 11.328125 20.140625 9.421875 
Q 21.96875 7.515625 27.59375 7.515625 
L 36.8125 7.515625 
L 36.8125 0 
L 27.59375 0 
Q 17.1875 0 13.234375 3.875 
Q 9.28125 7.765625 9.28125 18.015625 
L 9.28125 47.703125 
L 2.6875 47.703125 
L 2.6875 54.6875 
L 9.28125 54.6875 
L 9.28125 70.21875 
z
" id="DejaVuSans-116"/>
       <path d="M 9.421875 54.6875 
L 18.40625 54.6875 
L 18.40625 0 
L 9.421875 0 
z
M 9.421875 75.984375 
L 18.40625 75.984375 
L 18.40625 64.59375 
L 9.421875 64.59375 
z
" id="DejaVuSans-105"/>
       <path d="M 52 44.1875 
Q 55.375 50.25 60.0625 53.125 
Q 64.75 56 71.09375 56 
Q 79.640625 56 84.28125 50.015625 
Q 88.921875 44.046875 88.921875 33.015625 
L 88.921875 0 
L 79.890625 0 
L 79.890625 32.71875 
Q 79.890625 40.578125 77.09375 44.375 
Q 74.3125 48.1875 68.609375 48.1875 
Q 61.625 48.1875 57.5625 43.546875 
Q 53.515625 38.921875 53.515625 30.90625 
L 53.515625 0 
L 44.484375 0 
L 44.484375 32.71875 
Q 44.484375 40.625 41.703125 44.40625 
Q 38.921875 48.1875 33.109375 48.1875 
Q 26.21875 48.1875 22.15625 43.53125 
Q 18.109375 38.875 18.109375 30.90625 
L 18.109375 0 
L 9.078125 0 
L 9.078125 54.6875 
L 18.109375 54.6875 
L 18.109375 46.1875 
Q 21.1875 51.21875 25.484375 53.609375 
Q 29.78125 56 35.6875 56 
Q 41.65625 56 45.828125 52.96875 
Q 50 49.953125 52 44.1875 
z
" id="DejaVuSans-109"/>
       <path d="M 56.203125 29.59375 
L 56.203125 25.203125 
L 14.890625 25.203125 
Q 15.484375 15.921875 20.484375 11.0625 
Q 25.484375 6.203125 34.421875 6.203125 
Q 39.59375 6.203125 44.453125 7.46875 
Q 49.3125 8.734375 54.109375 11.28125 
L 54.109375 2.78125 
Q 49.265625 0.734375 44.1875 -0.34375 
Q 39.109375 -1.421875 33.890625 -1.421875 
Q 20.796875 -1.421875 13.15625 6.1875 
Q 5.515625 13.8125 5.515625 26.8125 
Q 5.515625 40.234375 12.765625 48.109375 
Q 20.015625 56 32.328125 56 
Q 43.359375 56 49.78125 48.890625 
Q 56.203125 41.796875 56.203125 29.59375 
z
M 47.21875 32.234375 
Q 47.125 39.59375 43.09375 43.984375 
Q 39.0625 48.390625 32.421875 48.390625 
Q 24.90625 48.390625 20.390625 44.140625 
Q 15.875 39.890625 15.1875 32.171875 
z
" id="DejaVuSans-101"/>
       <path d="M 44.28125 53.078125 
L 44.28125 44.578125 
Q 40.484375 46.53125 36.375 47.5 
Q 32.28125 48.484375 27.875 48.484375 
Q 21.1875 48.484375 17.84375 46.4375 
Q 14.5 44.390625 14.5 40.28125 
Q 14.5 37.15625 16.890625 35.375 
Q 19.28125 33.59375 26.515625 31.984375 
L 29.59375 31.296875 
Q 39.15625 29.25 43.1875 25.515625 
Q 47.21875 21.78125 47.21875 15.09375 
Q 47.21875 7.46875 41.1875 3.015625 
Q 35.15625 -1.421875 24.609375 -1.421875 
Q 20.21875 -1.421875 15.453125 -0.5625 
Q 10.6875 0.296875 5.421875 2 
L 5.421875 11.28125 
Q 10.40625 8.6875 15.234375 7.390625 
Q 20.0625 6.109375 24.8125 6.109375 
Q 31.15625 6.109375 34.5625 8.28125 
Q 37.984375 10.453125 37.984375 14.40625 
Q 37.984375 18.0625 35.515625 20.015625 
Q 33.0625 21.96875 24.703125 23.78125 
L 21.578125 24.515625 
Q 13.234375 26.265625 9.515625 29.90625 
Q 5.8125 33.546875 5.8125 39.890625 
Q 5.8125 47.609375 11.28125 51.796875 
Q 16.75 56 26.8125 56 
Q 31.78125 56 36.171875 55.265625 
Q 40.578125 54.546875 44.28125 53.078125 
z
" id="DejaVuSans-115"/>
      </defs>
      <use xlink:href="#DejaVuSans-116"/>
      <use x="39.208984" xlink:href="#DejaVuSans-105"/>
      <use x="66.992188" xlink:href="#DejaVuSans-109"/>
      <use x="164.404297" xlink:href="#DejaVuSans-101"/>
      <use x="225.927734" xlink:href="#DejaVuSans-115"/>
     </g>
    </g>
   </g>
   <g id="patch_3">
    <path d="M 40.603125 521.278125 
L 40.603125 22.318125 
" style="fill:none;stroke:#000000;stroke-linecap:square;stroke-linejoin:miter;stroke-width:0.8;"/>
   </g>
   <g id="patch_4">
    <path d="M 1156.603125 521.278125 
L 1156.603125 22.318125 
" style="fill:none;stroke:#000000;stroke-linecap:square;stroke-linejoin:miter;stroke-width:0.8;"/>
   </g>
   <g id="patch_5">
    <path d="M 40.603125 521.278125 
L 1156.603125 521.278125 
" style="fill:none;stroke:#000000;stroke-linecap:square;stroke-linejoin:miter;stroke-width:0.8;"/>
   </g>
   <g id="patch_6">
    <path d="M 40.603125 22.318125 
L 1156.603125 22.318125 
" style="fill:none;stroke:#000000;stroke-linecap:square;stroke-linejoin:miter;stroke-width:0.8;"/>
   </g>
   <g id="text_20">
    <!-- 0 -->
    <g transform="translate(156.189902 519.278125)scale(0.1 -0.1)">
     <use xlink:href="#DejaVuSans-48"/>
    </g>
   </g>
   <g id="text_21">
    <!-- 2 -->
    <g transform="translate(371.396513 477.956386)scale(0.1 -0.1)">
     <use xlink:href="#DejaVuSans-50"/>
    </g>
   </g>
   <g id="text_22">
    <!-- 0 -->
    <g transform="translate(586.603125 519.278125)scale(0.1 -0.1)">
     <use xlink:href="#DejaVuSans-48"/>
    </g>
   </g>
   <g id="text_23">
    <!-- 3 -->
    <g transform="translate(801.809737 457.295516)scale(0.1 -0.1)">
     <defs>
      <path d="M 40.578125 39.3125 
Q 47.65625 37.796875 51.625 33 
Q 55.609375 28.21875 55.609375 21.1875 
Q 55.609375 10.40625 48.1875 4.484375 
Q 40.765625 -1.421875 27.09375 -1.421875 
Q 22.515625 -1.421875 17.65625 -0.515625 
Q 12.796875 0.390625 7.625 2.203125 
L 7.625 11.71875 
Q 11.71875 9.328125 16.59375 8.109375 
Q 21.484375 6.890625 26.8125 6.890625 
Q 36.078125 6.890625 40.9375 10.546875 
Q 45.796875 14.203125 45.796875 21.1875 
Q 45.796875 27.640625 41.28125 31.265625 
Q 36.765625 34.90625 28.71875 34.90625 
L 20.21875 34.90625 
L 20.21875 43.015625 
L 29.109375 43.015625 
Q 36.375 43.015625 40.234375 45.921875 
Q 44.09375 48.828125 44.09375 54.296875 
Q 44.09375 59.90625 40.109375 62.90625 
Q 36.140625 65.921875 28.71875 65.921875 
Q 24.65625 65.921875 20.015625 65.03125 
Q 15.375 64.15625 9.8125 62.3125 
L 9.8125 71.09375 
Q 15.4375 72.65625 20.34375 73.4375 
Q 25.25 74.21875 29.59375 74.21875 
Q 40.828125 74.21875 47.359375 69.109375 
Q 53.90625 64.015625 53.90625 55.328125 
Q 53.90625 49.265625 50.4375 45.09375 
Q 46.96875 40.921875 40.578125 39.3125 
z
" id="DejaVuSans-51"/>
     </defs>
     <use xlink:href="#DejaVuSans-51"/>
    </g>
   </g>
   <g id="text_24">
    <!-- 23 -->
    <g transform="translate(1017.016348 44.078125)scale(0.1 -0.1)">
     <use xlink:href="#DejaVuSans-50"/>
     <use x="63.623047" xlink:href="#DejaVuSans-51"/>
    </g>
   </g>
   <g id="text_25">
    <!-- Times of optimal F1-Score -->
    <g transform="translate(520.369687 16.318125)scale(0.12 -0.12)">
     <defs>
      <path id="DejaVuSans-32"/>
      <path d="M 30.609375 48.390625 
Q 23.390625 48.390625 19.1875 42.75 
Q 14.984375 37.109375 14.984375 27.296875 
Q 14.984375 17.484375 19.15625 11.84375 
Q 23.34375 6.203125 30.609375 6.203125 
Q 37.796875 6.203125 41.984375 11.859375 
Q 46.1875 17.53125 46.1875 27.296875 
Q 46.1875 37.015625 41.984375 42.703125 
Q 37.796875 48.390625 30.609375 48.390625 
z
M 30.609375 56 
Q 42.328125 56 49.015625 48.375 
Q 55.71875 40.765625 55.71875 27.296875 
Q 55.71875 13.875 49.015625 6.21875 
Q 42.328125 -1.421875 30.609375 -1.421875 
Q 18.84375 -1.421875 12.171875 6.21875 
Q 5.515625 13.875 5.515625 27.296875 
Q 5.515625 40.765625 12.171875 48.375 
Q 18.84375 56 30.609375 56 
z
" id="DejaVuSans-111"/>
      <path d="M 37.109375 75.984375 
L 37.109375 68.5 
L 28.515625 68.5 
Q 23.6875 68.5 21.796875 66.546875 
Q 19.921875 64.59375 19.921875 59.515625 
L 19.921875 54.6875 
L 34.71875 54.6875 
L 34.71875 47.703125 
L 19.921875 47.703125 
L 19.921875 0 
L 10.890625 0 
L 10.890625 47.703125 
L 2.296875 47.703125 
L 2.296875 54.6875 
L 10.890625 54.6875 
L 10.890625 58.5 
Q 10.890625 67.625 15.140625 71.796875 
Q 19.390625 75.984375 28.609375 75.984375 
z
" id="DejaVuSans-102"/>
      <path d="M 18.109375 8.203125 
L 18.109375 -20.796875 
L 9.078125 -20.796875 
L 9.078125 54.6875 
L 18.109375 54.6875 
L 18.109375 46.390625 
Q 20.953125 51.265625 25.265625 53.625 
Q 29.59375 56 35.59375 56 
Q 45.5625 56 51.78125 48.09375 
Q 58.015625 40.1875 58.015625 27.296875 
Q 58.015625 14.40625 51.78125 6.484375 
Q 45.5625 -1.421875 35.59375 -1.421875 
Q 29.59375 -1.421875 25.265625 0.953125 
Q 20.953125 3.328125 18.109375 8.203125 
z
M 48.6875 27.296875 
Q 48.6875 37.203125 44.609375 42.84375 
Q 40.53125 48.484375 33.40625 48.484375 
Q 26.265625 48.484375 22.1875 42.84375 
Q 18.109375 37.203125 18.109375 27.296875 
Q 18.109375 17.390625 22.1875 11.75 
Q 26.265625 6.109375 33.40625 6.109375 
Q 40.53125 6.109375 44.609375 11.75 
Q 48.6875 17.390625 48.6875 27.296875 
z
" id="DejaVuSans-112"/>
      <path d="M 34.28125 27.484375 
Q 23.390625 27.484375 19.1875 25 
Q 14.984375 22.515625 14.984375 16.5 
Q 14.984375 11.71875 18.140625 8.90625 
Q 21.296875 6.109375 26.703125 6.109375 
Q 34.1875 6.109375 38.703125 11.40625 
Q 43.21875 16.703125 43.21875 25.484375 
L 43.21875 27.484375 
z
M 52.203125 31.203125 
L 52.203125 0 
L 43.21875 0 
L 43.21875 8.296875 
Q 40.140625 3.328125 35.546875 0.953125 
Q 30.953125 -1.421875 24.3125 -1.421875 
Q 15.921875 -1.421875 10.953125 3.296875 
Q 6 8.015625 6 15.921875 
Q 6 25.140625 12.171875 29.828125 
Q 18.359375 34.515625 30.609375 34.515625 
L 43.21875 34.515625 
L 43.21875 35.40625 
Q 43.21875 41.609375 39.140625 45 
Q 35.0625 48.390625 27.6875 48.390625 
Q 23 48.390625 18.546875 47.265625 
Q 14.109375 46.140625 10.015625 43.890625 
L 10.015625 52.203125 
Q 14.9375 54.109375 19.578125 55.046875 
Q 24.21875 56 28.609375 56 
Q 40.484375 56 46.34375 49.84375 
Q 52.203125 43.703125 52.203125 31.203125 
z
" id="DejaVuSans-97"/>
      <path d="M 9.421875 75.984375 
L 18.40625 75.984375 
L 18.40625 0 
L 9.421875 0 
z
" id="DejaVuSans-108"/>
      <path d="M 9.8125 72.90625 
L 51.703125 72.90625 
L 51.703125 64.59375 
L 19.671875 64.59375 
L 19.671875 43.109375 
L 48.578125 43.109375 
L 48.578125 34.8125 
L 19.671875 34.8125 
L 19.671875 0 
L 9.8125 0 
z
" id="DejaVuSans-70"/>
      <path d="M 48.78125 52.59375 
L 48.78125 44.1875 
Q 44.96875 46.296875 41.140625 47.34375 
Q 37.3125 48.390625 33.40625 48.390625 
Q 24.65625 48.390625 19.8125 42.84375 
Q 14.984375 37.3125 14.984375 27.296875 
Q 14.984375 17.28125 19.8125 11.734375 
Q 24.65625 6.203125 33.40625 6.203125 
Q 37.3125 6.203125 41.140625 7.25 
Q 44.96875 8.296875 48.78125 10.40625 
L 48.78125 2.09375 
Q 45.015625 0.34375 40.984375 -0.53125 
Q 36.96875 -1.421875 32.421875 -1.421875 
Q 20.0625 -1.421875 12.78125 6.34375 
Q 5.515625 14.109375 5.515625 27.296875 
Q 5.515625 40.671875 12.859375 48.328125 
Q 20.21875 56 33.015625 56 
Q 37.15625 56 41.109375 55.140625 
Q 45.0625 54.296875 48.78125 52.59375 
z
" id="DejaVuSans-99"/>
      <path d="M 41.109375 46.296875 
Q 39.59375 47.171875 37.8125 47.578125 
Q 36.03125 48 33.890625 48 
Q 26.265625 48 22.1875 43.046875 
Q 18.109375 38.09375 18.109375 28.8125 
L 18.109375 0 
L 9.078125 0 
L 9.078125 54.6875 
L 18.109375 54.6875 
L 18.109375 46.1875 
Q 20.953125 51.171875 25.484375 53.578125 
Q 30.03125 56 36.53125 56 
Q 37.453125 56 38.578125 55.875 
Q 39.703125 55.765625 41.0625 55.515625 
z
" id="DejaVuSans-114"/>
     </defs>
     <use xlink:href="#DejaVuSans-84"/>
     <use x="57.958984" xlink:href="#DejaVuSans-105"/>
     <use x="85.742188" xlink:href="#DejaVuSans-109"/>
     <use x="183.154297" xlink:href="#DejaVuSans-101"/>
     <use x="244.677734" xlink:href="#DejaVuSans-115"/>
     <use x="296.777344" xlink:href="#DejaVuSans-32"/>
     <use x="328.564453" xlink:href="#DejaVuSans-111"/>
     <use x="389.746094" xlink:href="#DejaVuSans-102"/>
     <use x="424.951172" xlink:href="#DejaVuSans-32"/>
     <use x="456.738281" xlink:href="#DejaVuSans-111"/>
     <use x="517.919922" xlink:href="#DejaVuSans-112"/>
     <use x="581.396484" xlink:href="#DejaVuSans-116"/>
     <use x="620.605469" xlink:href="#DejaVuSans-105"/>
     <use x="648.388672" xlink:href="#DejaVuSans-109"/>
     <use x="745.800781" xlink:href="#DejaVuSans-97"/>
     <use x="807.080078" xlink:href="#DejaVuSans-108"/>
     <use x="834.863281" xlink:href="#DejaVuSans-32"/>
     <use x="866.650391" xlink:href="#DejaVuSans-70"/>
     <use x="924.169922" xlink:href="#DejaVuSans-49"/>
     <use x="987.792969" xlink:href="#DejaVuSans-45"/>
     <use x="1023.876953" xlink:href="#DejaVuSans-83"/>
     <use x="1087.353516" xlink:href="#DejaVuSans-99"/>
     <use x="1142.333984" xlink:href="#DejaVuSans-111"/>
     <use x="1203.515625" xlink:href="#DejaVuSans-114"/>
     <use x="1242.378906" xlink:href="#DejaVuSans-101"/>
    </g>
   </g>
   <g id="patch_7">
    <path clip-path="url(#pb382258e5e)" d="M 91.330398 521.278125 
L 245.049406 521.278125 
L 245.049406 521.278125 
L 91.330398 521.278125 
z
" style="fill:url(#h656aa2ca48);stroke:#000000;stroke-linejoin:miter;"/>
   </g>
   <g id="patch_8">
    <path clip-path="url(#pb382258e5e)" d="M 306.537009 521.278125 
L 460.256018 521.278125 
L 460.256018 479.956386 
L 306.537009 479.956386 
z
" style="fill:url(#h16cf10899d);stroke:#000000;stroke-linejoin:miter;"/>
   </g>
   <g id="patch_9">
    <path clip-path="url(#pb382258e5e)" d="M 521.743621 521.278125 
L 675.462629 521.278125 
L 675.462629 521.278125 
L 521.743621 521.278125 
z
" style="fill:url(#hc59225b200);stroke:#000000;stroke-linejoin:miter;"/>
   </g>
   <g id="patch_10">
    <path clip-path="url(#pb382258e5e)" d="M 736.950232 521.278125 
L 890.669241 521.278125 
L 890.669241 459.295516 
L 736.950232 459.295516 
z
" style="fill:url(#h002c133670);stroke:#000000;stroke-linejoin:miter;"/>
   </g>
   <g id="patch_11">
    <path clip-path="url(#pb382258e5e)" d="M 952.156844 521.278125 
L 1105.875852 521.278125 
L 1105.875852 46.078125 
L 952.156844 46.078125 
z
" style="fill:url(#h5741ed8956);stroke:#000000;stroke-linejoin:miter;"/>
   </g>
  </g>
 </g>
 <defs>
  <clipPath id="pb382258e5e">
   <rect height="498.96" width="1116" x="40.603125" y="22.318125"/>
  </clipPath>
 </defs>
 <defs>
  <pattern height="72" id="h656aa2ca48" patternUnits="userSpaceOnUse" width="72" x="0" y="0">
   <rect fill="#ffffff" height="73" width="73" x="0" y="0"/>
   <path d="M 0 66 
L 72 66 
M 0 54 
L 72 54 
M 0 42 
L 72 42 
M 0 30 
L 72 30 
M 0 18 
L 72 18 
M 0 6 
L 72 6 
" style="fill:#000000;stroke:#000000;stroke-linecap:butt;stroke-linejoin:miter;stroke-width:1.0;"/>
  </pattern>
  <pattern height="72" id="h16cf10899d" patternUnits="userSpaceOnUse" width="72" x="0" y="0">
   <rect fill="#ffffff" height="73" width="73" x="0" y="0"/>
   <path d="M 0 66 
L 72 66 
M 0 54 
L 72 54 
M 0 42 
L 72 42 
M 0 30 
L 72 30 
M 0 18 
L 72 18 
M 0 6 
L 72 6 
M 6 72 
L 6 0 
M 18 72 
L 18 0 
M 30 72 
L 30 0 
M 42 72 
L 42 0 
M 54 72 
L 54 0 
M 66 72 
L 66 0 
" style="fill:#000000;stroke:#000000;stroke-linecap:butt;stroke-linejoin:miter;stroke-width:1.0;"/>
  </pattern>
  <pattern height="72" id="hc59225b200" patternUnits="userSpaceOnUse" width="72" x="0" y="0">
   <rect fill="#ffffff" height="73" width="73" x="0" y="0"/>
   <path d="M -36 36 
L 36 -36 
M -24 48 
L 48 -24 
M -12 60 
L 60 -12 
M 0 72 
L 72 0 
M 12 84 
L 84 12 
M 24 96 
L 96 24 
M 36 108 
L 108 36 
M -36 36 
L 36 108 
M -24 24 
L 48 96 
M -12 12 
L 60 84 
M 0 0 
L 72 72 
M 12 -12 
L 84 60 
M 24 -24 
L 96 48 
M 36 -36 
L 108 36 
" style="fill:#000000;stroke:#000000;stroke-linecap:butt;stroke-linejoin:miter;stroke-width:1.0;"/>
  </pattern>
  <pattern height="72" id="h002c133670" patternUnits="userSpaceOnUse" width="72" x="0" y="0">
   <rect fill="#ffffff" height="73" width="73" x="0" y="0"/>
   <path d="M -36 36 
L 36 108 
M -24 24 
L 48 96 
M -12 12 
L 60 84 
M 0 0 
L 72 72 
M 12 -12 
L 84 60 
M 24 -24 
L 96 48 
M 36 -36 
L 108 36 
" style="fill:#000000;stroke:#000000;stroke-linecap:butt;stroke-linejoin:miter;stroke-width:1.0;"/>
  </pattern>
  <pattern height="72" id="h5741ed8956" patternUnits="userSpaceOnUse" width="72" x="0" y="0">
   <rect fill="#ffffff" height="73" width="73" x="0" y="0"/>
   <path d="M 0 68 
L -1.175571 70.381966 
L -3.804226 70.763932 
L -1.902113 72.618034 
L -2.351141 75.236068 
L -0 74 
L 2.351141 75.236068 
L 1.902113 72.618034 
L 3.804226 70.763932 
L 1.175571 70.381966 
L 0 68 
M 12 68 
L 10.824429 70.381966 
L 8.195774 70.763932 
L 10.097887 72.618034 
L 9.648859 75.236068 
L 12 74 
L 14.351141 75.236068 
L 13.902113 72.618034 
L 15.804226 70.763932 
L 13.175571 70.381966 
L 12 68 
M 24 68 
L 22.824429 70.381966 
L 20.195774 70.763932 
L 22.097887 72.618034 
L 21.648859 75.236068 
L 24 74 
L 26.351141 75.236068 
L 25.902113 72.618034 
L 27.804226 70.763932 
L 25.175571 70.381966 
L 24 68 
M 36 68 
L 34.824429 70.381966 
L 32.195774 70.763932 
L 34.097887 72.618034 
L 33.648859 75.236068 
L 36 74 
L 38.351141 75.236068 
L 37.902113 72.618034 
L 39.804226 70.763932 
L 37.175571 70.381966 
L 36 68 
M 48 68 
L 46.824429 70.381966 
L 44.195774 70.763932 
L 46.097887 72.618034 
L 45.648859 75.236068 
L 48 74 
L 50.351141 75.236068 
L 49.902113 72.618034 
L 51.804226 70.763932 
L 49.175571 70.381966 
L 48 68 
M 60 68 
L 58.824429 70.381966 
L 56.195774 70.763932 
L 58.097887 72.618034 
L 57.648859 75.236068 
L 60 74 
L 62.351141 75.236068 
L 61.902113 72.618034 
L 63.804226 70.763932 
L 61.175571 70.381966 
L 60 68 
M 72 68 
L 70.824429 70.381966 
L 68.195774 70.763932 
L 70.097887 72.618034 
L 69.648859 75.236068 
L 72 74 
L 74.351141 75.236068 
L 73.902113 72.618034 
L 75.804226 70.763932 
L 73.175571 70.381966 
L 72 68 
M 6 56 
L 4.824429 58.381966 
L 2.195774 58.763932 
L 4.097887 60.618034 
L 3.648859 63.236068 
L 6 62 
L 8.351141 63.236068 
L 7.902113 60.618034 
L 9.804226 58.763932 
L 7.175571 58.381966 
L 6 56 
M 18 56 
L 16.824429 58.381966 
L 14.195774 58.763932 
L 16.097887 60.618034 
L 15.648859 63.236068 
L 18 62 
L 20.351141 63.236068 
L 19.902113 60.618034 
L 21.804226 58.763932 
L 19.175571 58.381966 
L 18 56 
M 30 56 
L 28.824429 58.381966 
L 26.195774 58.763932 
L 28.097887 60.618034 
L 27.648859 63.236068 
L 30 62 
L 32.351141 63.236068 
L 31.902113 60.618034 
L 33.804226 58.763932 
L 31.175571 58.381966 
L 30 56 
M 42 56 
L 40.824429 58.381966 
L 38.195774 58.763932 
L 40.097887 60.618034 
L 39.648859 63.236068 
L 42 62 
L 44.351141 63.236068 
L 43.902113 60.618034 
L 45.804226 58.763932 
L 43.175571 58.381966 
L 42 56 
M 54 56 
L 52.824429 58.381966 
L 50.195774 58.763932 
L 52.097887 60.618034 
L 51.648859 63.236068 
L 54 62 
L 56.351141 63.236068 
L 55.902113 60.618034 
L 57.804226 58.763932 
L 55.175571 58.381966 
L 54 56 
M 66 56 
L 64.824429 58.381966 
L 62.195774 58.763932 
L 64.097887 60.618034 
L 63.648859 63.236068 
L 66 62 
L 68.351141 63.236068 
L 67.902113 60.618034 
L 69.804226 58.763932 
L 67.175571 58.381966 
L 66 56 
M 0 44 
L -1.175571 46.381966 
L -3.804226 46.763932 
L -1.902113 48.618034 
L -2.351141 51.236068 
L -0 50 
L 2.351141 51.236068 
L 1.902113 48.618034 
L 3.804226 46.763932 
L 1.175571 46.381966 
L 0 44 
M 12 44 
L 10.824429 46.381966 
L 8.195774 46.763932 
L 10.097887 48.618034 
L 9.648859 51.236068 
L 12 50 
L 14.351141 51.236068 
L 13.902113 48.618034 
L 15.804226 46.763932 
L 13.175571 46.381966 
L 12 44 
M 24 44 
L 22.824429 46.381966 
L 20.195774 46.763932 
L 22.097887 48.618034 
L 21.648859 51.236068 
L 24 50 
L 26.351141 51.236068 
L 25.902113 48.618034 
L 27.804226 46.763932 
L 25.175571 46.381966 
L 24 44 
M 36 44 
L 34.824429 46.381966 
L 32.195774 46.763932 
L 34.097887 48.618034 
L 33.648859 51.236068 
L 36 50 
L 38.351141 51.236068 
L 37.902113 48.618034 
L 39.804226 46.763932 
L 37.175571 46.381966 
L 36 44 
M 48 44 
L 46.824429 46.381966 
L 44.195774 46.763932 
L 46.097887 48.618034 
L 45.648859 51.236068 
L 48 50 
L 50.351141 51.236068 
L 49.902113 48.618034 
L 51.804226 46.763932 
L 49.175571 46.381966 
L 48 44 
M 60 44 
L 58.824429 46.381966 
L 56.195774 46.763932 
L 58.097887 48.618034 
L 57.648859 51.236068 
L 60 50 
L 62.351141 51.236068 
L 61.902113 48.618034 
L 63.804226 46.763932 
L 61.175571 46.381966 
L 60 44 
M 72 44 
L 70.824429 46.381966 
L 68.195774 46.763932 
L 70.097887 48.618034 
L 69.648859 51.236068 
L 72 50 
L 74.351141 51.236068 
L 73.902113 48.618034 
L 75.804226 46.763932 
L 73.175571 46.381966 
L 72 44 
M 6 32 
L 4.824429 34.381966 
L 2.195774 34.763932 
L 4.097887 36.618034 
L 3.648859 39.236068 
L 6 38 
L 8.351141 39.236068 
L 7.902113 36.618034 
L 9.804226 34.763932 
L 7.175571 34.381966 
L 6 32 
M 18 32 
L 16.824429 34.381966 
L 14.195774 34.763932 
L 16.097887 36.618034 
L 15.648859 39.236068 
L 18 38 
L 20.351141 39.236068 
L 19.902113 36.618034 
L 21.804226 34.763932 
L 19.175571 34.381966 
L 18 32 
M 30 32 
L 28.824429 34.381966 
L 26.195774 34.763932 
L 28.097887 36.618034 
L 27.648859 39.236068 
L 30 38 
L 32.351141 39.236068 
L 31.902113 36.618034 
L 33.804226 34.763932 
L 31.175571 34.381966 
L 30 32 
M 42 32 
L 40.824429 34.381966 
L 38.195774 34.763932 
L 40.097887 36.618034 
L 39.648859 39.236068 
L 42 38 
L 44.351141 39.236068 
L 43.902113 36.618034 
L 45.804226 34.763932 
L 43.175571 34.381966 
L 42 32 
M 54 32 
L 52.824429 34.381966 
L 50.195774 34.763932 
L 52.097887 36.618034 
L 51.648859 39.236068 
L 54 38 
L 56.351141 39.236068 
L 55.902113 36.618034 
L 57.804226 34.763932 
L 55.175571 34.381966 
L 54 32 
M 66 32 
L 64.824429 34.381966 
L 62.195774 34.763932 
L 64.097887 36.618034 
L 63.648859 39.236068 
L 66 38 
L 68.351141 39.236068 
L 67.902113 36.618034 
L 69.804226 34.763932 
L 67.175571 34.381966 
L 66 32 
M 0 20 
L -1.175571 22.381966 
L -3.804226 22.763932 
L -1.902113 24.618034 
L -2.351141 27.236068 
L -0 26 
L 2.351141 27.236068 
L 1.902113 24.618034 
L 3.804226 22.763932 
L 1.175571 22.381966 
L 0 20 
M 12 20 
L 10.824429 22.381966 
L 8.195774 22.763932 
L 10.097887 24.618034 
L 9.648859 27.236068 
L 12 26 
L 14.351141 27.236068 
L 13.902113 24.618034 
L 15.804226 22.763932 
L 13.175571 22.381966 
L 12 20 
M 24 20 
L 22.824429 22.381966 
L 20.195774 22.763932 
L 22.097887 24.618034 
L 21.648859 27.236068 
L 24 26 
L 26.351141 27.236068 
L 25.902113 24.618034 
L 27.804226 22.763932 
L 25.175571 22.381966 
L 24 20 
M 36 20 
L 34.824429 22.381966 
L 32.195774 22.763932 
L 34.097887 24.618034 
L 33.648859 27.236068 
L 36 26 
L 38.351141 27.236068 
L 37.902113 24.618034 
L 39.804226 22.763932 
L 37.175571 22.381966 
L 36 20 
M 48 20 
L 46.824429 22.381966 
L 44.195774 22.763932 
L 46.097887 24.618034 
L 45.648859 27.236068 
L 48 26 
L 50.351141 27.236068 
L 49.902113 24.618034 
L 51.804226 22.763932 
L 49.175571 22.381966 
L 48 20 
M 60 20 
L 58.824429 22.381966 
L 56.195774 22.763932 
L 58.097887 24.618034 
L 57.648859 27.236068 
L 60 26 
L 62.351141 27.236068 
L 61.902113 24.618034 
L 63.804226 22.763932 
L 61.175571 22.381966 
L 60 20 
M 72 20 
L 70.824429 22.381966 
L 68.195774 22.763932 
L 70.097887 24.618034 
L 69.648859 27.236068 
L 72 26 
L 74.351141 27.236068 
L 73.902113 24.618034 
L 75.804226 22.763932 
L 73.175571 22.381966 
L 72 20 
M 6 8 
L 4.824429 10.381966 
L 2.195774 10.763932 
L 4.097887 12.618034 
L 3.648859 15.236068 
L 6 14 
L 8.351141 15.236068 
L 7.902113 12.618034 
L 9.804226 10.763932 
L 7.175571 10.381966 
L 6 8 
M 18 8 
L 16.824429 10.381966 
L 14.195774 10.763932 
L 16.097887 12.618034 
L 15.648859 15.236068 
L 18 14 
L 20.351141 15.236068 
L 19.902113 12.618034 
L 21.804226 10.763932 
L 19.175571 10.381966 
L 18 8 
M 30 8 
L 28.824429 10.381966 
L 26.195774 10.763932 
L 28.097887 12.618034 
L 27.648859 15.236068 
L 30 14 
L 32.351141 15.236068 
L 31.902113 12.618034 
L 33.804226 10.763932 
L 31.175571 10.381966 
L 30 8 
M 42 8 
L 40.824429 10.381966 
L 38.195774 10.763932 
L 40.097887 12.618034 
L 39.648859 15.236068 
L 42 14 
L 44.351141 15.236068 
L 43.902113 12.618034 
L 45.804226 10.763932 
L 43.175571 10.381966 
L 42 8 
M 54 8 
L 52.824429 10.381966 
L 50.195774 10.763932 
L 52.097887 12.618034 
L 51.648859 15.236068 
L 54 14 
L 56.351141 15.236068 
L 55.902113 12.618034 
L 57.804226 10.763932 
L 55.175571 10.381966 
L 54 8 
M 66 8 
L 64.824429 10.381966 
L 62.195774 10.763932 
L 64.097887 12.618034 
L 63.648859 15.236068 
L 66 14 
L 68.351141 15.236068 
L 67.902113 12.618034 
L 69.804226 10.763932 
L 67.175571 10.381966 
L 66 8 
M 0 -4 
L -1.175571 -1.618034 
L -3.804226 -1.236068 
L -1.902113 0.618034 
L -2.351141 3.236068 
L -0 2 
L 2.351141 3.236068 
L 1.902113 0.618034 
L 3.804226 -1.236068 
L 1.175571 -1.618034 
L 0 -4 
M 12 -4 
L 10.824429 -1.618034 
L 8.195774 -1.236068 
L 10.097887 0.618034 
L 9.648859 3.236068 
L 12 2 
L 14.351141 3.236068 
L 13.902113 0.618034 
L 15.804226 -1.236068 
L 13.175571 -1.618034 
L 12 -4 
M 24 -4 
L 22.824429 -1.618034 
L 20.195774 -1.236068 
L 22.097887 0.618034 
L 21.648859 3.236068 
L 24 2 
L 26.351141 3.236068 
L 25.902113 0.618034 
L 27.804226 -1.236068 
L 25.175571 -1.618034 
L 24 -4 
M 36 -4 
L 34.824429 -1.618034 
L 32.195774 -1.236068 
L 34.097887 0.618034 
L 33.648859 3.236068 
L 36 2 
L 38.351141 3.236068 
L 37.902113 0.618034 
L 39.804226 -1.236068 
L 37.175571 -1.618034 
L 36 -4 
M 48 -4 
L 46.824429 -1.618034 
L 44.195774 -1.236068 
L 46.097887 0.618034 
L 45.648859 3.236068 
L 48 2 
L 50.351141 3.236068 
L 49.902113 0.618034 
L 51.804226 -1.236068 
L 49.175571 -1.618034 
L 48 -4 
M 60 -4 
L 58.824429 -1.618034 
L 56.195774 -1.236068 
L 58.097887 0.618034 
L 57.648859 3.236068 
L 60 2 
L 62.351141 3.236068 
L 61.902113 0.618034 
L 63.804226 -1.236068 
L 61.175571 -1.618034 
L 60 -4 
M 72 -4 
L 70.824429 -1.618034 
L 68.195774 -1.236068 
L 70.097887 0.618034 
L 69.648859 3.236068 
L 72 2 
L 74.351141 3.236068 
L 73.902113 0.618034 
L 75.804226 -1.236068 
L 73.175571 -1.618034 
L 72 -4 
" style="fill:#000000;stroke:#000000;stroke-linecap:butt;stroke-linejoin:miter;stroke-width:1.0;"/>
  </pattern>
 </defs>
</svg>
